G04 #@! TF.FileFunction,Paste,Top*
%FSLAX46Y46*%
G04 Gerber Fmt 4.6, Leading zero omitted, Abs format (unit mm)*
G04 Created by KiCad (PCBNEW 4.0.1-2.201512121406+6195~38~ubuntu14.04.1-stable) date Sun 03 Jul 2016 07:38:07 PM CEST*
%MOMM*%
G01*
G04 APERTURE LIST*
%ADD10C,0.100000*%
%ADD11R,1.050800X1.650800*%
%ADD12R,1.300800X1.050800*%
%ADD13R,1.650800X1.050800*%
%ADD14R,1.651000X2.651760*%
%ADD15R,1.050800X1.300800*%
%ADD16R,2.743200X1.041400*%
%ADD17R,1.041400X2.743200*%
%ADD18R,0.750800X1.350800*%
%ADD19R,2.159000X2.159000*%
%ADD20R,3.708400X2.082800*%
%ADD21R,1.066800X2.082800*%
%ADD22R,1.249680X1.249680*%
%ADD23R,1.350800X0.750800*%
%ADD24R,0.300800X1.600800*%
%ADD25R,7.850800X3.450800*%
G04 APERTURE END LIST*
D10*
D11*
X100227000Y-88265000D03*
X103227000Y-88265000D03*
X117959000Y-84455000D03*
X114959000Y-84455000D03*
D12*
X153543000Y-89773000D03*
X153543000Y-87773000D03*
X155956000Y-85741000D03*
X155956000Y-87741000D03*
D13*
X142748000Y-94258000D03*
X142748000Y-97258000D03*
D14*
X124333000Y-88414860D03*
X124333000Y-84813140D03*
D13*
X141732000Y-116435000D03*
X141732000Y-113435000D03*
X146431000Y-94258000D03*
X146431000Y-97258000D03*
D12*
X155956000Y-91805000D03*
X155956000Y-89805000D03*
D15*
X151241000Y-121285000D03*
X149241000Y-121285000D03*
D12*
X155956000Y-122698000D03*
X155956000Y-124698000D03*
D15*
X138033000Y-99822000D03*
X136033000Y-99822000D03*
X138033000Y-102108000D03*
X136033000Y-102108000D03*
X137906000Y-109982000D03*
X135906000Y-109982000D03*
X137906000Y-107696000D03*
X135906000Y-107696000D03*
D12*
X155956000Y-120634000D03*
X155956000Y-118634000D03*
D15*
X154321000Y-108585000D03*
X156321000Y-108585000D03*
D12*
X154813000Y-100981000D03*
X154813000Y-102981000D03*
D15*
X154797000Y-96774000D03*
X152797000Y-96774000D03*
D16*
X149860000Y-84632800D03*
X149860000Y-86817200D03*
X149860000Y-91008200D03*
X149860000Y-88823800D03*
D17*
X147116800Y-117729000D03*
X149301200Y-117729000D03*
X153619200Y-117729000D03*
X151434800Y-117729000D03*
D18*
X114869000Y-87503000D03*
X112969000Y-87503000D03*
X156144000Y-110871000D03*
X154244000Y-110871000D03*
X154117000Y-106299000D03*
X156017000Y-106299000D03*
D19*
X115684300Y-124548900D03*
X106565700Y-124548900D03*
X115684300Y-120053100D03*
X106565700Y-120053100D03*
D20*
X115062000Y-97028000D03*
D21*
X115062000Y-90424000D03*
X112776000Y-90424000D03*
X117348000Y-90424000D03*
D22*
X121158000Y-91787980D03*
X121158000Y-93886020D03*
D23*
X123444000Y-94168000D03*
X123444000Y-92268000D03*
D24*
X141713000Y-107448000D03*
X142363000Y-107448000D03*
X143013000Y-107448000D03*
X143663000Y-107448000D03*
X144313000Y-107448000D03*
X144963000Y-107448000D03*
X145613000Y-107448000D03*
X146263000Y-107448000D03*
X146913000Y-107448000D03*
X147563000Y-107448000D03*
X148213000Y-107448000D03*
X148863000Y-107448000D03*
X148863000Y-101848000D03*
X148213000Y-101848000D03*
X147563000Y-101848000D03*
X146913000Y-101848000D03*
X146263000Y-101848000D03*
X145613000Y-101848000D03*
X144963000Y-101848000D03*
X144313000Y-101848000D03*
X143663000Y-101848000D03*
X143013000Y-101848000D03*
X142363000Y-101848000D03*
X141713000Y-101848000D03*
D25*
X145288000Y-104648000D03*
M02*
