G04 #@! TF.FileFunction,Copper,L2,Bot,Signal*
%FSLAX46Y46*%
G04 Gerber Fmt 4.6, Leading zero omitted, Abs format (unit mm)*
G04 Created by KiCad (PCBNEW 4.0.0-2.201512072331+6194~38~ubuntu14.04.1-stable) date Tue 05 Jul 2016 05:48:41 PM CEST*
%MOMM*%
G01*
G04 APERTURE LIST*
%ADD10C,0.100000*%
%ADD11C,0.685800*%
%ADD12C,3.810000*%
%ADD13C,3.048000*%
%ADD14R,2.032000X2.032000*%
%ADD15O,2.032000X2.032000*%
%ADD16C,2.000000*%
%ADD17R,7.800000X3.400000*%
%ADD18C,0.508000*%
%ADD19C,1.371600*%
%ADD20C,0.609600*%
%ADD21C,0.152400*%
%ADD22C,1.219200*%
%ADD23C,0.304800*%
G04 APERTURE END LIST*
D10*
D11*
X151130000Y-91440000D03*
X151130000Y-83820000D03*
X148590000Y-83820000D03*
X146050000Y-86360000D03*
X143510000Y-86360000D03*
X146050000Y-83820000D03*
D12*
X101600000Y-116840000D03*
X106095800Y-111836200D03*
X106095800Y-121843800D03*
D13*
X106095800Y-116840000D03*
D11*
X161290000Y-127000000D03*
X158750000Y-127000000D03*
X156210000Y-127000000D03*
X153670000Y-127000000D03*
X151130000Y-127000000D03*
X148590000Y-127000000D03*
X146050000Y-127000000D03*
X143510000Y-127000000D03*
X140970000Y-127000000D03*
X138430000Y-127000000D03*
X135890000Y-127000000D03*
X133350000Y-127000000D03*
X130810000Y-127000000D03*
X128270000Y-127000000D03*
X125730000Y-127000000D03*
X123190000Y-127000000D03*
X120650000Y-127000000D03*
X118110000Y-127000000D03*
X115570000Y-127000000D03*
X113030000Y-127000000D03*
X110490000Y-127000000D03*
X107950000Y-127000000D03*
X105410000Y-127000000D03*
X102870000Y-127000000D03*
X100330000Y-127000000D03*
X148590000Y-124460000D03*
X146050000Y-124460000D03*
X143510000Y-124460000D03*
X140970000Y-124460000D03*
X138430000Y-124460000D03*
X135890000Y-124460000D03*
X133350000Y-124460000D03*
X130810000Y-124460000D03*
X128270000Y-124460000D03*
X125730000Y-124460000D03*
X123190000Y-124460000D03*
X120650000Y-124460000D03*
X118110000Y-124460000D03*
X115570000Y-124460000D03*
X113030000Y-124460000D03*
X110490000Y-124460000D03*
X107950000Y-124460000D03*
X105410000Y-124460000D03*
X102870000Y-124460000D03*
X100330000Y-124460000D03*
X146050000Y-121920000D03*
X143510000Y-121920000D03*
X140970000Y-121920000D03*
X138430000Y-121920000D03*
X135890000Y-121920000D03*
X133350000Y-121920000D03*
X130810000Y-121920000D03*
X125730000Y-121920000D03*
X123190000Y-121920000D03*
X115570000Y-121920000D03*
X113030000Y-121920000D03*
X110490000Y-121920000D03*
X100330000Y-121920000D03*
X143510000Y-119380000D03*
X140970000Y-119380000D03*
X138430000Y-119380000D03*
X135890000Y-119380000D03*
X133350000Y-119380000D03*
X128270000Y-119380000D03*
X125730000Y-119380000D03*
X123190000Y-119380000D03*
X120650000Y-119380000D03*
X118110000Y-119380000D03*
X115570000Y-119380000D03*
X113030000Y-119380000D03*
X110490000Y-119380000D03*
X107950000Y-119380000D03*
X161290000Y-116840000D03*
X158750000Y-116840000D03*
X156210000Y-116840000D03*
X143510000Y-116840000D03*
X138430000Y-116840000D03*
X135890000Y-116840000D03*
X130810000Y-116840000D03*
X125730000Y-116840000D03*
X123190000Y-116840000D03*
X115570000Y-116840000D03*
X113030000Y-116840000D03*
X110490000Y-116840000D03*
X161290000Y-114300000D03*
X158750000Y-114300000D03*
X156210000Y-114300000D03*
X153670000Y-114300000D03*
X148590000Y-114300000D03*
X146050000Y-114300000D03*
X143510000Y-114300000D03*
X133350000Y-114300000D03*
X130810000Y-114300000D03*
X161290000Y-111760000D03*
X158750000Y-111760000D03*
X151130000Y-111760000D03*
X146050000Y-111760000D03*
X143510000Y-111760000D03*
X135890000Y-111760000D03*
X133350000Y-111760000D03*
X100330000Y-111760000D03*
X161290000Y-109220000D03*
X140970000Y-109220000D03*
X128270000Y-109220000D03*
X125730000Y-109220000D03*
X123190000Y-109220000D03*
X120650000Y-109220000D03*
X118110000Y-109220000D03*
X115570000Y-109220000D03*
X113030000Y-109220000D03*
X110490000Y-109220000D03*
X107950000Y-109220000D03*
X105410000Y-109220000D03*
X102870000Y-109220000D03*
X100330000Y-109220000D03*
X161290000Y-106680000D03*
X130810000Y-106680000D03*
X128270000Y-106680000D03*
X125730000Y-106680000D03*
X123190000Y-106680000D03*
X120650000Y-106680000D03*
X118110000Y-106680000D03*
X115570000Y-106680000D03*
X113030000Y-106680000D03*
X110490000Y-106680000D03*
X100330000Y-106680000D03*
X161290000Y-104140000D03*
X156210000Y-104140000D03*
X153670000Y-104140000D03*
X161290000Y-101600000D03*
X158750000Y-101600000D03*
X156210000Y-101600000D03*
X161290000Y-99060000D03*
X158750000Y-99060000D03*
X156210000Y-99060000D03*
X153670000Y-99060000D03*
X151130000Y-99060000D03*
X130810000Y-99060000D03*
X128270000Y-99060000D03*
X125730000Y-99060000D03*
X123190000Y-99060000D03*
X120650000Y-99060000D03*
X118110000Y-99060000D03*
X115570000Y-99060000D03*
X113030000Y-99060000D03*
X110490000Y-99060000D03*
X107950000Y-99060000D03*
X100330000Y-99060000D03*
X161290000Y-96520000D03*
X158750000Y-96520000D03*
X156210000Y-96520000D03*
X140970000Y-96520000D03*
X138430000Y-96520000D03*
X135890000Y-96520000D03*
X133350000Y-96520000D03*
X130810000Y-96520000D03*
X128270000Y-96520000D03*
X125730000Y-96520000D03*
X123190000Y-96520000D03*
X120650000Y-96520000D03*
X118110000Y-96520000D03*
X110490000Y-96520000D03*
X102870000Y-96520000D03*
X100330000Y-96520000D03*
X161290000Y-93980000D03*
X158750000Y-93980000D03*
X156210000Y-93980000D03*
X153670000Y-93980000D03*
X148590000Y-93980000D03*
X140970000Y-93980000D03*
X138430000Y-93980000D03*
X135890000Y-93980000D03*
X133350000Y-93980000D03*
X130810000Y-93980000D03*
X128270000Y-93980000D03*
X125730000Y-93980000D03*
X118110000Y-93980000D03*
X115570000Y-93980000D03*
X113030000Y-93980000D03*
X110490000Y-93980000D03*
X107950000Y-93980000D03*
X105410000Y-93980000D03*
X102870000Y-93980000D03*
X100330000Y-93980000D03*
X153670000Y-91440000D03*
X140970000Y-91440000D03*
X138430000Y-91440000D03*
X135890000Y-91440000D03*
X133350000Y-91440000D03*
X130810000Y-91440000D03*
X128270000Y-91440000D03*
X125730000Y-91440000D03*
X105410000Y-88900000D03*
X102870000Y-91440000D03*
X100330000Y-91440000D03*
X135890000Y-88900000D03*
X133350000Y-88900000D03*
X120650000Y-88900000D03*
X110490000Y-88900000D03*
X102870000Y-88900000D03*
X100330000Y-88900000D03*
X140970000Y-86360000D03*
X128270000Y-86360000D03*
X110490000Y-86360000D03*
X102870000Y-86360000D03*
X100330000Y-86360000D03*
X161290000Y-83820000D03*
X158750000Y-83820000D03*
X156210000Y-83820000D03*
X153670000Y-83820000D03*
X143510000Y-83820000D03*
X140970000Y-83820000D03*
X120650000Y-83820000D03*
X118110000Y-83820000D03*
X113030000Y-83820000D03*
X110490000Y-83820000D03*
X102870000Y-83820000D03*
D14*
X108331000Y-84963000D03*
D15*
X105791000Y-84963000D03*
D16*
X136358000Y-86106000D03*
X133858000Y-86106000D03*
X131358000Y-86106000D03*
D14*
X159766000Y-87630000D03*
D15*
X159766000Y-90170000D03*
D14*
X159385000Y-122936000D03*
D15*
X159385000Y-120396000D03*
D12*
X101600000Y-101600000D03*
X106095800Y-96596200D03*
X106095800Y-106603800D03*
D13*
X106095800Y-101600000D03*
D11*
X100330000Y-83820000D03*
D17*
X145288000Y-104648000D03*
D18*
X142038000Y-103598000D03*
X143338000Y-103598000D03*
X144638000Y-103598000D03*
X145938000Y-103598000D03*
X147238000Y-103598000D03*
X148538000Y-103598000D03*
X142038000Y-104648000D03*
X143338000Y-104648000D03*
X144638000Y-104648000D03*
X145938000Y-104648000D03*
X147238000Y-104648000D03*
X148538000Y-104648000D03*
X142038000Y-105698000D03*
X143338000Y-105698000D03*
X144638000Y-105698000D03*
X145938000Y-105698000D03*
X147238000Y-105698000D03*
X148538000Y-105698000D03*
D11*
X143637000Y-109093000D03*
X146939000Y-108966000D03*
X139446000Y-115443000D03*
D19*
X148844000Y-98679000D03*
D11*
X143764000Y-100330000D03*
X147066000Y-100330000D03*
X142875000Y-109474000D03*
X152908000Y-110871000D03*
X151130000Y-95250000D03*
D20*
X147066000Y-100330000D02*
X147193000Y-100330000D01*
X147193000Y-100330000D02*
X148844000Y-98679000D01*
X146939000Y-108966000D02*
X146304000Y-109601000D01*
X144145000Y-109601000D02*
X143637000Y-109093000D01*
X146304000Y-109601000D02*
X144145000Y-109601000D01*
X147193000Y-109220000D02*
X149225000Y-109220000D01*
X151003000Y-100838000D02*
X148844000Y-98679000D01*
X149225000Y-109220000D02*
X151003000Y-107442000D01*
X151003000Y-107442000D02*
X151003000Y-100838000D01*
X146939000Y-108966000D02*
X147193000Y-109220000D01*
D21*
X148844000Y-98552000D02*
X148844000Y-98679000D01*
D22*
X148844000Y-98552000D02*
X148844000Y-98806000D01*
X148844000Y-98679000D02*
X142367000Y-98679000D01*
X139446000Y-101600000D02*
X139446000Y-115443000D01*
X142367000Y-98679000D02*
X139446000Y-101600000D01*
X148844000Y-96520000D02*
X148844000Y-98679000D01*
X136358000Y-86106000D02*
X138430000Y-86106000D01*
X138430000Y-86106000D02*
X148844000Y-96520000D01*
D21*
X143764000Y-100330000D02*
X147066000Y-100330000D01*
D23*
X144272000Y-110871000D02*
X142875000Y-109474000D01*
X144272000Y-110871000D02*
X152908000Y-110871000D01*
X133858000Y-86106000D02*
X133858000Y-85725000D01*
X133858000Y-85725000D02*
X135001000Y-84582000D01*
X135001000Y-84582000D02*
X140462000Y-84582000D01*
X140462000Y-84582000D02*
X151130000Y-95250000D01*
D21*
G36*
X162891400Y-127585400D02*
X98855600Y-127585400D01*
X98855600Y-122266337D01*
X103961830Y-122266337D01*
X104285967Y-123050809D01*
X104885635Y-123651524D01*
X105669539Y-123977029D01*
X106518337Y-123977770D01*
X107302809Y-123653633D01*
X107903524Y-123053965D01*
X108229029Y-122270061D01*
X108229334Y-121920000D01*
X158135922Y-121920000D01*
X158135922Y-123952000D01*
X158151862Y-124036714D01*
X158201928Y-124114518D01*
X158278320Y-124166715D01*
X158369000Y-124185078D01*
X160401000Y-124185078D01*
X160485714Y-124169138D01*
X160563518Y-124119072D01*
X160615715Y-124042680D01*
X160634078Y-123952000D01*
X160634078Y-121920000D01*
X160618138Y-121835286D01*
X160568072Y-121757482D01*
X160491680Y-121705285D01*
X160401000Y-121686922D01*
X158369000Y-121686922D01*
X158284286Y-121702862D01*
X158206482Y-121752928D01*
X158154285Y-121829320D01*
X158135922Y-121920000D01*
X108229334Y-121920000D01*
X108229770Y-121421263D01*
X107905633Y-120636791D01*
X107665262Y-120396000D01*
X158116017Y-120396000D01*
X158210757Y-120872288D01*
X158480552Y-121276065D01*
X158884329Y-121545860D01*
X159360617Y-121640600D01*
X159409383Y-121640600D01*
X159885671Y-121545860D01*
X160289448Y-121276065D01*
X160559243Y-120872288D01*
X160653983Y-120396000D01*
X160559243Y-119919712D01*
X160289448Y-119515935D01*
X159885671Y-119246140D01*
X159409383Y-119151400D01*
X159360617Y-119151400D01*
X158884329Y-119246140D01*
X158480552Y-119515935D01*
X158210757Y-119919712D01*
X158116017Y-120396000D01*
X107665262Y-120396000D01*
X107305965Y-120036076D01*
X106522061Y-119710571D01*
X105673263Y-119709830D01*
X104888791Y-120033967D01*
X104288076Y-120633635D01*
X103962571Y-121417539D01*
X103961830Y-122266337D01*
X98855600Y-122266337D01*
X98855600Y-117262537D01*
X99466030Y-117262537D01*
X99790167Y-118047009D01*
X100389835Y-118647724D01*
X101173739Y-118973229D01*
X102022537Y-118973970D01*
X102807009Y-118649833D01*
X103407724Y-118050165D01*
X103733229Y-117266261D01*
X103733298Y-117187084D01*
X104342897Y-117187084D01*
X104609152Y-117831471D01*
X105101736Y-118324915D01*
X105745657Y-118592295D01*
X106442884Y-118592903D01*
X107087271Y-118326648D01*
X107580715Y-117834064D01*
X107848095Y-117190143D01*
X107848703Y-116492916D01*
X107582448Y-115848529D01*
X107089864Y-115355085D01*
X106445943Y-115087705D01*
X105748716Y-115087097D01*
X105104329Y-115353352D01*
X104610885Y-115845936D01*
X104343505Y-116489857D01*
X104342897Y-117187084D01*
X103733298Y-117187084D01*
X103733970Y-116417463D01*
X103409833Y-115632991D01*
X102810165Y-115032276D01*
X102026261Y-114706771D01*
X101177463Y-114706030D01*
X100392991Y-115030167D01*
X99792276Y-115629835D01*
X99466771Y-116413739D01*
X99466030Y-117262537D01*
X98855600Y-117262537D01*
X98855600Y-112258737D01*
X103961830Y-112258737D01*
X104285967Y-113043209D01*
X104885635Y-113643924D01*
X105669539Y-113969429D01*
X106518337Y-113970170D01*
X107302809Y-113646033D01*
X107903524Y-113046365D01*
X108229029Y-112262461D01*
X108229770Y-111413663D01*
X107905633Y-110629191D01*
X107305965Y-110028476D01*
X106522061Y-109702971D01*
X105673263Y-109702230D01*
X104888791Y-110026367D01*
X104288076Y-110626035D01*
X103962571Y-111409939D01*
X103961830Y-112258737D01*
X98855600Y-112258737D01*
X98855600Y-107026337D01*
X103961830Y-107026337D01*
X104285967Y-107810809D01*
X104885635Y-108411524D01*
X105669539Y-108737029D01*
X106518337Y-108737770D01*
X107302809Y-108413633D01*
X107903524Y-107813965D01*
X108229029Y-107030061D01*
X108229770Y-106181263D01*
X107905633Y-105396791D01*
X107305965Y-104796076D01*
X106522061Y-104470571D01*
X105673263Y-104469830D01*
X104888791Y-104793967D01*
X104288076Y-105393635D01*
X103962571Y-106177539D01*
X103961830Y-107026337D01*
X98855600Y-107026337D01*
X98855600Y-102022537D01*
X99466030Y-102022537D01*
X99790167Y-102807009D01*
X100389835Y-103407724D01*
X101173739Y-103733229D01*
X102022537Y-103733970D01*
X102807009Y-103409833D01*
X103407724Y-102810165D01*
X103733229Y-102026261D01*
X103733298Y-101947084D01*
X104342897Y-101947084D01*
X104609152Y-102591471D01*
X105101736Y-103084915D01*
X105745657Y-103352295D01*
X106442884Y-103352903D01*
X107087271Y-103086648D01*
X107580715Y-102594064D01*
X107848095Y-101950143D01*
X107848703Y-101252916D01*
X107582448Y-100608529D01*
X107089864Y-100115085D01*
X106445943Y-99847705D01*
X105748716Y-99847097D01*
X105104329Y-100113352D01*
X104610885Y-100605936D01*
X104343505Y-101249857D01*
X104342897Y-101947084D01*
X103733298Y-101947084D01*
X103733970Y-101177463D01*
X103409833Y-100392991D01*
X102810165Y-99792276D01*
X102026261Y-99466771D01*
X101177463Y-99466030D01*
X100392991Y-99790167D01*
X99792276Y-100389835D01*
X99466771Y-101173739D01*
X99466030Y-102022537D01*
X98855600Y-102022537D01*
X98855600Y-97018737D01*
X103961830Y-97018737D01*
X104285967Y-97803209D01*
X104885635Y-98403924D01*
X105669539Y-98729429D01*
X106518337Y-98730170D01*
X107302809Y-98406033D01*
X107903524Y-97806365D01*
X108229029Y-97022461D01*
X108229770Y-96173663D01*
X107905633Y-95389191D01*
X107305965Y-94788476D01*
X106522061Y-94462971D01*
X105673263Y-94462230D01*
X104888791Y-94786367D01*
X104288076Y-95386035D01*
X103962571Y-96169939D01*
X103961830Y-97018737D01*
X98855600Y-97018737D01*
X98855600Y-89679017D01*
X128379162Y-89679017D01*
X128588599Y-90185894D01*
X128976066Y-90574038D01*
X129482577Y-90784360D01*
X130031017Y-90784838D01*
X130537894Y-90575401D01*
X130926038Y-90187934D01*
X131136360Y-89681423D01*
X131136362Y-89679017D01*
X136579162Y-89679017D01*
X136788599Y-90185894D01*
X137176066Y-90574038D01*
X137682577Y-90784360D01*
X138231017Y-90784838D01*
X138737894Y-90575401D01*
X139126038Y-90187934D01*
X139336360Y-89681423D01*
X139336838Y-89132983D01*
X139127401Y-88626106D01*
X138739934Y-88237962D01*
X138233423Y-88027640D01*
X137684983Y-88027162D01*
X137178106Y-88236599D01*
X136789962Y-88624066D01*
X136579640Y-89130577D01*
X136579162Y-89679017D01*
X131136362Y-89679017D01*
X131136838Y-89132983D01*
X130927401Y-88626106D01*
X130539934Y-88237962D01*
X130033423Y-88027640D01*
X129484983Y-88027162D01*
X128978106Y-88236599D01*
X128589962Y-88624066D01*
X128379640Y-89130577D01*
X128379162Y-89679017D01*
X98855600Y-89679017D01*
X98855600Y-87262960D01*
X130452488Y-87262960D01*
X130558201Y-87509321D01*
X131156109Y-87708569D01*
X131784753Y-87663841D01*
X132157799Y-87509321D01*
X132263512Y-87262960D01*
X131358000Y-86357447D01*
X130452488Y-87262960D01*
X98855600Y-87262960D01*
X98855600Y-85387389D01*
X104248089Y-85387389D01*
X104527943Y-85945531D01*
X105000086Y-86354091D01*
X105366613Y-86505899D01*
X105613200Y-86406239D01*
X105613200Y-85140800D01*
X104346746Y-85140800D01*
X104248089Y-85387389D01*
X98855600Y-85387389D01*
X98855600Y-84538611D01*
X104248089Y-84538611D01*
X104346746Y-84785200D01*
X105613200Y-84785200D01*
X105613200Y-83519761D01*
X105968800Y-83519761D01*
X105968800Y-84785200D01*
X105988800Y-84785200D01*
X105988800Y-85140800D01*
X105968800Y-85140800D01*
X105968800Y-86406239D01*
X106215387Y-86505899D01*
X106581914Y-86354091D01*
X107054057Y-85945531D01*
X107081922Y-85889957D01*
X107081922Y-85979000D01*
X107097862Y-86063714D01*
X107147928Y-86141518D01*
X107224320Y-86193715D01*
X107315000Y-86212078D01*
X109347000Y-86212078D01*
X109431714Y-86196138D01*
X109509518Y-86146072D01*
X109561715Y-86069680D01*
X109580078Y-85979000D01*
X109580078Y-85904109D01*
X129755431Y-85904109D01*
X129800159Y-86532753D01*
X129954679Y-86905799D01*
X130201040Y-87011512D01*
X131106553Y-86106000D01*
X131609447Y-86106000D01*
X132514960Y-87011512D01*
X132761321Y-86905799D01*
X132804984Y-86774774D01*
X132815836Y-86801037D01*
X133161145Y-87146949D01*
X133612544Y-87334387D01*
X134101312Y-87334813D01*
X134553037Y-87148164D01*
X134898949Y-86802855D01*
X135086387Y-86351456D01*
X135086813Y-85862688D01*
X134900164Y-85410963D01*
X134805591Y-85316225D01*
X135158816Y-84963000D01*
X135907005Y-84963000D01*
X135662963Y-85063836D01*
X135317051Y-85409145D01*
X135129613Y-85860544D01*
X135129187Y-86349312D01*
X135315836Y-86801037D01*
X135661145Y-87146949D01*
X136112544Y-87334387D01*
X136601312Y-87334813D01*
X137053037Y-87148164D01*
X137257357Y-86944200D01*
X138082806Y-86944200D01*
X148005800Y-96867194D01*
X148005800Y-97840800D01*
X142367000Y-97840800D01*
X142046235Y-97904604D01*
X141774303Y-98086303D01*
X138853303Y-101007303D01*
X138671604Y-101279234D01*
X138671604Y-101279235D01*
X138607800Y-101600000D01*
X138607800Y-115443000D01*
X138671604Y-115763765D01*
X138853303Y-116035697D01*
X139125235Y-116217396D01*
X139446000Y-116281200D01*
X139766765Y-116217396D01*
X140038697Y-116035697D01*
X140220396Y-115763765D01*
X140284200Y-115443000D01*
X140284200Y-101947194D01*
X142714194Y-99517200D01*
X147251458Y-99517200D01*
X147010207Y-99758451D01*
X146952820Y-99758401D01*
X146742694Y-99845224D01*
X146581789Y-100005849D01*
X146573754Y-100025200D01*
X144256423Y-100025200D01*
X144248776Y-100006694D01*
X144088151Y-99845789D01*
X143878177Y-99758600D01*
X143650820Y-99758401D01*
X143440694Y-99845224D01*
X143279789Y-100005849D01*
X143192600Y-100215823D01*
X143192401Y-100443180D01*
X143279224Y-100653306D01*
X143439849Y-100814211D01*
X143649823Y-100901400D01*
X143877180Y-100901599D01*
X144087306Y-100814776D01*
X144248211Y-100654151D01*
X144256246Y-100634800D01*
X146573577Y-100634800D01*
X146581224Y-100653306D01*
X146741849Y-100814211D01*
X146951823Y-100901400D01*
X147179180Y-100901599D01*
X147344617Y-100833241D01*
X147397123Y-100822797D01*
X147570171Y-100707171D01*
X148668125Y-99609216D01*
X148844000Y-99644200D01*
X149019874Y-99609216D01*
X150469600Y-101058942D01*
X150469600Y-107221058D01*
X149004058Y-108686600D01*
X147441918Y-108686600D01*
X147423776Y-108642694D01*
X147263151Y-108481789D01*
X147053177Y-108394600D01*
X146825820Y-108394401D01*
X146615694Y-108481224D01*
X146454789Y-108641849D01*
X146416429Y-108734230D01*
X146083058Y-109067600D01*
X144365941Y-109067600D01*
X144159617Y-108861275D01*
X144121776Y-108769694D01*
X143961151Y-108608789D01*
X143751177Y-108521600D01*
X143523820Y-108521401D01*
X143313694Y-108608224D01*
X143152789Y-108768849D01*
X143081357Y-108940876D01*
X142989177Y-108902600D01*
X142761820Y-108902401D01*
X142551694Y-108989224D01*
X142390789Y-109149849D01*
X142303600Y-109359823D01*
X142303401Y-109587180D01*
X142390224Y-109797306D01*
X142550849Y-109958211D01*
X142760823Y-110045400D01*
X142907713Y-110045529D01*
X144002590Y-111140405D01*
X144002592Y-111140408D01*
X144076688Y-111189917D01*
X144126197Y-111222998D01*
X144272000Y-111252000D01*
X152480818Y-111252000D01*
X152583849Y-111355211D01*
X152793823Y-111442400D01*
X153021180Y-111442599D01*
X153231306Y-111355776D01*
X153392211Y-111195151D01*
X153479400Y-110985177D01*
X153479599Y-110757820D01*
X153392776Y-110547694D01*
X153232151Y-110386789D01*
X153022177Y-110299600D01*
X152794820Y-110299401D01*
X152584694Y-110386224D01*
X152480737Y-110490000D01*
X144429815Y-110490000D01*
X144056639Y-110116824D01*
X144145000Y-110134400D01*
X146304000Y-110134400D01*
X146508123Y-110093797D01*
X146681171Y-109978171D01*
X146681172Y-109978170D01*
X146963500Y-109695841D01*
X146988876Y-109712797D01*
X147193000Y-109753400D01*
X149225000Y-109753400D01*
X149429123Y-109712797D01*
X149602171Y-109597171D01*
X151380171Y-107819171D01*
X151495797Y-107646123D01*
X151536401Y-107442000D01*
X151536400Y-107441995D01*
X151536400Y-100838000D01*
X151495797Y-100633877D01*
X151380171Y-100460829D01*
X149758261Y-98838919D01*
X149758558Y-98497913D01*
X149682200Y-98313113D01*
X149682200Y-96520000D01*
X149618396Y-96199235D01*
X149618396Y-96199234D01*
X149436697Y-95927303D01*
X139022697Y-85513303D01*
X138750766Y-85331604D01*
X138430000Y-85267800D01*
X137257251Y-85267800D01*
X137054855Y-85065051D01*
X136809090Y-84963000D01*
X140304184Y-84963000D01*
X150558529Y-95217344D01*
X150558401Y-95363180D01*
X150645224Y-95573306D01*
X150805849Y-95734211D01*
X151015823Y-95821400D01*
X151243180Y-95821599D01*
X151453306Y-95734776D01*
X151614211Y-95574151D01*
X151701400Y-95364177D01*
X151701599Y-95136820D01*
X151614776Y-94926694D01*
X151454151Y-94765789D01*
X151244177Y-94678600D01*
X151097286Y-94678471D01*
X146588816Y-90170000D01*
X158497017Y-90170000D01*
X158591757Y-90646288D01*
X158861552Y-91050065D01*
X159265329Y-91319860D01*
X159741617Y-91414600D01*
X159790383Y-91414600D01*
X160266671Y-91319860D01*
X160670448Y-91050065D01*
X160940243Y-90646288D01*
X161034983Y-90170000D01*
X160940243Y-89693712D01*
X160670448Y-89289935D01*
X160266671Y-89020140D01*
X159790383Y-88925400D01*
X159741617Y-88925400D01*
X159265329Y-89020140D01*
X158861552Y-89289935D01*
X158591757Y-89693712D01*
X158497017Y-90170000D01*
X146588816Y-90170000D01*
X143032816Y-86614000D01*
X158516922Y-86614000D01*
X158516922Y-88646000D01*
X158532862Y-88730714D01*
X158582928Y-88808518D01*
X158659320Y-88860715D01*
X158750000Y-88879078D01*
X160782000Y-88879078D01*
X160866714Y-88863138D01*
X160944518Y-88813072D01*
X160996715Y-88736680D01*
X161015078Y-88646000D01*
X161015078Y-86614000D01*
X160999138Y-86529286D01*
X160949072Y-86451482D01*
X160872680Y-86399285D01*
X160782000Y-86380922D01*
X158750000Y-86380922D01*
X158665286Y-86396862D01*
X158587482Y-86446928D01*
X158535285Y-86523320D01*
X158516922Y-86614000D01*
X143032816Y-86614000D01*
X140731408Y-84312592D01*
X140607803Y-84230002D01*
X140462000Y-84201000D01*
X135001000Y-84201000D01*
X134855197Y-84230002D01*
X134731592Y-84312592D01*
X134148053Y-84896131D01*
X134103456Y-84877613D01*
X133614688Y-84877187D01*
X133162963Y-85063836D01*
X132817051Y-85409145D01*
X132810498Y-85424926D01*
X132761321Y-85306201D01*
X132514960Y-85200488D01*
X131609447Y-86106000D01*
X131106553Y-86106000D01*
X130201040Y-85200488D01*
X129954679Y-85306201D01*
X129755431Y-85904109D01*
X109580078Y-85904109D01*
X109580078Y-84949040D01*
X130452488Y-84949040D01*
X131358000Y-85854553D01*
X132263512Y-84949040D01*
X132157799Y-84702679D01*
X131559891Y-84503431D01*
X130931247Y-84548159D01*
X130558201Y-84702679D01*
X130452488Y-84949040D01*
X109580078Y-84949040D01*
X109580078Y-83947000D01*
X109564138Y-83862286D01*
X109514072Y-83784482D01*
X109437680Y-83732285D01*
X109347000Y-83713922D01*
X107315000Y-83713922D01*
X107230286Y-83729862D01*
X107152482Y-83779928D01*
X107100285Y-83856320D01*
X107081922Y-83947000D01*
X107081922Y-84036043D01*
X107054057Y-83980469D01*
X106581914Y-83571909D01*
X106215387Y-83420101D01*
X105968800Y-83519761D01*
X105613200Y-83519761D01*
X105366613Y-83420101D01*
X105000086Y-83571909D01*
X104527943Y-83980469D01*
X104248089Y-84538611D01*
X98855600Y-84538611D01*
X98855600Y-82853600D01*
X162891400Y-82853600D01*
X162891400Y-127585400D01*
X162891400Y-127585400D01*
G37*
X162891400Y-127585400D02*
X98855600Y-127585400D01*
X98855600Y-122266337D01*
X103961830Y-122266337D01*
X104285967Y-123050809D01*
X104885635Y-123651524D01*
X105669539Y-123977029D01*
X106518337Y-123977770D01*
X107302809Y-123653633D01*
X107903524Y-123053965D01*
X108229029Y-122270061D01*
X108229334Y-121920000D01*
X158135922Y-121920000D01*
X158135922Y-123952000D01*
X158151862Y-124036714D01*
X158201928Y-124114518D01*
X158278320Y-124166715D01*
X158369000Y-124185078D01*
X160401000Y-124185078D01*
X160485714Y-124169138D01*
X160563518Y-124119072D01*
X160615715Y-124042680D01*
X160634078Y-123952000D01*
X160634078Y-121920000D01*
X160618138Y-121835286D01*
X160568072Y-121757482D01*
X160491680Y-121705285D01*
X160401000Y-121686922D01*
X158369000Y-121686922D01*
X158284286Y-121702862D01*
X158206482Y-121752928D01*
X158154285Y-121829320D01*
X158135922Y-121920000D01*
X108229334Y-121920000D01*
X108229770Y-121421263D01*
X107905633Y-120636791D01*
X107665262Y-120396000D01*
X158116017Y-120396000D01*
X158210757Y-120872288D01*
X158480552Y-121276065D01*
X158884329Y-121545860D01*
X159360617Y-121640600D01*
X159409383Y-121640600D01*
X159885671Y-121545860D01*
X160289448Y-121276065D01*
X160559243Y-120872288D01*
X160653983Y-120396000D01*
X160559243Y-119919712D01*
X160289448Y-119515935D01*
X159885671Y-119246140D01*
X159409383Y-119151400D01*
X159360617Y-119151400D01*
X158884329Y-119246140D01*
X158480552Y-119515935D01*
X158210757Y-119919712D01*
X158116017Y-120396000D01*
X107665262Y-120396000D01*
X107305965Y-120036076D01*
X106522061Y-119710571D01*
X105673263Y-119709830D01*
X104888791Y-120033967D01*
X104288076Y-120633635D01*
X103962571Y-121417539D01*
X103961830Y-122266337D01*
X98855600Y-122266337D01*
X98855600Y-117262537D01*
X99466030Y-117262537D01*
X99790167Y-118047009D01*
X100389835Y-118647724D01*
X101173739Y-118973229D01*
X102022537Y-118973970D01*
X102807009Y-118649833D01*
X103407724Y-118050165D01*
X103733229Y-117266261D01*
X103733298Y-117187084D01*
X104342897Y-117187084D01*
X104609152Y-117831471D01*
X105101736Y-118324915D01*
X105745657Y-118592295D01*
X106442884Y-118592903D01*
X107087271Y-118326648D01*
X107580715Y-117834064D01*
X107848095Y-117190143D01*
X107848703Y-116492916D01*
X107582448Y-115848529D01*
X107089864Y-115355085D01*
X106445943Y-115087705D01*
X105748716Y-115087097D01*
X105104329Y-115353352D01*
X104610885Y-115845936D01*
X104343505Y-116489857D01*
X104342897Y-117187084D01*
X103733298Y-117187084D01*
X103733970Y-116417463D01*
X103409833Y-115632991D01*
X102810165Y-115032276D01*
X102026261Y-114706771D01*
X101177463Y-114706030D01*
X100392991Y-115030167D01*
X99792276Y-115629835D01*
X99466771Y-116413739D01*
X99466030Y-117262537D01*
X98855600Y-117262537D01*
X98855600Y-112258737D01*
X103961830Y-112258737D01*
X104285967Y-113043209D01*
X104885635Y-113643924D01*
X105669539Y-113969429D01*
X106518337Y-113970170D01*
X107302809Y-113646033D01*
X107903524Y-113046365D01*
X108229029Y-112262461D01*
X108229770Y-111413663D01*
X107905633Y-110629191D01*
X107305965Y-110028476D01*
X106522061Y-109702971D01*
X105673263Y-109702230D01*
X104888791Y-110026367D01*
X104288076Y-110626035D01*
X103962571Y-111409939D01*
X103961830Y-112258737D01*
X98855600Y-112258737D01*
X98855600Y-107026337D01*
X103961830Y-107026337D01*
X104285967Y-107810809D01*
X104885635Y-108411524D01*
X105669539Y-108737029D01*
X106518337Y-108737770D01*
X107302809Y-108413633D01*
X107903524Y-107813965D01*
X108229029Y-107030061D01*
X108229770Y-106181263D01*
X107905633Y-105396791D01*
X107305965Y-104796076D01*
X106522061Y-104470571D01*
X105673263Y-104469830D01*
X104888791Y-104793967D01*
X104288076Y-105393635D01*
X103962571Y-106177539D01*
X103961830Y-107026337D01*
X98855600Y-107026337D01*
X98855600Y-102022537D01*
X99466030Y-102022537D01*
X99790167Y-102807009D01*
X100389835Y-103407724D01*
X101173739Y-103733229D01*
X102022537Y-103733970D01*
X102807009Y-103409833D01*
X103407724Y-102810165D01*
X103733229Y-102026261D01*
X103733298Y-101947084D01*
X104342897Y-101947084D01*
X104609152Y-102591471D01*
X105101736Y-103084915D01*
X105745657Y-103352295D01*
X106442884Y-103352903D01*
X107087271Y-103086648D01*
X107580715Y-102594064D01*
X107848095Y-101950143D01*
X107848703Y-101252916D01*
X107582448Y-100608529D01*
X107089864Y-100115085D01*
X106445943Y-99847705D01*
X105748716Y-99847097D01*
X105104329Y-100113352D01*
X104610885Y-100605936D01*
X104343505Y-101249857D01*
X104342897Y-101947084D01*
X103733298Y-101947084D01*
X103733970Y-101177463D01*
X103409833Y-100392991D01*
X102810165Y-99792276D01*
X102026261Y-99466771D01*
X101177463Y-99466030D01*
X100392991Y-99790167D01*
X99792276Y-100389835D01*
X99466771Y-101173739D01*
X99466030Y-102022537D01*
X98855600Y-102022537D01*
X98855600Y-97018737D01*
X103961830Y-97018737D01*
X104285967Y-97803209D01*
X104885635Y-98403924D01*
X105669539Y-98729429D01*
X106518337Y-98730170D01*
X107302809Y-98406033D01*
X107903524Y-97806365D01*
X108229029Y-97022461D01*
X108229770Y-96173663D01*
X107905633Y-95389191D01*
X107305965Y-94788476D01*
X106522061Y-94462971D01*
X105673263Y-94462230D01*
X104888791Y-94786367D01*
X104288076Y-95386035D01*
X103962571Y-96169939D01*
X103961830Y-97018737D01*
X98855600Y-97018737D01*
X98855600Y-89679017D01*
X128379162Y-89679017D01*
X128588599Y-90185894D01*
X128976066Y-90574038D01*
X129482577Y-90784360D01*
X130031017Y-90784838D01*
X130537894Y-90575401D01*
X130926038Y-90187934D01*
X131136360Y-89681423D01*
X131136362Y-89679017D01*
X136579162Y-89679017D01*
X136788599Y-90185894D01*
X137176066Y-90574038D01*
X137682577Y-90784360D01*
X138231017Y-90784838D01*
X138737894Y-90575401D01*
X139126038Y-90187934D01*
X139336360Y-89681423D01*
X139336838Y-89132983D01*
X139127401Y-88626106D01*
X138739934Y-88237962D01*
X138233423Y-88027640D01*
X137684983Y-88027162D01*
X137178106Y-88236599D01*
X136789962Y-88624066D01*
X136579640Y-89130577D01*
X136579162Y-89679017D01*
X131136362Y-89679017D01*
X131136838Y-89132983D01*
X130927401Y-88626106D01*
X130539934Y-88237962D01*
X130033423Y-88027640D01*
X129484983Y-88027162D01*
X128978106Y-88236599D01*
X128589962Y-88624066D01*
X128379640Y-89130577D01*
X128379162Y-89679017D01*
X98855600Y-89679017D01*
X98855600Y-87262960D01*
X130452488Y-87262960D01*
X130558201Y-87509321D01*
X131156109Y-87708569D01*
X131784753Y-87663841D01*
X132157799Y-87509321D01*
X132263512Y-87262960D01*
X131358000Y-86357447D01*
X130452488Y-87262960D01*
X98855600Y-87262960D01*
X98855600Y-85387389D01*
X104248089Y-85387389D01*
X104527943Y-85945531D01*
X105000086Y-86354091D01*
X105366613Y-86505899D01*
X105613200Y-86406239D01*
X105613200Y-85140800D01*
X104346746Y-85140800D01*
X104248089Y-85387389D01*
X98855600Y-85387389D01*
X98855600Y-84538611D01*
X104248089Y-84538611D01*
X104346746Y-84785200D01*
X105613200Y-84785200D01*
X105613200Y-83519761D01*
X105968800Y-83519761D01*
X105968800Y-84785200D01*
X105988800Y-84785200D01*
X105988800Y-85140800D01*
X105968800Y-85140800D01*
X105968800Y-86406239D01*
X106215387Y-86505899D01*
X106581914Y-86354091D01*
X107054057Y-85945531D01*
X107081922Y-85889957D01*
X107081922Y-85979000D01*
X107097862Y-86063714D01*
X107147928Y-86141518D01*
X107224320Y-86193715D01*
X107315000Y-86212078D01*
X109347000Y-86212078D01*
X109431714Y-86196138D01*
X109509518Y-86146072D01*
X109561715Y-86069680D01*
X109580078Y-85979000D01*
X109580078Y-85904109D01*
X129755431Y-85904109D01*
X129800159Y-86532753D01*
X129954679Y-86905799D01*
X130201040Y-87011512D01*
X131106553Y-86106000D01*
X131609447Y-86106000D01*
X132514960Y-87011512D01*
X132761321Y-86905799D01*
X132804984Y-86774774D01*
X132815836Y-86801037D01*
X133161145Y-87146949D01*
X133612544Y-87334387D01*
X134101312Y-87334813D01*
X134553037Y-87148164D01*
X134898949Y-86802855D01*
X135086387Y-86351456D01*
X135086813Y-85862688D01*
X134900164Y-85410963D01*
X134805591Y-85316225D01*
X135158816Y-84963000D01*
X135907005Y-84963000D01*
X135662963Y-85063836D01*
X135317051Y-85409145D01*
X135129613Y-85860544D01*
X135129187Y-86349312D01*
X135315836Y-86801037D01*
X135661145Y-87146949D01*
X136112544Y-87334387D01*
X136601312Y-87334813D01*
X137053037Y-87148164D01*
X137257357Y-86944200D01*
X138082806Y-86944200D01*
X148005800Y-96867194D01*
X148005800Y-97840800D01*
X142367000Y-97840800D01*
X142046235Y-97904604D01*
X141774303Y-98086303D01*
X138853303Y-101007303D01*
X138671604Y-101279234D01*
X138671604Y-101279235D01*
X138607800Y-101600000D01*
X138607800Y-115443000D01*
X138671604Y-115763765D01*
X138853303Y-116035697D01*
X139125235Y-116217396D01*
X139446000Y-116281200D01*
X139766765Y-116217396D01*
X140038697Y-116035697D01*
X140220396Y-115763765D01*
X140284200Y-115443000D01*
X140284200Y-101947194D01*
X142714194Y-99517200D01*
X147251458Y-99517200D01*
X147010207Y-99758451D01*
X146952820Y-99758401D01*
X146742694Y-99845224D01*
X146581789Y-100005849D01*
X146573754Y-100025200D01*
X144256423Y-100025200D01*
X144248776Y-100006694D01*
X144088151Y-99845789D01*
X143878177Y-99758600D01*
X143650820Y-99758401D01*
X143440694Y-99845224D01*
X143279789Y-100005849D01*
X143192600Y-100215823D01*
X143192401Y-100443180D01*
X143279224Y-100653306D01*
X143439849Y-100814211D01*
X143649823Y-100901400D01*
X143877180Y-100901599D01*
X144087306Y-100814776D01*
X144248211Y-100654151D01*
X144256246Y-100634800D01*
X146573577Y-100634800D01*
X146581224Y-100653306D01*
X146741849Y-100814211D01*
X146951823Y-100901400D01*
X147179180Y-100901599D01*
X147344617Y-100833241D01*
X147397123Y-100822797D01*
X147570171Y-100707171D01*
X148668125Y-99609216D01*
X148844000Y-99644200D01*
X149019874Y-99609216D01*
X150469600Y-101058942D01*
X150469600Y-107221058D01*
X149004058Y-108686600D01*
X147441918Y-108686600D01*
X147423776Y-108642694D01*
X147263151Y-108481789D01*
X147053177Y-108394600D01*
X146825820Y-108394401D01*
X146615694Y-108481224D01*
X146454789Y-108641849D01*
X146416429Y-108734230D01*
X146083058Y-109067600D01*
X144365941Y-109067600D01*
X144159617Y-108861275D01*
X144121776Y-108769694D01*
X143961151Y-108608789D01*
X143751177Y-108521600D01*
X143523820Y-108521401D01*
X143313694Y-108608224D01*
X143152789Y-108768849D01*
X143081357Y-108940876D01*
X142989177Y-108902600D01*
X142761820Y-108902401D01*
X142551694Y-108989224D01*
X142390789Y-109149849D01*
X142303600Y-109359823D01*
X142303401Y-109587180D01*
X142390224Y-109797306D01*
X142550849Y-109958211D01*
X142760823Y-110045400D01*
X142907713Y-110045529D01*
X144002590Y-111140405D01*
X144002592Y-111140408D01*
X144076688Y-111189917D01*
X144126197Y-111222998D01*
X144272000Y-111252000D01*
X152480818Y-111252000D01*
X152583849Y-111355211D01*
X152793823Y-111442400D01*
X153021180Y-111442599D01*
X153231306Y-111355776D01*
X153392211Y-111195151D01*
X153479400Y-110985177D01*
X153479599Y-110757820D01*
X153392776Y-110547694D01*
X153232151Y-110386789D01*
X153022177Y-110299600D01*
X152794820Y-110299401D01*
X152584694Y-110386224D01*
X152480737Y-110490000D01*
X144429815Y-110490000D01*
X144056639Y-110116824D01*
X144145000Y-110134400D01*
X146304000Y-110134400D01*
X146508123Y-110093797D01*
X146681171Y-109978171D01*
X146681172Y-109978170D01*
X146963500Y-109695841D01*
X146988876Y-109712797D01*
X147193000Y-109753400D01*
X149225000Y-109753400D01*
X149429123Y-109712797D01*
X149602171Y-109597171D01*
X151380171Y-107819171D01*
X151495797Y-107646123D01*
X151536401Y-107442000D01*
X151536400Y-107441995D01*
X151536400Y-100838000D01*
X151495797Y-100633877D01*
X151380171Y-100460829D01*
X149758261Y-98838919D01*
X149758558Y-98497913D01*
X149682200Y-98313113D01*
X149682200Y-96520000D01*
X149618396Y-96199235D01*
X149618396Y-96199234D01*
X149436697Y-95927303D01*
X139022697Y-85513303D01*
X138750766Y-85331604D01*
X138430000Y-85267800D01*
X137257251Y-85267800D01*
X137054855Y-85065051D01*
X136809090Y-84963000D01*
X140304184Y-84963000D01*
X150558529Y-95217344D01*
X150558401Y-95363180D01*
X150645224Y-95573306D01*
X150805849Y-95734211D01*
X151015823Y-95821400D01*
X151243180Y-95821599D01*
X151453306Y-95734776D01*
X151614211Y-95574151D01*
X151701400Y-95364177D01*
X151701599Y-95136820D01*
X151614776Y-94926694D01*
X151454151Y-94765789D01*
X151244177Y-94678600D01*
X151097286Y-94678471D01*
X146588816Y-90170000D01*
X158497017Y-90170000D01*
X158591757Y-90646288D01*
X158861552Y-91050065D01*
X159265329Y-91319860D01*
X159741617Y-91414600D01*
X159790383Y-91414600D01*
X160266671Y-91319860D01*
X160670448Y-91050065D01*
X160940243Y-90646288D01*
X161034983Y-90170000D01*
X160940243Y-89693712D01*
X160670448Y-89289935D01*
X160266671Y-89020140D01*
X159790383Y-88925400D01*
X159741617Y-88925400D01*
X159265329Y-89020140D01*
X158861552Y-89289935D01*
X158591757Y-89693712D01*
X158497017Y-90170000D01*
X146588816Y-90170000D01*
X143032816Y-86614000D01*
X158516922Y-86614000D01*
X158516922Y-88646000D01*
X158532862Y-88730714D01*
X158582928Y-88808518D01*
X158659320Y-88860715D01*
X158750000Y-88879078D01*
X160782000Y-88879078D01*
X160866714Y-88863138D01*
X160944518Y-88813072D01*
X160996715Y-88736680D01*
X161015078Y-88646000D01*
X161015078Y-86614000D01*
X160999138Y-86529286D01*
X160949072Y-86451482D01*
X160872680Y-86399285D01*
X160782000Y-86380922D01*
X158750000Y-86380922D01*
X158665286Y-86396862D01*
X158587482Y-86446928D01*
X158535285Y-86523320D01*
X158516922Y-86614000D01*
X143032816Y-86614000D01*
X140731408Y-84312592D01*
X140607803Y-84230002D01*
X140462000Y-84201000D01*
X135001000Y-84201000D01*
X134855197Y-84230002D01*
X134731592Y-84312592D01*
X134148053Y-84896131D01*
X134103456Y-84877613D01*
X133614688Y-84877187D01*
X133162963Y-85063836D01*
X132817051Y-85409145D01*
X132810498Y-85424926D01*
X132761321Y-85306201D01*
X132514960Y-85200488D01*
X131609447Y-86106000D01*
X131106553Y-86106000D01*
X130201040Y-85200488D01*
X129954679Y-85306201D01*
X129755431Y-85904109D01*
X109580078Y-85904109D01*
X109580078Y-84949040D01*
X130452488Y-84949040D01*
X131358000Y-85854553D01*
X132263512Y-84949040D01*
X132157799Y-84702679D01*
X131559891Y-84503431D01*
X130931247Y-84548159D01*
X130558201Y-84702679D01*
X130452488Y-84949040D01*
X109580078Y-84949040D01*
X109580078Y-83947000D01*
X109564138Y-83862286D01*
X109514072Y-83784482D01*
X109437680Y-83732285D01*
X109347000Y-83713922D01*
X107315000Y-83713922D01*
X107230286Y-83729862D01*
X107152482Y-83779928D01*
X107100285Y-83856320D01*
X107081922Y-83947000D01*
X107081922Y-84036043D01*
X107054057Y-83980469D01*
X106581914Y-83571909D01*
X106215387Y-83420101D01*
X105968800Y-83519761D01*
X105613200Y-83519761D01*
X105366613Y-83420101D01*
X105000086Y-83571909D01*
X104527943Y-83980469D01*
X104248089Y-84538611D01*
X98855600Y-84538611D01*
X98855600Y-82853600D01*
X162891400Y-82853600D01*
X162891400Y-127585400D01*
M02*
