M48
;DRILL file {KiCad 4.0.0-2.201512072331+6194~38~ubuntu14.04.1-stable} date Tue 16 Aug 2016 09:34:38 AM CEST
;FORMAT={2:4/ absolute / inch / suppress leading zeros}
FMAT,2
INCH,TZ
T1C0.010
T2C0.013
T3C0.026
T4C0.040
T5C0.051
T6C0.070
T7C0.105
T8C0.091
%
G90
G05
M72
T1
X55920Y-40787
X55920Y-41200
X55920Y-41613
X56432Y-40787
X56432Y-41200
X56432Y-41613
X56944Y-40787
X56944Y-41200
X56944Y-41613
X57456Y-40787
X57456Y-41200
X57456Y-41613
X57968Y-40787
X57968Y-41200
X57968Y-41613
X58480Y-40787
X58480Y-41200
X58480Y-41613
T2
X39500Y-33000
X39500Y-34000
X39500Y-35000
X39500Y-36000
X39500Y-37000
X39500Y-38000
X39500Y-39000
X39500Y-42000
X39500Y-43000
X39500Y-44000
X39500Y-48000
X39500Y-49000
X39500Y-50000
X40500Y-33000
X40500Y-34000
X40500Y-35000
X40500Y-36000
X40500Y-37000
X40500Y-38000
X40500Y-43000
X40500Y-49000
X40500Y-50000
X41500Y-35000
X41500Y-37000
X41500Y-43000
X41500Y-49000
X41500Y-50000
X42500Y-37000
X42500Y-39000
X42500Y-43000
X42500Y-47000
X42500Y-49000
X42500Y-50000
X43500Y-33000
X43500Y-34000
X43500Y-35000
X43500Y-37000
X43500Y-38000
X43500Y-39000
X43500Y-42000
X43500Y-43000
X43500Y-46000
X43500Y-47000
X43500Y-48000
X43500Y-49000
X43500Y-50000
X44500Y-37000
X44500Y-39000
X44500Y-42000
X44500Y-43000
X44500Y-46000
X44500Y-47000
X44500Y-48000
X44500Y-49000
X44500Y-50000
X45500Y-39000
X45500Y-42000
X45500Y-43000
X45500Y-46000
X45500Y-47000
X45500Y-48000
X45500Y-49000
X45500Y-50000
X46500Y-33000
X46500Y-37000
X46500Y-38000
X46500Y-39000
X46500Y-42000
X46500Y-43000
X46500Y-47000
X46500Y-49000
X46500Y-50000
X47500Y-33000
X47500Y-35000
X47500Y-38000
X47500Y-39000
X47500Y-42000
X47500Y-43000
X47500Y-47000
X47500Y-49000
X47500Y-50000
X48500Y-38000
X48500Y-39000
X48500Y-42000
X48500Y-43000
X48500Y-46000
X48500Y-47000
X48500Y-48000
X48500Y-49000
X48500Y-50000
X49500Y-36000
X49500Y-37000
X49500Y-38000
X49500Y-39000
X49500Y-42000
X49500Y-43000
X49500Y-46000
X49500Y-47000
X49500Y-48000
X49500Y-49000
X49500Y-50000
X50500Y-34000
X50500Y-36000
X50500Y-37000
X50500Y-38000
X50500Y-39000
X50500Y-42000
X50500Y-43000
X50500Y-47000
X50500Y-49000
X50500Y-50000
X51500Y-36000
X51500Y-37000
X51500Y-38000
X51500Y-39000
X51500Y-42000
X51500Y-45000
X51500Y-46000
X51500Y-48000
X51500Y-49000
X51500Y-50000
X52500Y-35000
X52500Y-36000
X52500Y-37000
X52500Y-38000
X52500Y-44000
X52500Y-45000
X52500Y-47000
X52500Y-48000
X52500Y-49000
X52500Y-50000
X53500Y-35000
X53500Y-36000
X53500Y-37000
X53500Y-38000
X53500Y-44000
X53500Y-46000
X53500Y-47000
X53500Y-48000
X53500Y-49000
X53500Y-50000
X54500Y-36000
X54500Y-37000
X54500Y-38000
X54500Y-46000
X54500Y-47000
X54500Y-48000
X54500Y-49000
X54500Y-50000
X54900Y-45450
X55500Y-33000
X55500Y-34000
X55500Y-36000
X55500Y-37000
X55500Y-38000
X55500Y-43000
X55500Y-47000
X55500Y-48000
X55500Y-49000
X55500Y-50000
X56250Y-43100
X56500Y-33000
X56500Y-34000
X56500Y-44000
X56500Y-45000
X56500Y-46000
X56500Y-47000
X56500Y-48000
X56500Y-49000
X56500Y-50000
X56550Y-42950
X56600Y-39500
X57500Y-33000
X57500Y-34000
X57500Y-44000
X57500Y-45000
X57500Y-48000
X57500Y-49000
X57500Y-50000
X57850Y-42900
X57900Y-39500
X58500Y-33000
X58500Y-37000
X58500Y-45000
X58500Y-49000
X58500Y-50000
X59500Y-33000
X59500Y-36000
X59500Y-37500
X59500Y-39000
X59500Y-44000
X59500Y-50000
X60200Y-43650
X60500Y-33000
X60500Y-36000
X60500Y-37000
X60500Y-39000
X60500Y-41000
X60500Y-45000
X60500Y-50000
X61500Y-33000
X61500Y-37000
X61500Y-38000
X61500Y-39000
X61500Y-40000
X61500Y-41000
X61500Y-45000
X61500Y-46000
X61500Y-50000
X62500Y-33000
X62500Y-37000
X62500Y-38000
X62500Y-39000
X62500Y-40000
X62500Y-44000
X62500Y-45000
X62500Y-46000
X62500Y-50000
X63500Y-33000
X63500Y-37000
X63500Y-38000
X63500Y-39000
X63500Y-40000
X63500Y-41000
X63500Y-42000
X63500Y-43000
X63500Y-44000
X63500Y-45000
X63500Y-46000
X63500Y-50000
T3
X58600Y-38850
T4
X41650Y-33450
X42650Y-33450
X62750Y-47400
X62750Y-48400
X62900Y-34500
X62900Y-35500
T5
X51716Y-33900
X52700Y-33900
X53684Y-33900
T6
X41770Y-40000
X41770Y-46000
T7
X40000Y-40000
X40000Y-46000
X41770Y-38030
X41770Y-41970
X41770Y-44030
X41770Y-47970
T8
X51086Y-35199
X54314Y-35199
T0
M30
