G04 #@! TF.FileFunction,Copper,L1,Top,Signal*
%FSLAX46Y46*%
G04 Gerber Fmt 4.6, Leading zero omitted, Abs format (unit mm)*
G04 Created by KiCad (PCBNEW 4.0.1-2.201512121406+6195~38~ubuntu14.04.1-stable) date Sun 03 Jul 2016 07:38:07 PM CEST*
%MOMM*%
G01*
G04 APERTURE LIST*
%ADD10C,0.100000*%
%ADD11R,1.000000X1.600000*%
%ADD12R,1.250000X1.000000*%
%ADD13R,1.600000X1.000000*%
%ADD14R,1.600200X2.600960*%
%ADD15R,1.000000X1.250000*%
%ADD16R,2.692400X0.990600*%
%ADD17R,0.990600X2.692400*%
%ADD18R,2.032000X2.032000*%
%ADD19O,2.032000X2.032000*%
%ADD20R,0.700000X1.300000*%
%ADD21C,2.000000*%
%ADD22R,2.108200X2.108200*%
%ADD23R,3.657600X2.032000*%
%ADD24R,1.016000X2.032000*%
%ADD25R,1.198880X1.198880*%
%ADD26R,1.300000X0.700000*%
%ADD27C,3.810000*%
%ADD28C,3.048000*%
%ADD29R,0.250000X1.550000*%
%ADD30R,7.800000X3.400000*%
%ADD31C,0.508000*%
%ADD32C,0.685800*%
%ADD33C,1.371600*%
%ADD34C,1.219200*%
%ADD35C,0.152400*%
%ADD36C,0.609600*%
%ADD37C,0.304800*%
%ADD38C,2.438400*%
G04 APERTURE END LIST*
D10*
D11*
X100227000Y-88265000D03*
X103227000Y-88265000D03*
X117959000Y-84455000D03*
X114959000Y-84455000D03*
D12*
X153543000Y-89773000D03*
X153543000Y-87773000D03*
X155956000Y-85741000D03*
X155956000Y-87741000D03*
D13*
X142748000Y-94258000D03*
X142748000Y-97258000D03*
D14*
X124333000Y-88414860D03*
X124333000Y-84813140D03*
D13*
X141732000Y-116435000D03*
X141732000Y-113435000D03*
X146431000Y-94258000D03*
X146431000Y-97258000D03*
D12*
X155956000Y-91805000D03*
X155956000Y-89805000D03*
D15*
X151241000Y-121285000D03*
X149241000Y-121285000D03*
D12*
X155956000Y-122698000D03*
X155956000Y-124698000D03*
D15*
X138033000Y-99822000D03*
X136033000Y-99822000D03*
X138033000Y-102108000D03*
X136033000Y-102108000D03*
X137906000Y-109982000D03*
X135906000Y-109982000D03*
X137906000Y-107696000D03*
X135906000Y-107696000D03*
D12*
X155956000Y-120634000D03*
X155956000Y-118634000D03*
D15*
X154321000Y-108585000D03*
X156321000Y-108585000D03*
D12*
X154813000Y-100981000D03*
X154813000Y-102981000D03*
D15*
X154797000Y-96774000D03*
X152797000Y-96774000D03*
D16*
X149860000Y-84632800D03*
X149860000Y-86817200D03*
X149860000Y-91008200D03*
X149860000Y-88823800D03*
D17*
X147116800Y-117729000D03*
X149301200Y-117729000D03*
X153619200Y-117729000D03*
X151434800Y-117729000D03*
D18*
X103251000Y-84963000D03*
D19*
X100711000Y-84963000D03*
D20*
X114869000Y-87503000D03*
X112969000Y-87503000D03*
X156144000Y-110871000D03*
X154244000Y-110871000D03*
X154117000Y-106299000D03*
X156017000Y-106299000D03*
D21*
X136358000Y-86106000D03*
X133858000Y-86106000D03*
X131358000Y-86106000D03*
D18*
X159766000Y-87630000D03*
D19*
X159766000Y-90170000D03*
D18*
X159385000Y-122936000D03*
D19*
X159385000Y-120396000D03*
D22*
X115684300Y-124548900D03*
X106565700Y-124548900D03*
X115684300Y-120053100D03*
X106565700Y-120053100D03*
D23*
X115062000Y-97028000D03*
D24*
X115062000Y-90424000D03*
X112776000Y-90424000D03*
X117348000Y-90424000D03*
D25*
X121158000Y-91787980D03*
X121158000Y-93886020D03*
D26*
X123444000Y-94168000D03*
X123444000Y-92268000D03*
D27*
X96393000Y-97917000D03*
X100888800Y-92913200D03*
X100888800Y-102920800D03*
D28*
X100888800Y-97917000D03*
D27*
X96139000Y-113538000D03*
X100634800Y-108534200D03*
X100634800Y-118541800D03*
D28*
X100634800Y-113538000D03*
D29*
X141713000Y-107448000D03*
X142363000Y-107448000D03*
X143013000Y-107448000D03*
X143663000Y-107448000D03*
X144313000Y-107448000D03*
X144963000Y-107448000D03*
X145613000Y-107448000D03*
X146263000Y-107448000D03*
X146913000Y-107448000D03*
X147563000Y-107448000D03*
X148213000Y-107448000D03*
X148863000Y-107448000D03*
X148863000Y-101848000D03*
X148213000Y-101848000D03*
X147563000Y-101848000D03*
X146913000Y-101848000D03*
X146263000Y-101848000D03*
X145613000Y-101848000D03*
X144963000Y-101848000D03*
X144313000Y-101848000D03*
X143663000Y-101848000D03*
X143013000Y-101848000D03*
X142363000Y-101848000D03*
X141713000Y-101848000D03*
D30*
X145288000Y-104648000D03*
D31*
X142038000Y-103598000D03*
X143338000Y-103598000D03*
X144638000Y-103598000D03*
X145938000Y-103598000D03*
X147238000Y-103598000D03*
X148538000Y-103598000D03*
X142038000Y-104648000D03*
X143338000Y-104648000D03*
X144638000Y-104648000D03*
X145938000Y-104648000D03*
X147238000Y-104648000D03*
X148538000Y-104648000D03*
X142038000Y-105698000D03*
X143338000Y-105698000D03*
X144638000Y-105698000D03*
X145938000Y-105698000D03*
X147238000Y-105698000D03*
X148538000Y-105698000D03*
D32*
X143637000Y-109093000D03*
X146939000Y-108966000D03*
X139446000Y-115443000D03*
D33*
X148844000Y-98679000D03*
D32*
X142875000Y-109474000D03*
X152908000Y-110871000D03*
X151257000Y-94996000D03*
X147066000Y-100330000D03*
X143764000Y-100330000D03*
D34*
X112969000Y-87503000D02*
X112776000Y-87696000D01*
X112776000Y-87696000D02*
X112776000Y-90424000D01*
X103227000Y-88265000D02*
X103989000Y-87503000D01*
X103989000Y-87503000D02*
X112969000Y-87503000D01*
X103251000Y-84963000D02*
X103251000Y-88241000D01*
X103251000Y-88241000D02*
X103227000Y-88265000D01*
D35*
X143663000Y-109067000D02*
X143663000Y-107448000D01*
X143637000Y-109093000D02*
X143663000Y-109067000D01*
X146913000Y-107448000D02*
X146913000Y-108940000D01*
X146913000Y-108940000D02*
X146939000Y-108966000D01*
D34*
X140422686Y-113435000D02*
X141732000Y-113435000D01*
X139446000Y-114411686D02*
X140422686Y-113435000D01*
X139446000Y-115443000D02*
X139446000Y-114411686D01*
D36*
X154813000Y-102981000D02*
X156956000Y-102981000D01*
X157607000Y-110871000D02*
X156144000Y-110871000D01*
X158623000Y-109855000D02*
X157607000Y-110871000D01*
X158623000Y-104648000D02*
X158623000Y-109855000D01*
X156956000Y-102981000D02*
X158623000Y-104648000D01*
X153019000Y-102981000D02*
X154813000Y-102981000D01*
X148844000Y-98806000D02*
X153019000Y-102981000D01*
D35*
X148863000Y-98698000D02*
X148863000Y-101848000D01*
X148844000Y-98679000D02*
X148863000Y-98698000D01*
D34*
X124333000Y-84813140D02*
X125199140Y-83947000D01*
X136358000Y-84923000D02*
X136358000Y-86106000D01*
X135382000Y-83947000D02*
X136358000Y-84923000D01*
X125199140Y-83947000D02*
X135382000Y-83947000D01*
X115062000Y-90424000D02*
X115062000Y-89662000D01*
X115062000Y-89662000D02*
X117729000Y-86995000D01*
X122151140Y-86995000D02*
X124333000Y-84813140D01*
X117729000Y-86995000D02*
X122151140Y-86995000D01*
D36*
X115062000Y-90424000D02*
X115062000Y-87696000D01*
X115062000Y-87696000D02*
X114869000Y-87503000D01*
X115062000Y-90424000D02*
X115062000Y-91948000D01*
X120489980Y-92456000D02*
X121158000Y-91787980D01*
X115570000Y-92456000D02*
X120489980Y-92456000D01*
X115062000Y-91948000D02*
X115570000Y-92456000D01*
X114959000Y-84455000D02*
X114869000Y-84545000D01*
X114869000Y-84545000D02*
X114869000Y-87503000D01*
D37*
X153543000Y-89773000D02*
X152593800Y-88823800D01*
X152593800Y-88823800D02*
X149860000Y-88823800D01*
X155956000Y-89805000D02*
X155924000Y-89773000D01*
X155924000Y-89773000D02*
X153543000Y-89773000D01*
X159766000Y-90170000D02*
X159401000Y-89805000D01*
X159401000Y-89805000D02*
X155956000Y-89805000D01*
X153543000Y-87773000D02*
X152587200Y-86817200D01*
X152587200Y-86817200D02*
X149860000Y-86817200D01*
X155956000Y-87741000D02*
X153575000Y-87741000D01*
X153575000Y-87741000D02*
X153543000Y-87773000D01*
X159766000Y-87630000D02*
X156067000Y-87630000D01*
X156067000Y-87630000D02*
X155956000Y-87741000D01*
X151241000Y-121285000D02*
X151241000Y-117922800D01*
X151241000Y-117922800D02*
X151434800Y-117729000D01*
X155956000Y-118634000D02*
X155956000Y-118999000D01*
X155956000Y-118999000D02*
X153670000Y-121285000D01*
X153670000Y-121285000D02*
X151241000Y-121285000D01*
X159385000Y-120396000D02*
X157623000Y-118634000D01*
X157623000Y-118634000D02*
X155956000Y-118634000D01*
X149241000Y-121285000D02*
X149241000Y-117789200D01*
X149241000Y-117789200D02*
X149301200Y-117729000D01*
X155956000Y-124698000D02*
X151114000Y-124698000D01*
X149241000Y-122825000D02*
X149241000Y-121285000D01*
X151114000Y-124698000D02*
X149241000Y-122825000D01*
X159385000Y-122936000D02*
X157718000Y-122936000D01*
X157718000Y-122936000D02*
X155956000Y-124698000D01*
D35*
X142367000Y-101844000D02*
X142367000Y-100457000D01*
D37*
X141732000Y-99822000D02*
X142367000Y-100457000D01*
X141732000Y-99822000D02*
X138033000Y-99822000D01*
D35*
X142367000Y-101844000D02*
X142363000Y-101848000D01*
D34*
X100888800Y-97917000D02*
X102793800Y-99822000D01*
X102793800Y-99822000D02*
X136033000Y-99822000D01*
D37*
X138033000Y-102108000D02*
X141453000Y-102108000D01*
X141453000Y-102108000D02*
X141713000Y-101848000D01*
D34*
X100888800Y-102920800D02*
X101701600Y-102108000D01*
X101701600Y-102108000D02*
X136033000Y-102108000D01*
D38*
X96393000Y-97917000D02*
X96393000Y-98425000D01*
X96393000Y-98425000D02*
X100888800Y-102920800D01*
X100888800Y-92913200D02*
X100888800Y-93421200D01*
X100888800Y-93421200D02*
X96393000Y-97917000D01*
D35*
X137906000Y-109982000D02*
X141097000Y-109982000D01*
X142363000Y-108716000D02*
X142363000Y-107448000D01*
X141097000Y-109982000D02*
X142363000Y-108716000D01*
D34*
X100634800Y-113538000D02*
X104190800Y-109982000D01*
X104190800Y-109982000D02*
X135906000Y-109982000D01*
D37*
X137906000Y-107696000D02*
X138154000Y-107448000D01*
X138154000Y-107448000D02*
X141713000Y-107448000D01*
D34*
X100634800Y-108534200D02*
X101473000Y-107696000D01*
X101473000Y-107696000D02*
X135906000Y-107696000D01*
D38*
X96139000Y-113538000D02*
X96139000Y-114046000D01*
X96139000Y-114046000D02*
X100634800Y-118541800D01*
X100634800Y-108534200D02*
X100634800Y-109042200D01*
X100634800Y-109042200D02*
X96139000Y-113538000D01*
D35*
X147574000Y-107459000D02*
X147574000Y-109220000D01*
D37*
X151892000Y-108585000D02*
X149733000Y-110744000D01*
X149733000Y-110744000D02*
X148971000Y-110744000D01*
X148971000Y-110744000D02*
X147574000Y-109347000D01*
X147574000Y-109347000D02*
X147574000Y-109220000D01*
X151892000Y-108585000D02*
X154321000Y-108585000D01*
D35*
X147574000Y-107459000D02*
X147563000Y-107448000D01*
X144907000Y-100330000D02*
X144963000Y-100386000D01*
D37*
X148412200Y-84632800D02*
X147320000Y-85725000D01*
X147320000Y-85725000D02*
X147320000Y-91440000D01*
X147320000Y-91440000D02*
X146812000Y-91948000D01*
X146812000Y-91948000D02*
X145796000Y-91948000D01*
X145796000Y-91948000D02*
X144399000Y-93345000D01*
X144399000Y-93345000D02*
X144399000Y-99822000D01*
X144399000Y-99822000D02*
X144907000Y-100330000D01*
X149860000Y-84632800D02*
X148412200Y-84632800D01*
D35*
X144963000Y-100386000D02*
X144963000Y-101848000D01*
X146304000Y-101807000D02*
X146304000Y-100330000D01*
D37*
X148412200Y-92456000D02*
X146177000Y-92456000D01*
X146177000Y-92456000D02*
X146050000Y-92456000D01*
X146050000Y-92456000D02*
X144907000Y-93599000D01*
X144907000Y-93599000D02*
X144907000Y-98933000D01*
X144907000Y-98933000D02*
X146304000Y-100330000D01*
X148412200Y-92456000D02*
X149860000Y-91008200D01*
D35*
X146304000Y-101807000D02*
X146263000Y-101848000D01*
X146304000Y-107489000D02*
X146304000Y-109220000D01*
D37*
X153619200Y-116027200D02*
X149479000Y-111887000D01*
X149479000Y-111887000D02*
X148590000Y-111887000D01*
X148590000Y-111887000D02*
X146304000Y-109601000D01*
X146304000Y-109601000D02*
X146304000Y-109220000D01*
X153619200Y-116027200D02*
X153619200Y-117729000D01*
D35*
X146304000Y-107489000D02*
X146263000Y-107448000D01*
D37*
X154244000Y-110871000D02*
X152908000Y-110871000D01*
D35*
X142875000Y-109474000D02*
X143013000Y-109336000D01*
D36*
X127800100Y-124548900D02*
X142875000Y-109474000D01*
X115684300Y-124548900D02*
X127800100Y-124548900D01*
D35*
X143013000Y-109336000D02*
X143013000Y-107448000D01*
X148209000Y-107452000D02*
X148209000Y-109220000D01*
D37*
X153416000Y-106299000D02*
X149479000Y-110236000D01*
X149479000Y-110236000D02*
X149225000Y-110236000D01*
X149225000Y-110236000D02*
X148209000Y-109220000D01*
X153416000Y-106299000D02*
X154117000Y-106299000D01*
D35*
X148209000Y-107452000D02*
X148213000Y-107448000D01*
D37*
X152797000Y-96774000D02*
X152797000Y-96536000D01*
X152797000Y-96536000D02*
X151257000Y-94996000D01*
D35*
X152797000Y-96774000D02*
X148463000Y-96774000D01*
X148213000Y-99953000D02*
X148213000Y-101848000D01*
X147828000Y-99568000D02*
X148213000Y-99953000D01*
X147828000Y-97409000D02*
X147828000Y-99568000D01*
X148463000Y-96774000D02*
X147828000Y-97409000D01*
D36*
X121158000Y-93886020D02*
X123162020Y-93886020D01*
X123162020Y-93886020D02*
X123444000Y-94168000D01*
D35*
X143002000Y-101837000D02*
X143002000Y-100330000D01*
D37*
X142748000Y-100076000D02*
X143002000Y-100330000D01*
X142748000Y-100076000D02*
X142748000Y-97258000D01*
D35*
X143002000Y-101837000D02*
X143013000Y-101848000D01*
X144399000Y-109220000D02*
X144313000Y-109134000D01*
D37*
X144399000Y-115011200D02*
X144399000Y-109220000D01*
X147116800Y-117729000D02*
X144399000Y-115011200D01*
D35*
X144313000Y-109134000D02*
X144313000Y-107448000D01*
X146913000Y-101848000D02*
X146913000Y-100483000D01*
X146913000Y-100483000D02*
X147066000Y-100330000D01*
D37*
X146431000Y-97258000D02*
X147066000Y-97893000D01*
X147066000Y-97893000D02*
X147066000Y-100330000D01*
D35*
X143663000Y-101848000D02*
X143663000Y-100431000D01*
X143663000Y-100431000D02*
X143764000Y-100330000D01*
X147066000Y-100330000D02*
X146939000Y-100330000D01*
X146939000Y-100330000D02*
X147066000Y-100330000D01*
X147066000Y-100330000D02*
X146939000Y-100330000D01*
D37*
X146939000Y-100330000D02*
X146939000Y-100330000D01*
D35*
G36*
X162891400Y-127585400D02*
X93267600Y-127585400D01*
X93267600Y-123494800D01*
X105278522Y-123494800D01*
X105278522Y-125603000D01*
X105294462Y-125687714D01*
X105344528Y-125765518D01*
X105420920Y-125817715D01*
X105511600Y-125836078D01*
X107619800Y-125836078D01*
X107704514Y-125820138D01*
X107782318Y-125770072D01*
X107834515Y-125693680D01*
X107852878Y-125603000D01*
X107852878Y-123494800D01*
X114397122Y-123494800D01*
X114397122Y-125603000D01*
X114413062Y-125687714D01*
X114463128Y-125765518D01*
X114539520Y-125817715D01*
X114630200Y-125836078D01*
X116738400Y-125836078D01*
X116823114Y-125820138D01*
X116900918Y-125770072D01*
X116953115Y-125693680D01*
X116971478Y-125603000D01*
X116971478Y-125082300D01*
X127800100Y-125082300D01*
X128004223Y-125041697D01*
X128177271Y-124926071D01*
X132443342Y-120660000D01*
X148507922Y-120660000D01*
X148507922Y-121910000D01*
X148523862Y-121994714D01*
X148573928Y-122072518D01*
X148650320Y-122124715D01*
X148741000Y-122143078D01*
X148860000Y-122143078D01*
X148860000Y-122825000D01*
X148889002Y-122970803D01*
X148971592Y-123094408D01*
X150844592Y-124967408D01*
X150968197Y-125049998D01*
X151114000Y-125079000D01*
X155097922Y-125079000D01*
X155097922Y-125198000D01*
X155113862Y-125282714D01*
X155163928Y-125360518D01*
X155240320Y-125412715D01*
X155331000Y-125431078D01*
X156581000Y-125431078D01*
X156665714Y-125415138D01*
X156743518Y-125365072D01*
X156795715Y-125288680D01*
X156814078Y-125198000D01*
X156814078Y-124378738D01*
X157875815Y-123317000D01*
X158135922Y-123317000D01*
X158135922Y-123952000D01*
X158151862Y-124036714D01*
X158201928Y-124114518D01*
X158278320Y-124166715D01*
X158369000Y-124185078D01*
X160401000Y-124185078D01*
X160485714Y-124169138D01*
X160563518Y-124119072D01*
X160615715Y-124042680D01*
X160634078Y-123952000D01*
X160634078Y-121920000D01*
X160618138Y-121835286D01*
X160568072Y-121757482D01*
X160491680Y-121705285D01*
X160401000Y-121686922D01*
X158369000Y-121686922D01*
X158284286Y-121702862D01*
X158206482Y-121752928D01*
X158154285Y-121829320D01*
X158135922Y-121920000D01*
X158135922Y-122555000D01*
X157718000Y-122555000D01*
X157572197Y-122584002D01*
X157522688Y-122617083D01*
X157448592Y-122666592D01*
X157448590Y-122666595D01*
X157129267Y-122985917D01*
X157019150Y-122875800D01*
X156133800Y-122875800D01*
X156133800Y-123636150D01*
X156279850Y-123782200D01*
X156332984Y-123782200D01*
X156150262Y-123964922D01*
X155331000Y-123964922D01*
X155246286Y-123980862D01*
X155168482Y-124030928D01*
X155116285Y-124107320D01*
X155097922Y-124198000D01*
X155097922Y-124317000D01*
X151271816Y-124317000D01*
X149976666Y-123021850D01*
X154746800Y-123021850D01*
X154746800Y-123314205D01*
X154835739Y-123528923D01*
X155000078Y-123693261D01*
X155214796Y-123782200D01*
X155632150Y-123782200D01*
X155778200Y-123636150D01*
X155778200Y-122875800D01*
X154892850Y-122875800D01*
X154746800Y-123021850D01*
X149976666Y-123021850D01*
X149622000Y-122667184D01*
X149622000Y-122143078D01*
X149741000Y-122143078D01*
X149825714Y-122127138D01*
X149903518Y-122077072D01*
X149955715Y-122000680D01*
X149974078Y-121910000D01*
X149974078Y-120660000D01*
X150507922Y-120660000D01*
X150507922Y-121910000D01*
X150523862Y-121994714D01*
X150573928Y-122072518D01*
X150650320Y-122124715D01*
X150741000Y-122143078D01*
X151741000Y-122143078D01*
X151825714Y-122127138D01*
X151903518Y-122077072D01*
X151955715Y-122000680D01*
X151974078Y-121910000D01*
X151974078Y-121666000D01*
X153670000Y-121666000D01*
X153815803Y-121636998D01*
X153939408Y-121554408D01*
X154746800Y-120747016D01*
X154746800Y-120811802D01*
X154892848Y-120811802D01*
X154746800Y-120957850D01*
X154746800Y-121250205D01*
X154835739Y-121464923D01*
X155000078Y-121629261D01*
X155088774Y-121666000D01*
X155000078Y-121702739D01*
X154835739Y-121867077D01*
X154746800Y-122081795D01*
X154746800Y-122374150D01*
X154892850Y-122520200D01*
X155778200Y-122520200D01*
X155778200Y-121759850D01*
X155684350Y-121666000D01*
X155778200Y-121572150D01*
X155778200Y-120811800D01*
X156133800Y-120811800D01*
X156133800Y-121572150D01*
X156227650Y-121666000D01*
X156133800Y-121759850D01*
X156133800Y-122520200D01*
X157019150Y-122520200D01*
X157165200Y-122374150D01*
X157165200Y-122081795D01*
X157076261Y-121867077D01*
X156911922Y-121702739D01*
X156823226Y-121666000D01*
X156911922Y-121629261D01*
X157076261Y-121464923D01*
X157165200Y-121250205D01*
X157165200Y-120957850D01*
X157019150Y-120811800D01*
X156133800Y-120811800D01*
X155778200Y-120811800D01*
X155758200Y-120811800D01*
X155758200Y-120456200D01*
X155778200Y-120456200D01*
X155778200Y-119715616D01*
X155797966Y-119695850D01*
X156133800Y-119695850D01*
X156133800Y-120456200D01*
X157019150Y-120456200D01*
X157165200Y-120310150D01*
X157165200Y-120017795D01*
X157076261Y-119803077D01*
X156911922Y-119638739D01*
X156697204Y-119549800D01*
X156279850Y-119549800D01*
X156133800Y-119695850D01*
X155797966Y-119695850D01*
X156126738Y-119367078D01*
X156581000Y-119367078D01*
X156665714Y-119351138D01*
X156743518Y-119301072D01*
X156795715Y-119224680D01*
X156814078Y-119134000D01*
X156814078Y-119015000D01*
X157465184Y-119015000D01*
X158274499Y-119824315D01*
X158210757Y-119919712D01*
X158116017Y-120396000D01*
X158210757Y-120872288D01*
X158480552Y-121276065D01*
X158884329Y-121545860D01*
X159360617Y-121640600D01*
X159409383Y-121640600D01*
X159885671Y-121545860D01*
X160289448Y-121276065D01*
X160559243Y-120872288D01*
X160653983Y-120396000D01*
X160559243Y-119919712D01*
X160289448Y-119515935D01*
X159885671Y-119246140D01*
X159409383Y-119151400D01*
X159360617Y-119151400D01*
X158884329Y-119246140D01*
X158818165Y-119290349D01*
X157892408Y-118364592D01*
X157768803Y-118282002D01*
X157623000Y-118253000D01*
X156814078Y-118253000D01*
X156814078Y-118134000D01*
X156798138Y-118049286D01*
X156748072Y-117971482D01*
X156671680Y-117919285D01*
X156581000Y-117900922D01*
X155331000Y-117900922D01*
X155246286Y-117916862D01*
X155168482Y-117966928D01*
X155116285Y-118043320D01*
X155097922Y-118134000D01*
X155097922Y-119134000D01*
X155113862Y-119218714D01*
X155146598Y-119269586D01*
X153512184Y-120904000D01*
X151974078Y-120904000D01*
X151974078Y-120660000D01*
X151958138Y-120575286D01*
X151908072Y-120497482D01*
X151831680Y-120445285D01*
X151741000Y-120426922D01*
X151622000Y-120426922D01*
X151622000Y-119308278D01*
X151930100Y-119308278D01*
X152014814Y-119292338D01*
X152092618Y-119242272D01*
X152144815Y-119165880D01*
X152163178Y-119075200D01*
X152163178Y-116382800D01*
X152147238Y-116298086D01*
X152097172Y-116220282D01*
X152020780Y-116168085D01*
X151930100Y-116149722D01*
X150939500Y-116149722D01*
X150854786Y-116165662D01*
X150776982Y-116215728D01*
X150724785Y-116292120D01*
X150706422Y-116382800D01*
X150706422Y-119075200D01*
X150722362Y-119159914D01*
X150772428Y-119237718D01*
X150848820Y-119289915D01*
X150860000Y-119292179D01*
X150860000Y-120426922D01*
X150741000Y-120426922D01*
X150656286Y-120442862D01*
X150578482Y-120492928D01*
X150526285Y-120569320D01*
X150507922Y-120660000D01*
X149974078Y-120660000D01*
X149958138Y-120575286D01*
X149908072Y-120497482D01*
X149831680Y-120445285D01*
X149741000Y-120426922D01*
X149622000Y-120426922D01*
X149622000Y-119308278D01*
X149796500Y-119308278D01*
X149881214Y-119292338D01*
X149959018Y-119242272D01*
X150011215Y-119165880D01*
X150029578Y-119075200D01*
X150029578Y-116382800D01*
X150013638Y-116298086D01*
X149963572Y-116220282D01*
X149887180Y-116168085D01*
X149796500Y-116149722D01*
X148805900Y-116149722D01*
X148721186Y-116165662D01*
X148643382Y-116215728D01*
X148591185Y-116292120D01*
X148572822Y-116382800D01*
X148572822Y-119075200D01*
X148588762Y-119159914D01*
X148638828Y-119237718D01*
X148715220Y-119289915D01*
X148805900Y-119308278D01*
X148860000Y-119308278D01*
X148860000Y-120426922D01*
X148741000Y-120426922D01*
X148656286Y-120442862D01*
X148578482Y-120492928D01*
X148526285Y-120569320D01*
X148507922Y-120660000D01*
X132443342Y-120660000D01*
X136344492Y-116758850D01*
X140347800Y-116758850D01*
X140347800Y-117051205D01*
X140436739Y-117265923D01*
X140601078Y-117430261D01*
X140815796Y-117519200D01*
X141408150Y-117519200D01*
X141554200Y-117373150D01*
X141554200Y-116612800D01*
X141909800Y-116612800D01*
X141909800Y-117373150D01*
X142055850Y-117519200D01*
X142648204Y-117519200D01*
X142862922Y-117430261D01*
X143027261Y-117265923D01*
X143116200Y-117051205D01*
X143116200Y-116758850D01*
X142970150Y-116612800D01*
X141909800Y-116612800D01*
X141554200Y-116612800D01*
X140493850Y-116612800D01*
X140347800Y-116758850D01*
X136344492Y-116758850D01*
X138607800Y-114495542D01*
X138607800Y-115443000D01*
X138671604Y-115763765D01*
X138853303Y-116035697D01*
X139125235Y-116217396D01*
X139446000Y-116281200D01*
X139766765Y-116217396D01*
X140038697Y-116035697D01*
X140183626Y-115818795D01*
X140347800Y-115818795D01*
X140347800Y-116111150D01*
X140493850Y-116257200D01*
X141554200Y-116257200D01*
X141554200Y-115496850D01*
X141909800Y-115496850D01*
X141909800Y-116257200D01*
X142970150Y-116257200D01*
X143116200Y-116111150D01*
X143116200Y-115818795D01*
X143027261Y-115604077D01*
X142862922Y-115439739D01*
X142648204Y-115350800D01*
X142055850Y-115350800D01*
X141909800Y-115496850D01*
X141554200Y-115496850D01*
X141408150Y-115350800D01*
X140815796Y-115350800D01*
X140601078Y-115439739D01*
X140436739Y-115604077D01*
X140347800Y-115818795D01*
X140183626Y-115818795D01*
X140220396Y-115763765D01*
X140284200Y-115443000D01*
X140284200Y-114758880D01*
X140769880Y-114273200D01*
X141732000Y-114273200D01*
X142052765Y-114209396D01*
X142114602Y-114168078D01*
X142532000Y-114168078D01*
X142616714Y-114152138D01*
X142694518Y-114102072D01*
X142746715Y-114025680D01*
X142765078Y-113935000D01*
X142765078Y-112935000D01*
X142749138Y-112850286D01*
X142699072Y-112772482D01*
X142622680Y-112720285D01*
X142532000Y-112701922D01*
X142114602Y-112701922D01*
X142052765Y-112660604D01*
X141732000Y-112596800D01*
X140506542Y-112596800D01*
X143106725Y-109996617D01*
X143198306Y-109958776D01*
X143359211Y-109798151D01*
X143430643Y-109626124D01*
X143522823Y-109664400D01*
X143750180Y-109664599D01*
X143960306Y-109577776D01*
X144018000Y-109520182D01*
X144018000Y-115011200D01*
X144047002Y-115157003D01*
X144129592Y-115280608D01*
X146388422Y-117539437D01*
X146388422Y-119075200D01*
X146404362Y-119159914D01*
X146454428Y-119237718D01*
X146530820Y-119289915D01*
X146621500Y-119308278D01*
X147612100Y-119308278D01*
X147696814Y-119292338D01*
X147774618Y-119242272D01*
X147826815Y-119165880D01*
X147845178Y-119075200D01*
X147845178Y-116382800D01*
X147829238Y-116298086D01*
X147779172Y-116220282D01*
X147702780Y-116168085D01*
X147612100Y-116149722D01*
X146621500Y-116149722D01*
X146536786Y-116165662D01*
X146458982Y-116215728D01*
X146406785Y-116292120D01*
X146388422Y-116382800D01*
X146388422Y-116461807D01*
X144780000Y-114853384D01*
X144780000Y-109220000D01*
X144750998Y-109074198D01*
X144668408Y-108950592D01*
X144617800Y-108916777D01*
X144617800Y-108764124D01*
X144721795Y-108807200D01*
X144754450Y-108807200D01*
X144900500Y-108661150D01*
X144900500Y-107771850D01*
X144903800Y-107771850D01*
X144903800Y-108339204D01*
X144992739Y-108553922D01*
X145025500Y-108586683D01*
X145025500Y-108661150D01*
X145171550Y-108807200D01*
X145204205Y-108807200D01*
X145288000Y-108772491D01*
X145371795Y-108807200D01*
X145404450Y-108807200D01*
X145550500Y-108661150D01*
X145550500Y-108586683D01*
X145583261Y-108553922D01*
X145672200Y-108339204D01*
X145672200Y-107771850D01*
X145550500Y-107650150D01*
X145550500Y-107625800D01*
X145025500Y-107625800D01*
X145025500Y-107650150D01*
X144903800Y-107771850D01*
X144900500Y-107771850D01*
X144900500Y-107625800D01*
X144838000Y-107625800D01*
X144838000Y-107270200D01*
X144900500Y-107270200D01*
X144900500Y-106556796D01*
X144903800Y-106556796D01*
X144903800Y-107124150D01*
X145025500Y-107245850D01*
X145025500Y-107270200D01*
X145550500Y-107270200D01*
X145550500Y-107245850D01*
X145672200Y-107124150D01*
X145672200Y-106556796D01*
X145583261Y-106342078D01*
X145550500Y-106309317D01*
X145550500Y-106234850D01*
X145675500Y-106234850D01*
X145675500Y-107270200D01*
X145738000Y-107270200D01*
X145738000Y-107625800D01*
X145675500Y-107625800D01*
X145675500Y-108661150D01*
X145821550Y-108807200D01*
X145854205Y-108807200D01*
X145999200Y-108747141D01*
X145999200Y-109003560D01*
X145952002Y-109074198D01*
X145923000Y-109220000D01*
X145923000Y-109601000D01*
X145952002Y-109746803D01*
X146034592Y-109870408D01*
X148320592Y-112156408D01*
X148444197Y-112238998D01*
X148590000Y-112268000D01*
X149321184Y-112268000D01*
X153202906Y-116149722D01*
X153123900Y-116149722D01*
X153039186Y-116165662D01*
X152961382Y-116215728D01*
X152909185Y-116292120D01*
X152890822Y-116382800D01*
X152890822Y-119075200D01*
X152906762Y-119159914D01*
X152956828Y-119237718D01*
X153033220Y-119289915D01*
X153123900Y-119308278D01*
X154114500Y-119308278D01*
X154199214Y-119292338D01*
X154277018Y-119242272D01*
X154329215Y-119165880D01*
X154347578Y-119075200D01*
X154347578Y-116382800D01*
X154331638Y-116298086D01*
X154281572Y-116220282D01*
X154205180Y-116168085D01*
X154114500Y-116149722D01*
X154000200Y-116149722D01*
X154000200Y-116027200D01*
X153971198Y-115881397D01*
X153888608Y-115757792D01*
X149748408Y-111617592D01*
X149624803Y-111535002D01*
X149479000Y-111506000D01*
X148747816Y-111506000D01*
X146746831Y-109505015D01*
X146824823Y-109537400D01*
X147052180Y-109537599D01*
X147217338Y-109469356D01*
X147222002Y-109492803D01*
X147304592Y-109616408D01*
X148701590Y-111013405D01*
X148701592Y-111013408D01*
X148775688Y-111062917D01*
X148825197Y-111095998D01*
X148971000Y-111125000D01*
X149733000Y-111125000D01*
X149878803Y-111095998D01*
X150002408Y-111013408D01*
X150031636Y-110984180D01*
X152336401Y-110984180D01*
X152423224Y-111194306D01*
X152583849Y-111355211D01*
X152793823Y-111442400D01*
X153021180Y-111442599D01*
X153231306Y-111355776D01*
X153335263Y-111252000D01*
X153660922Y-111252000D01*
X153660922Y-111521000D01*
X153676862Y-111605714D01*
X153726928Y-111683518D01*
X153803320Y-111735715D01*
X153894000Y-111754078D01*
X154594000Y-111754078D01*
X154678714Y-111738138D01*
X154756518Y-111688072D01*
X154808715Y-111611680D01*
X154827078Y-111521000D01*
X154827078Y-110221000D01*
X154811138Y-110136286D01*
X154761072Y-110058482D01*
X154684680Y-110006285D01*
X154594000Y-109987922D01*
X153894000Y-109987922D01*
X153809286Y-110003862D01*
X153731482Y-110053928D01*
X153679285Y-110130320D01*
X153660922Y-110221000D01*
X153660922Y-110490000D01*
X153335182Y-110490000D01*
X153232151Y-110386789D01*
X153022177Y-110299600D01*
X152794820Y-110299401D01*
X152584694Y-110386224D01*
X152423789Y-110546849D01*
X152336600Y-110756823D01*
X152336401Y-110984180D01*
X150031636Y-110984180D01*
X152049816Y-108966000D01*
X153587922Y-108966000D01*
X153587922Y-109210000D01*
X153603862Y-109294714D01*
X153653928Y-109372518D01*
X153730320Y-109424715D01*
X153821000Y-109443078D01*
X154821000Y-109443078D01*
X154905714Y-109427138D01*
X154983518Y-109377072D01*
X155035715Y-109300680D01*
X155054078Y-109210000D01*
X155054078Y-108908850D01*
X155236800Y-108908850D01*
X155236800Y-109326204D01*
X155325739Y-109540922D01*
X155490077Y-109705261D01*
X155704795Y-109794200D01*
X155997150Y-109794200D01*
X156143200Y-109648150D01*
X156143200Y-108762800D01*
X156498800Y-108762800D01*
X156498800Y-109648150D01*
X156644850Y-109794200D01*
X156937205Y-109794200D01*
X157151923Y-109705261D01*
X157316261Y-109540922D01*
X157405200Y-109326204D01*
X157405200Y-108908850D01*
X157259150Y-108762800D01*
X156498800Y-108762800D01*
X156143200Y-108762800D01*
X155382850Y-108762800D01*
X155236800Y-108908850D01*
X155054078Y-108908850D01*
X155054078Y-107960000D01*
X155038138Y-107875286D01*
X154988072Y-107797482D01*
X154911680Y-107745285D01*
X154821000Y-107726922D01*
X153821000Y-107726922D01*
X153736286Y-107742862D01*
X153658482Y-107792928D01*
X153606285Y-107869320D01*
X153587922Y-107960000D01*
X153587922Y-108204000D01*
X152049816Y-108204000D01*
X153533922Y-106719894D01*
X153533922Y-106949000D01*
X153549862Y-107033714D01*
X153599928Y-107111518D01*
X153676320Y-107163715D01*
X153767000Y-107182078D01*
X154467000Y-107182078D01*
X154551714Y-107166138D01*
X154629518Y-107116072D01*
X154681715Y-107039680D01*
X154700078Y-106949000D01*
X154700078Y-106622850D01*
X155082800Y-106622850D01*
X155082800Y-107065204D01*
X155171739Y-107279922D01*
X155336077Y-107444261D01*
X155459452Y-107495364D01*
X155325739Y-107629078D01*
X155236800Y-107843796D01*
X155236800Y-108261150D01*
X155382850Y-108407200D01*
X156143200Y-108407200D01*
X156143200Y-108387200D01*
X156498800Y-108387200D01*
X156498800Y-108407200D01*
X157259150Y-108407200D01*
X157405200Y-108261150D01*
X157405200Y-107843796D01*
X157316261Y-107629078D01*
X157151923Y-107464739D01*
X156937205Y-107375800D01*
X156766384Y-107375800D01*
X156862261Y-107279922D01*
X156951200Y-107065204D01*
X156951200Y-106622850D01*
X156805150Y-106476800D01*
X156192000Y-106476800D01*
X156192000Y-106496800D01*
X155842000Y-106496800D01*
X155842000Y-106476800D01*
X155228850Y-106476800D01*
X155082800Y-106622850D01*
X154700078Y-106622850D01*
X154700078Y-105649000D01*
X154684138Y-105564286D01*
X154663875Y-105532796D01*
X155082800Y-105532796D01*
X155082800Y-105975150D01*
X155228850Y-106121200D01*
X155842000Y-106121200D01*
X155842000Y-105210850D01*
X156192000Y-105210850D01*
X156192000Y-106121200D01*
X156805150Y-106121200D01*
X156951200Y-105975150D01*
X156951200Y-105532796D01*
X156862261Y-105318078D01*
X156697923Y-105153739D01*
X156483205Y-105064800D01*
X156338050Y-105064800D01*
X156192000Y-105210850D01*
X155842000Y-105210850D01*
X155695950Y-105064800D01*
X155550795Y-105064800D01*
X155336077Y-105153739D01*
X155171739Y-105318078D01*
X155082800Y-105532796D01*
X154663875Y-105532796D01*
X154634072Y-105486482D01*
X154557680Y-105434285D01*
X154467000Y-105415922D01*
X153767000Y-105415922D01*
X153682286Y-105431862D01*
X153604482Y-105481928D01*
X153552285Y-105558320D01*
X153533922Y-105649000D01*
X153533922Y-105918000D01*
X153416005Y-105918000D01*
X153416000Y-105917999D01*
X153270198Y-105947002D01*
X153146592Y-106029592D01*
X149352000Y-109824184D01*
X148513800Y-108985984D01*
X148513800Y-108762467D01*
X148621795Y-108807200D01*
X148654450Y-108807200D01*
X148800500Y-108661150D01*
X148800500Y-107625800D01*
X148925500Y-107625800D01*
X148925500Y-108661150D01*
X149071550Y-108807200D01*
X149104205Y-108807200D01*
X149318923Y-108718261D01*
X149483261Y-108553922D01*
X149572200Y-108339204D01*
X149572200Y-107771850D01*
X149426150Y-107625800D01*
X148925500Y-107625800D01*
X148800500Y-107625800D01*
X148738000Y-107625800D01*
X148738000Y-107270200D01*
X148800500Y-107270200D01*
X148800500Y-106234850D01*
X148925500Y-106234850D01*
X148925500Y-107270200D01*
X149426150Y-107270200D01*
X149572200Y-107124150D01*
X149572200Y-106556796D01*
X149483261Y-106342078D01*
X149318923Y-106177739D01*
X149104205Y-106088800D01*
X149071550Y-106088800D01*
X148925500Y-106234850D01*
X148800500Y-106234850D01*
X148654450Y-106088800D01*
X148621795Y-106088800D01*
X148407077Y-106177739D01*
X148242739Y-106342078D01*
X148202211Y-106439922D01*
X148088000Y-106439922D01*
X148003286Y-106455862D01*
X147925482Y-106505928D01*
X147887712Y-106561206D01*
X147855072Y-106510482D01*
X147778680Y-106458285D01*
X147688000Y-106439922D01*
X147438000Y-106439922D01*
X147353286Y-106455862D01*
X147275482Y-106505928D01*
X147237712Y-106561206D01*
X147205072Y-106510482D01*
X147128680Y-106458285D01*
X147038000Y-106439922D01*
X146788000Y-106439922D01*
X146703286Y-106455862D01*
X146625482Y-106505928D01*
X146587712Y-106561206D01*
X146555072Y-106510482D01*
X146478680Y-106458285D01*
X146388000Y-106439922D01*
X146273789Y-106439922D01*
X146233261Y-106342078D01*
X146068923Y-106177739D01*
X145854205Y-106088800D01*
X145821550Y-106088800D01*
X145675500Y-106234850D01*
X145550500Y-106234850D01*
X145404450Y-106088800D01*
X145371795Y-106088800D01*
X145288000Y-106123509D01*
X145204205Y-106088800D01*
X145171550Y-106088800D01*
X145025500Y-106234850D01*
X145025500Y-106309317D01*
X144992739Y-106342078D01*
X144903800Y-106556796D01*
X144900500Y-106556796D01*
X144900500Y-106234850D01*
X144754450Y-106088800D01*
X144721795Y-106088800D01*
X144507077Y-106177739D01*
X144342739Y-106342078D01*
X144302211Y-106439922D01*
X144188000Y-106439922D01*
X144103286Y-106455862D01*
X144025482Y-106505928D01*
X143987712Y-106561206D01*
X143955072Y-106510482D01*
X143878680Y-106458285D01*
X143788000Y-106439922D01*
X143538000Y-106439922D01*
X143453286Y-106455862D01*
X143375482Y-106505928D01*
X143337712Y-106561206D01*
X143305072Y-106510482D01*
X143228680Y-106458285D01*
X143138000Y-106439922D01*
X142888000Y-106439922D01*
X142803286Y-106455862D01*
X142725482Y-106505928D01*
X142687712Y-106561206D01*
X142655072Y-106510482D01*
X142578680Y-106458285D01*
X142488000Y-106439922D01*
X142238000Y-106439922D01*
X142153286Y-106455862D01*
X142075482Y-106505928D01*
X142037712Y-106561206D01*
X142005072Y-106510482D01*
X141928680Y-106458285D01*
X141838000Y-106439922D01*
X141588000Y-106439922D01*
X141503286Y-106455862D01*
X141425482Y-106505928D01*
X141373285Y-106582320D01*
X141354922Y-106673000D01*
X141354922Y-107067000D01*
X138638325Y-107067000D01*
X138623138Y-106986286D01*
X138573072Y-106908482D01*
X138496680Y-106856285D01*
X138406000Y-106837922D01*
X137406000Y-106837922D01*
X137321286Y-106853862D01*
X137243482Y-106903928D01*
X137191285Y-106980320D01*
X137172922Y-107071000D01*
X137172922Y-108321000D01*
X137188862Y-108405714D01*
X137238928Y-108483518D01*
X137315320Y-108535715D01*
X137406000Y-108554078D01*
X138406000Y-108554078D01*
X138490714Y-108538138D01*
X138568518Y-108488072D01*
X138620715Y-108411680D01*
X138639078Y-108321000D01*
X138639078Y-107829000D01*
X141354922Y-107829000D01*
X141354922Y-108223000D01*
X141370862Y-108307714D01*
X141420928Y-108385518D01*
X141497320Y-108437715D01*
X141588000Y-108456078D01*
X141838000Y-108456078D01*
X141922714Y-108440138D01*
X142000518Y-108390072D01*
X142038288Y-108334794D01*
X142058200Y-108365738D01*
X142058200Y-108589748D01*
X140970748Y-109677200D01*
X138639078Y-109677200D01*
X138639078Y-109357000D01*
X138623138Y-109272286D01*
X138573072Y-109194482D01*
X138496680Y-109142285D01*
X138406000Y-109123922D01*
X137406000Y-109123922D01*
X137321286Y-109139862D01*
X137243482Y-109189928D01*
X137191285Y-109266320D01*
X137172922Y-109357000D01*
X137172922Y-110607000D01*
X137188862Y-110691714D01*
X137238928Y-110769518D01*
X137315320Y-110821715D01*
X137406000Y-110840078D01*
X138406000Y-110840078D01*
X138490714Y-110824138D01*
X138568518Y-110774072D01*
X138620715Y-110697680D01*
X138639078Y-110607000D01*
X138639078Y-110286800D01*
X141097000Y-110286800D01*
X141213642Y-110263598D01*
X141312526Y-110197526D01*
X142578526Y-108931526D01*
X142644598Y-108832642D01*
X142667800Y-108716000D01*
X142667800Y-108364779D01*
X142688288Y-108334794D01*
X142708200Y-108365738D01*
X142708200Y-108924557D01*
X142551694Y-108989224D01*
X142390789Y-109149849D01*
X142352430Y-109242228D01*
X127579158Y-124015500D01*
X116971478Y-124015500D01*
X116971478Y-123494800D01*
X116955538Y-123410086D01*
X116905472Y-123332282D01*
X116829080Y-123280085D01*
X116738400Y-123261722D01*
X114630200Y-123261722D01*
X114545486Y-123277662D01*
X114467682Y-123327728D01*
X114415485Y-123404120D01*
X114397122Y-123494800D01*
X107852878Y-123494800D01*
X107836938Y-123410086D01*
X107786872Y-123332282D01*
X107710480Y-123280085D01*
X107619800Y-123261722D01*
X105511600Y-123261722D01*
X105426886Y-123277662D01*
X105349082Y-123327728D01*
X105296885Y-123404120D01*
X105278522Y-123494800D01*
X93267600Y-123494800D01*
X93267600Y-113960537D01*
X94005030Y-113960537D01*
X94329167Y-114745009D01*
X94928835Y-115345724D01*
X95712739Y-115671229D01*
X95716734Y-115671232D01*
X98501274Y-118455772D01*
X98500830Y-118964337D01*
X98824967Y-119748809D01*
X99424635Y-120349524D01*
X100208539Y-120675029D01*
X101057337Y-120675770D01*
X101841809Y-120351633D01*
X102442524Y-119751965D01*
X102755182Y-118999000D01*
X105278522Y-118999000D01*
X105278522Y-121107200D01*
X105294462Y-121191914D01*
X105344528Y-121269718D01*
X105420920Y-121321915D01*
X105511600Y-121340278D01*
X107619800Y-121340278D01*
X107704514Y-121324338D01*
X107782318Y-121274272D01*
X107834515Y-121197880D01*
X107852878Y-121107200D01*
X107852878Y-120376950D01*
X114046000Y-120376950D01*
X114046000Y-121223405D01*
X114134939Y-121438123D01*
X114299278Y-121602461D01*
X114513996Y-121691400D01*
X115360450Y-121691400D01*
X115506500Y-121545350D01*
X115506500Y-120230900D01*
X115862100Y-120230900D01*
X115862100Y-121545350D01*
X116008150Y-121691400D01*
X116854604Y-121691400D01*
X117069322Y-121602461D01*
X117233661Y-121438123D01*
X117322600Y-121223405D01*
X117322600Y-120376950D01*
X117176550Y-120230900D01*
X115862100Y-120230900D01*
X115506500Y-120230900D01*
X114192050Y-120230900D01*
X114046000Y-120376950D01*
X107852878Y-120376950D01*
X107852878Y-118999000D01*
X107836938Y-118914286D01*
X107816674Y-118882795D01*
X114046000Y-118882795D01*
X114046000Y-119729250D01*
X114192050Y-119875300D01*
X115506500Y-119875300D01*
X115506500Y-118560850D01*
X115862100Y-118560850D01*
X115862100Y-119875300D01*
X117176550Y-119875300D01*
X117322600Y-119729250D01*
X117322600Y-118882795D01*
X117233661Y-118668077D01*
X117069322Y-118503739D01*
X116854604Y-118414800D01*
X116008150Y-118414800D01*
X115862100Y-118560850D01*
X115506500Y-118560850D01*
X115360450Y-118414800D01*
X114513996Y-118414800D01*
X114299278Y-118503739D01*
X114134939Y-118668077D01*
X114046000Y-118882795D01*
X107816674Y-118882795D01*
X107786872Y-118836482D01*
X107710480Y-118784285D01*
X107619800Y-118765922D01*
X105511600Y-118765922D01*
X105426886Y-118781862D01*
X105349082Y-118831928D01*
X105296885Y-118908320D01*
X105278522Y-118999000D01*
X102755182Y-118999000D01*
X102768029Y-118968061D01*
X102768770Y-118119263D01*
X102444633Y-117334791D01*
X101844965Y-116734076D01*
X101061061Y-116408571D01*
X100548622Y-116408124D01*
X98223093Y-114082595D01*
X98272229Y-113964261D01*
X98272676Y-113451822D01*
X99128101Y-112596397D01*
X98882505Y-113187857D01*
X98881897Y-113885084D01*
X99148152Y-114529471D01*
X99640736Y-115022915D01*
X100284657Y-115290295D01*
X100981884Y-115290903D01*
X101626271Y-115024648D01*
X102119715Y-114532064D01*
X102387095Y-113888143D01*
X102387703Y-113190916D01*
X102323255Y-113034939D01*
X104537994Y-110820200D01*
X135313103Y-110820200D01*
X135315320Y-110821715D01*
X135406000Y-110840078D01*
X136406000Y-110840078D01*
X136490714Y-110824138D01*
X136568518Y-110774072D01*
X136620715Y-110697680D01*
X136639078Y-110607000D01*
X136639078Y-110364602D01*
X136680396Y-110302765D01*
X136744200Y-109982000D01*
X136680396Y-109661235D01*
X136639078Y-109599398D01*
X136639078Y-109357000D01*
X136623138Y-109272286D01*
X136573072Y-109194482D01*
X136496680Y-109142285D01*
X136406000Y-109123922D01*
X135406000Y-109123922D01*
X135321286Y-109139862D01*
X135315166Y-109143800D01*
X104190800Y-109143800D01*
X103870035Y-109207604D01*
X103657634Y-109349526D01*
X103598103Y-109389303D01*
X101138103Y-111849303D01*
X100984943Y-111785705D01*
X100287716Y-111785097D01*
X99694141Y-112030357D01*
X101056329Y-110668169D01*
X101057337Y-110668170D01*
X101841809Y-110344033D01*
X102442524Y-109744365D01*
X102768029Y-108960461D01*
X102768401Y-108534200D01*
X135313103Y-108534200D01*
X135315320Y-108535715D01*
X135406000Y-108554078D01*
X136406000Y-108554078D01*
X136490714Y-108538138D01*
X136568518Y-108488072D01*
X136620715Y-108411680D01*
X136639078Y-108321000D01*
X136639078Y-108078602D01*
X136680396Y-108016765D01*
X136744200Y-107696000D01*
X136680396Y-107375235D01*
X136639078Y-107313398D01*
X136639078Y-107071000D01*
X136623138Y-106986286D01*
X136573072Y-106908482D01*
X136496680Y-106856285D01*
X136406000Y-106837922D01*
X135406000Y-106837922D01*
X135321286Y-106853862D01*
X135315166Y-106857800D01*
X101976060Y-106857800D01*
X101844965Y-106726476D01*
X101061061Y-106400971D01*
X100212263Y-106400230D01*
X99427791Y-106724367D01*
X98827076Y-107324035D01*
X98501571Y-108107939D01*
X98500830Y-108956737D01*
X98551101Y-109078401D01*
X96225028Y-111404474D01*
X95716463Y-111404030D01*
X94931991Y-111728167D01*
X94331276Y-112327835D01*
X94005771Y-113111739D01*
X94005030Y-113960537D01*
X93267600Y-113960537D01*
X93267600Y-98339537D01*
X94259030Y-98339537D01*
X94583167Y-99124009D01*
X95182835Y-99724724D01*
X95966739Y-100050229D01*
X95970734Y-100050232D01*
X98755274Y-102834772D01*
X98754830Y-103343337D01*
X99078967Y-104127809D01*
X99678635Y-104728524D01*
X100462539Y-105054029D01*
X101311337Y-105054770D01*
X102095809Y-104730633D01*
X102696524Y-104130965D01*
X103022029Y-103347061D01*
X103022379Y-102946200D01*
X135440103Y-102946200D01*
X135442320Y-102947715D01*
X135533000Y-102966078D01*
X136533000Y-102966078D01*
X136617714Y-102950138D01*
X136695518Y-102900072D01*
X136747715Y-102823680D01*
X136766078Y-102733000D01*
X136766078Y-102490602D01*
X136807396Y-102428765D01*
X136871200Y-102108000D01*
X136807396Y-101787235D01*
X136766078Y-101725398D01*
X136766078Y-101483000D01*
X136750138Y-101398286D01*
X136700072Y-101320482D01*
X136623680Y-101268285D01*
X136533000Y-101249922D01*
X135533000Y-101249922D01*
X135448286Y-101265862D01*
X135442166Y-101269800D01*
X102255416Y-101269800D01*
X102098965Y-101113076D01*
X101315061Y-100787571D01*
X100802622Y-100787124D01*
X98477093Y-98461595D01*
X98526229Y-98343261D01*
X98526676Y-97830822D01*
X99382101Y-96975397D01*
X99136505Y-97566857D01*
X99135897Y-98264084D01*
X99402152Y-98908471D01*
X99894736Y-99401915D01*
X100538657Y-99669295D01*
X101235884Y-99669903D01*
X101391861Y-99605455D01*
X102201103Y-100414697D01*
X102473035Y-100596396D01*
X102793800Y-100660200D01*
X135440103Y-100660200D01*
X135442320Y-100661715D01*
X135533000Y-100680078D01*
X136533000Y-100680078D01*
X136617714Y-100664138D01*
X136695518Y-100614072D01*
X136747715Y-100537680D01*
X136766078Y-100447000D01*
X136766078Y-100204602D01*
X136807396Y-100142765D01*
X136871200Y-99822000D01*
X136807396Y-99501235D01*
X136766078Y-99439398D01*
X136766078Y-99197000D01*
X137299922Y-99197000D01*
X137299922Y-100447000D01*
X137315862Y-100531714D01*
X137365928Y-100609518D01*
X137442320Y-100661715D01*
X137533000Y-100680078D01*
X138533000Y-100680078D01*
X138617714Y-100664138D01*
X138695518Y-100614072D01*
X138747715Y-100537680D01*
X138766078Y-100447000D01*
X138766078Y-100203000D01*
X141574184Y-100203000D01*
X142062200Y-100691015D01*
X142062200Y-100925367D01*
X142037712Y-100961206D01*
X142005072Y-100910482D01*
X141928680Y-100858285D01*
X141838000Y-100839922D01*
X141588000Y-100839922D01*
X141503286Y-100855862D01*
X141425482Y-100905928D01*
X141373285Y-100982320D01*
X141354922Y-101073000D01*
X141354922Y-101667263D01*
X141295184Y-101727000D01*
X138766078Y-101727000D01*
X138766078Y-101483000D01*
X138750138Y-101398286D01*
X138700072Y-101320482D01*
X138623680Y-101268285D01*
X138533000Y-101249922D01*
X137533000Y-101249922D01*
X137448286Y-101265862D01*
X137370482Y-101315928D01*
X137318285Y-101392320D01*
X137299922Y-101483000D01*
X137299922Y-102733000D01*
X137315862Y-102817714D01*
X137365928Y-102895518D01*
X137442320Y-102947715D01*
X137533000Y-102966078D01*
X138533000Y-102966078D01*
X138617714Y-102950138D01*
X138695518Y-102900072D01*
X138747715Y-102823680D01*
X138766078Y-102733000D01*
X138766078Y-102489000D01*
X141354922Y-102489000D01*
X141354922Y-102623000D01*
X141370862Y-102707714D01*
X141420928Y-102785518D01*
X141497320Y-102837715D01*
X141588000Y-102856078D01*
X141838000Y-102856078D01*
X141922714Y-102840138D01*
X142000518Y-102790072D01*
X142038288Y-102734794D01*
X142070928Y-102785518D01*
X142147320Y-102837715D01*
X142238000Y-102856078D01*
X142488000Y-102856078D01*
X142572714Y-102840138D01*
X142650518Y-102790072D01*
X142688288Y-102734794D01*
X142720928Y-102785518D01*
X142797320Y-102837715D01*
X142888000Y-102856078D01*
X143138000Y-102856078D01*
X143222714Y-102840138D01*
X143300518Y-102790072D01*
X143338288Y-102734794D01*
X143370928Y-102785518D01*
X143447320Y-102837715D01*
X143538000Y-102856078D01*
X143788000Y-102856078D01*
X143872714Y-102840138D01*
X143950518Y-102790072D01*
X143988288Y-102734794D01*
X144020928Y-102785518D01*
X144097320Y-102837715D01*
X144188000Y-102856078D01*
X144438000Y-102856078D01*
X144522714Y-102840138D01*
X144600518Y-102790072D01*
X144638288Y-102734794D01*
X144670928Y-102785518D01*
X144747320Y-102837715D01*
X144838000Y-102856078D01*
X144952211Y-102856078D01*
X144992739Y-102953922D01*
X145157077Y-103118261D01*
X145371795Y-103207200D01*
X145404450Y-103207200D01*
X145550500Y-103061150D01*
X145550500Y-102025800D01*
X145488000Y-102025800D01*
X145488000Y-101670200D01*
X145550500Y-101670200D01*
X145550500Y-100634850D01*
X145404450Y-100488800D01*
X145371795Y-100488800D01*
X145267800Y-100531876D01*
X145267800Y-100431548D01*
X145288000Y-100330000D01*
X145258997Y-100184197D01*
X145176407Y-100060592D01*
X144780000Y-99664184D01*
X144780000Y-99344816D01*
X145973327Y-100538142D01*
X145854205Y-100488800D01*
X145821550Y-100488800D01*
X145675500Y-100634850D01*
X145675500Y-101670200D01*
X145738000Y-101670200D01*
X145738000Y-102025800D01*
X145675500Y-102025800D01*
X145675500Y-103061150D01*
X145821550Y-103207200D01*
X145854205Y-103207200D01*
X146068923Y-103118261D01*
X146233261Y-102953922D01*
X146273789Y-102856078D01*
X146388000Y-102856078D01*
X146472714Y-102840138D01*
X146550518Y-102790072D01*
X146588288Y-102734794D01*
X146620928Y-102785518D01*
X146697320Y-102837715D01*
X146788000Y-102856078D01*
X147038000Y-102856078D01*
X147122714Y-102840138D01*
X147200518Y-102790072D01*
X147238288Y-102734794D01*
X147270928Y-102785518D01*
X147347320Y-102837715D01*
X147438000Y-102856078D01*
X147688000Y-102856078D01*
X147772714Y-102840138D01*
X147850518Y-102790072D01*
X147888288Y-102734794D01*
X147920928Y-102785518D01*
X147997320Y-102837715D01*
X148088000Y-102856078D01*
X148338000Y-102856078D01*
X148422714Y-102840138D01*
X148500518Y-102790072D01*
X148538288Y-102734794D01*
X148570928Y-102785518D01*
X148647320Y-102837715D01*
X148738000Y-102856078D01*
X148988000Y-102856078D01*
X149072714Y-102840138D01*
X149150518Y-102790072D01*
X149202715Y-102713680D01*
X149221078Y-102623000D01*
X149221078Y-101073000D01*
X149205138Y-100988286D01*
X149167800Y-100930262D01*
X149167800Y-99884142D01*
X152641827Y-103358168D01*
X152641829Y-103358171D01*
X152814877Y-103473797D01*
X153019000Y-103514401D01*
X153019005Y-103514400D01*
X153961207Y-103514400D01*
X153970862Y-103565714D01*
X154020928Y-103643518D01*
X154097320Y-103695715D01*
X154188000Y-103714078D01*
X155438000Y-103714078D01*
X155522714Y-103698138D01*
X155600518Y-103648072D01*
X155652715Y-103571680D01*
X155664314Y-103514400D01*
X156735058Y-103514400D01*
X158089600Y-104868942D01*
X158089600Y-109634058D01*
X157386058Y-110337600D01*
X156727078Y-110337600D01*
X156727078Y-110221000D01*
X156711138Y-110136286D01*
X156661072Y-110058482D01*
X156584680Y-110006285D01*
X156494000Y-109987922D01*
X155794000Y-109987922D01*
X155709286Y-110003862D01*
X155631482Y-110053928D01*
X155579285Y-110130320D01*
X155560922Y-110221000D01*
X155560922Y-111521000D01*
X155576862Y-111605714D01*
X155626928Y-111683518D01*
X155703320Y-111735715D01*
X155794000Y-111754078D01*
X156494000Y-111754078D01*
X156578714Y-111738138D01*
X156656518Y-111688072D01*
X156708715Y-111611680D01*
X156727078Y-111521000D01*
X156727078Y-111404400D01*
X157607000Y-111404400D01*
X157811123Y-111363797D01*
X157984171Y-111248171D01*
X159000171Y-110232171D01*
X159115797Y-110059123D01*
X159156400Y-109855000D01*
X159156400Y-104648000D01*
X159115797Y-104443877D01*
X159000171Y-104270829D01*
X157333171Y-102603829D01*
X157160123Y-102488203D01*
X156956000Y-102447600D01*
X155664793Y-102447600D01*
X155655138Y-102396286D01*
X155605072Y-102318482D01*
X155528680Y-102266285D01*
X155438000Y-102247922D01*
X154188000Y-102247922D01*
X154103286Y-102263862D01*
X154025482Y-102313928D01*
X153973285Y-102390320D01*
X153961686Y-102447600D01*
X153239941Y-102447600D01*
X152097191Y-101304850D01*
X153603800Y-101304850D01*
X153603800Y-101597205D01*
X153692739Y-101811923D01*
X153857078Y-101976261D01*
X154071796Y-102065200D01*
X154489150Y-102065200D01*
X154635200Y-101919150D01*
X154635200Y-101158800D01*
X154990800Y-101158800D01*
X154990800Y-101919150D01*
X155136850Y-102065200D01*
X155554204Y-102065200D01*
X155768922Y-101976261D01*
X155933261Y-101811923D01*
X156022200Y-101597205D01*
X156022200Y-101304850D01*
X155876150Y-101158800D01*
X154990800Y-101158800D01*
X154635200Y-101158800D01*
X153749850Y-101158800D01*
X153603800Y-101304850D01*
X152097191Y-101304850D01*
X151157136Y-100364795D01*
X153603800Y-100364795D01*
X153603800Y-100657150D01*
X153749850Y-100803200D01*
X154635200Y-100803200D01*
X154635200Y-100042850D01*
X154990800Y-100042850D01*
X154990800Y-100803200D01*
X155876150Y-100803200D01*
X156022200Y-100657150D01*
X156022200Y-100364795D01*
X155933261Y-100150077D01*
X155768922Y-99985739D01*
X155554204Y-99896800D01*
X155136850Y-99896800D01*
X154990800Y-100042850D01*
X154635200Y-100042850D01*
X154489150Y-99896800D01*
X154071796Y-99896800D01*
X153857078Y-99985739D01*
X153692739Y-100150077D01*
X153603800Y-100364795D01*
X151157136Y-100364795D01*
X149727663Y-98935322D01*
X149758241Y-98861683D01*
X149758558Y-98497913D01*
X149619642Y-98161711D01*
X149362642Y-97904262D01*
X149026683Y-97764759D01*
X148662913Y-97764442D01*
X148326711Y-97903358D01*
X148132800Y-98096931D01*
X148132800Y-97535252D01*
X148589252Y-97078800D01*
X152063922Y-97078800D01*
X152063922Y-97399000D01*
X152079862Y-97483714D01*
X152129928Y-97561518D01*
X152206320Y-97613715D01*
X152297000Y-97632078D01*
X153297000Y-97632078D01*
X153381714Y-97616138D01*
X153459518Y-97566072D01*
X153511715Y-97489680D01*
X153530078Y-97399000D01*
X153530078Y-97097850D01*
X153712800Y-97097850D01*
X153712800Y-97515204D01*
X153801739Y-97729922D01*
X153966077Y-97894261D01*
X154180795Y-97983200D01*
X154473150Y-97983200D01*
X154619200Y-97837150D01*
X154619200Y-96951800D01*
X154974800Y-96951800D01*
X154974800Y-97837150D01*
X155120850Y-97983200D01*
X155413205Y-97983200D01*
X155627923Y-97894261D01*
X155792261Y-97729922D01*
X155881200Y-97515204D01*
X155881200Y-97097850D01*
X155735150Y-96951800D01*
X154974800Y-96951800D01*
X154619200Y-96951800D01*
X153858850Y-96951800D01*
X153712800Y-97097850D01*
X153530078Y-97097850D01*
X153530078Y-96149000D01*
X153514138Y-96064286D01*
X153493875Y-96032796D01*
X153712800Y-96032796D01*
X153712800Y-96450150D01*
X153858850Y-96596200D01*
X154619200Y-96596200D01*
X154619200Y-95710850D01*
X154974800Y-95710850D01*
X154974800Y-96596200D01*
X155735150Y-96596200D01*
X155881200Y-96450150D01*
X155881200Y-96032796D01*
X155792261Y-95818078D01*
X155627923Y-95653739D01*
X155413205Y-95564800D01*
X155120850Y-95564800D01*
X154974800Y-95710850D01*
X154619200Y-95710850D01*
X154473150Y-95564800D01*
X154180795Y-95564800D01*
X153966077Y-95653739D01*
X153801739Y-95818078D01*
X153712800Y-96032796D01*
X153493875Y-96032796D01*
X153464072Y-95986482D01*
X153387680Y-95934285D01*
X153297000Y-95915922D01*
X152715738Y-95915922D01*
X151828471Y-95028655D01*
X151828599Y-94882820D01*
X151741776Y-94672694D01*
X151581151Y-94511789D01*
X151371177Y-94424600D01*
X151143820Y-94424401D01*
X150933694Y-94511224D01*
X150772789Y-94671849D01*
X150685600Y-94881823D01*
X150685401Y-95109180D01*
X150772224Y-95319306D01*
X150932849Y-95480211D01*
X151142823Y-95567400D01*
X151289713Y-95567529D01*
X152063922Y-96341738D01*
X152063922Y-96469200D01*
X148463000Y-96469200D01*
X148346358Y-96492402D01*
X148270206Y-96543285D01*
X148247474Y-96558474D01*
X147612474Y-97193474D01*
X147546402Y-97292358D01*
X147523200Y-97409000D01*
X147523200Y-99568000D01*
X147546402Y-99684642D01*
X147612474Y-99783526D01*
X147908200Y-100079252D01*
X147908200Y-100931221D01*
X147887712Y-100961206D01*
X147855072Y-100910482D01*
X147778680Y-100858285D01*
X147688000Y-100839922D01*
X147438000Y-100839922D01*
X147353286Y-100855862D01*
X147275482Y-100905928D01*
X147237712Y-100961206D01*
X147217800Y-100930262D01*
X147217800Y-100885641D01*
X147389306Y-100814776D01*
X147550211Y-100654151D01*
X147637400Y-100444177D01*
X147637599Y-100216820D01*
X147550776Y-100006694D01*
X147447000Y-99902737D01*
X147447000Y-97893005D01*
X147447001Y-97893000D01*
X147439883Y-97857216D01*
X147445715Y-97848680D01*
X147464078Y-97758000D01*
X147464078Y-96758000D01*
X147448138Y-96673286D01*
X147398072Y-96595482D01*
X147321680Y-96543285D01*
X147231000Y-96524922D01*
X145631000Y-96524922D01*
X145546286Y-96540862D01*
X145468482Y-96590928D01*
X145416285Y-96667320D01*
X145397922Y-96758000D01*
X145397922Y-97758000D01*
X145413862Y-97842714D01*
X145463928Y-97920518D01*
X145540320Y-97972715D01*
X145631000Y-97991078D01*
X146625263Y-97991078D01*
X146685000Y-98050815D01*
X146685000Y-99902818D01*
X146581789Y-100005849D01*
X146563268Y-100050453D01*
X145288000Y-98775184D01*
X145288000Y-95241183D01*
X145300078Y-95253261D01*
X145514796Y-95342200D01*
X146107150Y-95342200D01*
X146253200Y-95196150D01*
X146253200Y-94435800D01*
X146608800Y-94435800D01*
X146608800Y-95196150D01*
X146754850Y-95342200D01*
X147347204Y-95342200D01*
X147561922Y-95253261D01*
X147726261Y-95088923D01*
X147815200Y-94874205D01*
X147815200Y-94581850D01*
X147669150Y-94435800D01*
X146608800Y-94435800D01*
X146253200Y-94435800D01*
X146233200Y-94435800D01*
X146233200Y-94080200D01*
X146253200Y-94080200D01*
X146253200Y-93319850D01*
X146608800Y-93319850D01*
X146608800Y-94080200D01*
X147669150Y-94080200D01*
X147815200Y-93934150D01*
X147815200Y-93641795D01*
X147726261Y-93427077D01*
X147561922Y-93262739D01*
X147347204Y-93173800D01*
X146754850Y-93173800D01*
X146608800Y-93319850D01*
X146253200Y-93319850D01*
X146107150Y-93173800D01*
X145871016Y-93173800D01*
X146207816Y-92837000D01*
X148412200Y-92837000D01*
X148558003Y-92807998D01*
X148681608Y-92725408D01*
X149278165Y-92128850D01*
X154746800Y-92128850D01*
X154746800Y-92421205D01*
X154835739Y-92635923D01*
X155000078Y-92800261D01*
X155214796Y-92889200D01*
X155632150Y-92889200D01*
X155778200Y-92743150D01*
X155778200Y-91982800D01*
X156133800Y-91982800D01*
X156133800Y-92743150D01*
X156279850Y-92889200D01*
X156697204Y-92889200D01*
X156911922Y-92800261D01*
X157076261Y-92635923D01*
X157165200Y-92421205D01*
X157165200Y-92128850D01*
X157019150Y-91982800D01*
X156133800Y-91982800D01*
X155778200Y-91982800D01*
X154892850Y-91982800D01*
X154746800Y-92128850D01*
X149278165Y-92128850D01*
X149670437Y-91736578D01*
X151206200Y-91736578D01*
X151290914Y-91720638D01*
X151368718Y-91670572D01*
X151420915Y-91594180D01*
X151439278Y-91503500D01*
X151439278Y-91188795D01*
X154746800Y-91188795D01*
X154746800Y-91481150D01*
X154892850Y-91627200D01*
X155778200Y-91627200D01*
X155778200Y-90866850D01*
X156133800Y-90866850D01*
X156133800Y-91627200D01*
X157019150Y-91627200D01*
X157165200Y-91481150D01*
X157165200Y-91188795D01*
X157076261Y-90974077D01*
X156911922Y-90809739D01*
X156697204Y-90720800D01*
X156279850Y-90720800D01*
X156133800Y-90866850D01*
X155778200Y-90866850D01*
X155632150Y-90720800D01*
X155214796Y-90720800D01*
X155000078Y-90809739D01*
X154835739Y-90974077D01*
X154746800Y-91188795D01*
X151439278Y-91188795D01*
X151439278Y-90512900D01*
X151423338Y-90428186D01*
X151373272Y-90350382D01*
X151296880Y-90298185D01*
X151206200Y-90279822D01*
X148513800Y-90279822D01*
X148429086Y-90295762D01*
X148351282Y-90345828D01*
X148299085Y-90422220D01*
X148280722Y-90512900D01*
X148280722Y-91503500D01*
X148296662Y-91588214D01*
X148346728Y-91666018D01*
X148423120Y-91718215D01*
X148513800Y-91736578D01*
X148592806Y-91736578D01*
X148254384Y-92075000D01*
X147223816Y-92075000D01*
X147589405Y-91709410D01*
X147589408Y-91709408D01*
X147671998Y-91585802D01*
X147701000Y-91440000D01*
X147701000Y-88328500D01*
X148280722Y-88328500D01*
X148280722Y-89319100D01*
X148296662Y-89403814D01*
X148346728Y-89481618D01*
X148423120Y-89533815D01*
X148513800Y-89552178D01*
X151206200Y-89552178D01*
X151290914Y-89536238D01*
X151368718Y-89486172D01*
X151420915Y-89409780D01*
X151439278Y-89319100D01*
X151439278Y-89204800D01*
X152435984Y-89204800D01*
X152684922Y-89453738D01*
X152684922Y-90273000D01*
X152700862Y-90357714D01*
X152750928Y-90435518D01*
X152827320Y-90487715D01*
X152918000Y-90506078D01*
X154168000Y-90506078D01*
X154252714Y-90490138D01*
X154330518Y-90440072D01*
X154382715Y-90363680D01*
X154401078Y-90273000D01*
X154401078Y-90154000D01*
X155097922Y-90154000D01*
X155097922Y-90305000D01*
X155113862Y-90389714D01*
X155163928Y-90467518D01*
X155240320Y-90519715D01*
X155331000Y-90538078D01*
X156581000Y-90538078D01*
X156665714Y-90522138D01*
X156743518Y-90472072D01*
X156795715Y-90395680D01*
X156814078Y-90305000D01*
X156814078Y-90186000D01*
X158500200Y-90186000D01*
X158591757Y-90646288D01*
X158861552Y-91050065D01*
X159265329Y-91319860D01*
X159741617Y-91414600D01*
X159790383Y-91414600D01*
X160266671Y-91319860D01*
X160670448Y-91050065D01*
X160940243Y-90646288D01*
X161034983Y-90170000D01*
X160940243Y-89693712D01*
X160670448Y-89289935D01*
X160266671Y-89020140D01*
X159790383Y-88925400D01*
X159741617Y-88925400D01*
X159265329Y-89020140D01*
X158861552Y-89289935D01*
X158771973Y-89424000D01*
X156814078Y-89424000D01*
X156814078Y-89305000D01*
X156798138Y-89220286D01*
X156748072Y-89142482D01*
X156671680Y-89090285D01*
X156581000Y-89071922D01*
X155331000Y-89071922D01*
X155246286Y-89087862D01*
X155168482Y-89137928D01*
X155116285Y-89214320D01*
X155097922Y-89305000D01*
X155097922Y-89392000D01*
X154401078Y-89392000D01*
X154401078Y-89273000D01*
X154385138Y-89188286D01*
X154335072Y-89110482D01*
X154258680Y-89058285D01*
X154168000Y-89039922D01*
X153348737Y-89039922D01*
X152863208Y-88554392D01*
X152739603Y-88471802D01*
X152593800Y-88442800D01*
X151439278Y-88442800D01*
X151439278Y-88328500D01*
X151423338Y-88243786D01*
X151373272Y-88165982D01*
X151296880Y-88113785D01*
X151206200Y-88095422D01*
X148513800Y-88095422D01*
X148429086Y-88111362D01*
X148351282Y-88161428D01*
X148299085Y-88237820D01*
X148280722Y-88328500D01*
X147701000Y-88328500D01*
X147701000Y-86321900D01*
X148280722Y-86321900D01*
X148280722Y-87312500D01*
X148296662Y-87397214D01*
X148346728Y-87475018D01*
X148423120Y-87527215D01*
X148513800Y-87545578D01*
X151206200Y-87545578D01*
X151290914Y-87529638D01*
X151368718Y-87479572D01*
X151420915Y-87403180D01*
X151439278Y-87312500D01*
X151439278Y-87198200D01*
X152429384Y-87198200D01*
X152684922Y-87453738D01*
X152684922Y-88273000D01*
X152700862Y-88357714D01*
X152750928Y-88435518D01*
X152827320Y-88487715D01*
X152918000Y-88506078D01*
X154168000Y-88506078D01*
X154252714Y-88490138D01*
X154330518Y-88440072D01*
X154382715Y-88363680D01*
X154401078Y-88273000D01*
X154401078Y-88122000D01*
X155097922Y-88122000D01*
X155097922Y-88241000D01*
X155113862Y-88325714D01*
X155163928Y-88403518D01*
X155240320Y-88455715D01*
X155331000Y-88474078D01*
X156581000Y-88474078D01*
X156665714Y-88458138D01*
X156743518Y-88408072D01*
X156795715Y-88331680D01*
X156814078Y-88241000D01*
X156814078Y-88011000D01*
X158516922Y-88011000D01*
X158516922Y-88646000D01*
X158532862Y-88730714D01*
X158582928Y-88808518D01*
X158659320Y-88860715D01*
X158750000Y-88879078D01*
X160782000Y-88879078D01*
X160866714Y-88863138D01*
X160944518Y-88813072D01*
X160996715Y-88736680D01*
X161015078Y-88646000D01*
X161015078Y-86614000D01*
X160999138Y-86529286D01*
X160949072Y-86451482D01*
X160872680Y-86399285D01*
X160782000Y-86380922D01*
X158750000Y-86380922D01*
X158665286Y-86396862D01*
X158587482Y-86446928D01*
X158535285Y-86523320D01*
X158516922Y-86614000D01*
X158516922Y-87249000D01*
X156814078Y-87249000D01*
X156814078Y-87241000D01*
X156798138Y-87156286D01*
X156748072Y-87078482D01*
X156671680Y-87026285D01*
X156581000Y-87007922D01*
X155331000Y-87007922D01*
X155246286Y-87023862D01*
X155168482Y-87073928D01*
X155116285Y-87150320D01*
X155097922Y-87241000D01*
X155097922Y-87360000D01*
X154401078Y-87360000D01*
X154401078Y-87273000D01*
X154385138Y-87188286D01*
X154335072Y-87110482D01*
X154258680Y-87058285D01*
X154168000Y-87039922D01*
X153348737Y-87039922D01*
X152856608Y-86547792D01*
X152733003Y-86465202D01*
X152587200Y-86436200D01*
X151439278Y-86436200D01*
X151439278Y-86321900D01*
X151423338Y-86237186D01*
X151373272Y-86159382D01*
X151296880Y-86107185D01*
X151206200Y-86088822D01*
X148513800Y-86088822D01*
X148429086Y-86104762D01*
X148351282Y-86154828D01*
X148299085Y-86231220D01*
X148280722Y-86321900D01*
X147701000Y-86321900D01*
X147701000Y-86064850D01*
X154746800Y-86064850D01*
X154746800Y-86357205D01*
X154835739Y-86571923D01*
X155000078Y-86736261D01*
X155214796Y-86825200D01*
X155632150Y-86825200D01*
X155778200Y-86679150D01*
X155778200Y-85918800D01*
X156133800Y-85918800D01*
X156133800Y-86679150D01*
X156279850Y-86825200D01*
X156697204Y-86825200D01*
X156911922Y-86736261D01*
X157076261Y-86571923D01*
X157165200Y-86357205D01*
X157165200Y-86064850D01*
X157019150Y-85918800D01*
X156133800Y-85918800D01*
X155778200Y-85918800D01*
X154892850Y-85918800D01*
X154746800Y-86064850D01*
X147701000Y-86064850D01*
X147701000Y-85882816D01*
X148325769Y-85258047D01*
X148346728Y-85290618D01*
X148423120Y-85342815D01*
X148513800Y-85361178D01*
X151206200Y-85361178D01*
X151290914Y-85345238D01*
X151368718Y-85295172D01*
X151420915Y-85218780D01*
X151439278Y-85128100D01*
X151439278Y-85124795D01*
X154746800Y-85124795D01*
X154746800Y-85417150D01*
X154892850Y-85563200D01*
X155778200Y-85563200D01*
X155778200Y-84802850D01*
X156133800Y-84802850D01*
X156133800Y-85563200D01*
X157019150Y-85563200D01*
X157165200Y-85417150D01*
X157165200Y-85124795D01*
X157076261Y-84910077D01*
X156911922Y-84745739D01*
X156697204Y-84656800D01*
X156279850Y-84656800D01*
X156133800Y-84802850D01*
X155778200Y-84802850D01*
X155632150Y-84656800D01*
X155214796Y-84656800D01*
X155000078Y-84745739D01*
X154835739Y-84910077D01*
X154746800Y-85124795D01*
X151439278Y-85124795D01*
X151439278Y-84137500D01*
X151423338Y-84052786D01*
X151373272Y-83974982D01*
X151296880Y-83922785D01*
X151206200Y-83904422D01*
X148513800Y-83904422D01*
X148429086Y-83920362D01*
X148351282Y-83970428D01*
X148299085Y-84046820D01*
X148280722Y-84137500D01*
X148280722Y-84277953D01*
X148266397Y-84280802D01*
X148142792Y-84363392D01*
X147050592Y-85455592D01*
X146968002Y-85579197D01*
X146966343Y-85587536D01*
X146939000Y-85725000D01*
X146939000Y-91282185D01*
X146654184Y-91567000D01*
X145796000Y-91567000D01*
X145650197Y-91596002D01*
X145633630Y-91607072D01*
X145526592Y-91678592D01*
X145526590Y-91678595D01*
X144129592Y-93075592D01*
X144047002Y-93199197D01*
X144023003Y-93319850D01*
X144018000Y-93345000D01*
X144018000Y-93401816D01*
X143878922Y-93262739D01*
X143664204Y-93173800D01*
X143071850Y-93173800D01*
X142925800Y-93319850D01*
X142925800Y-94080200D01*
X142945800Y-94080200D01*
X142945800Y-94435800D01*
X142925800Y-94435800D01*
X142925800Y-95196150D01*
X143071850Y-95342200D01*
X143664204Y-95342200D01*
X143878922Y-95253261D01*
X144018000Y-95114184D01*
X144018000Y-99816660D01*
X143878177Y-99758600D01*
X143650820Y-99758401D01*
X143440694Y-99845224D01*
X143279789Y-100005849D01*
X143261268Y-100050452D01*
X143129000Y-99918184D01*
X143129000Y-97991078D01*
X143548000Y-97991078D01*
X143632714Y-97975138D01*
X143710518Y-97925072D01*
X143762715Y-97848680D01*
X143781078Y-97758000D01*
X143781078Y-96758000D01*
X143765138Y-96673286D01*
X143715072Y-96595482D01*
X143638680Y-96543285D01*
X143548000Y-96524922D01*
X141948000Y-96524922D01*
X141863286Y-96540862D01*
X141785482Y-96590928D01*
X141733285Y-96667320D01*
X141714922Y-96758000D01*
X141714922Y-97758000D01*
X141730862Y-97842714D01*
X141780928Y-97920518D01*
X141857320Y-97972715D01*
X141948000Y-97991078D01*
X142367000Y-97991078D01*
X142367000Y-99918185D01*
X142001408Y-99552592D01*
X141877803Y-99470002D01*
X141732000Y-99441000D01*
X138766078Y-99441000D01*
X138766078Y-99197000D01*
X138750138Y-99112286D01*
X138700072Y-99034482D01*
X138623680Y-98982285D01*
X138533000Y-98963922D01*
X137533000Y-98963922D01*
X137448286Y-98979862D01*
X137370482Y-99029928D01*
X137318285Y-99106320D01*
X137299922Y-99197000D01*
X136766078Y-99197000D01*
X136750138Y-99112286D01*
X136700072Y-99034482D01*
X136623680Y-98982285D01*
X136533000Y-98963922D01*
X135533000Y-98963922D01*
X135448286Y-98979862D01*
X135442166Y-98983800D01*
X103140994Y-98983800D01*
X102577497Y-98420303D01*
X102641095Y-98267143D01*
X102641703Y-97569916D01*
X102551601Y-97351850D01*
X112649000Y-97351850D01*
X112649000Y-98160204D01*
X112737939Y-98374922D01*
X112902277Y-98539261D01*
X113116995Y-98628200D01*
X114738150Y-98628200D01*
X114884200Y-98482150D01*
X114884200Y-97205800D01*
X115239800Y-97205800D01*
X115239800Y-98482150D01*
X115385850Y-98628200D01*
X117007005Y-98628200D01*
X117221723Y-98539261D01*
X117386061Y-98374922D01*
X117475000Y-98160204D01*
X117475000Y-97351850D01*
X117328950Y-97205800D01*
X115239800Y-97205800D01*
X114884200Y-97205800D01*
X112795050Y-97205800D01*
X112649000Y-97351850D01*
X102551601Y-97351850D01*
X102375448Y-96925529D01*
X101882864Y-96432085D01*
X101238943Y-96164705D01*
X100541716Y-96164097D01*
X99948141Y-96409357D01*
X100461702Y-95895796D01*
X112649000Y-95895796D01*
X112649000Y-96704150D01*
X112795050Y-96850200D01*
X114884200Y-96850200D01*
X114884200Y-95573850D01*
X115239800Y-95573850D01*
X115239800Y-96850200D01*
X117328950Y-96850200D01*
X117475000Y-96704150D01*
X117475000Y-95895796D01*
X117386061Y-95681078D01*
X117221723Y-95516739D01*
X117007005Y-95427800D01*
X115385850Y-95427800D01*
X115239800Y-95573850D01*
X114884200Y-95573850D01*
X114738150Y-95427800D01*
X113116995Y-95427800D01*
X112902277Y-95516739D01*
X112737939Y-95681078D01*
X112649000Y-95895796D01*
X100461702Y-95895796D01*
X101310329Y-95047169D01*
X101311337Y-95047170D01*
X102095809Y-94723033D01*
X102696524Y-94123365D01*
X103022029Y-93339461D01*
X103022075Y-93286580D01*
X120325482Y-93286580D01*
X120325482Y-94485460D01*
X120341422Y-94570174D01*
X120391488Y-94647978D01*
X120467880Y-94700175D01*
X120558560Y-94718538D01*
X121757440Y-94718538D01*
X121842154Y-94702598D01*
X121919958Y-94652532D01*
X121972155Y-94576140D01*
X121990518Y-94485460D01*
X121990518Y-94419420D01*
X122560922Y-94419420D01*
X122560922Y-94518000D01*
X122576862Y-94602714D01*
X122626928Y-94680518D01*
X122703320Y-94732715D01*
X122794000Y-94751078D01*
X124094000Y-94751078D01*
X124178714Y-94735138D01*
X124256518Y-94685072D01*
X124308715Y-94608680D01*
X124314148Y-94581850D01*
X141363800Y-94581850D01*
X141363800Y-94874205D01*
X141452739Y-95088923D01*
X141617078Y-95253261D01*
X141831796Y-95342200D01*
X142424150Y-95342200D01*
X142570200Y-95196150D01*
X142570200Y-94435800D01*
X141509850Y-94435800D01*
X141363800Y-94581850D01*
X124314148Y-94581850D01*
X124327078Y-94518000D01*
X124327078Y-93818000D01*
X124311138Y-93733286D01*
X124261072Y-93655482D01*
X124241041Y-93641795D01*
X141363800Y-93641795D01*
X141363800Y-93934150D01*
X141509850Y-94080200D01*
X142570200Y-94080200D01*
X142570200Y-93319850D01*
X142424150Y-93173800D01*
X141831796Y-93173800D01*
X141617078Y-93262739D01*
X141452739Y-93427077D01*
X141363800Y-93641795D01*
X124241041Y-93641795D01*
X124184680Y-93603285D01*
X124094000Y-93584922D01*
X123615264Y-93584922D01*
X123539191Y-93508849D01*
X123366143Y-93393223D01*
X123162020Y-93352620D01*
X121990518Y-93352620D01*
X121990518Y-93286580D01*
X121974578Y-93201866D01*
X121924512Y-93124062D01*
X121848120Y-93071865D01*
X121757440Y-93053502D01*
X120558560Y-93053502D01*
X120473846Y-93069442D01*
X120396042Y-93119508D01*
X120343845Y-93195900D01*
X120325482Y-93286580D01*
X103022075Y-93286580D01*
X103022770Y-92490663D01*
X102698633Y-91706191D01*
X102098965Y-91105476D01*
X101315061Y-90779971D01*
X100466263Y-90779230D01*
X99681791Y-91103367D01*
X99081076Y-91703035D01*
X98755571Y-92486939D01*
X98754830Y-93335737D01*
X98805101Y-93457401D01*
X96479028Y-95783474D01*
X95970463Y-95783030D01*
X95185991Y-96107167D01*
X94585276Y-96706835D01*
X94259771Y-97490739D01*
X94259030Y-98339537D01*
X93267600Y-98339537D01*
X93267600Y-88588850D01*
X99142800Y-88588850D01*
X99142800Y-89181204D01*
X99231739Y-89395922D01*
X99396077Y-89560261D01*
X99610795Y-89649200D01*
X99903150Y-89649200D01*
X100049200Y-89503150D01*
X100049200Y-88442800D01*
X100404800Y-88442800D01*
X100404800Y-89503150D01*
X100550850Y-89649200D01*
X100843205Y-89649200D01*
X101057923Y-89560261D01*
X101222261Y-89395922D01*
X101311200Y-89181204D01*
X101311200Y-88588850D01*
X101165150Y-88442800D01*
X100404800Y-88442800D01*
X100049200Y-88442800D01*
X99288850Y-88442800D01*
X99142800Y-88588850D01*
X93267600Y-88588850D01*
X93267600Y-87348796D01*
X99142800Y-87348796D01*
X99142800Y-87941150D01*
X99288850Y-88087200D01*
X100049200Y-88087200D01*
X100049200Y-87026850D01*
X100404800Y-87026850D01*
X100404800Y-88087200D01*
X101165150Y-88087200D01*
X101311200Y-87941150D01*
X101311200Y-87348796D01*
X101222261Y-87134078D01*
X101057923Y-86969739D01*
X100843205Y-86880800D01*
X100550850Y-86880800D01*
X100404800Y-87026850D01*
X100049200Y-87026850D01*
X99903150Y-86880800D01*
X99610795Y-86880800D01*
X99396077Y-86969739D01*
X99231739Y-87134078D01*
X99142800Y-87348796D01*
X93267600Y-87348796D01*
X93267600Y-85387389D01*
X99168089Y-85387389D01*
X99447943Y-85945531D01*
X99920086Y-86354091D01*
X100286613Y-86505899D01*
X100533200Y-86406239D01*
X100533200Y-85140800D01*
X99266746Y-85140800D01*
X99168089Y-85387389D01*
X93267600Y-85387389D01*
X93267600Y-84538611D01*
X99168089Y-84538611D01*
X99266746Y-84785200D01*
X100533200Y-84785200D01*
X100533200Y-83519761D01*
X100888800Y-83519761D01*
X100888800Y-84785200D01*
X100908800Y-84785200D01*
X100908800Y-85140800D01*
X100888800Y-85140800D01*
X100888800Y-86406239D01*
X101135387Y-86505899D01*
X101501914Y-86354091D01*
X101974057Y-85945531D01*
X102001922Y-85889957D01*
X102001922Y-85979000D01*
X102017862Y-86063714D01*
X102067928Y-86141518D01*
X102144320Y-86193715D01*
X102235000Y-86212078D01*
X102412800Y-86212078D01*
X102412800Y-88144343D01*
X102388800Y-88265000D01*
X102452604Y-88585766D01*
X102493922Y-88647603D01*
X102493922Y-89065000D01*
X102509862Y-89149714D01*
X102559928Y-89227518D01*
X102636320Y-89279715D01*
X102727000Y-89298078D01*
X103727000Y-89298078D01*
X103811714Y-89282138D01*
X103889518Y-89232072D01*
X103941715Y-89155680D01*
X103960078Y-89065000D01*
X103960078Y-88717316D01*
X104336194Y-88341200D01*
X111937800Y-88341200D01*
X111937800Y-90424000D01*
X112001604Y-90744765D01*
X112034922Y-90794629D01*
X112034922Y-91440000D01*
X112050862Y-91524714D01*
X112100928Y-91602518D01*
X112177320Y-91654715D01*
X112268000Y-91673078D01*
X113284000Y-91673078D01*
X113368714Y-91657138D01*
X113446518Y-91607072D01*
X113498715Y-91530680D01*
X113517078Y-91440000D01*
X113517078Y-90794629D01*
X113550396Y-90744765D01*
X113614200Y-90424000D01*
X113614200Y-89662000D01*
X114223800Y-89662000D01*
X114223800Y-90424000D01*
X114287604Y-90744765D01*
X114320922Y-90794629D01*
X114320922Y-91440000D01*
X114336862Y-91524714D01*
X114386928Y-91602518D01*
X114463320Y-91654715D01*
X114528600Y-91667934D01*
X114528600Y-91948000D01*
X114569203Y-92152123D01*
X114684829Y-92325171D01*
X115192827Y-92833168D01*
X115192829Y-92833171D01*
X115276683Y-92889200D01*
X115365876Y-92948797D01*
X115570000Y-92989400D01*
X120489980Y-92989400D01*
X120694103Y-92948797D01*
X120867151Y-92833171D01*
X121079824Y-92620498D01*
X121757440Y-92620498D01*
X121842154Y-92604558D01*
X121866253Y-92589050D01*
X122209800Y-92589050D01*
X122209800Y-92734205D01*
X122298739Y-92948923D01*
X122463078Y-93113261D01*
X122677796Y-93202200D01*
X123120150Y-93202200D01*
X123266200Y-93056150D01*
X123266200Y-92443000D01*
X123621800Y-92443000D01*
X123621800Y-93056150D01*
X123767850Y-93202200D01*
X124210204Y-93202200D01*
X124424922Y-93113261D01*
X124589261Y-92948923D01*
X124678200Y-92734205D01*
X124678200Y-92589050D01*
X124532150Y-92443000D01*
X123621800Y-92443000D01*
X123266200Y-92443000D01*
X122355850Y-92443000D01*
X122209800Y-92589050D01*
X121866253Y-92589050D01*
X121919958Y-92554492D01*
X121972155Y-92478100D01*
X121990518Y-92387420D01*
X121990518Y-91801795D01*
X122209800Y-91801795D01*
X122209800Y-91946950D01*
X122355850Y-92093000D01*
X123266200Y-92093000D01*
X123266200Y-91479850D01*
X123621800Y-91479850D01*
X123621800Y-92093000D01*
X124532150Y-92093000D01*
X124678200Y-91946950D01*
X124678200Y-91801795D01*
X124589261Y-91587077D01*
X124424922Y-91422739D01*
X124210204Y-91333800D01*
X123767850Y-91333800D01*
X123621800Y-91479850D01*
X123266200Y-91479850D01*
X123120150Y-91333800D01*
X122677796Y-91333800D01*
X122463078Y-91422739D01*
X122298739Y-91587077D01*
X122209800Y-91801795D01*
X121990518Y-91801795D01*
X121990518Y-91188540D01*
X121974578Y-91103826D01*
X121924512Y-91026022D01*
X121848120Y-90973825D01*
X121757440Y-90955462D01*
X120558560Y-90955462D01*
X120473846Y-90971402D01*
X120396042Y-91021468D01*
X120343845Y-91097860D01*
X120325482Y-91188540D01*
X120325482Y-91866156D01*
X120269038Y-91922600D01*
X118199584Y-91922600D01*
X118351261Y-91770922D01*
X118440200Y-91556204D01*
X118440200Y-90747850D01*
X118294150Y-90601800D01*
X117525800Y-90601800D01*
X117525800Y-90621800D01*
X117170200Y-90621800D01*
X117170200Y-90601800D01*
X116401850Y-90601800D01*
X116255800Y-90747850D01*
X116255800Y-91556204D01*
X116344739Y-91770922D01*
X116496416Y-91922600D01*
X115790941Y-91922600D01*
X115595400Y-91727058D01*
X115595400Y-91668299D01*
X115654714Y-91657138D01*
X115732518Y-91607072D01*
X115784715Y-91530680D01*
X115803078Y-91440000D01*
X115803078Y-90794629D01*
X115836396Y-90744765D01*
X115900200Y-90424000D01*
X115900200Y-90009194D01*
X116255800Y-89653594D01*
X116255800Y-90100150D01*
X116401850Y-90246200D01*
X117170200Y-90246200D01*
X117170200Y-88969850D01*
X117525800Y-88969850D01*
X117525800Y-90246200D01*
X118294150Y-90246200D01*
X118440200Y-90100150D01*
X118440200Y-89291796D01*
X118351261Y-89077078D01*
X118186923Y-88912739D01*
X117972205Y-88823800D01*
X117671850Y-88823800D01*
X117525800Y-88969850D01*
X117170200Y-88969850D01*
X117054872Y-88854522D01*
X117170684Y-88738710D01*
X122948700Y-88738710D01*
X122948700Y-89831545D01*
X123037639Y-90046263D01*
X123201978Y-90210601D01*
X123416696Y-90299540D01*
X124009150Y-90299540D01*
X124155200Y-90153490D01*
X124155200Y-88592660D01*
X124510800Y-88592660D01*
X124510800Y-90153490D01*
X124656850Y-90299540D01*
X125249304Y-90299540D01*
X125464022Y-90210601D01*
X125628361Y-90046263D01*
X125717300Y-89831545D01*
X125717300Y-89679017D01*
X128379162Y-89679017D01*
X128588599Y-90185894D01*
X128976066Y-90574038D01*
X129482577Y-90784360D01*
X130031017Y-90784838D01*
X130537894Y-90575401D01*
X130926038Y-90187934D01*
X131136360Y-89681423D01*
X131136362Y-89679017D01*
X136579162Y-89679017D01*
X136788599Y-90185894D01*
X137176066Y-90574038D01*
X137682577Y-90784360D01*
X138231017Y-90784838D01*
X138737894Y-90575401D01*
X139126038Y-90187934D01*
X139336360Y-89681423D01*
X139336838Y-89132983D01*
X139127401Y-88626106D01*
X138739934Y-88237962D01*
X138233423Y-88027640D01*
X137684983Y-88027162D01*
X137178106Y-88236599D01*
X136789962Y-88624066D01*
X136579640Y-89130577D01*
X136579162Y-89679017D01*
X131136362Y-89679017D01*
X131136838Y-89132983D01*
X130927401Y-88626106D01*
X130539934Y-88237962D01*
X130033423Y-88027640D01*
X129484983Y-88027162D01*
X128978106Y-88236599D01*
X128589962Y-88624066D01*
X128379640Y-89130577D01*
X128379162Y-89679017D01*
X125717300Y-89679017D01*
X125717300Y-88738710D01*
X125571250Y-88592660D01*
X124510800Y-88592660D01*
X124155200Y-88592660D01*
X123094750Y-88592660D01*
X122948700Y-88738710D01*
X117170684Y-88738710D01*
X118076194Y-87833200D01*
X122151140Y-87833200D01*
X122471906Y-87769396D01*
X122743837Y-87587697D01*
X122948700Y-87382834D01*
X122948700Y-88091010D01*
X123094750Y-88237060D01*
X124155200Y-88237060D01*
X124155200Y-86676230D01*
X124510800Y-86676230D01*
X124510800Y-88237060D01*
X125571250Y-88237060D01*
X125717300Y-88091010D01*
X125717300Y-87262960D01*
X130452488Y-87262960D01*
X130558201Y-87509321D01*
X131156109Y-87708569D01*
X131784753Y-87663841D01*
X132157799Y-87509321D01*
X132263512Y-87262960D01*
X131358000Y-86357447D01*
X130452488Y-87262960D01*
X125717300Y-87262960D01*
X125717300Y-86998175D01*
X125628361Y-86783457D01*
X125464022Y-86619119D01*
X125249304Y-86530180D01*
X124656850Y-86530180D01*
X124510800Y-86676230D01*
X124155200Y-86676230D01*
X124009150Y-86530180D01*
X123801354Y-86530180D01*
X123984836Y-86346698D01*
X125133100Y-86346698D01*
X125217814Y-86330758D01*
X125295618Y-86280692D01*
X125347815Y-86204300D01*
X125366178Y-86113620D01*
X125366178Y-85904109D01*
X129755431Y-85904109D01*
X129800159Y-86532753D01*
X129954679Y-86905799D01*
X130201040Y-87011512D01*
X131106553Y-86106000D01*
X131609447Y-86106000D01*
X132514960Y-87011512D01*
X132761321Y-86905799D01*
X132804984Y-86774774D01*
X132815836Y-86801037D01*
X133161145Y-87146949D01*
X133612544Y-87334387D01*
X134101312Y-87334813D01*
X134553037Y-87148164D01*
X134898949Y-86802855D01*
X135086387Y-86351456D01*
X135086813Y-85862688D01*
X134900164Y-85410963D01*
X134554855Y-85065051D01*
X134103456Y-84877613D01*
X133614688Y-84877187D01*
X133162963Y-85063836D01*
X132817051Y-85409145D01*
X132810498Y-85424926D01*
X132761321Y-85306201D01*
X132514960Y-85200488D01*
X131609447Y-86106000D01*
X131106553Y-86106000D01*
X130201040Y-85200488D01*
X129954679Y-85306201D01*
X129755431Y-85904109D01*
X125366178Y-85904109D01*
X125366178Y-84965356D01*
X125546334Y-84785200D01*
X130522791Y-84785200D01*
X130452488Y-84949040D01*
X131358000Y-85854553D01*
X132263512Y-84949040D01*
X132193209Y-84785200D01*
X135034806Y-84785200D01*
X135488050Y-85238444D01*
X135317051Y-85409145D01*
X135129613Y-85860544D01*
X135129187Y-86349312D01*
X135315836Y-86801037D01*
X135661145Y-87146949D01*
X136112544Y-87334387D01*
X136601312Y-87334813D01*
X137053037Y-87148164D01*
X137398949Y-86802855D01*
X137586387Y-86351456D01*
X137586813Y-85862688D01*
X137400164Y-85410963D01*
X137196200Y-85206643D01*
X137196200Y-84923000D01*
X137132396Y-84602235D01*
X136950697Y-84330303D01*
X135974697Y-83354303D01*
X135702766Y-83172604D01*
X135382000Y-83108800D01*
X125199140Y-83108800D01*
X124878374Y-83172604D01*
X124718271Y-83279582D01*
X123532900Y-83279582D01*
X123448186Y-83295522D01*
X123370382Y-83345588D01*
X123318185Y-83421980D01*
X123299822Y-83512660D01*
X123299822Y-84660924D01*
X121803946Y-86156800D01*
X117729000Y-86156800D01*
X117408235Y-86220604D01*
X117136303Y-86402303D01*
X115595400Y-87943206D01*
X115595400Y-87696000D01*
X115554797Y-87491877D01*
X115452078Y-87338146D01*
X115452078Y-86853000D01*
X115436138Y-86768286D01*
X115402400Y-86715856D01*
X115402400Y-85488078D01*
X115459000Y-85488078D01*
X115543714Y-85472138D01*
X115621518Y-85422072D01*
X115673715Y-85345680D01*
X115692078Y-85255000D01*
X115692078Y-84778850D01*
X116874800Y-84778850D01*
X116874800Y-85371204D01*
X116963739Y-85585922D01*
X117128077Y-85750261D01*
X117342795Y-85839200D01*
X117635150Y-85839200D01*
X117781200Y-85693150D01*
X117781200Y-84632800D01*
X118136800Y-84632800D01*
X118136800Y-85693150D01*
X118282850Y-85839200D01*
X118575205Y-85839200D01*
X118789923Y-85750261D01*
X118954261Y-85585922D01*
X119043200Y-85371204D01*
X119043200Y-84778850D01*
X118897150Y-84632800D01*
X118136800Y-84632800D01*
X117781200Y-84632800D01*
X117020850Y-84632800D01*
X116874800Y-84778850D01*
X115692078Y-84778850D01*
X115692078Y-83655000D01*
X115676138Y-83570286D01*
X115655875Y-83538796D01*
X116874800Y-83538796D01*
X116874800Y-84131150D01*
X117020850Y-84277200D01*
X117781200Y-84277200D01*
X117781200Y-83216850D01*
X118136800Y-83216850D01*
X118136800Y-84277200D01*
X118897150Y-84277200D01*
X119043200Y-84131150D01*
X119043200Y-83538796D01*
X118954261Y-83324078D01*
X118789923Y-83159739D01*
X118575205Y-83070800D01*
X118282850Y-83070800D01*
X118136800Y-83216850D01*
X117781200Y-83216850D01*
X117635150Y-83070800D01*
X117342795Y-83070800D01*
X117128077Y-83159739D01*
X116963739Y-83324078D01*
X116874800Y-83538796D01*
X115655875Y-83538796D01*
X115626072Y-83492482D01*
X115549680Y-83440285D01*
X115459000Y-83421922D01*
X114459000Y-83421922D01*
X114374286Y-83437862D01*
X114296482Y-83487928D01*
X114244285Y-83564320D01*
X114225922Y-83655000D01*
X114225922Y-85255000D01*
X114241862Y-85339714D01*
X114291928Y-85417518D01*
X114335600Y-85447358D01*
X114335600Y-86716489D01*
X114304285Y-86762320D01*
X114285922Y-86853000D01*
X114285922Y-88153000D01*
X114301862Y-88237714D01*
X114351928Y-88315518D01*
X114428320Y-88367715D01*
X114519000Y-88386078D01*
X114528600Y-88386078D01*
X114528600Y-89010006D01*
X114469303Y-89069303D01*
X114287604Y-89341234D01*
X114245645Y-89552178D01*
X114223800Y-89662000D01*
X113614200Y-89662000D01*
X113614200Y-88017121D01*
X113743396Y-87823766D01*
X113807200Y-87503000D01*
X113743396Y-87182235D01*
X113561697Y-86910303D01*
X113552078Y-86903876D01*
X113552078Y-86853000D01*
X113536138Y-86768286D01*
X113486072Y-86690482D01*
X113409680Y-86638285D01*
X113319000Y-86619922D01*
X112619000Y-86619922D01*
X112534286Y-86635862D01*
X112489316Y-86664800D01*
X104089200Y-86664800D01*
X104089200Y-86212078D01*
X104267000Y-86212078D01*
X104351714Y-86196138D01*
X104429518Y-86146072D01*
X104481715Y-86069680D01*
X104500078Y-85979000D01*
X104500078Y-83947000D01*
X104484138Y-83862286D01*
X104434072Y-83784482D01*
X104357680Y-83732285D01*
X104267000Y-83713922D01*
X102235000Y-83713922D01*
X102150286Y-83729862D01*
X102072482Y-83779928D01*
X102020285Y-83856320D01*
X102001922Y-83947000D01*
X102001922Y-84036043D01*
X101974057Y-83980469D01*
X101501914Y-83571909D01*
X101135387Y-83420101D01*
X100888800Y-83519761D01*
X100533200Y-83519761D01*
X100286613Y-83420101D01*
X99920086Y-83571909D01*
X99447943Y-83980469D01*
X99168089Y-84538611D01*
X93267600Y-84538611D01*
X93267600Y-82853600D01*
X162891400Y-82853600D01*
X162891400Y-127585400D01*
X162891400Y-127585400D01*
G37*
X162891400Y-127585400D02*
X93267600Y-127585400D01*
X93267600Y-123494800D01*
X105278522Y-123494800D01*
X105278522Y-125603000D01*
X105294462Y-125687714D01*
X105344528Y-125765518D01*
X105420920Y-125817715D01*
X105511600Y-125836078D01*
X107619800Y-125836078D01*
X107704514Y-125820138D01*
X107782318Y-125770072D01*
X107834515Y-125693680D01*
X107852878Y-125603000D01*
X107852878Y-123494800D01*
X114397122Y-123494800D01*
X114397122Y-125603000D01*
X114413062Y-125687714D01*
X114463128Y-125765518D01*
X114539520Y-125817715D01*
X114630200Y-125836078D01*
X116738400Y-125836078D01*
X116823114Y-125820138D01*
X116900918Y-125770072D01*
X116953115Y-125693680D01*
X116971478Y-125603000D01*
X116971478Y-125082300D01*
X127800100Y-125082300D01*
X128004223Y-125041697D01*
X128177271Y-124926071D01*
X132443342Y-120660000D01*
X148507922Y-120660000D01*
X148507922Y-121910000D01*
X148523862Y-121994714D01*
X148573928Y-122072518D01*
X148650320Y-122124715D01*
X148741000Y-122143078D01*
X148860000Y-122143078D01*
X148860000Y-122825000D01*
X148889002Y-122970803D01*
X148971592Y-123094408D01*
X150844592Y-124967408D01*
X150968197Y-125049998D01*
X151114000Y-125079000D01*
X155097922Y-125079000D01*
X155097922Y-125198000D01*
X155113862Y-125282714D01*
X155163928Y-125360518D01*
X155240320Y-125412715D01*
X155331000Y-125431078D01*
X156581000Y-125431078D01*
X156665714Y-125415138D01*
X156743518Y-125365072D01*
X156795715Y-125288680D01*
X156814078Y-125198000D01*
X156814078Y-124378738D01*
X157875815Y-123317000D01*
X158135922Y-123317000D01*
X158135922Y-123952000D01*
X158151862Y-124036714D01*
X158201928Y-124114518D01*
X158278320Y-124166715D01*
X158369000Y-124185078D01*
X160401000Y-124185078D01*
X160485714Y-124169138D01*
X160563518Y-124119072D01*
X160615715Y-124042680D01*
X160634078Y-123952000D01*
X160634078Y-121920000D01*
X160618138Y-121835286D01*
X160568072Y-121757482D01*
X160491680Y-121705285D01*
X160401000Y-121686922D01*
X158369000Y-121686922D01*
X158284286Y-121702862D01*
X158206482Y-121752928D01*
X158154285Y-121829320D01*
X158135922Y-121920000D01*
X158135922Y-122555000D01*
X157718000Y-122555000D01*
X157572197Y-122584002D01*
X157522688Y-122617083D01*
X157448592Y-122666592D01*
X157448590Y-122666595D01*
X157129267Y-122985917D01*
X157019150Y-122875800D01*
X156133800Y-122875800D01*
X156133800Y-123636150D01*
X156279850Y-123782200D01*
X156332984Y-123782200D01*
X156150262Y-123964922D01*
X155331000Y-123964922D01*
X155246286Y-123980862D01*
X155168482Y-124030928D01*
X155116285Y-124107320D01*
X155097922Y-124198000D01*
X155097922Y-124317000D01*
X151271816Y-124317000D01*
X149976666Y-123021850D01*
X154746800Y-123021850D01*
X154746800Y-123314205D01*
X154835739Y-123528923D01*
X155000078Y-123693261D01*
X155214796Y-123782200D01*
X155632150Y-123782200D01*
X155778200Y-123636150D01*
X155778200Y-122875800D01*
X154892850Y-122875800D01*
X154746800Y-123021850D01*
X149976666Y-123021850D01*
X149622000Y-122667184D01*
X149622000Y-122143078D01*
X149741000Y-122143078D01*
X149825714Y-122127138D01*
X149903518Y-122077072D01*
X149955715Y-122000680D01*
X149974078Y-121910000D01*
X149974078Y-120660000D01*
X150507922Y-120660000D01*
X150507922Y-121910000D01*
X150523862Y-121994714D01*
X150573928Y-122072518D01*
X150650320Y-122124715D01*
X150741000Y-122143078D01*
X151741000Y-122143078D01*
X151825714Y-122127138D01*
X151903518Y-122077072D01*
X151955715Y-122000680D01*
X151974078Y-121910000D01*
X151974078Y-121666000D01*
X153670000Y-121666000D01*
X153815803Y-121636998D01*
X153939408Y-121554408D01*
X154746800Y-120747016D01*
X154746800Y-120811802D01*
X154892848Y-120811802D01*
X154746800Y-120957850D01*
X154746800Y-121250205D01*
X154835739Y-121464923D01*
X155000078Y-121629261D01*
X155088774Y-121666000D01*
X155000078Y-121702739D01*
X154835739Y-121867077D01*
X154746800Y-122081795D01*
X154746800Y-122374150D01*
X154892850Y-122520200D01*
X155778200Y-122520200D01*
X155778200Y-121759850D01*
X155684350Y-121666000D01*
X155778200Y-121572150D01*
X155778200Y-120811800D01*
X156133800Y-120811800D01*
X156133800Y-121572150D01*
X156227650Y-121666000D01*
X156133800Y-121759850D01*
X156133800Y-122520200D01*
X157019150Y-122520200D01*
X157165200Y-122374150D01*
X157165200Y-122081795D01*
X157076261Y-121867077D01*
X156911922Y-121702739D01*
X156823226Y-121666000D01*
X156911922Y-121629261D01*
X157076261Y-121464923D01*
X157165200Y-121250205D01*
X157165200Y-120957850D01*
X157019150Y-120811800D01*
X156133800Y-120811800D01*
X155778200Y-120811800D01*
X155758200Y-120811800D01*
X155758200Y-120456200D01*
X155778200Y-120456200D01*
X155778200Y-119715616D01*
X155797966Y-119695850D01*
X156133800Y-119695850D01*
X156133800Y-120456200D01*
X157019150Y-120456200D01*
X157165200Y-120310150D01*
X157165200Y-120017795D01*
X157076261Y-119803077D01*
X156911922Y-119638739D01*
X156697204Y-119549800D01*
X156279850Y-119549800D01*
X156133800Y-119695850D01*
X155797966Y-119695850D01*
X156126738Y-119367078D01*
X156581000Y-119367078D01*
X156665714Y-119351138D01*
X156743518Y-119301072D01*
X156795715Y-119224680D01*
X156814078Y-119134000D01*
X156814078Y-119015000D01*
X157465184Y-119015000D01*
X158274499Y-119824315D01*
X158210757Y-119919712D01*
X158116017Y-120396000D01*
X158210757Y-120872288D01*
X158480552Y-121276065D01*
X158884329Y-121545860D01*
X159360617Y-121640600D01*
X159409383Y-121640600D01*
X159885671Y-121545860D01*
X160289448Y-121276065D01*
X160559243Y-120872288D01*
X160653983Y-120396000D01*
X160559243Y-119919712D01*
X160289448Y-119515935D01*
X159885671Y-119246140D01*
X159409383Y-119151400D01*
X159360617Y-119151400D01*
X158884329Y-119246140D01*
X158818165Y-119290349D01*
X157892408Y-118364592D01*
X157768803Y-118282002D01*
X157623000Y-118253000D01*
X156814078Y-118253000D01*
X156814078Y-118134000D01*
X156798138Y-118049286D01*
X156748072Y-117971482D01*
X156671680Y-117919285D01*
X156581000Y-117900922D01*
X155331000Y-117900922D01*
X155246286Y-117916862D01*
X155168482Y-117966928D01*
X155116285Y-118043320D01*
X155097922Y-118134000D01*
X155097922Y-119134000D01*
X155113862Y-119218714D01*
X155146598Y-119269586D01*
X153512184Y-120904000D01*
X151974078Y-120904000D01*
X151974078Y-120660000D01*
X151958138Y-120575286D01*
X151908072Y-120497482D01*
X151831680Y-120445285D01*
X151741000Y-120426922D01*
X151622000Y-120426922D01*
X151622000Y-119308278D01*
X151930100Y-119308278D01*
X152014814Y-119292338D01*
X152092618Y-119242272D01*
X152144815Y-119165880D01*
X152163178Y-119075200D01*
X152163178Y-116382800D01*
X152147238Y-116298086D01*
X152097172Y-116220282D01*
X152020780Y-116168085D01*
X151930100Y-116149722D01*
X150939500Y-116149722D01*
X150854786Y-116165662D01*
X150776982Y-116215728D01*
X150724785Y-116292120D01*
X150706422Y-116382800D01*
X150706422Y-119075200D01*
X150722362Y-119159914D01*
X150772428Y-119237718D01*
X150848820Y-119289915D01*
X150860000Y-119292179D01*
X150860000Y-120426922D01*
X150741000Y-120426922D01*
X150656286Y-120442862D01*
X150578482Y-120492928D01*
X150526285Y-120569320D01*
X150507922Y-120660000D01*
X149974078Y-120660000D01*
X149958138Y-120575286D01*
X149908072Y-120497482D01*
X149831680Y-120445285D01*
X149741000Y-120426922D01*
X149622000Y-120426922D01*
X149622000Y-119308278D01*
X149796500Y-119308278D01*
X149881214Y-119292338D01*
X149959018Y-119242272D01*
X150011215Y-119165880D01*
X150029578Y-119075200D01*
X150029578Y-116382800D01*
X150013638Y-116298086D01*
X149963572Y-116220282D01*
X149887180Y-116168085D01*
X149796500Y-116149722D01*
X148805900Y-116149722D01*
X148721186Y-116165662D01*
X148643382Y-116215728D01*
X148591185Y-116292120D01*
X148572822Y-116382800D01*
X148572822Y-119075200D01*
X148588762Y-119159914D01*
X148638828Y-119237718D01*
X148715220Y-119289915D01*
X148805900Y-119308278D01*
X148860000Y-119308278D01*
X148860000Y-120426922D01*
X148741000Y-120426922D01*
X148656286Y-120442862D01*
X148578482Y-120492928D01*
X148526285Y-120569320D01*
X148507922Y-120660000D01*
X132443342Y-120660000D01*
X136344492Y-116758850D01*
X140347800Y-116758850D01*
X140347800Y-117051205D01*
X140436739Y-117265923D01*
X140601078Y-117430261D01*
X140815796Y-117519200D01*
X141408150Y-117519200D01*
X141554200Y-117373150D01*
X141554200Y-116612800D01*
X141909800Y-116612800D01*
X141909800Y-117373150D01*
X142055850Y-117519200D01*
X142648204Y-117519200D01*
X142862922Y-117430261D01*
X143027261Y-117265923D01*
X143116200Y-117051205D01*
X143116200Y-116758850D01*
X142970150Y-116612800D01*
X141909800Y-116612800D01*
X141554200Y-116612800D01*
X140493850Y-116612800D01*
X140347800Y-116758850D01*
X136344492Y-116758850D01*
X138607800Y-114495542D01*
X138607800Y-115443000D01*
X138671604Y-115763765D01*
X138853303Y-116035697D01*
X139125235Y-116217396D01*
X139446000Y-116281200D01*
X139766765Y-116217396D01*
X140038697Y-116035697D01*
X140183626Y-115818795D01*
X140347800Y-115818795D01*
X140347800Y-116111150D01*
X140493850Y-116257200D01*
X141554200Y-116257200D01*
X141554200Y-115496850D01*
X141909800Y-115496850D01*
X141909800Y-116257200D01*
X142970150Y-116257200D01*
X143116200Y-116111150D01*
X143116200Y-115818795D01*
X143027261Y-115604077D01*
X142862922Y-115439739D01*
X142648204Y-115350800D01*
X142055850Y-115350800D01*
X141909800Y-115496850D01*
X141554200Y-115496850D01*
X141408150Y-115350800D01*
X140815796Y-115350800D01*
X140601078Y-115439739D01*
X140436739Y-115604077D01*
X140347800Y-115818795D01*
X140183626Y-115818795D01*
X140220396Y-115763765D01*
X140284200Y-115443000D01*
X140284200Y-114758880D01*
X140769880Y-114273200D01*
X141732000Y-114273200D01*
X142052765Y-114209396D01*
X142114602Y-114168078D01*
X142532000Y-114168078D01*
X142616714Y-114152138D01*
X142694518Y-114102072D01*
X142746715Y-114025680D01*
X142765078Y-113935000D01*
X142765078Y-112935000D01*
X142749138Y-112850286D01*
X142699072Y-112772482D01*
X142622680Y-112720285D01*
X142532000Y-112701922D01*
X142114602Y-112701922D01*
X142052765Y-112660604D01*
X141732000Y-112596800D01*
X140506542Y-112596800D01*
X143106725Y-109996617D01*
X143198306Y-109958776D01*
X143359211Y-109798151D01*
X143430643Y-109626124D01*
X143522823Y-109664400D01*
X143750180Y-109664599D01*
X143960306Y-109577776D01*
X144018000Y-109520182D01*
X144018000Y-115011200D01*
X144047002Y-115157003D01*
X144129592Y-115280608D01*
X146388422Y-117539437D01*
X146388422Y-119075200D01*
X146404362Y-119159914D01*
X146454428Y-119237718D01*
X146530820Y-119289915D01*
X146621500Y-119308278D01*
X147612100Y-119308278D01*
X147696814Y-119292338D01*
X147774618Y-119242272D01*
X147826815Y-119165880D01*
X147845178Y-119075200D01*
X147845178Y-116382800D01*
X147829238Y-116298086D01*
X147779172Y-116220282D01*
X147702780Y-116168085D01*
X147612100Y-116149722D01*
X146621500Y-116149722D01*
X146536786Y-116165662D01*
X146458982Y-116215728D01*
X146406785Y-116292120D01*
X146388422Y-116382800D01*
X146388422Y-116461807D01*
X144780000Y-114853384D01*
X144780000Y-109220000D01*
X144750998Y-109074198D01*
X144668408Y-108950592D01*
X144617800Y-108916777D01*
X144617800Y-108764124D01*
X144721795Y-108807200D01*
X144754450Y-108807200D01*
X144900500Y-108661150D01*
X144900500Y-107771850D01*
X144903800Y-107771850D01*
X144903800Y-108339204D01*
X144992739Y-108553922D01*
X145025500Y-108586683D01*
X145025500Y-108661150D01*
X145171550Y-108807200D01*
X145204205Y-108807200D01*
X145288000Y-108772491D01*
X145371795Y-108807200D01*
X145404450Y-108807200D01*
X145550500Y-108661150D01*
X145550500Y-108586683D01*
X145583261Y-108553922D01*
X145672200Y-108339204D01*
X145672200Y-107771850D01*
X145550500Y-107650150D01*
X145550500Y-107625800D01*
X145025500Y-107625800D01*
X145025500Y-107650150D01*
X144903800Y-107771850D01*
X144900500Y-107771850D01*
X144900500Y-107625800D01*
X144838000Y-107625800D01*
X144838000Y-107270200D01*
X144900500Y-107270200D01*
X144900500Y-106556796D01*
X144903800Y-106556796D01*
X144903800Y-107124150D01*
X145025500Y-107245850D01*
X145025500Y-107270200D01*
X145550500Y-107270200D01*
X145550500Y-107245850D01*
X145672200Y-107124150D01*
X145672200Y-106556796D01*
X145583261Y-106342078D01*
X145550500Y-106309317D01*
X145550500Y-106234850D01*
X145675500Y-106234850D01*
X145675500Y-107270200D01*
X145738000Y-107270200D01*
X145738000Y-107625800D01*
X145675500Y-107625800D01*
X145675500Y-108661150D01*
X145821550Y-108807200D01*
X145854205Y-108807200D01*
X145999200Y-108747141D01*
X145999200Y-109003560D01*
X145952002Y-109074198D01*
X145923000Y-109220000D01*
X145923000Y-109601000D01*
X145952002Y-109746803D01*
X146034592Y-109870408D01*
X148320592Y-112156408D01*
X148444197Y-112238998D01*
X148590000Y-112268000D01*
X149321184Y-112268000D01*
X153202906Y-116149722D01*
X153123900Y-116149722D01*
X153039186Y-116165662D01*
X152961382Y-116215728D01*
X152909185Y-116292120D01*
X152890822Y-116382800D01*
X152890822Y-119075200D01*
X152906762Y-119159914D01*
X152956828Y-119237718D01*
X153033220Y-119289915D01*
X153123900Y-119308278D01*
X154114500Y-119308278D01*
X154199214Y-119292338D01*
X154277018Y-119242272D01*
X154329215Y-119165880D01*
X154347578Y-119075200D01*
X154347578Y-116382800D01*
X154331638Y-116298086D01*
X154281572Y-116220282D01*
X154205180Y-116168085D01*
X154114500Y-116149722D01*
X154000200Y-116149722D01*
X154000200Y-116027200D01*
X153971198Y-115881397D01*
X153888608Y-115757792D01*
X149748408Y-111617592D01*
X149624803Y-111535002D01*
X149479000Y-111506000D01*
X148747816Y-111506000D01*
X146746831Y-109505015D01*
X146824823Y-109537400D01*
X147052180Y-109537599D01*
X147217338Y-109469356D01*
X147222002Y-109492803D01*
X147304592Y-109616408D01*
X148701590Y-111013405D01*
X148701592Y-111013408D01*
X148775688Y-111062917D01*
X148825197Y-111095998D01*
X148971000Y-111125000D01*
X149733000Y-111125000D01*
X149878803Y-111095998D01*
X150002408Y-111013408D01*
X150031636Y-110984180D01*
X152336401Y-110984180D01*
X152423224Y-111194306D01*
X152583849Y-111355211D01*
X152793823Y-111442400D01*
X153021180Y-111442599D01*
X153231306Y-111355776D01*
X153335263Y-111252000D01*
X153660922Y-111252000D01*
X153660922Y-111521000D01*
X153676862Y-111605714D01*
X153726928Y-111683518D01*
X153803320Y-111735715D01*
X153894000Y-111754078D01*
X154594000Y-111754078D01*
X154678714Y-111738138D01*
X154756518Y-111688072D01*
X154808715Y-111611680D01*
X154827078Y-111521000D01*
X154827078Y-110221000D01*
X154811138Y-110136286D01*
X154761072Y-110058482D01*
X154684680Y-110006285D01*
X154594000Y-109987922D01*
X153894000Y-109987922D01*
X153809286Y-110003862D01*
X153731482Y-110053928D01*
X153679285Y-110130320D01*
X153660922Y-110221000D01*
X153660922Y-110490000D01*
X153335182Y-110490000D01*
X153232151Y-110386789D01*
X153022177Y-110299600D01*
X152794820Y-110299401D01*
X152584694Y-110386224D01*
X152423789Y-110546849D01*
X152336600Y-110756823D01*
X152336401Y-110984180D01*
X150031636Y-110984180D01*
X152049816Y-108966000D01*
X153587922Y-108966000D01*
X153587922Y-109210000D01*
X153603862Y-109294714D01*
X153653928Y-109372518D01*
X153730320Y-109424715D01*
X153821000Y-109443078D01*
X154821000Y-109443078D01*
X154905714Y-109427138D01*
X154983518Y-109377072D01*
X155035715Y-109300680D01*
X155054078Y-109210000D01*
X155054078Y-108908850D01*
X155236800Y-108908850D01*
X155236800Y-109326204D01*
X155325739Y-109540922D01*
X155490077Y-109705261D01*
X155704795Y-109794200D01*
X155997150Y-109794200D01*
X156143200Y-109648150D01*
X156143200Y-108762800D01*
X156498800Y-108762800D01*
X156498800Y-109648150D01*
X156644850Y-109794200D01*
X156937205Y-109794200D01*
X157151923Y-109705261D01*
X157316261Y-109540922D01*
X157405200Y-109326204D01*
X157405200Y-108908850D01*
X157259150Y-108762800D01*
X156498800Y-108762800D01*
X156143200Y-108762800D01*
X155382850Y-108762800D01*
X155236800Y-108908850D01*
X155054078Y-108908850D01*
X155054078Y-107960000D01*
X155038138Y-107875286D01*
X154988072Y-107797482D01*
X154911680Y-107745285D01*
X154821000Y-107726922D01*
X153821000Y-107726922D01*
X153736286Y-107742862D01*
X153658482Y-107792928D01*
X153606285Y-107869320D01*
X153587922Y-107960000D01*
X153587922Y-108204000D01*
X152049816Y-108204000D01*
X153533922Y-106719894D01*
X153533922Y-106949000D01*
X153549862Y-107033714D01*
X153599928Y-107111518D01*
X153676320Y-107163715D01*
X153767000Y-107182078D01*
X154467000Y-107182078D01*
X154551714Y-107166138D01*
X154629518Y-107116072D01*
X154681715Y-107039680D01*
X154700078Y-106949000D01*
X154700078Y-106622850D01*
X155082800Y-106622850D01*
X155082800Y-107065204D01*
X155171739Y-107279922D01*
X155336077Y-107444261D01*
X155459452Y-107495364D01*
X155325739Y-107629078D01*
X155236800Y-107843796D01*
X155236800Y-108261150D01*
X155382850Y-108407200D01*
X156143200Y-108407200D01*
X156143200Y-108387200D01*
X156498800Y-108387200D01*
X156498800Y-108407200D01*
X157259150Y-108407200D01*
X157405200Y-108261150D01*
X157405200Y-107843796D01*
X157316261Y-107629078D01*
X157151923Y-107464739D01*
X156937205Y-107375800D01*
X156766384Y-107375800D01*
X156862261Y-107279922D01*
X156951200Y-107065204D01*
X156951200Y-106622850D01*
X156805150Y-106476800D01*
X156192000Y-106476800D01*
X156192000Y-106496800D01*
X155842000Y-106496800D01*
X155842000Y-106476800D01*
X155228850Y-106476800D01*
X155082800Y-106622850D01*
X154700078Y-106622850D01*
X154700078Y-105649000D01*
X154684138Y-105564286D01*
X154663875Y-105532796D01*
X155082800Y-105532796D01*
X155082800Y-105975150D01*
X155228850Y-106121200D01*
X155842000Y-106121200D01*
X155842000Y-105210850D01*
X156192000Y-105210850D01*
X156192000Y-106121200D01*
X156805150Y-106121200D01*
X156951200Y-105975150D01*
X156951200Y-105532796D01*
X156862261Y-105318078D01*
X156697923Y-105153739D01*
X156483205Y-105064800D01*
X156338050Y-105064800D01*
X156192000Y-105210850D01*
X155842000Y-105210850D01*
X155695950Y-105064800D01*
X155550795Y-105064800D01*
X155336077Y-105153739D01*
X155171739Y-105318078D01*
X155082800Y-105532796D01*
X154663875Y-105532796D01*
X154634072Y-105486482D01*
X154557680Y-105434285D01*
X154467000Y-105415922D01*
X153767000Y-105415922D01*
X153682286Y-105431862D01*
X153604482Y-105481928D01*
X153552285Y-105558320D01*
X153533922Y-105649000D01*
X153533922Y-105918000D01*
X153416005Y-105918000D01*
X153416000Y-105917999D01*
X153270198Y-105947002D01*
X153146592Y-106029592D01*
X149352000Y-109824184D01*
X148513800Y-108985984D01*
X148513800Y-108762467D01*
X148621795Y-108807200D01*
X148654450Y-108807200D01*
X148800500Y-108661150D01*
X148800500Y-107625800D01*
X148925500Y-107625800D01*
X148925500Y-108661150D01*
X149071550Y-108807200D01*
X149104205Y-108807200D01*
X149318923Y-108718261D01*
X149483261Y-108553922D01*
X149572200Y-108339204D01*
X149572200Y-107771850D01*
X149426150Y-107625800D01*
X148925500Y-107625800D01*
X148800500Y-107625800D01*
X148738000Y-107625800D01*
X148738000Y-107270200D01*
X148800500Y-107270200D01*
X148800500Y-106234850D01*
X148925500Y-106234850D01*
X148925500Y-107270200D01*
X149426150Y-107270200D01*
X149572200Y-107124150D01*
X149572200Y-106556796D01*
X149483261Y-106342078D01*
X149318923Y-106177739D01*
X149104205Y-106088800D01*
X149071550Y-106088800D01*
X148925500Y-106234850D01*
X148800500Y-106234850D01*
X148654450Y-106088800D01*
X148621795Y-106088800D01*
X148407077Y-106177739D01*
X148242739Y-106342078D01*
X148202211Y-106439922D01*
X148088000Y-106439922D01*
X148003286Y-106455862D01*
X147925482Y-106505928D01*
X147887712Y-106561206D01*
X147855072Y-106510482D01*
X147778680Y-106458285D01*
X147688000Y-106439922D01*
X147438000Y-106439922D01*
X147353286Y-106455862D01*
X147275482Y-106505928D01*
X147237712Y-106561206D01*
X147205072Y-106510482D01*
X147128680Y-106458285D01*
X147038000Y-106439922D01*
X146788000Y-106439922D01*
X146703286Y-106455862D01*
X146625482Y-106505928D01*
X146587712Y-106561206D01*
X146555072Y-106510482D01*
X146478680Y-106458285D01*
X146388000Y-106439922D01*
X146273789Y-106439922D01*
X146233261Y-106342078D01*
X146068923Y-106177739D01*
X145854205Y-106088800D01*
X145821550Y-106088800D01*
X145675500Y-106234850D01*
X145550500Y-106234850D01*
X145404450Y-106088800D01*
X145371795Y-106088800D01*
X145288000Y-106123509D01*
X145204205Y-106088800D01*
X145171550Y-106088800D01*
X145025500Y-106234850D01*
X145025500Y-106309317D01*
X144992739Y-106342078D01*
X144903800Y-106556796D01*
X144900500Y-106556796D01*
X144900500Y-106234850D01*
X144754450Y-106088800D01*
X144721795Y-106088800D01*
X144507077Y-106177739D01*
X144342739Y-106342078D01*
X144302211Y-106439922D01*
X144188000Y-106439922D01*
X144103286Y-106455862D01*
X144025482Y-106505928D01*
X143987712Y-106561206D01*
X143955072Y-106510482D01*
X143878680Y-106458285D01*
X143788000Y-106439922D01*
X143538000Y-106439922D01*
X143453286Y-106455862D01*
X143375482Y-106505928D01*
X143337712Y-106561206D01*
X143305072Y-106510482D01*
X143228680Y-106458285D01*
X143138000Y-106439922D01*
X142888000Y-106439922D01*
X142803286Y-106455862D01*
X142725482Y-106505928D01*
X142687712Y-106561206D01*
X142655072Y-106510482D01*
X142578680Y-106458285D01*
X142488000Y-106439922D01*
X142238000Y-106439922D01*
X142153286Y-106455862D01*
X142075482Y-106505928D01*
X142037712Y-106561206D01*
X142005072Y-106510482D01*
X141928680Y-106458285D01*
X141838000Y-106439922D01*
X141588000Y-106439922D01*
X141503286Y-106455862D01*
X141425482Y-106505928D01*
X141373285Y-106582320D01*
X141354922Y-106673000D01*
X141354922Y-107067000D01*
X138638325Y-107067000D01*
X138623138Y-106986286D01*
X138573072Y-106908482D01*
X138496680Y-106856285D01*
X138406000Y-106837922D01*
X137406000Y-106837922D01*
X137321286Y-106853862D01*
X137243482Y-106903928D01*
X137191285Y-106980320D01*
X137172922Y-107071000D01*
X137172922Y-108321000D01*
X137188862Y-108405714D01*
X137238928Y-108483518D01*
X137315320Y-108535715D01*
X137406000Y-108554078D01*
X138406000Y-108554078D01*
X138490714Y-108538138D01*
X138568518Y-108488072D01*
X138620715Y-108411680D01*
X138639078Y-108321000D01*
X138639078Y-107829000D01*
X141354922Y-107829000D01*
X141354922Y-108223000D01*
X141370862Y-108307714D01*
X141420928Y-108385518D01*
X141497320Y-108437715D01*
X141588000Y-108456078D01*
X141838000Y-108456078D01*
X141922714Y-108440138D01*
X142000518Y-108390072D01*
X142038288Y-108334794D01*
X142058200Y-108365738D01*
X142058200Y-108589748D01*
X140970748Y-109677200D01*
X138639078Y-109677200D01*
X138639078Y-109357000D01*
X138623138Y-109272286D01*
X138573072Y-109194482D01*
X138496680Y-109142285D01*
X138406000Y-109123922D01*
X137406000Y-109123922D01*
X137321286Y-109139862D01*
X137243482Y-109189928D01*
X137191285Y-109266320D01*
X137172922Y-109357000D01*
X137172922Y-110607000D01*
X137188862Y-110691714D01*
X137238928Y-110769518D01*
X137315320Y-110821715D01*
X137406000Y-110840078D01*
X138406000Y-110840078D01*
X138490714Y-110824138D01*
X138568518Y-110774072D01*
X138620715Y-110697680D01*
X138639078Y-110607000D01*
X138639078Y-110286800D01*
X141097000Y-110286800D01*
X141213642Y-110263598D01*
X141312526Y-110197526D01*
X142578526Y-108931526D01*
X142644598Y-108832642D01*
X142667800Y-108716000D01*
X142667800Y-108364779D01*
X142688288Y-108334794D01*
X142708200Y-108365738D01*
X142708200Y-108924557D01*
X142551694Y-108989224D01*
X142390789Y-109149849D01*
X142352430Y-109242228D01*
X127579158Y-124015500D01*
X116971478Y-124015500D01*
X116971478Y-123494800D01*
X116955538Y-123410086D01*
X116905472Y-123332282D01*
X116829080Y-123280085D01*
X116738400Y-123261722D01*
X114630200Y-123261722D01*
X114545486Y-123277662D01*
X114467682Y-123327728D01*
X114415485Y-123404120D01*
X114397122Y-123494800D01*
X107852878Y-123494800D01*
X107836938Y-123410086D01*
X107786872Y-123332282D01*
X107710480Y-123280085D01*
X107619800Y-123261722D01*
X105511600Y-123261722D01*
X105426886Y-123277662D01*
X105349082Y-123327728D01*
X105296885Y-123404120D01*
X105278522Y-123494800D01*
X93267600Y-123494800D01*
X93267600Y-113960537D01*
X94005030Y-113960537D01*
X94329167Y-114745009D01*
X94928835Y-115345724D01*
X95712739Y-115671229D01*
X95716734Y-115671232D01*
X98501274Y-118455772D01*
X98500830Y-118964337D01*
X98824967Y-119748809D01*
X99424635Y-120349524D01*
X100208539Y-120675029D01*
X101057337Y-120675770D01*
X101841809Y-120351633D01*
X102442524Y-119751965D01*
X102755182Y-118999000D01*
X105278522Y-118999000D01*
X105278522Y-121107200D01*
X105294462Y-121191914D01*
X105344528Y-121269718D01*
X105420920Y-121321915D01*
X105511600Y-121340278D01*
X107619800Y-121340278D01*
X107704514Y-121324338D01*
X107782318Y-121274272D01*
X107834515Y-121197880D01*
X107852878Y-121107200D01*
X107852878Y-120376950D01*
X114046000Y-120376950D01*
X114046000Y-121223405D01*
X114134939Y-121438123D01*
X114299278Y-121602461D01*
X114513996Y-121691400D01*
X115360450Y-121691400D01*
X115506500Y-121545350D01*
X115506500Y-120230900D01*
X115862100Y-120230900D01*
X115862100Y-121545350D01*
X116008150Y-121691400D01*
X116854604Y-121691400D01*
X117069322Y-121602461D01*
X117233661Y-121438123D01*
X117322600Y-121223405D01*
X117322600Y-120376950D01*
X117176550Y-120230900D01*
X115862100Y-120230900D01*
X115506500Y-120230900D01*
X114192050Y-120230900D01*
X114046000Y-120376950D01*
X107852878Y-120376950D01*
X107852878Y-118999000D01*
X107836938Y-118914286D01*
X107816674Y-118882795D01*
X114046000Y-118882795D01*
X114046000Y-119729250D01*
X114192050Y-119875300D01*
X115506500Y-119875300D01*
X115506500Y-118560850D01*
X115862100Y-118560850D01*
X115862100Y-119875300D01*
X117176550Y-119875300D01*
X117322600Y-119729250D01*
X117322600Y-118882795D01*
X117233661Y-118668077D01*
X117069322Y-118503739D01*
X116854604Y-118414800D01*
X116008150Y-118414800D01*
X115862100Y-118560850D01*
X115506500Y-118560850D01*
X115360450Y-118414800D01*
X114513996Y-118414800D01*
X114299278Y-118503739D01*
X114134939Y-118668077D01*
X114046000Y-118882795D01*
X107816674Y-118882795D01*
X107786872Y-118836482D01*
X107710480Y-118784285D01*
X107619800Y-118765922D01*
X105511600Y-118765922D01*
X105426886Y-118781862D01*
X105349082Y-118831928D01*
X105296885Y-118908320D01*
X105278522Y-118999000D01*
X102755182Y-118999000D01*
X102768029Y-118968061D01*
X102768770Y-118119263D01*
X102444633Y-117334791D01*
X101844965Y-116734076D01*
X101061061Y-116408571D01*
X100548622Y-116408124D01*
X98223093Y-114082595D01*
X98272229Y-113964261D01*
X98272676Y-113451822D01*
X99128101Y-112596397D01*
X98882505Y-113187857D01*
X98881897Y-113885084D01*
X99148152Y-114529471D01*
X99640736Y-115022915D01*
X100284657Y-115290295D01*
X100981884Y-115290903D01*
X101626271Y-115024648D01*
X102119715Y-114532064D01*
X102387095Y-113888143D01*
X102387703Y-113190916D01*
X102323255Y-113034939D01*
X104537994Y-110820200D01*
X135313103Y-110820200D01*
X135315320Y-110821715D01*
X135406000Y-110840078D01*
X136406000Y-110840078D01*
X136490714Y-110824138D01*
X136568518Y-110774072D01*
X136620715Y-110697680D01*
X136639078Y-110607000D01*
X136639078Y-110364602D01*
X136680396Y-110302765D01*
X136744200Y-109982000D01*
X136680396Y-109661235D01*
X136639078Y-109599398D01*
X136639078Y-109357000D01*
X136623138Y-109272286D01*
X136573072Y-109194482D01*
X136496680Y-109142285D01*
X136406000Y-109123922D01*
X135406000Y-109123922D01*
X135321286Y-109139862D01*
X135315166Y-109143800D01*
X104190800Y-109143800D01*
X103870035Y-109207604D01*
X103657634Y-109349526D01*
X103598103Y-109389303D01*
X101138103Y-111849303D01*
X100984943Y-111785705D01*
X100287716Y-111785097D01*
X99694141Y-112030357D01*
X101056329Y-110668169D01*
X101057337Y-110668170D01*
X101841809Y-110344033D01*
X102442524Y-109744365D01*
X102768029Y-108960461D01*
X102768401Y-108534200D01*
X135313103Y-108534200D01*
X135315320Y-108535715D01*
X135406000Y-108554078D01*
X136406000Y-108554078D01*
X136490714Y-108538138D01*
X136568518Y-108488072D01*
X136620715Y-108411680D01*
X136639078Y-108321000D01*
X136639078Y-108078602D01*
X136680396Y-108016765D01*
X136744200Y-107696000D01*
X136680396Y-107375235D01*
X136639078Y-107313398D01*
X136639078Y-107071000D01*
X136623138Y-106986286D01*
X136573072Y-106908482D01*
X136496680Y-106856285D01*
X136406000Y-106837922D01*
X135406000Y-106837922D01*
X135321286Y-106853862D01*
X135315166Y-106857800D01*
X101976060Y-106857800D01*
X101844965Y-106726476D01*
X101061061Y-106400971D01*
X100212263Y-106400230D01*
X99427791Y-106724367D01*
X98827076Y-107324035D01*
X98501571Y-108107939D01*
X98500830Y-108956737D01*
X98551101Y-109078401D01*
X96225028Y-111404474D01*
X95716463Y-111404030D01*
X94931991Y-111728167D01*
X94331276Y-112327835D01*
X94005771Y-113111739D01*
X94005030Y-113960537D01*
X93267600Y-113960537D01*
X93267600Y-98339537D01*
X94259030Y-98339537D01*
X94583167Y-99124009D01*
X95182835Y-99724724D01*
X95966739Y-100050229D01*
X95970734Y-100050232D01*
X98755274Y-102834772D01*
X98754830Y-103343337D01*
X99078967Y-104127809D01*
X99678635Y-104728524D01*
X100462539Y-105054029D01*
X101311337Y-105054770D01*
X102095809Y-104730633D01*
X102696524Y-104130965D01*
X103022029Y-103347061D01*
X103022379Y-102946200D01*
X135440103Y-102946200D01*
X135442320Y-102947715D01*
X135533000Y-102966078D01*
X136533000Y-102966078D01*
X136617714Y-102950138D01*
X136695518Y-102900072D01*
X136747715Y-102823680D01*
X136766078Y-102733000D01*
X136766078Y-102490602D01*
X136807396Y-102428765D01*
X136871200Y-102108000D01*
X136807396Y-101787235D01*
X136766078Y-101725398D01*
X136766078Y-101483000D01*
X136750138Y-101398286D01*
X136700072Y-101320482D01*
X136623680Y-101268285D01*
X136533000Y-101249922D01*
X135533000Y-101249922D01*
X135448286Y-101265862D01*
X135442166Y-101269800D01*
X102255416Y-101269800D01*
X102098965Y-101113076D01*
X101315061Y-100787571D01*
X100802622Y-100787124D01*
X98477093Y-98461595D01*
X98526229Y-98343261D01*
X98526676Y-97830822D01*
X99382101Y-96975397D01*
X99136505Y-97566857D01*
X99135897Y-98264084D01*
X99402152Y-98908471D01*
X99894736Y-99401915D01*
X100538657Y-99669295D01*
X101235884Y-99669903D01*
X101391861Y-99605455D01*
X102201103Y-100414697D01*
X102473035Y-100596396D01*
X102793800Y-100660200D01*
X135440103Y-100660200D01*
X135442320Y-100661715D01*
X135533000Y-100680078D01*
X136533000Y-100680078D01*
X136617714Y-100664138D01*
X136695518Y-100614072D01*
X136747715Y-100537680D01*
X136766078Y-100447000D01*
X136766078Y-100204602D01*
X136807396Y-100142765D01*
X136871200Y-99822000D01*
X136807396Y-99501235D01*
X136766078Y-99439398D01*
X136766078Y-99197000D01*
X137299922Y-99197000D01*
X137299922Y-100447000D01*
X137315862Y-100531714D01*
X137365928Y-100609518D01*
X137442320Y-100661715D01*
X137533000Y-100680078D01*
X138533000Y-100680078D01*
X138617714Y-100664138D01*
X138695518Y-100614072D01*
X138747715Y-100537680D01*
X138766078Y-100447000D01*
X138766078Y-100203000D01*
X141574184Y-100203000D01*
X142062200Y-100691015D01*
X142062200Y-100925367D01*
X142037712Y-100961206D01*
X142005072Y-100910482D01*
X141928680Y-100858285D01*
X141838000Y-100839922D01*
X141588000Y-100839922D01*
X141503286Y-100855862D01*
X141425482Y-100905928D01*
X141373285Y-100982320D01*
X141354922Y-101073000D01*
X141354922Y-101667263D01*
X141295184Y-101727000D01*
X138766078Y-101727000D01*
X138766078Y-101483000D01*
X138750138Y-101398286D01*
X138700072Y-101320482D01*
X138623680Y-101268285D01*
X138533000Y-101249922D01*
X137533000Y-101249922D01*
X137448286Y-101265862D01*
X137370482Y-101315928D01*
X137318285Y-101392320D01*
X137299922Y-101483000D01*
X137299922Y-102733000D01*
X137315862Y-102817714D01*
X137365928Y-102895518D01*
X137442320Y-102947715D01*
X137533000Y-102966078D01*
X138533000Y-102966078D01*
X138617714Y-102950138D01*
X138695518Y-102900072D01*
X138747715Y-102823680D01*
X138766078Y-102733000D01*
X138766078Y-102489000D01*
X141354922Y-102489000D01*
X141354922Y-102623000D01*
X141370862Y-102707714D01*
X141420928Y-102785518D01*
X141497320Y-102837715D01*
X141588000Y-102856078D01*
X141838000Y-102856078D01*
X141922714Y-102840138D01*
X142000518Y-102790072D01*
X142038288Y-102734794D01*
X142070928Y-102785518D01*
X142147320Y-102837715D01*
X142238000Y-102856078D01*
X142488000Y-102856078D01*
X142572714Y-102840138D01*
X142650518Y-102790072D01*
X142688288Y-102734794D01*
X142720928Y-102785518D01*
X142797320Y-102837715D01*
X142888000Y-102856078D01*
X143138000Y-102856078D01*
X143222714Y-102840138D01*
X143300518Y-102790072D01*
X143338288Y-102734794D01*
X143370928Y-102785518D01*
X143447320Y-102837715D01*
X143538000Y-102856078D01*
X143788000Y-102856078D01*
X143872714Y-102840138D01*
X143950518Y-102790072D01*
X143988288Y-102734794D01*
X144020928Y-102785518D01*
X144097320Y-102837715D01*
X144188000Y-102856078D01*
X144438000Y-102856078D01*
X144522714Y-102840138D01*
X144600518Y-102790072D01*
X144638288Y-102734794D01*
X144670928Y-102785518D01*
X144747320Y-102837715D01*
X144838000Y-102856078D01*
X144952211Y-102856078D01*
X144992739Y-102953922D01*
X145157077Y-103118261D01*
X145371795Y-103207200D01*
X145404450Y-103207200D01*
X145550500Y-103061150D01*
X145550500Y-102025800D01*
X145488000Y-102025800D01*
X145488000Y-101670200D01*
X145550500Y-101670200D01*
X145550500Y-100634850D01*
X145404450Y-100488800D01*
X145371795Y-100488800D01*
X145267800Y-100531876D01*
X145267800Y-100431548D01*
X145288000Y-100330000D01*
X145258997Y-100184197D01*
X145176407Y-100060592D01*
X144780000Y-99664184D01*
X144780000Y-99344816D01*
X145973327Y-100538142D01*
X145854205Y-100488800D01*
X145821550Y-100488800D01*
X145675500Y-100634850D01*
X145675500Y-101670200D01*
X145738000Y-101670200D01*
X145738000Y-102025800D01*
X145675500Y-102025800D01*
X145675500Y-103061150D01*
X145821550Y-103207200D01*
X145854205Y-103207200D01*
X146068923Y-103118261D01*
X146233261Y-102953922D01*
X146273789Y-102856078D01*
X146388000Y-102856078D01*
X146472714Y-102840138D01*
X146550518Y-102790072D01*
X146588288Y-102734794D01*
X146620928Y-102785518D01*
X146697320Y-102837715D01*
X146788000Y-102856078D01*
X147038000Y-102856078D01*
X147122714Y-102840138D01*
X147200518Y-102790072D01*
X147238288Y-102734794D01*
X147270928Y-102785518D01*
X147347320Y-102837715D01*
X147438000Y-102856078D01*
X147688000Y-102856078D01*
X147772714Y-102840138D01*
X147850518Y-102790072D01*
X147888288Y-102734794D01*
X147920928Y-102785518D01*
X147997320Y-102837715D01*
X148088000Y-102856078D01*
X148338000Y-102856078D01*
X148422714Y-102840138D01*
X148500518Y-102790072D01*
X148538288Y-102734794D01*
X148570928Y-102785518D01*
X148647320Y-102837715D01*
X148738000Y-102856078D01*
X148988000Y-102856078D01*
X149072714Y-102840138D01*
X149150518Y-102790072D01*
X149202715Y-102713680D01*
X149221078Y-102623000D01*
X149221078Y-101073000D01*
X149205138Y-100988286D01*
X149167800Y-100930262D01*
X149167800Y-99884142D01*
X152641827Y-103358168D01*
X152641829Y-103358171D01*
X152814877Y-103473797D01*
X153019000Y-103514401D01*
X153019005Y-103514400D01*
X153961207Y-103514400D01*
X153970862Y-103565714D01*
X154020928Y-103643518D01*
X154097320Y-103695715D01*
X154188000Y-103714078D01*
X155438000Y-103714078D01*
X155522714Y-103698138D01*
X155600518Y-103648072D01*
X155652715Y-103571680D01*
X155664314Y-103514400D01*
X156735058Y-103514400D01*
X158089600Y-104868942D01*
X158089600Y-109634058D01*
X157386058Y-110337600D01*
X156727078Y-110337600D01*
X156727078Y-110221000D01*
X156711138Y-110136286D01*
X156661072Y-110058482D01*
X156584680Y-110006285D01*
X156494000Y-109987922D01*
X155794000Y-109987922D01*
X155709286Y-110003862D01*
X155631482Y-110053928D01*
X155579285Y-110130320D01*
X155560922Y-110221000D01*
X155560922Y-111521000D01*
X155576862Y-111605714D01*
X155626928Y-111683518D01*
X155703320Y-111735715D01*
X155794000Y-111754078D01*
X156494000Y-111754078D01*
X156578714Y-111738138D01*
X156656518Y-111688072D01*
X156708715Y-111611680D01*
X156727078Y-111521000D01*
X156727078Y-111404400D01*
X157607000Y-111404400D01*
X157811123Y-111363797D01*
X157984171Y-111248171D01*
X159000171Y-110232171D01*
X159115797Y-110059123D01*
X159156400Y-109855000D01*
X159156400Y-104648000D01*
X159115797Y-104443877D01*
X159000171Y-104270829D01*
X157333171Y-102603829D01*
X157160123Y-102488203D01*
X156956000Y-102447600D01*
X155664793Y-102447600D01*
X155655138Y-102396286D01*
X155605072Y-102318482D01*
X155528680Y-102266285D01*
X155438000Y-102247922D01*
X154188000Y-102247922D01*
X154103286Y-102263862D01*
X154025482Y-102313928D01*
X153973285Y-102390320D01*
X153961686Y-102447600D01*
X153239941Y-102447600D01*
X152097191Y-101304850D01*
X153603800Y-101304850D01*
X153603800Y-101597205D01*
X153692739Y-101811923D01*
X153857078Y-101976261D01*
X154071796Y-102065200D01*
X154489150Y-102065200D01*
X154635200Y-101919150D01*
X154635200Y-101158800D01*
X154990800Y-101158800D01*
X154990800Y-101919150D01*
X155136850Y-102065200D01*
X155554204Y-102065200D01*
X155768922Y-101976261D01*
X155933261Y-101811923D01*
X156022200Y-101597205D01*
X156022200Y-101304850D01*
X155876150Y-101158800D01*
X154990800Y-101158800D01*
X154635200Y-101158800D01*
X153749850Y-101158800D01*
X153603800Y-101304850D01*
X152097191Y-101304850D01*
X151157136Y-100364795D01*
X153603800Y-100364795D01*
X153603800Y-100657150D01*
X153749850Y-100803200D01*
X154635200Y-100803200D01*
X154635200Y-100042850D01*
X154990800Y-100042850D01*
X154990800Y-100803200D01*
X155876150Y-100803200D01*
X156022200Y-100657150D01*
X156022200Y-100364795D01*
X155933261Y-100150077D01*
X155768922Y-99985739D01*
X155554204Y-99896800D01*
X155136850Y-99896800D01*
X154990800Y-100042850D01*
X154635200Y-100042850D01*
X154489150Y-99896800D01*
X154071796Y-99896800D01*
X153857078Y-99985739D01*
X153692739Y-100150077D01*
X153603800Y-100364795D01*
X151157136Y-100364795D01*
X149727663Y-98935322D01*
X149758241Y-98861683D01*
X149758558Y-98497913D01*
X149619642Y-98161711D01*
X149362642Y-97904262D01*
X149026683Y-97764759D01*
X148662913Y-97764442D01*
X148326711Y-97903358D01*
X148132800Y-98096931D01*
X148132800Y-97535252D01*
X148589252Y-97078800D01*
X152063922Y-97078800D01*
X152063922Y-97399000D01*
X152079862Y-97483714D01*
X152129928Y-97561518D01*
X152206320Y-97613715D01*
X152297000Y-97632078D01*
X153297000Y-97632078D01*
X153381714Y-97616138D01*
X153459518Y-97566072D01*
X153511715Y-97489680D01*
X153530078Y-97399000D01*
X153530078Y-97097850D01*
X153712800Y-97097850D01*
X153712800Y-97515204D01*
X153801739Y-97729922D01*
X153966077Y-97894261D01*
X154180795Y-97983200D01*
X154473150Y-97983200D01*
X154619200Y-97837150D01*
X154619200Y-96951800D01*
X154974800Y-96951800D01*
X154974800Y-97837150D01*
X155120850Y-97983200D01*
X155413205Y-97983200D01*
X155627923Y-97894261D01*
X155792261Y-97729922D01*
X155881200Y-97515204D01*
X155881200Y-97097850D01*
X155735150Y-96951800D01*
X154974800Y-96951800D01*
X154619200Y-96951800D01*
X153858850Y-96951800D01*
X153712800Y-97097850D01*
X153530078Y-97097850D01*
X153530078Y-96149000D01*
X153514138Y-96064286D01*
X153493875Y-96032796D01*
X153712800Y-96032796D01*
X153712800Y-96450150D01*
X153858850Y-96596200D01*
X154619200Y-96596200D01*
X154619200Y-95710850D01*
X154974800Y-95710850D01*
X154974800Y-96596200D01*
X155735150Y-96596200D01*
X155881200Y-96450150D01*
X155881200Y-96032796D01*
X155792261Y-95818078D01*
X155627923Y-95653739D01*
X155413205Y-95564800D01*
X155120850Y-95564800D01*
X154974800Y-95710850D01*
X154619200Y-95710850D01*
X154473150Y-95564800D01*
X154180795Y-95564800D01*
X153966077Y-95653739D01*
X153801739Y-95818078D01*
X153712800Y-96032796D01*
X153493875Y-96032796D01*
X153464072Y-95986482D01*
X153387680Y-95934285D01*
X153297000Y-95915922D01*
X152715738Y-95915922D01*
X151828471Y-95028655D01*
X151828599Y-94882820D01*
X151741776Y-94672694D01*
X151581151Y-94511789D01*
X151371177Y-94424600D01*
X151143820Y-94424401D01*
X150933694Y-94511224D01*
X150772789Y-94671849D01*
X150685600Y-94881823D01*
X150685401Y-95109180D01*
X150772224Y-95319306D01*
X150932849Y-95480211D01*
X151142823Y-95567400D01*
X151289713Y-95567529D01*
X152063922Y-96341738D01*
X152063922Y-96469200D01*
X148463000Y-96469200D01*
X148346358Y-96492402D01*
X148270206Y-96543285D01*
X148247474Y-96558474D01*
X147612474Y-97193474D01*
X147546402Y-97292358D01*
X147523200Y-97409000D01*
X147523200Y-99568000D01*
X147546402Y-99684642D01*
X147612474Y-99783526D01*
X147908200Y-100079252D01*
X147908200Y-100931221D01*
X147887712Y-100961206D01*
X147855072Y-100910482D01*
X147778680Y-100858285D01*
X147688000Y-100839922D01*
X147438000Y-100839922D01*
X147353286Y-100855862D01*
X147275482Y-100905928D01*
X147237712Y-100961206D01*
X147217800Y-100930262D01*
X147217800Y-100885641D01*
X147389306Y-100814776D01*
X147550211Y-100654151D01*
X147637400Y-100444177D01*
X147637599Y-100216820D01*
X147550776Y-100006694D01*
X147447000Y-99902737D01*
X147447000Y-97893005D01*
X147447001Y-97893000D01*
X147439883Y-97857216D01*
X147445715Y-97848680D01*
X147464078Y-97758000D01*
X147464078Y-96758000D01*
X147448138Y-96673286D01*
X147398072Y-96595482D01*
X147321680Y-96543285D01*
X147231000Y-96524922D01*
X145631000Y-96524922D01*
X145546286Y-96540862D01*
X145468482Y-96590928D01*
X145416285Y-96667320D01*
X145397922Y-96758000D01*
X145397922Y-97758000D01*
X145413862Y-97842714D01*
X145463928Y-97920518D01*
X145540320Y-97972715D01*
X145631000Y-97991078D01*
X146625263Y-97991078D01*
X146685000Y-98050815D01*
X146685000Y-99902818D01*
X146581789Y-100005849D01*
X146563268Y-100050453D01*
X145288000Y-98775184D01*
X145288000Y-95241183D01*
X145300078Y-95253261D01*
X145514796Y-95342200D01*
X146107150Y-95342200D01*
X146253200Y-95196150D01*
X146253200Y-94435800D01*
X146608800Y-94435800D01*
X146608800Y-95196150D01*
X146754850Y-95342200D01*
X147347204Y-95342200D01*
X147561922Y-95253261D01*
X147726261Y-95088923D01*
X147815200Y-94874205D01*
X147815200Y-94581850D01*
X147669150Y-94435800D01*
X146608800Y-94435800D01*
X146253200Y-94435800D01*
X146233200Y-94435800D01*
X146233200Y-94080200D01*
X146253200Y-94080200D01*
X146253200Y-93319850D01*
X146608800Y-93319850D01*
X146608800Y-94080200D01*
X147669150Y-94080200D01*
X147815200Y-93934150D01*
X147815200Y-93641795D01*
X147726261Y-93427077D01*
X147561922Y-93262739D01*
X147347204Y-93173800D01*
X146754850Y-93173800D01*
X146608800Y-93319850D01*
X146253200Y-93319850D01*
X146107150Y-93173800D01*
X145871016Y-93173800D01*
X146207816Y-92837000D01*
X148412200Y-92837000D01*
X148558003Y-92807998D01*
X148681608Y-92725408D01*
X149278165Y-92128850D01*
X154746800Y-92128850D01*
X154746800Y-92421205D01*
X154835739Y-92635923D01*
X155000078Y-92800261D01*
X155214796Y-92889200D01*
X155632150Y-92889200D01*
X155778200Y-92743150D01*
X155778200Y-91982800D01*
X156133800Y-91982800D01*
X156133800Y-92743150D01*
X156279850Y-92889200D01*
X156697204Y-92889200D01*
X156911922Y-92800261D01*
X157076261Y-92635923D01*
X157165200Y-92421205D01*
X157165200Y-92128850D01*
X157019150Y-91982800D01*
X156133800Y-91982800D01*
X155778200Y-91982800D01*
X154892850Y-91982800D01*
X154746800Y-92128850D01*
X149278165Y-92128850D01*
X149670437Y-91736578D01*
X151206200Y-91736578D01*
X151290914Y-91720638D01*
X151368718Y-91670572D01*
X151420915Y-91594180D01*
X151439278Y-91503500D01*
X151439278Y-91188795D01*
X154746800Y-91188795D01*
X154746800Y-91481150D01*
X154892850Y-91627200D01*
X155778200Y-91627200D01*
X155778200Y-90866850D01*
X156133800Y-90866850D01*
X156133800Y-91627200D01*
X157019150Y-91627200D01*
X157165200Y-91481150D01*
X157165200Y-91188795D01*
X157076261Y-90974077D01*
X156911922Y-90809739D01*
X156697204Y-90720800D01*
X156279850Y-90720800D01*
X156133800Y-90866850D01*
X155778200Y-90866850D01*
X155632150Y-90720800D01*
X155214796Y-90720800D01*
X155000078Y-90809739D01*
X154835739Y-90974077D01*
X154746800Y-91188795D01*
X151439278Y-91188795D01*
X151439278Y-90512900D01*
X151423338Y-90428186D01*
X151373272Y-90350382D01*
X151296880Y-90298185D01*
X151206200Y-90279822D01*
X148513800Y-90279822D01*
X148429086Y-90295762D01*
X148351282Y-90345828D01*
X148299085Y-90422220D01*
X148280722Y-90512900D01*
X148280722Y-91503500D01*
X148296662Y-91588214D01*
X148346728Y-91666018D01*
X148423120Y-91718215D01*
X148513800Y-91736578D01*
X148592806Y-91736578D01*
X148254384Y-92075000D01*
X147223816Y-92075000D01*
X147589405Y-91709410D01*
X147589408Y-91709408D01*
X147671998Y-91585802D01*
X147701000Y-91440000D01*
X147701000Y-88328500D01*
X148280722Y-88328500D01*
X148280722Y-89319100D01*
X148296662Y-89403814D01*
X148346728Y-89481618D01*
X148423120Y-89533815D01*
X148513800Y-89552178D01*
X151206200Y-89552178D01*
X151290914Y-89536238D01*
X151368718Y-89486172D01*
X151420915Y-89409780D01*
X151439278Y-89319100D01*
X151439278Y-89204800D01*
X152435984Y-89204800D01*
X152684922Y-89453738D01*
X152684922Y-90273000D01*
X152700862Y-90357714D01*
X152750928Y-90435518D01*
X152827320Y-90487715D01*
X152918000Y-90506078D01*
X154168000Y-90506078D01*
X154252714Y-90490138D01*
X154330518Y-90440072D01*
X154382715Y-90363680D01*
X154401078Y-90273000D01*
X154401078Y-90154000D01*
X155097922Y-90154000D01*
X155097922Y-90305000D01*
X155113862Y-90389714D01*
X155163928Y-90467518D01*
X155240320Y-90519715D01*
X155331000Y-90538078D01*
X156581000Y-90538078D01*
X156665714Y-90522138D01*
X156743518Y-90472072D01*
X156795715Y-90395680D01*
X156814078Y-90305000D01*
X156814078Y-90186000D01*
X158500200Y-90186000D01*
X158591757Y-90646288D01*
X158861552Y-91050065D01*
X159265329Y-91319860D01*
X159741617Y-91414600D01*
X159790383Y-91414600D01*
X160266671Y-91319860D01*
X160670448Y-91050065D01*
X160940243Y-90646288D01*
X161034983Y-90170000D01*
X160940243Y-89693712D01*
X160670448Y-89289935D01*
X160266671Y-89020140D01*
X159790383Y-88925400D01*
X159741617Y-88925400D01*
X159265329Y-89020140D01*
X158861552Y-89289935D01*
X158771973Y-89424000D01*
X156814078Y-89424000D01*
X156814078Y-89305000D01*
X156798138Y-89220286D01*
X156748072Y-89142482D01*
X156671680Y-89090285D01*
X156581000Y-89071922D01*
X155331000Y-89071922D01*
X155246286Y-89087862D01*
X155168482Y-89137928D01*
X155116285Y-89214320D01*
X155097922Y-89305000D01*
X155097922Y-89392000D01*
X154401078Y-89392000D01*
X154401078Y-89273000D01*
X154385138Y-89188286D01*
X154335072Y-89110482D01*
X154258680Y-89058285D01*
X154168000Y-89039922D01*
X153348737Y-89039922D01*
X152863208Y-88554392D01*
X152739603Y-88471802D01*
X152593800Y-88442800D01*
X151439278Y-88442800D01*
X151439278Y-88328500D01*
X151423338Y-88243786D01*
X151373272Y-88165982D01*
X151296880Y-88113785D01*
X151206200Y-88095422D01*
X148513800Y-88095422D01*
X148429086Y-88111362D01*
X148351282Y-88161428D01*
X148299085Y-88237820D01*
X148280722Y-88328500D01*
X147701000Y-88328500D01*
X147701000Y-86321900D01*
X148280722Y-86321900D01*
X148280722Y-87312500D01*
X148296662Y-87397214D01*
X148346728Y-87475018D01*
X148423120Y-87527215D01*
X148513800Y-87545578D01*
X151206200Y-87545578D01*
X151290914Y-87529638D01*
X151368718Y-87479572D01*
X151420915Y-87403180D01*
X151439278Y-87312500D01*
X151439278Y-87198200D01*
X152429384Y-87198200D01*
X152684922Y-87453738D01*
X152684922Y-88273000D01*
X152700862Y-88357714D01*
X152750928Y-88435518D01*
X152827320Y-88487715D01*
X152918000Y-88506078D01*
X154168000Y-88506078D01*
X154252714Y-88490138D01*
X154330518Y-88440072D01*
X154382715Y-88363680D01*
X154401078Y-88273000D01*
X154401078Y-88122000D01*
X155097922Y-88122000D01*
X155097922Y-88241000D01*
X155113862Y-88325714D01*
X155163928Y-88403518D01*
X155240320Y-88455715D01*
X155331000Y-88474078D01*
X156581000Y-88474078D01*
X156665714Y-88458138D01*
X156743518Y-88408072D01*
X156795715Y-88331680D01*
X156814078Y-88241000D01*
X156814078Y-88011000D01*
X158516922Y-88011000D01*
X158516922Y-88646000D01*
X158532862Y-88730714D01*
X158582928Y-88808518D01*
X158659320Y-88860715D01*
X158750000Y-88879078D01*
X160782000Y-88879078D01*
X160866714Y-88863138D01*
X160944518Y-88813072D01*
X160996715Y-88736680D01*
X161015078Y-88646000D01*
X161015078Y-86614000D01*
X160999138Y-86529286D01*
X160949072Y-86451482D01*
X160872680Y-86399285D01*
X160782000Y-86380922D01*
X158750000Y-86380922D01*
X158665286Y-86396862D01*
X158587482Y-86446928D01*
X158535285Y-86523320D01*
X158516922Y-86614000D01*
X158516922Y-87249000D01*
X156814078Y-87249000D01*
X156814078Y-87241000D01*
X156798138Y-87156286D01*
X156748072Y-87078482D01*
X156671680Y-87026285D01*
X156581000Y-87007922D01*
X155331000Y-87007922D01*
X155246286Y-87023862D01*
X155168482Y-87073928D01*
X155116285Y-87150320D01*
X155097922Y-87241000D01*
X155097922Y-87360000D01*
X154401078Y-87360000D01*
X154401078Y-87273000D01*
X154385138Y-87188286D01*
X154335072Y-87110482D01*
X154258680Y-87058285D01*
X154168000Y-87039922D01*
X153348737Y-87039922D01*
X152856608Y-86547792D01*
X152733003Y-86465202D01*
X152587200Y-86436200D01*
X151439278Y-86436200D01*
X151439278Y-86321900D01*
X151423338Y-86237186D01*
X151373272Y-86159382D01*
X151296880Y-86107185D01*
X151206200Y-86088822D01*
X148513800Y-86088822D01*
X148429086Y-86104762D01*
X148351282Y-86154828D01*
X148299085Y-86231220D01*
X148280722Y-86321900D01*
X147701000Y-86321900D01*
X147701000Y-86064850D01*
X154746800Y-86064850D01*
X154746800Y-86357205D01*
X154835739Y-86571923D01*
X155000078Y-86736261D01*
X155214796Y-86825200D01*
X155632150Y-86825200D01*
X155778200Y-86679150D01*
X155778200Y-85918800D01*
X156133800Y-85918800D01*
X156133800Y-86679150D01*
X156279850Y-86825200D01*
X156697204Y-86825200D01*
X156911922Y-86736261D01*
X157076261Y-86571923D01*
X157165200Y-86357205D01*
X157165200Y-86064850D01*
X157019150Y-85918800D01*
X156133800Y-85918800D01*
X155778200Y-85918800D01*
X154892850Y-85918800D01*
X154746800Y-86064850D01*
X147701000Y-86064850D01*
X147701000Y-85882816D01*
X148325769Y-85258047D01*
X148346728Y-85290618D01*
X148423120Y-85342815D01*
X148513800Y-85361178D01*
X151206200Y-85361178D01*
X151290914Y-85345238D01*
X151368718Y-85295172D01*
X151420915Y-85218780D01*
X151439278Y-85128100D01*
X151439278Y-85124795D01*
X154746800Y-85124795D01*
X154746800Y-85417150D01*
X154892850Y-85563200D01*
X155778200Y-85563200D01*
X155778200Y-84802850D01*
X156133800Y-84802850D01*
X156133800Y-85563200D01*
X157019150Y-85563200D01*
X157165200Y-85417150D01*
X157165200Y-85124795D01*
X157076261Y-84910077D01*
X156911922Y-84745739D01*
X156697204Y-84656800D01*
X156279850Y-84656800D01*
X156133800Y-84802850D01*
X155778200Y-84802850D01*
X155632150Y-84656800D01*
X155214796Y-84656800D01*
X155000078Y-84745739D01*
X154835739Y-84910077D01*
X154746800Y-85124795D01*
X151439278Y-85124795D01*
X151439278Y-84137500D01*
X151423338Y-84052786D01*
X151373272Y-83974982D01*
X151296880Y-83922785D01*
X151206200Y-83904422D01*
X148513800Y-83904422D01*
X148429086Y-83920362D01*
X148351282Y-83970428D01*
X148299085Y-84046820D01*
X148280722Y-84137500D01*
X148280722Y-84277953D01*
X148266397Y-84280802D01*
X148142792Y-84363392D01*
X147050592Y-85455592D01*
X146968002Y-85579197D01*
X146966343Y-85587536D01*
X146939000Y-85725000D01*
X146939000Y-91282185D01*
X146654184Y-91567000D01*
X145796000Y-91567000D01*
X145650197Y-91596002D01*
X145633630Y-91607072D01*
X145526592Y-91678592D01*
X145526590Y-91678595D01*
X144129592Y-93075592D01*
X144047002Y-93199197D01*
X144023003Y-93319850D01*
X144018000Y-93345000D01*
X144018000Y-93401816D01*
X143878922Y-93262739D01*
X143664204Y-93173800D01*
X143071850Y-93173800D01*
X142925800Y-93319850D01*
X142925800Y-94080200D01*
X142945800Y-94080200D01*
X142945800Y-94435800D01*
X142925800Y-94435800D01*
X142925800Y-95196150D01*
X143071850Y-95342200D01*
X143664204Y-95342200D01*
X143878922Y-95253261D01*
X144018000Y-95114184D01*
X144018000Y-99816660D01*
X143878177Y-99758600D01*
X143650820Y-99758401D01*
X143440694Y-99845224D01*
X143279789Y-100005849D01*
X143261268Y-100050452D01*
X143129000Y-99918184D01*
X143129000Y-97991078D01*
X143548000Y-97991078D01*
X143632714Y-97975138D01*
X143710518Y-97925072D01*
X143762715Y-97848680D01*
X143781078Y-97758000D01*
X143781078Y-96758000D01*
X143765138Y-96673286D01*
X143715072Y-96595482D01*
X143638680Y-96543285D01*
X143548000Y-96524922D01*
X141948000Y-96524922D01*
X141863286Y-96540862D01*
X141785482Y-96590928D01*
X141733285Y-96667320D01*
X141714922Y-96758000D01*
X141714922Y-97758000D01*
X141730862Y-97842714D01*
X141780928Y-97920518D01*
X141857320Y-97972715D01*
X141948000Y-97991078D01*
X142367000Y-97991078D01*
X142367000Y-99918185D01*
X142001408Y-99552592D01*
X141877803Y-99470002D01*
X141732000Y-99441000D01*
X138766078Y-99441000D01*
X138766078Y-99197000D01*
X138750138Y-99112286D01*
X138700072Y-99034482D01*
X138623680Y-98982285D01*
X138533000Y-98963922D01*
X137533000Y-98963922D01*
X137448286Y-98979862D01*
X137370482Y-99029928D01*
X137318285Y-99106320D01*
X137299922Y-99197000D01*
X136766078Y-99197000D01*
X136750138Y-99112286D01*
X136700072Y-99034482D01*
X136623680Y-98982285D01*
X136533000Y-98963922D01*
X135533000Y-98963922D01*
X135448286Y-98979862D01*
X135442166Y-98983800D01*
X103140994Y-98983800D01*
X102577497Y-98420303D01*
X102641095Y-98267143D01*
X102641703Y-97569916D01*
X102551601Y-97351850D01*
X112649000Y-97351850D01*
X112649000Y-98160204D01*
X112737939Y-98374922D01*
X112902277Y-98539261D01*
X113116995Y-98628200D01*
X114738150Y-98628200D01*
X114884200Y-98482150D01*
X114884200Y-97205800D01*
X115239800Y-97205800D01*
X115239800Y-98482150D01*
X115385850Y-98628200D01*
X117007005Y-98628200D01*
X117221723Y-98539261D01*
X117386061Y-98374922D01*
X117475000Y-98160204D01*
X117475000Y-97351850D01*
X117328950Y-97205800D01*
X115239800Y-97205800D01*
X114884200Y-97205800D01*
X112795050Y-97205800D01*
X112649000Y-97351850D01*
X102551601Y-97351850D01*
X102375448Y-96925529D01*
X101882864Y-96432085D01*
X101238943Y-96164705D01*
X100541716Y-96164097D01*
X99948141Y-96409357D01*
X100461702Y-95895796D01*
X112649000Y-95895796D01*
X112649000Y-96704150D01*
X112795050Y-96850200D01*
X114884200Y-96850200D01*
X114884200Y-95573850D01*
X115239800Y-95573850D01*
X115239800Y-96850200D01*
X117328950Y-96850200D01*
X117475000Y-96704150D01*
X117475000Y-95895796D01*
X117386061Y-95681078D01*
X117221723Y-95516739D01*
X117007005Y-95427800D01*
X115385850Y-95427800D01*
X115239800Y-95573850D01*
X114884200Y-95573850D01*
X114738150Y-95427800D01*
X113116995Y-95427800D01*
X112902277Y-95516739D01*
X112737939Y-95681078D01*
X112649000Y-95895796D01*
X100461702Y-95895796D01*
X101310329Y-95047169D01*
X101311337Y-95047170D01*
X102095809Y-94723033D01*
X102696524Y-94123365D01*
X103022029Y-93339461D01*
X103022075Y-93286580D01*
X120325482Y-93286580D01*
X120325482Y-94485460D01*
X120341422Y-94570174D01*
X120391488Y-94647978D01*
X120467880Y-94700175D01*
X120558560Y-94718538D01*
X121757440Y-94718538D01*
X121842154Y-94702598D01*
X121919958Y-94652532D01*
X121972155Y-94576140D01*
X121990518Y-94485460D01*
X121990518Y-94419420D01*
X122560922Y-94419420D01*
X122560922Y-94518000D01*
X122576862Y-94602714D01*
X122626928Y-94680518D01*
X122703320Y-94732715D01*
X122794000Y-94751078D01*
X124094000Y-94751078D01*
X124178714Y-94735138D01*
X124256518Y-94685072D01*
X124308715Y-94608680D01*
X124314148Y-94581850D01*
X141363800Y-94581850D01*
X141363800Y-94874205D01*
X141452739Y-95088923D01*
X141617078Y-95253261D01*
X141831796Y-95342200D01*
X142424150Y-95342200D01*
X142570200Y-95196150D01*
X142570200Y-94435800D01*
X141509850Y-94435800D01*
X141363800Y-94581850D01*
X124314148Y-94581850D01*
X124327078Y-94518000D01*
X124327078Y-93818000D01*
X124311138Y-93733286D01*
X124261072Y-93655482D01*
X124241041Y-93641795D01*
X141363800Y-93641795D01*
X141363800Y-93934150D01*
X141509850Y-94080200D01*
X142570200Y-94080200D01*
X142570200Y-93319850D01*
X142424150Y-93173800D01*
X141831796Y-93173800D01*
X141617078Y-93262739D01*
X141452739Y-93427077D01*
X141363800Y-93641795D01*
X124241041Y-93641795D01*
X124184680Y-93603285D01*
X124094000Y-93584922D01*
X123615264Y-93584922D01*
X123539191Y-93508849D01*
X123366143Y-93393223D01*
X123162020Y-93352620D01*
X121990518Y-93352620D01*
X121990518Y-93286580D01*
X121974578Y-93201866D01*
X121924512Y-93124062D01*
X121848120Y-93071865D01*
X121757440Y-93053502D01*
X120558560Y-93053502D01*
X120473846Y-93069442D01*
X120396042Y-93119508D01*
X120343845Y-93195900D01*
X120325482Y-93286580D01*
X103022075Y-93286580D01*
X103022770Y-92490663D01*
X102698633Y-91706191D01*
X102098965Y-91105476D01*
X101315061Y-90779971D01*
X100466263Y-90779230D01*
X99681791Y-91103367D01*
X99081076Y-91703035D01*
X98755571Y-92486939D01*
X98754830Y-93335737D01*
X98805101Y-93457401D01*
X96479028Y-95783474D01*
X95970463Y-95783030D01*
X95185991Y-96107167D01*
X94585276Y-96706835D01*
X94259771Y-97490739D01*
X94259030Y-98339537D01*
X93267600Y-98339537D01*
X93267600Y-88588850D01*
X99142800Y-88588850D01*
X99142800Y-89181204D01*
X99231739Y-89395922D01*
X99396077Y-89560261D01*
X99610795Y-89649200D01*
X99903150Y-89649200D01*
X100049200Y-89503150D01*
X100049200Y-88442800D01*
X100404800Y-88442800D01*
X100404800Y-89503150D01*
X100550850Y-89649200D01*
X100843205Y-89649200D01*
X101057923Y-89560261D01*
X101222261Y-89395922D01*
X101311200Y-89181204D01*
X101311200Y-88588850D01*
X101165150Y-88442800D01*
X100404800Y-88442800D01*
X100049200Y-88442800D01*
X99288850Y-88442800D01*
X99142800Y-88588850D01*
X93267600Y-88588850D01*
X93267600Y-87348796D01*
X99142800Y-87348796D01*
X99142800Y-87941150D01*
X99288850Y-88087200D01*
X100049200Y-88087200D01*
X100049200Y-87026850D01*
X100404800Y-87026850D01*
X100404800Y-88087200D01*
X101165150Y-88087200D01*
X101311200Y-87941150D01*
X101311200Y-87348796D01*
X101222261Y-87134078D01*
X101057923Y-86969739D01*
X100843205Y-86880800D01*
X100550850Y-86880800D01*
X100404800Y-87026850D01*
X100049200Y-87026850D01*
X99903150Y-86880800D01*
X99610795Y-86880800D01*
X99396077Y-86969739D01*
X99231739Y-87134078D01*
X99142800Y-87348796D01*
X93267600Y-87348796D01*
X93267600Y-85387389D01*
X99168089Y-85387389D01*
X99447943Y-85945531D01*
X99920086Y-86354091D01*
X100286613Y-86505899D01*
X100533200Y-86406239D01*
X100533200Y-85140800D01*
X99266746Y-85140800D01*
X99168089Y-85387389D01*
X93267600Y-85387389D01*
X93267600Y-84538611D01*
X99168089Y-84538611D01*
X99266746Y-84785200D01*
X100533200Y-84785200D01*
X100533200Y-83519761D01*
X100888800Y-83519761D01*
X100888800Y-84785200D01*
X100908800Y-84785200D01*
X100908800Y-85140800D01*
X100888800Y-85140800D01*
X100888800Y-86406239D01*
X101135387Y-86505899D01*
X101501914Y-86354091D01*
X101974057Y-85945531D01*
X102001922Y-85889957D01*
X102001922Y-85979000D01*
X102017862Y-86063714D01*
X102067928Y-86141518D01*
X102144320Y-86193715D01*
X102235000Y-86212078D01*
X102412800Y-86212078D01*
X102412800Y-88144343D01*
X102388800Y-88265000D01*
X102452604Y-88585766D01*
X102493922Y-88647603D01*
X102493922Y-89065000D01*
X102509862Y-89149714D01*
X102559928Y-89227518D01*
X102636320Y-89279715D01*
X102727000Y-89298078D01*
X103727000Y-89298078D01*
X103811714Y-89282138D01*
X103889518Y-89232072D01*
X103941715Y-89155680D01*
X103960078Y-89065000D01*
X103960078Y-88717316D01*
X104336194Y-88341200D01*
X111937800Y-88341200D01*
X111937800Y-90424000D01*
X112001604Y-90744765D01*
X112034922Y-90794629D01*
X112034922Y-91440000D01*
X112050862Y-91524714D01*
X112100928Y-91602518D01*
X112177320Y-91654715D01*
X112268000Y-91673078D01*
X113284000Y-91673078D01*
X113368714Y-91657138D01*
X113446518Y-91607072D01*
X113498715Y-91530680D01*
X113517078Y-91440000D01*
X113517078Y-90794629D01*
X113550396Y-90744765D01*
X113614200Y-90424000D01*
X113614200Y-89662000D01*
X114223800Y-89662000D01*
X114223800Y-90424000D01*
X114287604Y-90744765D01*
X114320922Y-90794629D01*
X114320922Y-91440000D01*
X114336862Y-91524714D01*
X114386928Y-91602518D01*
X114463320Y-91654715D01*
X114528600Y-91667934D01*
X114528600Y-91948000D01*
X114569203Y-92152123D01*
X114684829Y-92325171D01*
X115192827Y-92833168D01*
X115192829Y-92833171D01*
X115276683Y-92889200D01*
X115365876Y-92948797D01*
X115570000Y-92989400D01*
X120489980Y-92989400D01*
X120694103Y-92948797D01*
X120867151Y-92833171D01*
X121079824Y-92620498D01*
X121757440Y-92620498D01*
X121842154Y-92604558D01*
X121866253Y-92589050D01*
X122209800Y-92589050D01*
X122209800Y-92734205D01*
X122298739Y-92948923D01*
X122463078Y-93113261D01*
X122677796Y-93202200D01*
X123120150Y-93202200D01*
X123266200Y-93056150D01*
X123266200Y-92443000D01*
X123621800Y-92443000D01*
X123621800Y-93056150D01*
X123767850Y-93202200D01*
X124210204Y-93202200D01*
X124424922Y-93113261D01*
X124589261Y-92948923D01*
X124678200Y-92734205D01*
X124678200Y-92589050D01*
X124532150Y-92443000D01*
X123621800Y-92443000D01*
X123266200Y-92443000D01*
X122355850Y-92443000D01*
X122209800Y-92589050D01*
X121866253Y-92589050D01*
X121919958Y-92554492D01*
X121972155Y-92478100D01*
X121990518Y-92387420D01*
X121990518Y-91801795D01*
X122209800Y-91801795D01*
X122209800Y-91946950D01*
X122355850Y-92093000D01*
X123266200Y-92093000D01*
X123266200Y-91479850D01*
X123621800Y-91479850D01*
X123621800Y-92093000D01*
X124532150Y-92093000D01*
X124678200Y-91946950D01*
X124678200Y-91801795D01*
X124589261Y-91587077D01*
X124424922Y-91422739D01*
X124210204Y-91333800D01*
X123767850Y-91333800D01*
X123621800Y-91479850D01*
X123266200Y-91479850D01*
X123120150Y-91333800D01*
X122677796Y-91333800D01*
X122463078Y-91422739D01*
X122298739Y-91587077D01*
X122209800Y-91801795D01*
X121990518Y-91801795D01*
X121990518Y-91188540D01*
X121974578Y-91103826D01*
X121924512Y-91026022D01*
X121848120Y-90973825D01*
X121757440Y-90955462D01*
X120558560Y-90955462D01*
X120473846Y-90971402D01*
X120396042Y-91021468D01*
X120343845Y-91097860D01*
X120325482Y-91188540D01*
X120325482Y-91866156D01*
X120269038Y-91922600D01*
X118199584Y-91922600D01*
X118351261Y-91770922D01*
X118440200Y-91556204D01*
X118440200Y-90747850D01*
X118294150Y-90601800D01*
X117525800Y-90601800D01*
X117525800Y-90621800D01*
X117170200Y-90621800D01*
X117170200Y-90601800D01*
X116401850Y-90601800D01*
X116255800Y-90747850D01*
X116255800Y-91556204D01*
X116344739Y-91770922D01*
X116496416Y-91922600D01*
X115790941Y-91922600D01*
X115595400Y-91727058D01*
X115595400Y-91668299D01*
X115654714Y-91657138D01*
X115732518Y-91607072D01*
X115784715Y-91530680D01*
X115803078Y-91440000D01*
X115803078Y-90794629D01*
X115836396Y-90744765D01*
X115900200Y-90424000D01*
X115900200Y-90009194D01*
X116255800Y-89653594D01*
X116255800Y-90100150D01*
X116401850Y-90246200D01*
X117170200Y-90246200D01*
X117170200Y-88969850D01*
X117525800Y-88969850D01*
X117525800Y-90246200D01*
X118294150Y-90246200D01*
X118440200Y-90100150D01*
X118440200Y-89291796D01*
X118351261Y-89077078D01*
X118186923Y-88912739D01*
X117972205Y-88823800D01*
X117671850Y-88823800D01*
X117525800Y-88969850D01*
X117170200Y-88969850D01*
X117054872Y-88854522D01*
X117170684Y-88738710D01*
X122948700Y-88738710D01*
X122948700Y-89831545D01*
X123037639Y-90046263D01*
X123201978Y-90210601D01*
X123416696Y-90299540D01*
X124009150Y-90299540D01*
X124155200Y-90153490D01*
X124155200Y-88592660D01*
X124510800Y-88592660D01*
X124510800Y-90153490D01*
X124656850Y-90299540D01*
X125249304Y-90299540D01*
X125464022Y-90210601D01*
X125628361Y-90046263D01*
X125717300Y-89831545D01*
X125717300Y-89679017D01*
X128379162Y-89679017D01*
X128588599Y-90185894D01*
X128976066Y-90574038D01*
X129482577Y-90784360D01*
X130031017Y-90784838D01*
X130537894Y-90575401D01*
X130926038Y-90187934D01*
X131136360Y-89681423D01*
X131136362Y-89679017D01*
X136579162Y-89679017D01*
X136788599Y-90185894D01*
X137176066Y-90574038D01*
X137682577Y-90784360D01*
X138231017Y-90784838D01*
X138737894Y-90575401D01*
X139126038Y-90187934D01*
X139336360Y-89681423D01*
X139336838Y-89132983D01*
X139127401Y-88626106D01*
X138739934Y-88237962D01*
X138233423Y-88027640D01*
X137684983Y-88027162D01*
X137178106Y-88236599D01*
X136789962Y-88624066D01*
X136579640Y-89130577D01*
X136579162Y-89679017D01*
X131136362Y-89679017D01*
X131136838Y-89132983D01*
X130927401Y-88626106D01*
X130539934Y-88237962D01*
X130033423Y-88027640D01*
X129484983Y-88027162D01*
X128978106Y-88236599D01*
X128589962Y-88624066D01*
X128379640Y-89130577D01*
X128379162Y-89679017D01*
X125717300Y-89679017D01*
X125717300Y-88738710D01*
X125571250Y-88592660D01*
X124510800Y-88592660D01*
X124155200Y-88592660D01*
X123094750Y-88592660D01*
X122948700Y-88738710D01*
X117170684Y-88738710D01*
X118076194Y-87833200D01*
X122151140Y-87833200D01*
X122471906Y-87769396D01*
X122743837Y-87587697D01*
X122948700Y-87382834D01*
X122948700Y-88091010D01*
X123094750Y-88237060D01*
X124155200Y-88237060D01*
X124155200Y-86676230D01*
X124510800Y-86676230D01*
X124510800Y-88237060D01*
X125571250Y-88237060D01*
X125717300Y-88091010D01*
X125717300Y-87262960D01*
X130452488Y-87262960D01*
X130558201Y-87509321D01*
X131156109Y-87708569D01*
X131784753Y-87663841D01*
X132157799Y-87509321D01*
X132263512Y-87262960D01*
X131358000Y-86357447D01*
X130452488Y-87262960D01*
X125717300Y-87262960D01*
X125717300Y-86998175D01*
X125628361Y-86783457D01*
X125464022Y-86619119D01*
X125249304Y-86530180D01*
X124656850Y-86530180D01*
X124510800Y-86676230D01*
X124155200Y-86676230D01*
X124009150Y-86530180D01*
X123801354Y-86530180D01*
X123984836Y-86346698D01*
X125133100Y-86346698D01*
X125217814Y-86330758D01*
X125295618Y-86280692D01*
X125347815Y-86204300D01*
X125366178Y-86113620D01*
X125366178Y-85904109D01*
X129755431Y-85904109D01*
X129800159Y-86532753D01*
X129954679Y-86905799D01*
X130201040Y-87011512D01*
X131106553Y-86106000D01*
X131609447Y-86106000D01*
X132514960Y-87011512D01*
X132761321Y-86905799D01*
X132804984Y-86774774D01*
X132815836Y-86801037D01*
X133161145Y-87146949D01*
X133612544Y-87334387D01*
X134101312Y-87334813D01*
X134553037Y-87148164D01*
X134898949Y-86802855D01*
X135086387Y-86351456D01*
X135086813Y-85862688D01*
X134900164Y-85410963D01*
X134554855Y-85065051D01*
X134103456Y-84877613D01*
X133614688Y-84877187D01*
X133162963Y-85063836D01*
X132817051Y-85409145D01*
X132810498Y-85424926D01*
X132761321Y-85306201D01*
X132514960Y-85200488D01*
X131609447Y-86106000D01*
X131106553Y-86106000D01*
X130201040Y-85200488D01*
X129954679Y-85306201D01*
X129755431Y-85904109D01*
X125366178Y-85904109D01*
X125366178Y-84965356D01*
X125546334Y-84785200D01*
X130522791Y-84785200D01*
X130452488Y-84949040D01*
X131358000Y-85854553D01*
X132263512Y-84949040D01*
X132193209Y-84785200D01*
X135034806Y-84785200D01*
X135488050Y-85238444D01*
X135317051Y-85409145D01*
X135129613Y-85860544D01*
X135129187Y-86349312D01*
X135315836Y-86801037D01*
X135661145Y-87146949D01*
X136112544Y-87334387D01*
X136601312Y-87334813D01*
X137053037Y-87148164D01*
X137398949Y-86802855D01*
X137586387Y-86351456D01*
X137586813Y-85862688D01*
X137400164Y-85410963D01*
X137196200Y-85206643D01*
X137196200Y-84923000D01*
X137132396Y-84602235D01*
X136950697Y-84330303D01*
X135974697Y-83354303D01*
X135702766Y-83172604D01*
X135382000Y-83108800D01*
X125199140Y-83108800D01*
X124878374Y-83172604D01*
X124718271Y-83279582D01*
X123532900Y-83279582D01*
X123448186Y-83295522D01*
X123370382Y-83345588D01*
X123318185Y-83421980D01*
X123299822Y-83512660D01*
X123299822Y-84660924D01*
X121803946Y-86156800D01*
X117729000Y-86156800D01*
X117408235Y-86220604D01*
X117136303Y-86402303D01*
X115595400Y-87943206D01*
X115595400Y-87696000D01*
X115554797Y-87491877D01*
X115452078Y-87338146D01*
X115452078Y-86853000D01*
X115436138Y-86768286D01*
X115402400Y-86715856D01*
X115402400Y-85488078D01*
X115459000Y-85488078D01*
X115543714Y-85472138D01*
X115621518Y-85422072D01*
X115673715Y-85345680D01*
X115692078Y-85255000D01*
X115692078Y-84778850D01*
X116874800Y-84778850D01*
X116874800Y-85371204D01*
X116963739Y-85585922D01*
X117128077Y-85750261D01*
X117342795Y-85839200D01*
X117635150Y-85839200D01*
X117781200Y-85693150D01*
X117781200Y-84632800D01*
X118136800Y-84632800D01*
X118136800Y-85693150D01*
X118282850Y-85839200D01*
X118575205Y-85839200D01*
X118789923Y-85750261D01*
X118954261Y-85585922D01*
X119043200Y-85371204D01*
X119043200Y-84778850D01*
X118897150Y-84632800D01*
X118136800Y-84632800D01*
X117781200Y-84632800D01*
X117020850Y-84632800D01*
X116874800Y-84778850D01*
X115692078Y-84778850D01*
X115692078Y-83655000D01*
X115676138Y-83570286D01*
X115655875Y-83538796D01*
X116874800Y-83538796D01*
X116874800Y-84131150D01*
X117020850Y-84277200D01*
X117781200Y-84277200D01*
X117781200Y-83216850D01*
X118136800Y-83216850D01*
X118136800Y-84277200D01*
X118897150Y-84277200D01*
X119043200Y-84131150D01*
X119043200Y-83538796D01*
X118954261Y-83324078D01*
X118789923Y-83159739D01*
X118575205Y-83070800D01*
X118282850Y-83070800D01*
X118136800Y-83216850D01*
X117781200Y-83216850D01*
X117635150Y-83070800D01*
X117342795Y-83070800D01*
X117128077Y-83159739D01*
X116963739Y-83324078D01*
X116874800Y-83538796D01*
X115655875Y-83538796D01*
X115626072Y-83492482D01*
X115549680Y-83440285D01*
X115459000Y-83421922D01*
X114459000Y-83421922D01*
X114374286Y-83437862D01*
X114296482Y-83487928D01*
X114244285Y-83564320D01*
X114225922Y-83655000D01*
X114225922Y-85255000D01*
X114241862Y-85339714D01*
X114291928Y-85417518D01*
X114335600Y-85447358D01*
X114335600Y-86716489D01*
X114304285Y-86762320D01*
X114285922Y-86853000D01*
X114285922Y-88153000D01*
X114301862Y-88237714D01*
X114351928Y-88315518D01*
X114428320Y-88367715D01*
X114519000Y-88386078D01*
X114528600Y-88386078D01*
X114528600Y-89010006D01*
X114469303Y-89069303D01*
X114287604Y-89341234D01*
X114245645Y-89552178D01*
X114223800Y-89662000D01*
X113614200Y-89662000D01*
X113614200Y-88017121D01*
X113743396Y-87823766D01*
X113807200Y-87503000D01*
X113743396Y-87182235D01*
X113561697Y-86910303D01*
X113552078Y-86903876D01*
X113552078Y-86853000D01*
X113536138Y-86768286D01*
X113486072Y-86690482D01*
X113409680Y-86638285D01*
X113319000Y-86619922D01*
X112619000Y-86619922D01*
X112534286Y-86635862D01*
X112489316Y-86664800D01*
X104089200Y-86664800D01*
X104089200Y-86212078D01*
X104267000Y-86212078D01*
X104351714Y-86196138D01*
X104429518Y-86146072D01*
X104481715Y-86069680D01*
X104500078Y-85979000D01*
X104500078Y-83947000D01*
X104484138Y-83862286D01*
X104434072Y-83784482D01*
X104357680Y-83732285D01*
X104267000Y-83713922D01*
X102235000Y-83713922D01*
X102150286Y-83729862D01*
X102072482Y-83779928D01*
X102020285Y-83856320D01*
X102001922Y-83947000D01*
X102001922Y-84036043D01*
X101974057Y-83980469D01*
X101501914Y-83571909D01*
X101135387Y-83420101D01*
X100888800Y-83519761D01*
X100533200Y-83519761D01*
X100286613Y-83420101D01*
X99920086Y-83571909D01*
X99447943Y-83980469D01*
X99168089Y-84538611D01*
X93267600Y-84538611D01*
X93267600Y-82853600D01*
X162891400Y-82853600D01*
X162891400Y-127585400D01*
M02*
