G04 #@! TF.FileFunction,Copper,L1,Top,Signal*
%FSLAX46Y46*%
G04 Gerber Fmt 4.6, Leading zero omitted, Abs format (unit mm)*
G04 Created by KiCad (PCBNEW 4.0.0-2.201512072331+6194~38~ubuntu14.04.1-stable) date Tue 16 Aug 2016 09:34:35 AM CEST*
%MOMM*%
G01*
G04 APERTURE LIST*
%ADD10C,0.100000*%
%ADD11C,0.685800*%
%ADD12C,3.810000*%
%ADD13C,3.048000*%
%ADD14R,1.000000X1.600000*%
%ADD15R,1.250000X1.000000*%
%ADD16R,1.600000X1.000000*%
%ADD17R,1.600200X2.600960*%
%ADD18R,1.000000X1.250000*%
%ADD19R,0.990600X2.692400*%
%ADD20R,2.032000X2.032000*%
%ADD21O,2.032000X2.032000*%
%ADD22R,0.700000X1.300000*%
%ADD23C,2.000000*%
%ADD24R,2.108200X2.108200*%
%ADD25R,3.657600X2.032000*%
%ADD26R,1.016000X2.032000*%
%ADD27R,1.300000X0.700000*%
%ADD28R,1.198880X1.198880*%
%ADD29R,0.250000X1.550000*%
%ADD30R,7.800000X3.400000*%
%ADD31C,0.508000*%
%ADD32C,1.371600*%
%ADD33C,1.219200*%
%ADD34C,0.609600*%
%ADD35C,0.152400*%
%ADD36C,0.304800*%
%ADD37C,2.438400*%
G04 APERTURE END LIST*
D10*
D11*
X151130000Y-91440000D03*
X151130000Y-83820000D03*
X148590000Y-83820000D03*
X146050000Y-86360000D03*
X143510000Y-86360000D03*
X146050000Y-83820000D03*
D12*
X101600000Y-116840000D03*
X106095800Y-111836200D03*
X106095800Y-121843800D03*
D13*
X106095800Y-116840000D03*
D11*
X161290000Y-127000000D03*
X158750000Y-127000000D03*
X156210000Y-127000000D03*
X153670000Y-127000000D03*
X151130000Y-127000000D03*
X148590000Y-127000000D03*
X146050000Y-127000000D03*
X143510000Y-127000000D03*
X140970000Y-127000000D03*
X138430000Y-127000000D03*
X135890000Y-127000000D03*
X133350000Y-127000000D03*
X130810000Y-127000000D03*
X128270000Y-127000000D03*
X125730000Y-127000000D03*
X123190000Y-127000000D03*
X120650000Y-127000000D03*
X118110000Y-127000000D03*
X115570000Y-127000000D03*
X113030000Y-127000000D03*
X110490000Y-127000000D03*
X107950000Y-127000000D03*
X105410000Y-127000000D03*
X102870000Y-127000000D03*
X100330000Y-127000000D03*
X148590000Y-124460000D03*
X146050000Y-124460000D03*
X143510000Y-124460000D03*
X140970000Y-124460000D03*
X138430000Y-124460000D03*
X135890000Y-124460000D03*
X133350000Y-124460000D03*
X130810000Y-124460000D03*
X128270000Y-124460000D03*
X125730000Y-124460000D03*
X123190000Y-124460000D03*
X120650000Y-124460000D03*
X118110000Y-124460000D03*
X115570000Y-124460000D03*
X113030000Y-124460000D03*
X110490000Y-124460000D03*
X107950000Y-124460000D03*
X105410000Y-124460000D03*
X102870000Y-124460000D03*
X100330000Y-124460000D03*
X146050000Y-121920000D03*
X143510000Y-121920000D03*
X140970000Y-121920000D03*
X138430000Y-121920000D03*
X135890000Y-121920000D03*
X133350000Y-121920000D03*
X130810000Y-121920000D03*
X125730000Y-121920000D03*
X123190000Y-121920000D03*
X115570000Y-121920000D03*
X113030000Y-121920000D03*
X110490000Y-121920000D03*
X100330000Y-121920000D03*
X143510000Y-119380000D03*
X140970000Y-119380000D03*
X138430000Y-119380000D03*
X135890000Y-119380000D03*
X133350000Y-119380000D03*
X128270000Y-119380000D03*
X125730000Y-119380000D03*
X123190000Y-119380000D03*
X120650000Y-119380000D03*
X118110000Y-119380000D03*
X115570000Y-119380000D03*
X113030000Y-119380000D03*
X110490000Y-119380000D03*
X107950000Y-119380000D03*
X161290000Y-116840000D03*
X158750000Y-116840000D03*
X156210000Y-116840000D03*
X143510000Y-116840000D03*
X138430000Y-116840000D03*
X135890000Y-116840000D03*
X130810000Y-116840000D03*
X125730000Y-116840000D03*
X123190000Y-116840000D03*
X115570000Y-116840000D03*
X113030000Y-116840000D03*
X110490000Y-116840000D03*
X161290000Y-114300000D03*
X158750000Y-114300000D03*
X156210000Y-114300000D03*
X153670000Y-114300000D03*
X148590000Y-114300000D03*
X146050000Y-114300000D03*
X143510000Y-114300000D03*
X133350000Y-114300000D03*
X130810000Y-114300000D03*
X161290000Y-111760000D03*
X158750000Y-111760000D03*
X151130000Y-111760000D03*
X146050000Y-111760000D03*
X143510000Y-111760000D03*
X135890000Y-111760000D03*
X133350000Y-111760000D03*
X100330000Y-111760000D03*
X161290000Y-109220000D03*
X140970000Y-109220000D03*
X128270000Y-109220000D03*
X125730000Y-109220000D03*
X123190000Y-109220000D03*
X120650000Y-109220000D03*
X118110000Y-109220000D03*
X115570000Y-109220000D03*
X113030000Y-109220000D03*
X110490000Y-109220000D03*
X107950000Y-109220000D03*
X105410000Y-109220000D03*
X102870000Y-109220000D03*
X100330000Y-109220000D03*
X161290000Y-106680000D03*
X130810000Y-106680000D03*
X128270000Y-106680000D03*
X125730000Y-106680000D03*
X123190000Y-106680000D03*
X120650000Y-106680000D03*
X118110000Y-106680000D03*
X115570000Y-106680000D03*
X113030000Y-106680000D03*
X110490000Y-106680000D03*
X100330000Y-106680000D03*
X161290000Y-104140000D03*
X156210000Y-104140000D03*
X153670000Y-104140000D03*
X161290000Y-101600000D03*
X158750000Y-101600000D03*
X156210000Y-101600000D03*
X161290000Y-99060000D03*
X158750000Y-99060000D03*
X156210000Y-99060000D03*
X153670000Y-99060000D03*
X151130000Y-99060000D03*
X130810000Y-99060000D03*
X128270000Y-99060000D03*
X125730000Y-99060000D03*
X123190000Y-99060000D03*
X120650000Y-99060000D03*
X118110000Y-99060000D03*
X115570000Y-99060000D03*
X113030000Y-99060000D03*
X110490000Y-99060000D03*
X107950000Y-99060000D03*
X100330000Y-99060000D03*
X161290000Y-96520000D03*
X158750000Y-96520000D03*
X156210000Y-96520000D03*
X140970000Y-96520000D03*
X138430000Y-96520000D03*
X135890000Y-96520000D03*
X133350000Y-96520000D03*
X130810000Y-96520000D03*
X128270000Y-96520000D03*
X125730000Y-96520000D03*
X123190000Y-96520000D03*
X120650000Y-96520000D03*
X118110000Y-96520000D03*
X110490000Y-96520000D03*
X102870000Y-96520000D03*
X100330000Y-96520000D03*
X161290000Y-93980000D03*
X158750000Y-93980000D03*
X156210000Y-93980000D03*
X153670000Y-93980000D03*
X148590000Y-93980000D03*
X140970000Y-93980000D03*
X138430000Y-93980000D03*
X135890000Y-93980000D03*
X133350000Y-93980000D03*
X130810000Y-93980000D03*
X128270000Y-93980000D03*
X125730000Y-93980000D03*
X118110000Y-93980000D03*
X113030000Y-93980000D03*
X110490000Y-93980000D03*
X107950000Y-93980000D03*
X105410000Y-93980000D03*
X102870000Y-93980000D03*
X100330000Y-93980000D03*
X153670000Y-91440000D03*
X140970000Y-91440000D03*
X138430000Y-91440000D03*
X135890000Y-91440000D03*
X133350000Y-91440000D03*
X130810000Y-91440000D03*
X128270000Y-91440000D03*
X125730000Y-91440000D03*
X105410000Y-88900000D03*
X102870000Y-91440000D03*
X100330000Y-91440000D03*
X135890000Y-88900000D03*
X133350000Y-88900000D03*
X120650000Y-88900000D03*
X110490000Y-88900000D03*
X102870000Y-88900000D03*
X100330000Y-88900000D03*
X140970000Y-86360000D03*
X128270000Y-86360000D03*
X110490000Y-86360000D03*
X102870000Y-86360000D03*
X100330000Y-86360000D03*
X161290000Y-83820000D03*
X158750000Y-83820000D03*
X156210000Y-83820000D03*
X153670000Y-83820000D03*
X143510000Y-83820000D03*
X140970000Y-83820000D03*
X120650000Y-83820000D03*
X118110000Y-83820000D03*
X110490000Y-83820000D03*
X102870000Y-83820000D03*
D14*
X104926000Y-90678000D03*
X107926000Y-90678000D03*
X111784000Y-84582000D03*
X114784000Y-84582000D03*
D15*
X153543000Y-89773000D03*
X153543000Y-87773000D03*
X155956000Y-85741000D03*
X155956000Y-87741000D03*
D16*
X142748000Y-94258000D03*
X142748000Y-97258000D03*
D17*
X124333000Y-84813140D03*
X124333000Y-88414860D03*
D16*
X141732000Y-116435000D03*
X141732000Y-113435000D03*
X146431000Y-94258000D03*
X146431000Y-97258000D03*
D15*
X155956000Y-91805000D03*
X155956000Y-89805000D03*
D18*
X151241000Y-121285000D03*
X149241000Y-121285000D03*
D15*
X155956000Y-122698000D03*
X155956000Y-124698000D03*
D18*
X138033000Y-99822000D03*
X136033000Y-99822000D03*
X138033000Y-102108000D03*
X136033000Y-102108000D03*
X137906000Y-109982000D03*
X135906000Y-109982000D03*
X137906000Y-107696000D03*
X135906000Y-107696000D03*
D15*
X155956000Y-120634000D03*
X155956000Y-118634000D03*
D18*
X154321000Y-108585000D03*
X156321000Y-108585000D03*
D15*
X154813000Y-100981000D03*
X154813000Y-102981000D03*
D18*
X154797000Y-96774000D03*
X152797000Y-96774000D03*
D19*
X144449800Y-88900000D03*
X146634200Y-88900000D03*
X150952200Y-88900000D03*
X148767800Y-88900000D03*
X147116800Y-117729000D03*
X149301200Y-117729000D03*
X153619200Y-117729000D03*
X151434800Y-117729000D03*
D20*
X108331000Y-84963000D03*
D21*
X105791000Y-84963000D03*
D22*
X114869000Y-87503000D03*
X112969000Y-87503000D03*
X156144000Y-110871000D03*
X154244000Y-110871000D03*
X154117000Y-106299000D03*
X156017000Y-106299000D03*
D23*
X136358000Y-86106000D03*
X133858000Y-86106000D03*
X131358000Y-86106000D03*
D20*
X159766000Y-87630000D03*
D21*
X159766000Y-90170000D03*
D20*
X159385000Y-122936000D03*
D21*
X159385000Y-120396000D03*
D24*
X128384300Y-122008900D03*
X119265700Y-122008900D03*
X128384300Y-117513100D03*
X119265700Y-117513100D03*
D25*
X115062000Y-97028000D03*
D26*
X115062000Y-90424000D03*
X112776000Y-90424000D03*
X117348000Y-90424000D03*
D27*
X123444000Y-94168000D03*
X123444000Y-92268000D03*
D12*
X101600000Y-101600000D03*
X106095800Y-96596200D03*
X106095800Y-106603800D03*
D13*
X106095800Y-101600000D03*
D28*
X121158000Y-91787980D03*
X121158000Y-93886020D03*
D11*
X100330000Y-83820000D03*
D29*
X141713000Y-107448000D03*
X142363000Y-107448000D03*
X143013000Y-107448000D03*
X143663000Y-107448000D03*
X144313000Y-107448000D03*
X144963000Y-107448000D03*
X145613000Y-107448000D03*
X146263000Y-107448000D03*
X146913000Y-107448000D03*
X147563000Y-107448000D03*
X148213000Y-107448000D03*
X148863000Y-107448000D03*
X148863000Y-101848000D03*
X148213000Y-101848000D03*
X147563000Y-101848000D03*
X146913000Y-101848000D03*
X146263000Y-101848000D03*
X145613000Y-101848000D03*
X144963000Y-101848000D03*
X144313000Y-101848000D03*
X143663000Y-101848000D03*
X143013000Y-101848000D03*
X142363000Y-101848000D03*
X141713000Y-101848000D03*
D30*
X145288000Y-104648000D03*
D31*
X142038000Y-103598000D03*
X143338000Y-103598000D03*
X144638000Y-103598000D03*
X145938000Y-103598000D03*
X147238000Y-103598000D03*
X148538000Y-103598000D03*
X142038000Y-104648000D03*
X143338000Y-104648000D03*
X144638000Y-104648000D03*
X145938000Y-104648000D03*
X147238000Y-104648000D03*
X148538000Y-104648000D03*
X142038000Y-105698000D03*
X143338000Y-105698000D03*
X144638000Y-105698000D03*
X145938000Y-105698000D03*
X147238000Y-105698000D03*
X148538000Y-105698000D03*
D11*
X143637000Y-109093000D03*
X146939000Y-108966000D03*
X139446000Y-115443000D03*
D32*
X148844000Y-98679000D03*
D11*
X143764000Y-100330000D03*
X147066000Y-100330000D03*
X142875000Y-109474000D03*
X152908000Y-110871000D03*
X151130000Y-95250000D03*
D33*
X107926000Y-90678000D02*
X108180000Y-90424000D01*
X108180000Y-90424000D02*
X112776000Y-90424000D01*
X108331000Y-84963000D02*
X108331000Y-90273000D01*
X108331000Y-90273000D02*
X107926000Y-90678000D01*
X112969000Y-87503000D02*
X112776000Y-87696000D01*
X112776000Y-87696000D02*
X112776000Y-90424000D01*
X124333000Y-84813140D02*
X125199140Y-83947000D01*
X125199140Y-83947000D02*
X135382000Y-83947000D01*
X122151140Y-86995000D02*
X124333000Y-84813140D01*
D34*
X115062000Y-97028000D02*
X115062000Y-90424000D01*
D35*
X143663000Y-109067000D02*
X143663000Y-107448000D01*
X143637000Y-109093000D02*
X143663000Y-109067000D01*
X146913000Y-108940000D02*
X146939000Y-108966000D01*
D34*
X153019000Y-102981000D02*
X154813000Y-102981000D01*
X148844000Y-98806000D02*
X153019000Y-102981000D01*
D33*
X140422686Y-113435000D02*
X141732000Y-113435000D01*
X139446000Y-114411686D02*
X140422686Y-113435000D01*
X139446000Y-115443000D02*
X139446000Y-114411686D01*
D35*
X148863000Y-98698000D02*
X148863000Y-101848000D01*
X148844000Y-98679000D02*
X148863000Y-98698000D01*
X146913000Y-107448000D02*
X146913000Y-108940000D01*
D34*
X154813000Y-102981000D02*
X156956000Y-102981000D01*
X157607000Y-110871000D02*
X156144000Y-110871000D01*
X158623000Y-109855000D02*
X157607000Y-110871000D01*
X158623000Y-104648000D02*
X158623000Y-109855000D01*
X156956000Y-102981000D02*
X158623000Y-104648000D01*
D33*
X136358000Y-84923000D02*
X136358000Y-86106000D01*
X135382000Y-83947000D02*
X136358000Y-84923000D01*
X115062000Y-90424000D02*
X115062000Y-89662000D01*
X115062000Y-89662000D02*
X117729000Y-86995000D01*
X117729000Y-86995000D02*
X122151140Y-86995000D01*
D34*
X115062000Y-90424000D02*
X115062000Y-87696000D01*
X115062000Y-87696000D02*
X114869000Y-87503000D01*
X115062000Y-90424000D02*
X115062000Y-91948000D01*
X120489980Y-92456000D02*
X121158000Y-91787980D01*
X115570000Y-92456000D02*
X120489980Y-92456000D01*
X115062000Y-91948000D02*
X115570000Y-92456000D01*
X114959000Y-84455000D02*
X114869000Y-84545000D01*
X114869000Y-84545000D02*
X114869000Y-87503000D01*
D35*
X143663000Y-101848000D02*
X143663000Y-100431000D01*
X143663000Y-100431000D02*
X143764000Y-100330000D01*
X146913000Y-100483000D02*
X147066000Y-100330000D01*
D36*
X147066000Y-97893000D02*
X147066000Y-100330000D01*
D35*
X147066000Y-100330000D02*
X146939000Y-100330000D01*
X146939000Y-100330000D02*
X147066000Y-100330000D01*
X147066000Y-100330000D02*
X146939000Y-100330000D01*
D36*
X146939000Y-100330000D02*
X146939000Y-100330000D01*
D35*
X146913000Y-101848000D02*
X146913000Y-100483000D01*
D36*
X146431000Y-97258000D02*
X147066000Y-97893000D01*
D34*
X153543000Y-89773000D02*
X153273000Y-89773000D01*
X153273000Y-89773000D02*
X152146000Y-88646000D01*
X148767800Y-87071200D02*
X148767800Y-88900000D01*
X149097998Y-86741002D02*
X148767800Y-87071200D01*
X151892002Y-86741002D02*
X149097998Y-86741002D01*
X152146000Y-86995000D02*
X151892002Y-86741002D01*
X152146000Y-88646000D02*
X152146000Y-86995000D01*
D36*
X155956000Y-89805000D02*
X155924000Y-89773000D01*
X155924000Y-89773000D02*
X153543000Y-89773000D01*
X159766000Y-90170000D02*
X159401000Y-89805000D01*
X159401000Y-89805000D02*
X155956000Y-89805000D01*
D34*
X153543000Y-87773000D02*
X153543000Y-87249000D01*
X146634200Y-87045800D02*
X146634200Y-88900000D01*
X147701000Y-85979000D02*
X146634200Y-87045800D01*
X152273000Y-85979000D02*
X147701000Y-85979000D01*
X153543000Y-87249000D02*
X152273000Y-85979000D01*
D36*
X155956000Y-87741000D02*
X153575000Y-87741000D01*
X153575000Y-87741000D02*
X153543000Y-87773000D01*
X159766000Y-87630000D02*
X156067000Y-87630000D01*
X156067000Y-87630000D02*
X155956000Y-87741000D01*
X151241000Y-121285000D02*
X151241000Y-117922800D01*
X151241000Y-117922800D02*
X151434800Y-117729000D01*
X155956000Y-118634000D02*
X155956000Y-118999000D01*
X155956000Y-118999000D02*
X153670000Y-121285000D01*
X153670000Y-121285000D02*
X151241000Y-121285000D01*
X159385000Y-120396000D02*
X157623000Y-118634000D01*
X157623000Y-118634000D02*
X155956000Y-118634000D01*
X155956000Y-124698000D02*
X151114000Y-124698000D01*
X151114000Y-124698000D02*
X149241000Y-122825000D01*
X149241000Y-121285000D02*
X149241000Y-117789200D01*
X149241000Y-117789200D02*
X149301200Y-117729000D01*
X149241000Y-122825000D02*
X149241000Y-121285000D01*
X159385000Y-122936000D02*
X157718000Y-122936000D01*
X157718000Y-122936000D02*
X155956000Y-124698000D01*
D35*
X142367000Y-101844000D02*
X142367000Y-100457000D01*
D36*
X141732000Y-99822000D02*
X142367000Y-100457000D01*
X141732000Y-99822000D02*
X138033000Y-99822000D01*
D35*
X142367000Y-101844000D02*
X142363000Y-101848000D01*
D33*
X106095800Y-101600000D02*
X131699000Y-101600000D01*
X133477000Y-99822000D02*
X136033000Y-99822000D01*
X131699000Y-101600000D02*
X133477000Y-99822000D01*
D36*
X138033000Y-102108000D02*
X141453000Y-102108000D01*
X141453000Y-102108000D02*
X141713000Y-101848000D01*
D37*
X106095800Y-96596200D02*
X105333800Y-96596200D01*
D33*
X106095800Y-106603800D02*
X109575600Y-103124000D01*
X134620000Y-102108000D02*
X136033000Y-102108000D01*
X133604000Y-103124000D02*
X134620000Y-102108000D01*
X109575600Y-103124000D02*
X133604000Y-103124000D01*
D37*
X106095800Y-106603800D02*
X104698800Y-106603800D01*
X104698800Y-106603800D02*
X101600000Y-103505000D01*
X101600000Y-103505000D02*
X101600000Y-101600000D01*
X105333800Y-96596200D02*
X101600000Y-100330000D01*
X101600000Y-100330000D02*
X101600000Y-101600000D01*
D35*
X137906000Y-109982000D02*
X141097000Y-109982000D01*
X142363000Y-108716000D02*
X142363000Y-107448000D01*
X141097000Y-109982000D02*
X142363000Y-108716000D01*
D33*
X106095800Y-116840000D02*
X106603802Y-116840000D01*
X106603802Y-116840000D02*
X110032802Y-113411000D01*
X110032802Y-113411000D02*
X129540000Y-113411000D01*
X129540000Y-113411000D02*
X132969000Y-109982000D01*
X132969000Y-109982000D02*
X135906000Y-109982000D01*
D36*
X137906000Y-107696000D02*
X138154000Y-107448000D01*
X138154000Y-107448000D02*
X141713000Y-107448000D01*
D33*
X106095800Y-111836200D02*
X128828800Y-111836200D01*
X132969000Y-107696000D02*
X135906000Y-107696000D01*
X128828800Y-111836200D02*
X132969000Y-107696000D01*
D37*
X106095800Y-121843800D02*
X104063800Y-121843800D01*
X101600000Y-119380000D02*
X101600000Y-116840000D01*
X104063800Y-121843800D02*
X101600000Y-119380000D01*
X106095800Y-111836200D02*
X104190800Y-111836200D01*
X104190800Y-111836200D02*
X101600000Y-114427000D01*
X101600000Y-114427000D02*
X101600000Y-116840000D01*
D35*
X147574000Y-107459000D02*
X147574000Y-109220000D01*
D36*
X151892000Y-108585000D02*
X149733000Y-110744000D01*
X149733000Y-110744000D02*
X148971000Y-110744000D01*
X148971000Y-110744000D02*
X147574000Y-109347000D01*
X147574000Y-109347000D02*
X147574000Y-109220000D01*
X151892000Y-108585000D02*
X154321000Y-108585000D01*
D35*
X147574000Y-107459000D02*
X147563000Y-107448000D01*
D34*
X128384300Y-122008900D02*
X138252200Y-112141000D01*
X140208000Y-112141000D02*
X142875000Y-109474000D01*
X138252200Y-112141000D02*
X140208000Y-112141000D01*
D35*
X142875000Y-109474000D02*
X143013000Y-109336000D01*
D36*
X154244000Y-110871000D02*
X152908000Y-110871000D01*
D35*
X143013000Y-109336000D02*
X143013000Y-107448000D01*
X148209000Y-107452000D02*
X148209000Y-109220000D01*
D36*
X153416000Y-106299000D02*
X149479000Y-110236000D01*
X149479000Y-110236000D02*
X149225000Y-110236000D01*
X149225000Y-110236000D02*
X148209000Y-109220000D01*
X153416000Y-106299000D02*
X154117000Y-106299000D01*
D35*
X148209000Y-107452000D02*
X148213000Y-107448000D01*
D36*
X151130000Y-95250000D02*
X152654000Y-96774000D01*
X152654000Y-96774000D02*
X152797000Y-96774000D01*
D35*
X152797000Y-96774000D02*
X148463000Y-96774000D01*
X148463000Y-96774000D02*
X147828000Y-97409000D01*
X147828000Y-97409000D02*
X147828000Y-99568000D01*
X147828000Y-99568000D02*
X148213000Y-99953000D01*
D36*
X152797000Y-96774000D02*
X152797000Y-96536000D01*
D35*
X148213000Y-99953000D02*
X148213000Y-101848000D01*
D34*
X123162020Y-93886020D02*
X123444000Y-94168000D01*
X121158000Y-93886020D02*
X123162020Y-93886020D01*
D35*
X144399000Y-109220000D02*
X144313000Y-109134000D01*
D36*
X144399000Y-115011200D02*
X144399000Y-109220000D01*
X147116800Y-117729000D02*
X144399000Y-115011200D01*
D35*
X144313000Y-109134000D02*
X144313000Y-107448000D01*
X143002000Y-101837000D02*
X143002000Y-100330000D01*
D36*
X142748000Y-100076000D02*
X143002000Y-100330000D01*
X142748000Y-100076000D02*
X142748000Y-97258000D01*
D35*
X143002000Y-101837000D02*
X143013000Y-101848000D01*
X144907000Y-100330000D02*
X144963000Y-100386000D01*
D36*
X144145000Y-99568000D02*
X144907000Y-100330000D01*
X144145000Y-89204800D02*
X144145000Y-99568000D01*
D35*
X144963000Y-100386000D02*
X144963000Y-101848000D01*
D36*
X144449800Y-88900000D02*
X144145000Y-89204800D01*
D35*
X146177000Y-100330000D02*
X146263000Y-100416000D01*
D36*
X144907000Y-99060000D02*
X146177000Y-100330000D01*
X144907000Y-93091000D02*
X144907000Y-99060000D01*
X146304000Y-91694000D02*
X144907000Y-93091000D01*
X149479000Y-91694000D02*
X146304000Y-91694000D01*
X150952200Y-90220800D02*
X149479000Y-91694000D01*
D35*
X146263000Y-100416000D02*
X146263000Y-101848000D01*
D36*
X150952200Y-88900000D02*
X150952200Y-90220800D01*
D35*
X146304000Y-101807000D02*
X146263000Y-101848000D01*
X146304000Y-101807000D02*
X146263000Y-101848000D01*
X146304000Y-107489000D02*
X146304000Y-109220000D01*
D36*
X149479000Y-111887000D02*
X148590000Y-111887000D01*
X148590000Y-111887000D02*
X146304000Y-109601000D01*
X146304000Y-109601000D02*
X146304000Y-109220000D01*
X153619200Y-116027200D02*
X149479000Y-111887000D01*
X153619200Y-116027200D02*
X153619200Y-117729000D01*
D35*
X146304000Y-107489000D02*
X146263000Y-107448000D01*
G36*
X162891400Y-127585400D02*
X98855600Y-127585400D01*
X98855600Y-117262537D01*
X99466030Y-117262537D01*
X99790167Y-118047009D01*
X100152200Y-118409674D01*
X100152200Y-119380000D01*
X100262407Y-119934049D01*
X100576251Y-120403749D01*
X103040051Y-122867549D01*
X103509750Y-123181393D01*
X103601673Y-123199677D01*
X104063800Y-123291600D01*
X104526338Y-123291600D01*
X104885635Y-123651524D01*
X105669539Y-123977029D01*
X106518337Y-123977770D01*
X107302809Y-123653633D01*
X107903524Y-123053965D01*
X108229029Y-122270061D01*
X108229770Y-121421263D01*
X108037032Y-120954800D01*
X117978522Y-120954800D01*
X117978522Y-123063000D01*
X117994462Y-123147714D01*
X118044528Y-123225518D01*
X118120920Y-123277715D01*
X118211600Y-123296078D01*
X120319800Y-123296078D01*
X120404514Y-123280138D01*
X120482318Y-123230072D01*
X120534515Y-123153680D01*
X120552878Y-123063000D01*
X120552878Y-120954800D01*
X127097122Y-120954800D01*
X127097122Y-123063000D01*
X127113062Y-123147714D01*
X127163128Y-123225518D01*
X127239520Y-123277715D01*
X127330200Y-123296078D01*
X129438400Y-123296078D01*
X129523114Y-123280138D01*
X129600918Y-123230072D01*
X129653115Y-123153680D01*
X129671478Y-123063000D01*
X129671478Y-121476064D01*
X130487542Y-120660000D01*
X148507922Y-120660000D01*
X148507922Y-121910000D01*
X148523862Y-121994714D01*
X148573928Y-122072518D01*
X148650320Y-122124715D01*
X148741000Y-122143078D01*
X148860000Y-122143078D01*
X148860000Y-122825000D01*
X148889002Y-122970803D01*
X148971592Y-123094408D01*
X150844592Y-124967408D01*
X150968197Y-125049998D01*
X151114000Y-125079000D01*
X155097922Y-125079000D01*
X155097922Y-125198000D01*
X155113862Y-125282714D01*
X155163928Y-125360518D01*
X155240320Y-125412715D01*
X155331000Y-125431078D01*
X156581000Y-125431078D01*
X156665714Y-125415138D01*
X156743518Y-125365072D01*
X156795715Y-125288680D01*
X156814078Y-125198000D01*
X156814078Y-124378738D01*
X157875815Y-123317000D01*
X158135922Y-123317000D01*
X158135922Y-123952000D01*
X158151862Y-124036714D01*
X158201928Y-124114518D01*
X158278320Y-124166715D01*
X158369000Y-124185078D01*
X160401000Y-124185078D01*
X160485714Y-124169138D01*
X160563518Y-124119072D01*
X160615715Y-124042680D01*
X160634078Y-123952000D01*
X160634078Y-121920000D01*
X160618138Y-121835286D01*
X160568072Y-121757482D01*
X160491680Y-121705285D01*
X160401000Y-121686922D01*
X158369000Y-121686922D01*
X158284286Y-121702862D01*
X158206482Y-121752928D01*
X158154285Y-121829320D01*
X158135922Y-121920000D01*
X158135922Y-122555000D01*
X157718000Y-122555000D01*
X157572197Y-122584002D01*
X157522688Y-122617083D01*
X157448592Y-122666592D01*
X157448590Y-122666595D01*
X157129267Y-122985917D01*
X157019150Y-122875800D01*
X156133800Y-122875800D01*
X156133800Y-123636150D01*
X156279850Y-123782200D01*
X156332984Y-123782200D01*
X156150262Y-123964922D01*
X155331000Y-123964922D01*
X155246286Y-123980862D01*
X155168482Y-124030928D01*
X155116285Y-124107320D01*
X155097922Y-124198000D01*
X155097922Y-124317000D01*
X151271816Y-124317000D01*
X149976666Y-123021850D01*
X154746800Y-123021850D01*
X154746800Y-123314205D01*
X154835739Y-123528923D01*
X155000078Y-123693261D01*
X155214796Y-123782200D01*
X155632150Y-123782200D01*
X155778200Y-123636150D01*
X155778200Y-122875800D01*
X154892850Y-122875800D01*
X154746800Y-123021850D01*
X149976666Y-123021850D01*
X149622000Y-122667184D01*
X149622000Y-122143078D01*
X149741000Y-122143078D01*
X149825714Y-122127138D01*
X149903518Y-122077072D01*
X149955715Y-122000680D01*
X149974078Y-121910000D01*
X149974078Y-120660000D01*
X150507922Y-120660000D01*
X150507922Y-121910000D01*
X150523862Y-121994714D01*
X150573928Y-122072518D01*
X150650320Y-122124715D01*
X150741000Y-122143078D01*
X151741000Y-122143078D01*
X151825714Y-122127138D01*
X151903518Y-122077072D01*
X151955715Y-122000680D01*
X151974078Y-121910000D01*
X151974078Y-121666000D01*
X153670000Y-121666000D01*
X153815803Y-121636998D01*
X153939408Y-121554408D01*
X154746800Y-120747016D01*
X154746800Y-120811802D01*
X154892848Y-120811802D01*
X154746800Y-120957850D01*
X154746800Y-121250205D01*
X154835739Y-121464923D01*
X155000078Y-121629261D01*
X155088774Y-121666000D01*
X155000078Y-121702739D01*
X154835739Y-121867077D01*
X154746800Y-122081795D01*
X154746800Y-122374150D01*
X154892850Y-122520200D01*
X155778200Y-122520200D01*
X155778200Y-121759850D01*
X155684350Y-121666000D01*
X155778200Y-121572150D01*
X155778200Y-120811800D01*
X156133800Y-120811800D01*
X156133800Y-121572150D01*
X156227650Y-121666000D01*
X156133800Y-121759850D01*
X156133800Y-122520200D01*
X157019150Y-122520200D01*
X157165200Y-122374150D01*
X157165200Y-122081795D01*
X157076261Y-121867077D01*
X156911922Y-121702739D01*
X156823226Y-121666000D01*
X156911922Y-121629261D01*
X157076261Y-121464923D01*
X157165200Y-121250205D01*
X157165200Y-120957850D01*
X157019150Y-120811800D01*
X156133800Y-120811800D01*
X155778200Y-120811800D01*
X155758200Y-120811800D01*
X155758200Y-120456200D01*
X155778200Y-120456200D01*
X155778200Y-119715616D01*
X155797966Y-119695850D01*
X156133800Y-119695850D01*
X156133800Y-120456200D01*
X157019150Y-120456200D01*
X157165200Y-120310150D01*
X157165200Y-120017795D01*
X157076261Y-119803077D01*
X156911922Y-119638739D01*
X156697204Y-119549800D01*
X156279850Y-119549800D01*
X156133800Y-119695850D01*
X155797966Y-119695850D01*
X156126738Y-119367078D01*
X156581000Y-119367078D01*
X156665714Y-119351138D01*
X156743518Y-119301072D01*
X156795715Y-119224680D01*
X156814078Y-119134000D01*
X156814078Y-119015000D01*
X157465184Y-119015000D01*
X158274499Y-119824315D01*
X158210757Y-119919712D01*
X158116017Y-120396000D01*
X158210757Y-120872288D01*
X158480552Y-121276065D01*
X158884329Y-121545860D01*
X159360617Y-121640600D01*
X159409383Y-121640600D01*
X159885671Y-121545860D01*
X160289448Y-121276065D01*
X160559243Y-120872288D01*
X160653983Y-120396000D01*
X160559243Y-119919712D01*
X160289448Y-119515935D01*
X159885671Y-119246140D01*
X159409383Y-119151400D01*
X159360617Y-119151400D01*
X158884329Y-119246140D01*
X158818165Y-119290349D01*
X157892408Y-118364592D01*
X157768803Y-118282002D01*
X157623000Y-118253000D01*
X156814078Y-118253000D01*
X156814078Y-118134000D01*
X156798138Y-118049286D01*
X156748072Y-117971482D01*
X156671680Y-117919285D01*
X156581000Y-117900922D01*
X155331000Y-117900922D01*
X155246286Y-117916862D01*
X155168482Y-117966928D01*
X155116285Y-118043320D01*
X155097922Y-118134000D01*
X155097922Y-119134000D01*
X155113862Y-119218714D01*
X155146598Y-119269586D01*
X153512184Y-120904000D01*
X151974078Y-120904000D01*
X151974078Y-120660000D01*
X151958138Y-120575286D01*
X151908072Y-120497482D01*
X151831680Y-120445285D01*
X151741000Y-120426922D01*
X151622000Y-120426922D01*
X151622000Y-119308278D01*
X151930100Y-119308278D01*
X152014814Y-119292338D01*
X152092618Y-119242272D01*
X152144815Y-119165880D01*
X152163178Y-119075200D01*
X152163178Y-116382800D01*
X152147238Y-116298086D01*
X152097172Y-116220282D01*
X152020780Y-116168085D01*
X151930100Y-116149722D01*
X150939500Y-116149722D01*
X150854786Y-116165662D01*
X150776982Y-116215728D01*
X150724785Y-116292120D01*
X150706422Y-116382800D01*
X150706422Y-119075200D01*
X150722362Y-119159914D01*
X150772428Y-119237718D01*
X150848820Y-119289915D01*
X150860000Y-119292179D01*
X150860000Y-120426922D01*
X150741000Y-120426922D01*
X150656286Y-120442862D01*
X150578482Y-120492928D01*
X150526285Y-120569320D01*
X150507922Y-120660000D01*
X149974078Y-120660000D01*
X149958138Y-120575286D01*
X149908072Y-120497482D01*
X149831680Y-120445285D01*
X149741000Y-120426922D01*
X149622000Y-120426922D01*
X149622000Y-119308278D01*
X149796500Y-119308278D01*
X149881214Y-119292338D01*
X149959018Y-119242272D01*
X150011215Y-119165880D01*
X150029578Y-119075200D01*
X150029578Y-116382800D01*
X150013638Y-116298086D01*
X149963572Y-116220282D01*
X149887180Y-116168085D01*
X149796500Y-116149722D01*
X148805900Y-116149722D01*
X148721186Y-116165662D01*
X148643382Y-116215728D01*
X148591185Y-116292120D01*
X148572822Y-116382800D01*
X148572822Y-119075200D01*
X148588762Y-119159914D01*
X148638828Y-119237718D01*
X148715220Y-119289915D01*
X148805900Y-119308278D01*
X148860000Y-119308278D01*
X148860000Y-120426922D01*
X148741000Y-120426922D01*
X148656286Y-120442862D01*
X148578482Y-120492928D01*
X148526285Y-120569320D01*
X148507922Y-120660000D01*
X130487542Y-120660000D01*
X134388692Y-116758850D01*
X140347800Y-116758850D01*
X140347800Y-117051205D01*
X140436739Y-117265923D01*
X140601078Y-117430261D01*
X140815796Y-117519200D01*
X141408150Y-117519200D01*
X141554200Y-117373150D01*
X141554200Y-116612800D01*
X141909800Y-116612800D01*
X141909800Y-117373150D01*
X142055850Y-117519200D01*
X142648204Y-117519200D01*
X142862922Y-117430261D01*
X143027261Y-117265923D01*
X143116200Y-117051205D01*
X143116200Y-116758850D01*
X142970150Y-116612800D01*
X141909800Y-116612800D01*
X141554200Y-116612800D01*
X140493850Y-116612800D01*
X140347800Y-116758850D01*
X134388692Y-116758850D01*
X138473142Y-112674400D01*
X140081274Y-112674400D01*
X139829989Y-112842303D01*
X138853303Y-113818989D01*
X138671604Y-114090920D01*
X138607800Y-114411686D01*
X138607800Y-115443000D01*
X138671604Y-115763765D01*
X138853303Y-116035697D01*
X139125235Y-116217396D01*
X139446000Y-116281200D01*
X139766765Y-116217396D01*
X140038697Y-116035697D01*
X140183626Y-115818795D01*
X140347800Y-115818795D01*
X140347800Y-116111150D01*
X140493850Y-116257200D01*
X141554200Y-116257200D01*
X141554200Y-115496850D01*
X141909800Y-115496850D01*
X141909800Y-116257200D01*
X142970150Y-116257200D01*
X143116200Y-116111150D01*
X143116200Y-115818795D01*
X143027261Y-115604077D01*
X142862922Y-115439739D01*
X142648204Y-115350800D01*
X142055850Y-115350800D01*
X141909800Y-115496850D01*
X141554200Y-115496850D01*
X141408150Y-115350800D01*
X140815796Y-115350800D01*
X140601078Y-115439739D01*
X140436739Y-115604077D01*
X140347800Y-115818795D01*
X140183626Y-115818795D01*
X140220396Y-115763765D01*
X140284200Y-115443000D01*
X140284200Y-114758880D01*
X140769880Y-114273200D01*
X141732000Y-114273200D01*
X142052765Y-114209396D01*
X142114602Y-114168078D01*
X142532000Y-114168078D01*
X142616714Y-114152138D01*
X142694518Y-114102072D01*
X142746715Y-114025680D01*
X142765078Y-113935000D01*
X142765078Y-112935000D01*
X142749138Y-112850286D01*
X142699072Y-112772482D01*
X142622680Y-112720285D01*
X142532000Y-112701922D01*
X142114602Y-112701922D01*
X142052765Y-112660604D01*
X141732000Y-112596800D01*
X140467493Y-112596800D01*
X140585171Y-112518171D01*
X143106724Y-109996617D01*
X143198306Y-109958776D01*
X143359211Y-109798151D01*
X143430643Y-109626124D01*
X143522823Y-109664400D01*
X143750180Y-109664599D01*
X143960306Y-109577776D01*
X144018000Y-109520182D01*
X144018000Y-115011200D01*
X144047002Y-115157003D01*
X144129592Y-115280608D01*
X146388422Y-117539437D01*
X146388422Y-119075200D01*
X146404362Y-119159914D01*
X146454428Y-119237718D01*
X146530820Y-119289915D01*
X146621500Y-119308278D01*
X147612100Y-119308278D01*
X147696814Y-119292338D01*
X147774618Y-119242272D01*
X147826815Y-119165880D01*
X147845178Y-119075200D01*
X147845178Y-116382800D01*
X147829238Y-116298086D01*
X147779172Y-116220282D01*
X147702780Y-116168085D01*
X147612100Y-116149722D01*
X146621500Y-116149722D01*
X146536786Y-116165662D01*
X146458982Y-116215728D01*
X146406785Y-116292120D01*
X146388422Y-116382800D01*
X146388422Y-116461807D01*
X144780000Y-114853384D01*
X144780000Y-109220000D01*
X144750998Y-109074198D01*
X144668408Y-108950592D01*
X144617800Y-108916777D01*
X144617800Y-108764124D01*
X144721795Y-108807200D01*
X144754450Y-108807200D01*
X144900500Y-108661150D01*
X144900500Y-107771850D01*
X144903800Y-107771850D01*
X144903800Y-108339204D01*
X144992739Y-108553922D01*
X145025500Y-108586683D01*
X145025500Y-108661150D01*
X145171550Y-108807200D01*
X145204205Y-108807200D01*
X145288000Y-108772491D01*
X145371795Y-108807200D01*
X145404450Y-108807200D01*
X145550500Y-108661150D01*
X145550500Y-108586683D01*
X145583261Y-108553922D01*
X145672200Y-108339204D01*
X145672200Y-107771850D01*
X145550500Y-107650150D01*
X145550500Y-107625800D01*
X145025500Y-107625800D01*
X145025500Y-107650150D01*
X144903800Y-107771850D01*
X144900500Y-107771850D01*
X144900500Y-107625800D01*
X144838000Y-107625800D01*
X144838000Y-107270200D01*
X144900500Y-107270200D01*
X144900500Y-106556796D01*
X144903800Y-106556796D01*
X144903800Y-107124150D01*
X145025500Y-107245850D01*
X145025500Y-107270200D01*
X145550500Y-107270200D01*
X145550500Y-107245850D01*
X145672200Y-107124150D01*
X145672200Y-106556796D01*
X145583261Y-106342078D01*
X145550500Y-106309317D01*
X145550500Y-106234850D01*
X145675500Y-106234850D01*
X145675500Y-107270200D01*
X145738000Y-107270200D01*
X145738000Y-107625800D01*
X145675500Y-107625800D01*
X145675500Y-108661150D01*
X145821550Y-108807200D01*
X145854205Y-108807200D01*
X145999200Y-108747141D01*
X145999200Y-109003560D01*
X145952002Y-109074198D01*
X145923000Y-109220000D01*
X145923000Y-109601000D01*
X145952002Y-109746803D01*
X146034592Y-109870408D01*
X148320592Y-112156408D01*
X148444197Y-112238998D01*
X148590000Y-112268000D01*
X149321184Y-112268000D01*
X153202906Y-116149722D01*
X153123900Y-116149722D01*
X153039186Y-116165662D01*
X152961382Y-116215728D01*
X152909185Y-116292120D01*
X152890822Y-116382800D01*
X152890822Y-119075200D01*
X152906762Y-119159914D01*
X152956828Y-119237718D01*
X153033220Y-119289915D01*
X153123900Y-119308278D01*
X154114500Y-119308278D01*
X154199214Y-119292338D01*
X154277018Y-119242272D01*
X154329215Y-119165880D01*
X154347578Y-119075200D01*
X154347578Y-116382800D01*
X154331638Y-116298086D01*
X154281572Y-116220282D01*
X154205180Y-116168085D01*
X154114500Y-116149722D01*
X154000200Y-116149722D01*
X154000200Y-116027200D01*
X153998937Y-116020850D01*
X153971198Y-115881397D01*
X153888608Y-115757792D01*
X149748408Y-111617592D01*
X149624803Y-111535002D01*
X149479000Y-111506000D01*
X148747816Y-111506000D01*
X146746831Y-109505015D01*
X146824823Y-109537400D01*
X147052180Y-109537599D01*
X147217338Y-109469356D01*
X147222002Y-109492803D01*
X147304592Y-109616408D01*
X148701590Y-111013405D01*
X148701592Y-111013408D01*
X148774023Y-111061804D01*
X148825197Y-111095998D01*
X148971000Y-111125000D01*
X149733000Y-111125000D01*
X149878803Y-111095998D01*
X150002408Y-111013408D01*
X150031636Y-110984180D01*
X152336401Y-110984180D01*
X152423224Y-111194306D01*
X152583849Y-111355211D01*
X152793823Y-111442400D01*
X153021180Y-111442599D01*
X153231306Y-111355776D01*
X153335263Y-111252000D01*
X153660922Y-111252000D01*
X153660922Y-111521000D01*
X153676862Y-111605714D01*
X153726928Y-111683518D01*
X153803320Y-111735715D01*
X153894000Y-111754078D01*
X154594000Y-111754078D01*
X154678714Y-111738138D01*
X154756518Y-111688072D01*
X154808715Y-111611680D01*
X154827078Y-111521000D01*
X154827078Y-110221000D01*
X154811138Y-110136286D01*
X154761072Y-110058482D01*
X154684680Y-110006285D01*
X154594000Y-109987922D01*
X153894000Y-109987922D01*
X153809286Y-110003862D01*
X153731482Y-110053928D01*
X153679285Y-110130320D01*
X153660922Y-110221000D01*
X153660922Y-110490000D01*
X153335182Y-110490000D01*
X153232151Y-110386789D01*
X153022177Y-110299600D01*
X152794820Y-110299401D01*
X152584694Y-110386224D01*
X152423789Y-110546849D01*
X152336600Y-110756823D01*
X152336401Y-110984180D01*
X150031636Y-110984180D01*
X152049816Y-108966000D01*
X153587922Y-108966000D01*
X153587922Y-109210000D01*
X153603862Y-109294714D01*
X153653928Y-109372518D01*
X153730320Y-109424715D01*
X153821000Y-109443078D01*
X154821000Y-109443078D01*
X154905714Y-109427138D01*
X154983518Y-109377072D01*
X155035715Y-109300680D01*
X155054078Y-109210000D01*
X155054078Y-108908850D01*
X155236800Y-108908850D01*
X155236800Y-109326204D01*
X155325739Y-109540922D01*
X155490077Y-109705261D01*
X155704795Y-109794200D01*
X155997150Y-109794200D01*
X156143200Y-109648150D01*
X156143200Y-108762800D01*
X156498800Y-108762800D01*
X156498800Y-109648150D01*
X156644850Y-109794200D01*
X156937205Y-109794200D01*
X157151923Y-109705261D01*
X157316261Y-109540922D01*
X157405200Y-109326204D01*
X157405200Y-108908850D01*
X157259150Y-108762800D01*
X156498800Y-108762800D01*
X156143200Y-108762800D01*
X155382850Y-108762800D01*
X155236800Y-108908850D01*
X155054078Y-108908850D01*
X155054078Y-107960000D01*
X155038138Y-107875286D01*
X154988072Y-107797482D01*
X154911680Y-107745285D01*
X154821000Y-107726922D01*
X153821000Y-107726922D01*
X153736286Y-107742862D01*
X153658482Y-107792928D01*
X153606285Y-107869320D01*
X153587922Y-107960000D01*
X153587922Y-108204000D01*
X152049816Y-108204000D01*
X153533922Y-106719894D01*
X153533922Y-106949000D01*
X153549862Y-107033714D01*
X153599928Y-107111518D01*
X153676320Y-107163715D01*
X153767000Y-107182078D01*
X154467000Y-107182078D01*
X154551714Y-107166138D01*
X154629518Y-107116072D01*
X154681715Y-107039680D01*
X154700078Y-106949000D01*
X154700078Y-106622850D01*
X155082800Y-106622850D01*
X155082800Y-107065204D01*
X155171739Y-107279922D01*
X155336077Y-107444261D01*
X155459452Y-107495364D01*
X155325739Y-107629078D01*
X155236800Y-107843796D01*
X155236800Y-108261150D01*
X155382850Y-108407200D01*
X156143200Y-108407200D01*
X156143200Y-108387200D01*
X156498800Y-108387200D01*
X156498800Y-108407200D01*
X157259150Y-108407200D01*
X157405200Y-108261150D01*
X157405200Y-107843796D01*
X157316261Y-107629078D01*
X157151923Y-107464739D01*
X156937205Y-107375800D01*
X156766384Y-107375800D01*
X156862261Y-107279922D01*
X156951200Y-107065204D01*
X156951200Y-106622850D01*
X156805150Y-106476800D01*
X156192000Y-106476800D01*
X156192000Y-106496800D01*
X155842000Y-106496800D01*
X155842000Y-106476800D01*
X155228850Y-106476800D01*
X155082800Y-106622850D01*
X154700078Y-106622850D01*
X154700078Y-105649000D01*
X154684138Y-105564286D01*
X154663875Y-105532796D01*
X155082800Y-105532796D01*
X155082800Y-105975150D01*
X155228850Y-106121200D01*
X155842000Y-106121200D01*
X155842000Y-105210850D01*
X156192000Y-105210850D01*
X156192000Y-106121200D01*
X156805150Y-106121200D01*
X156951200Y-105975150D01*
X156951200Y-105532796D01*
X156862261Y-105318078D01*
X156697923Y-105153739D01*
X156483205Y-105064800D01*
X156338050Y-105064800D01*
X156192000Y-105210850D01*
X155842000Y-105210850D01*
X155695950Y-105064800D01*
X155550795Y-105064800D01*
X155336077Y-105153739D01*
X155171739Y-105318078D01*
X155082800Y-105532796D01*
X154663875Y-105532796D01*
X154634072Y-105486482D01*
X154557680Y-105434285D01*
X154467000Y-105415922D01*
X153767000Y-105415922D01*
X153682286Y-105431862D01*
X153604482Y-105481928D01*
X153552285Y-105558320D01*
X153533922Y-105649000D01*
X153533922Y-105918000D01*
X153416005Y-105918000D01*
X153416000Y-105917999D01*
X153270198Y-105947002D01*
X153146592Y-106029592D01*
X149352000Y-109824184D01*
X148513800Y-108985984D01*
X148513800Y-108762467D01*
X148621795Y-108807200D01*
X148654450Y-108807200D01*
X148800500Y-108661150D01*
X148800500Y-107625800D01*
X148925500Y-107625800D01*
X148925500Y-108661150D01*
X149071550Y-108807200D01*
X149104205Y-108807200D01*
X149318923Y-108718261D01*
X149483261Y-108553922D01*
X149572200Y-108339204D01*
X149572200Y-107771850D01*
X149426150Y-107625800D01*
X148925500Y-107625800D01*
X148800500Y-107625800D01*
X148738000Y-107625800D01*
X148738000Y-107270200D01*
X148800500Y-107270200D01*
X148800500Y-106234850D01*
X148925500Y-106234850D01*
X148925500Y-107270200D01*
X149426150Y-107270200D01*
X149572200Y-107124150D01*
X149572200Y-106556796D01*
X149483261Y-106342078D01*
X149318923Y-106177739D01*
X149104205Y-106088800D01*
X149071550Y-106088800D01*
X148925500Y-106234850D01*
X148800500Y-106234850D01*
X148654450Y-106088800D01*
X148621795Y-106088800D01*
X148407077Y-106177739D01*
X148242739Y-106342078D01*
X148202211Y-106439922D01*
X148088000Y-106439922D01*
X148003286Y-106455862D01*
X147925482Y-106505928D01*
X147887712Y-106561206D01*
X147855072Y-106510482D01*
X147778680Y-106458285D01*
X147688000Y-106439922D01*
X147438000Y-106439922D01*
X147353286Y-106455862D01*
X147275482Y-106505928D01*
X147237712Y-106561206D01*
X147205072Y-106510482D01*
X147128680Y-106458285D01*
X147038000Y-106439922D01*
X146788000Y-106439922D01*
X146703286Y-106455862D01*
X146625482Y-106505928D01*
X146587712Y-106561206D01*
X146555072Y-106510482D01*
X146478680Y-106458285D01*
X146388000Y-106439922D01*
X146273789Y-106439922D01*
X146233261Y-106342078D01*
X146068923Y-106177739D01*
X145854205Y-106088800D01*
X145821550Y-106088800D01*
X145675500Y-106234850D01*
X145550500Y-106234850D01*
X145404450Y-106088800D01*
X145371795Y-106088800D01*
X145288000Y-106123509D01*
X145204205Y-106088800D01*
X145171550Y-106088800D01*
X145025500Y-106234850D01*
X145025500Y-106309317D01*
X144992739Y-106342078D01*
X144903800Y-106556796D01*
X144900500Y-106556796D01*
X144900500Y-106234850D01*
X144754450Y-106088800D01*
X144721795Y-106088800D01*
X144507077Y-106177739D01*
X144342739Y-106342078D01*
X144302211Y-106439922D01*
X144188000Y-106439922D01*
X144103286Y-106455862D01*
X144025482Y-106505928D01*
X143987712Y-106561206D01*
X143955072Y-106510482D01*
X143878680Y-106458285D01*
X143788000Y-106439922D01*
X143538000Y-106439922D01*
X143453286Y-106455862D01*
X143375482Y-106505928D01*
X143337712Y-106561206D01*
X143305072Y-106510482D01*
X143228680Y-106458285D01*
X143138000Y-106439922D01*
X142888000Y-106439922D01*
X142803286Y-106455862D01*
X142725482Y-106505928D01*
X142687712Y-106561206D01*
X142655072Y-106510482D01*
X142578680Y-106458285D01*
X142488000Y-106439922D01*
X142238000Y-106439922D01*
X142153286Y-106455862D01*
X142075482Y-106505928D01*
X142037712Y-106561206D01*
X142005072Y-106510482D01*
X141928680Y-106458285D01*
X141838000Y-106439922D01*
X141588000Y-106439922D01*
X141503286Y-106455862D01*
X141425482Y-106505928D01*
X141373285Y-106582320D01*
X141354922Y-106673000D01*
X141354922Y-107067000D01*
X138638325Y-107067000D01*
X138623138Y-106986286D01*
X138573072Y-106908482D01*
X138496680Y-106856285D01*
X138406000Y-106837922D01*
X137406000Y-106837922D01*
X137321286Y-106853862D01*
X137243482Y-106903928D01*
X137191285Y-106980320D01*
X137172922Y-107071000D01*
X137172922Y-108321000D01*
X137188862Y-108405714D01*
X137238928Y-108483518D01*
X137315320Y-108535715D01*
X137406000Y-108554078D01*
X138406000Y-108554078D01*
X138490714Y-108538138D01*
X138568518Y-108488072D01*
X138620715Y-108411680D01*
X138639078Y-108321000D01*
X138639078Y-107829000D01*
X141354922Y-107829000D01*
X141354922Y-108223000D01*
X141370862Y-108307714D01*
X141420928Y-108385518D01*
X141497320Y-108437715D01*
X141588000Y-108456078D01*
X141838000Y-108456078D01*
X141922714Y-108440138D01*
X142000518Y-108390072D01*
X142038288Y-108334794D01*
X142058200Y-108365738D01*
X142058200Y-108589748D01*
X140970748Y-109677200D01*
X138639078Y-109677200D01*
X138639078Y-109357000D01*
X138623138Y-109272286D01*
X138573072Y-109194482D01*
X138496680Y-109142285D01*
X138406000Y-109123922D01*
X137406000Y-109123922D01*
X137321286Y-109139862D01*
X137243482Y-109189928D01*
X137191285Y-109266320D01*
X137172922Y-109357000D01*
X137172922Y-110607000D01*
X137188862Y-110691714D01*
X137238928Y-110769518D01*
X137315320Y-110821715D01*
X137406000Y-110840078D01*
X138406000Y-110840078D01*
X138490714Y-110824138D01*
X138568518Y-110774072D01*
X138620715Y-110697680D01*
X138639078Y-110607000D01*
X138639078Y-110286800D01*
X141097000Y-110286800D01*
X141213642Y-110263598D01*
X141312526Y-110197526D01*
X142578526Y-108931526D01*
X142644598Y-108832642D01*
X142667800Y-108716000D01*
X142667800Y-108364779D01*
X142688288Y-108334794D01*
X142708200Y-108365738D01*
X142708200Y-108924557D01*
X142551694Y-108989224D01*
X142390789Y-109149849D01*
X142352429Y-109242230D01*
X139987058Y-111607600D01*
X138252200Y-111607600D01*
X138048077Y-111648203D01*
X137875029Y-111763829D01*
X128917136Y-120721722D01*
X127330200Y-120721722D01*
X127245486Y-120737662D01*
X127167682Y-120787728D01*
X127115485Y-120864120D01*
X127097122Y-120954800D01*
X120552878Y-120954800D01*
X120536938Y-120870086D01*
X120486872Y-120792282D01*
X120410480Y-120740085D01*
X120319800Y-120721722D01*
X118211600Y-120721722D01*
X118126886Y-120737662D01*
X118049082Y-120787728D01*
X117996885Y-120864120D01*
X117978522Y-120954800D01*
X108037032Y-120954800D01*
X107905633Y-120636791D01*
X107305965Y-120036076D01*
X106522061Y-119710571D01*
X105673263Y-119709830D01*
X104888791Y-120033967D01*
X104594872Y-120327374D01*
X103047800Y-118780302D01*
X103047800Y-118409462D01*
X103407724Y-118050165D01*
X103733229Y-117266261D01*
X103733970Y-116417463D01*
X103409833Y-115632991D01*
X103047800Y-115270326D01*
X103047800Y-115026698D01*
X104658303Y-113416195D01*
X104885635Y-113643924D01*
X105669539Y-113969429D01*
X106518337Y-113970170D01*
X107302809Y-113646033D01*
X107903524Y-113046365D01*
X108057977Y-112674400D01*
X109655470Y-112674400D01*
X109440105Y-112818303D01*
X106958055Y-115300353D01*
X106445943Y-115087705D01*
X105748716Y-115087097D01*
X105104329Y-115353352D01*
X104610885Y-115845936D01*
X104343505Y-116489857D01*
X104342897Y-117187084D01*
X104609152Y-117831471D01*
X105101736Y-118324915D01*
X105745657Y-118592295D01*
X106442884Y-118592903D01*
X107087271Y-118326648D01*
X107580715Y-117834064D01*
X107848095Y-117190143D01*
X107848452Y-116780744D01*
X108170196Y-116459000D01*
X117978522Y-116459000D01*
X117978522Y-118567200D01*
X117994462Y-118651914D01*
X118044528Y-118729718D01*
X118120920Y-118781915D01*
X118211600Y-118800278D01*
X120319800Y-118800278D01*
X120404514Y-118784338D01*
X120482318Y-118734272D01*
X120534515Y-118657880D01*
X120552878Y-118567200D01*
X120552878Y-117836950D01*
X126746000Y-117836950D01*
X126746000Y-118683405D01*
X126834939Y-118898123D01*
X126999278Y-119062461D01*
X127213996Y-119151400D01*
X128060450Y-119151400D01*
X128206500Y-119005350D01*
X128206500Y-117690900D01*
X128562100Y-117690900D01*
X128562100Y-119005350D01*
X128708150Y-119151400D01*
X129554604Y-119151400D01*
X129769322Y-119062461D01*
X129933661Y-118898123D01*
X130022600Y-118683405D01*
X130022600Y-117836950D01*
X129876550Y-117690900D01*
X128562100Y-117690900D01*
X128206500Y-117690900D01*
X126892050Y-117690900D01*
X126746000Y-117836950D01*
X120552878Y-117836950D01*
X120552878Y-116459000D01*
X120536938Y-116374286D01*
X120516674Y-116342795D01*
X126746000Y-116342795D01*
X126746000Y-117189250D01*
X126892050Y-117335300D01*
X128206500Y-117335300D01*
X128206500Y-116020850D01*
X128562100Y-116020850D01*
X128562100Y-117335300D01*
X129876550Y-117335300D01*
X130022600Y-117189250D01*
X130022600Y-116342795D01*
X129933661Y-116128077D01*
X129769322Y-115963739D01*
X129554604Y-115874800D01*
X128708150Y-115874800D01*
X128562100Y-116020850D01*
X128206500Y-116020850D01*
X128060450Y-115874800D01*
X127213996Y-115874800D01*
X126999278Y-115963739D01*
X126834939Y-116128077D01*
X126746000Y-116342795D01*
X120516674Y-116342795D01*
X120486872Y-116296482D01*
X120410480Y-116244285D01*
X120319800Y-116225922D01*
X118211600Y-116225922D01*
X118126886Y-116241862D01*
X118049082Y-116291928D01*
X117996885Y-116368320D01*
X117978522Y-116459000D01*
X108170196Y-116459000D01*
X110379996Y-114249200D01*
X129540000Y-114249200D01*
X129860766Y-114185396D01*
X130132697Y-114003697D01*
X133316194Y-110820200D01*
X135313103Y-110820200D01*
X135315320Y-110821715D01*
X135406000Y-110840078D01*
X136406000Y-110840078D01*
X136490714Y-110824138D01*
X136568518Y-110774072D01*
X136620715Y-110697680D01*
X136639078Y-110607000D01*
X136639078Y-110364602D01*
X136680396Y-110302765D01*
X136744200Y-109982000D01*
X136680396Y-109661235D01*
X136639078Y-109599398D01*
X136639078Y-109357000D01*
X136623138Y-109272286D01*
X136573072Y-109194482D01*
X136496680Y-109142285D01*
X136406000Y-109123922D01*
X135406000Y-109123922D01*
X135321286Y-109139862D01*
X135315166Y-109143800D01*
X132969000Y-109143800D01*
X132648234Y-109207604D01*
X132631827Y-109218567D01*
X133316194Y-108534200D01*
X135313103Y-108534200D01*
X135315320Y-108535715D01*
X135406000Y-108554078D01*
X136406000Y-108554078D01*
X136490714Y-108538138D01*
X136568518Y-108488072D01*
X136620715Y-108411680D01*
X136639078Y-108321000D01*
X136639078Y-108078602D01*
X136680396Y-108016765D01*
X136744200Y-107696000D01*
X136680396Y-107375235D01*
X136639078Y-107313398D01*
X136639078Y-107071000D01*
X136623138Y-106986286D01*
X136573072Y-106908482D01*
X136496680Y-106856285D01*
X136406000Y-106837922D01*
X135406000Y-106837922D01*
X135321286Y-106853862D01*
X135315166Y-106857800D01*
X132969000Y-106857800D01*
X132648234Y-106921604D01*
X132376303Y-107103303D01*
X128481606Y-110998000D01*
X108058022Y-110998000D01*
X107905633Y-110629191D01*
X107305965Y-110028476D01*
X106522061Y-109702971D01*
X105673263Y-109702230D01*
X104888791Y-110026367D01*
X104526126Y-110388400D01*
X104190800Y-110388400D01*
X103757483Y-110474592D01*
X103636750Y-110498607D01*
X103167050Y-110812451D01*
X100576251Y-113403251D01*
X100262407Y-113872951D01*
X100152200Y-114427000D01*
X100152200Y-115270538D01*
X99792276Y-115629835D01*
X99466771Y-116413739D01*
X99466030Y-117262537D01*
X98855600Y-117262537D01*
X98855600Y-102022537D01*
X99466030Y-102022537D01*
X99790167Y-102807009D01*
X100152200Y-103169674D01*
X100152200Y-103505000D01*
X100262407Y-104059049D01*
X100576251Y-104528749D01*
X103675051Y-107627549D01*
X104144751Y-107941393D01*
X104483609Y-108008796D01*
X104885635Y-108411524D01*
X105669539Y-108737029D01*
X106518337Y-108737770D01*
X107302809Y-108413633D01*
X107903524Y-107813965D01*
X108229029Y-107030061D01*
X108229770Y-106181263D01*
X108075966Y-105809028D01*
X109922794Y-103962200D01*
X133604000Y-103962200D01*
X133924766Y-103898396D01*
X134196697Y-103716697D01*
X134967194Y-102946200D01*
X135440103Y-102946200D01*
X135442320Y-102947715D01*
X135533000Y-102966078D01*
X136533000Y-102966078D01*
X136617714Y-102950138D01*
X136695518Y-102900072D01*
X136747715Y-102823680D01*
X136766078Y-102733000D01*
X136766078Y-102490602D01*
X136807396Y-102428765D01*
X136871200Y-102108000D01*
X136807396Y-101787235D01*
X136766078Y-101725398D01*
X136766078Y-101483000D01*
X136750138Y-101398286D01*
X136700072Y-101320482D01*
X136623680Y-101268285D01*
X136533000Y-101249922D01*
X135533000Y-101249922D01*
X135448286Y-101265862D01*
X135442166Y-101269800D01*
X134620000Y-101269800D01*
X134299234Y-101333604D01*
X134027303Y-101515303D01*
X133256806Y-102285800D01*
X132152359Y-102285800D01*
X132291697Y-102192697D01*
X133824194Y-100660200D01*
X135440103Y-100660200D01*
X135442320Y-100661715D01*
X135533000Y-100680078D01*
X136533000Y-100680078D01*
X136617714Y-100664138D01*
X136695518Y-100614072D01*
X136747715Y-100537680D01*
X136766078Y-100447000D01*
X136766078Y-100204602D01*
X136807396Y-100142765D01*
X136871200Y-99822000D01*
X136807396Y-99501235D01*
X136766078Y-99439398D01*
X136766078Y-99197000D01*
X137299922Y-99197000D01*
X137299922Y-100447000D01*
X137315862Y-100531714D01*
X137365928Y-100609518D01*
X137442320Y-100661715D01*
X137533000Y-100680078D01*
X138533000Y-100680078D01*
X138617714Y-100664138D01*
X138695518Y-100614072D01*
X138747715Y-100537680D01*
X138766078Y-100447000D01*
X138766078Y-100203000D01*
X141574184Y-100203000D01*
X142062200Y-100691015D01*
X142062200Y-100925367D01*
X142037712Y-100961206D01*
X142005072Y-100910482D01*
X141928680Y-100858285D01*
X141838000Y-100839922D01*
X141588000Y-100839922D01*
X141503286Y-100855862D01*
X141425482Y-100905928D01*
X141373285Y-100982320D01*
X141354922Y-101073000D01*
X141354922Y-101667263D01*
X141295184Y-101727000D01*
X138766078Y-101727000D01*
X138766078Y-101483000D01*
X138750138Y-101398286D01*
X138700072Y-101320482D01*
X138623680Y-101268285D01*
X138533000Y-101249922D01*
X137533000Y-101249922D01*
X137448286Y-101265862D01*
X137370482Y-101315928D01*
X137318285Y-101392320D01*
X137299922Y-101483000D01*
X137299922Y-102733000D01*
X137315862Y-102817714D01*
X137365928Y-102895518D01*
X137442320Y-102947715D01*
X137533000Y-102966078D01*
X138533000Y-102966078D01*
X138617714Y-102950138D01*
X138695518Y-102900072D01*
X138747715Y-102823680D01*
X138766078Y-102733000D01*
X138766078Y-102489000D01*
X141354922Y-102489000D01*
X141354922Y-102623000D01*
X141370862Y-102707714D01*
X141420928Y-102785518D01*
X141497320Y-102837715D01*
X141588000Y-102856078D01*
X141838000Y-102856078D01*
X141922714Y-102840138D01*
X142000518Y-102790072D01*
X142038288Y-102734794D01*
X142070928Y-102785518D01*
X142147320Y-102837715D01*
X142238000Y-102856078D01*
X142488000Y-102856078D01*
X142572714Y-102840138D01*
X142650518Y-102790072D01*
X142688288Y-102734794D01*
X142720928Y-102785518D01*
X142797320Y-102837715D01*
X142888000Y-102856078D01*
X143138000Y-102856078D01*
X143222714Y-102840138D01*
X143300518Y-102790072D01*
X143338288Y-102734794D01*
X143370928Y-102785518D01*
X143447320Y-102837715D01*
X143538000Y-102856078D01*
X143788000Y-102856078D01*
X143872714Y-102840138D01*
X143950518Y-102790072D01*
X143988288Y-102734794D01*
X144020928Y-102785518D01*
X144097320Y-102837715D01*
X144188000Y-102856078D01*
X144438000Y-102856078D01*
X144522714Y-102840138D01*
X144600518Y-102790072D01*
X144638288Y-102734794D01*
X144670928Y-102785518D01*
X144747320Y-102837715D01*
X144838000Y-102856078D01*
X144952211Y-102856078D01*
X144992739Y-102953922D01*
X145157077Y-103118261D01*
X145371795Y-103207200D01*
X145404450Y-103207200D01*
X145550500Y-103061150D01*
X145550500Y-102025800D01*
X145488000Y-102025800D01*
X145488000Y-101670200D01*
X145550500Y-101670200D01*
X145550500Y-100634850D01*
X145404450Y-100488800D01*
X145371795Y-100488800D01*
X145267800Y-100531876D01*
X145267800Y-100431554D01*
X145288001Y-100330000D01*
X145258998Y-100184198D01*
X145176408Y-100060593D01*
X144526000Y-99410184D01*
X144526000Y-99060000D01*
X144555002Y-99205803D01*
X144637592Y-99329408D01*
X145809267Y-100501083D01*
X145675500Y-100634850D01*
X145675500Y-101670200D01*
X145738000Y-101670200D01*
X145738000Y-102025800D01*
X145675500Y-102025800D01*
X145675500Y-103061150D01*
X145821550Y-103207200D01*
X145854205Y-103207200D01*
X146068923Y-103118261D01*
X146233261Y-102953922D01*
X146273789Y-102856078D01*
X146388000Y-102856078D01*
X146472714Y-102840138D01*
X146550518Y-102790072D01*
X146588288Y-102734794D01*
X146620928Y-102785518D01*
X146697320Y-102837715D01*
X146788000Y-102856078D01*
X147038000Y-102856078D01*
X147122714Y-102840138D01*
X147200518Y-102790072D01*
X147238288Y-102734794D01*
X147270928Y-102785518D01*
X147347320Y-102837715D01*
X147438000Y-102856078D01*
X147688000Y-102856078D01*
X147772714Y-102840138D01*
X147850518Y-102790072D01*
X147888288Y-102734794D01*
X147920928Y-102785518D01*
X147997320Y-102837715D01*
X148088000Y-102856078D01*
X148338000Y-102856078D01*
X148422714Y-102840138D01*
X148500518Y-102790072D01*
X148538288Y-102734794D01*
X148570928Y-102785518D01*
X148647320Y-102837715D01*
X148738000Y-102856078D01*
X148988000Y-102856078D01*
X149072714Y-102840138D01*
X149150518Y-102790072D01*
X149202715Y-102713680D01*
X149221078Y-102623000D01*
X149221078Y-101073000D01*
X149205138Y-100988286D01*
X149167800Y-100930262D01*
X149167800Y-99884142D01*
X152641827Y-103358168D01*
X152641829Y-103358171D01*
X152771427Y-103444765D01*
X152814877Y-103473797D01*
X153019000Y-103514401D01*
X153019005Y-103514400D01*
X153961207Y-103514400D01*
X153970862Y-103565714D01*
X154020928Y-103643518D01*
X154097320Y-103695715D01*
X154188000Y-103714078D01*
X155438000Y-103714078D01*
X155522714Y-103698138D01*
X155600518Y-103648072D01*
X155652715Y-103571680D01*
X155664314Y-103514400D01*
X156735058Y-103514400D01*
X158089600Y-104868942D01*
X158089600Y-109634058D01*
X157386058Y-110337600D01*
X156727078Y-110337600D01*
X156727078Y-110221000D01*
X156711138Y-110136286D01*
X156661072Y-110058482D01*
X156584680Y-110006285D01*
X156494000Y-109987922D01*
X155794000Y-109987922D01*
X155709286Y-110003862D01*
X155631482Y-110053928D01*
X155579285Y-110130320D01*
X155560922Y-110221000D01*
X155560922Y-111521000D01*
X155576862Y-111605714D01*
X155626928Y-111683518D01*
X155703320Y-111735715D01*
X155794000Y-111754078D01*
X156494000Y-111754078D01*
X156578714Y-111738138D01*
X156656518Y-111688072D01*
X156708715Y-111611680D01*
X156727078Y-111521000D01*
X156727078Y-111404400D01*
X157607000Y-111404400D01*
X157811123Y-111363797D01*
X157984171Y-111248171D01*
X159000171Y-110232171D01*
X159115797Y-110059123D01*
X159156400Y-109855000D01*
X159156400Y-104648000D01*
X159115797Y-104443877D01*
X159000171Y-104270829D01*
X157333171Y-102603829D01*
X157160123Y-102488203D01*
X156956000Y-102447600D01*
X155664793Y-102447600D01*
X155655138Y-102396286D01*
X155605072Y-102318482D01*
X155528680Y-102266285D01*
X155438000Y-102247922D01*
X154188000Y-102247922D01*
X154103286Y-102263862D01*
X154025482Y-102313928D01*
X153973285Y-102390320D01*
X153961686Y-102447600D01*
X153239941Y-102447600D01*
X152097191Y-101304850D01*
X153603800Y-101304850D01*
X153603800Y-101597205D01*
X153692739Y-101811923D01*
X153857078Y-101976261D01*
X154071796Y-102065200D01*
X154489150Y-102065200D01*
X154635200Y-101919150D01*
X154635200Y-101158800D01*
X154990800Y-101158800D01*
X154990800Y-101919150D01*
X155136850Y-102065200D01*
X155554204Y-102065200D01*
X155768922Y-101976261D01*
X155933261Y-101811923D01*
X156022200Y-101597205D01*
X156022200Y-101304850D01*
X155876150Y-101158800D01*
X154990800Y-101158800D01*
X154635200Y-101158800D01*
X153749850Y-101158800D01*
X153603800Y-101304850D01*
X152097191Y-101304850D01*
X151157136Y-100364795D01*
X153603800Y-100364795D01*
X153603800Y-100657150D01*
X153749850Y-100803200D01*
X154635200Y-100803200D01*
X154635200Y-100042850D01*
X154990800Y-100042850D01*
X154990800Y-100803200D01*
X155876150Y-100803200D01*
X156022200Y-100657150D01*
X156022200Y-100364795D01*
X155933261Y-100150077D01*
X155768922Y-99985739D01*
X155554204Y-99896800D01*
X155136850Y-99896800D01*
X154990800Y-100042850D01*
X154635200Y-100042850D01*
X154489150Y-99896800D01*
X154071796Y-99896800D01*
X153857078Y-99985739D01*
X153692739Y-100150077D01*
X153603800Y-100364795D01*
X151157136Y-100364795D01*
X149727663Y-98935322D01*
X149758241Y-98861683D01*
X149758558Y-98497913D01*
X149619642Y-98161711D01*
X149362642Y-97904262D01*
X149026683Y-97764759D01*
X148662913Y-97764442D01*
X148326711Y-97903358D01*
X148132800Y-98096931D01*
X148132800Y-97535252D01*
X148589252Y-97078800D01*
X152063922Y-97078800D01*
X152063922Y-97399000D01*
X152079862Y-97483714D01*
X152129928Y-97561518D01*
X152206320Y-97613715D01*
X152297000Y-97632078D01*
X153297000Y-97632078D01*
X153381714Y-97616138D01*
X153459518Y-97566072D01*
X153511715Y-97489680D01*
X153530078Y-97399000D01*
X153530078Y-97097850D01*
X153712800Y-97097850D01*
X153712800Y-97515204D01*
X153801739Y-97729922D01*
X153966077Y-97894261D01*
X154180795Y-97983200D01*
X154473150Y-97983200D01*
X154619200Y-97837150D01*
X154619200Y-96951800D01*
X154974800Y-96951800D01*
X154974800Y-97837150D01*
X155120850Y-97983200D01*
X155413205Y-97983200D01*
X155627923Y-97894261D01*
X155792261Y-97729922D01*
X155881200Y-97515204D01*
X155881200Y-97097850D01*
X155735150Y-96951800D01*
X154974800Y-96951800D01*
X154619200Y-96951800D01*
X153858850Y-96951800D01*
X153712800Y-97097850D01*
X153530078Y-97097850D01*
X153530078Y-96149000D01*
X153514138Y-96064286D01*
X153493875Y-96032796D01*
X153712800Y-96032796D01*
X153712800Y-96450150D01*
X153858850Y-96596200D01*
X154619200Y-96596200D01*
X154619200Y-95710850D01*
X154974800Y-95710850D01*
X154974800Y-96596200D01*
X155735150Y-96596200D01*
X155881200Y-96450150D01*
X155881200Y-96032796D01*
X155792261Y-95818078D01*
X155627923Y-95653739D01*
X155413205Y-95564800D01*
X155120850Y-95564800D01*
X154974800Y-95710850D01*
X154619200Y-95710850D01*
X154473150Y-95564800D01*
X154180795Y-95564800D01*
X153966077Y-95653739D01*
X153801739Y-95818078D01*
X153712800Y-96032796D01*
X153493875Y-96032796D01*
X153464072Y-95986482D01*
X153387680Y-95934285D01*
X153297000Y-95915922D01*
X152334737Y-95915922D01*
X151701471Y-95282656D01*
X151701599Y-95136820D01*
X151614776Y-94926694D01*
X151454151Y-94765789D01*
X151244177Y-94678600D01*
X151016820Y-94678401D01*
X150806694Y-94765224D01*
X150645789Y-94925849D01*
X150558600Y-95135823D01*
X150558401Y-95363180D01*
X150645224Y-95573306D01*
X150805849Y-95734211D01*
X151015823Y-95821400D01*
X151162713Y-95821529D01*
X151810385Y-96469200D01*
X148463000Y-96469200D01*
X148346358Y-96492402D01*
X148270206Y-96543285D01*
X148247474Y-96558474D01*
X147612474Y-97193474D01*
X147546402Y-97292358D01*
X147523200Y-97409000D01*
X147523200Y-99568000D01*
X147546402Y-99684642D01*
X147612474Y-99783526D01*
X147908200Y-100079252D01*
X147908200Y-100931221D01*
X147887712Y-100961206D01*
X147855072Y-100910482D01*
X147778680Y-100858285D01*
X147688000Y-100839922D01*
X147438000Y-100839922D01*
X147353286Y-100855862D01*
X147275482Y-100905928D01*
X147237712Y-100961206D01*
X147217800Y-100930262D01*
X147217800Y-100885641D01*
X147389306Y-100814776D01*
X147550211Y-100654151D01*
X147637400Y-100444177D01*
X147637599Y-100216820D01*
X147550776Y-100006694D01*
X147447000Y-99902737D01*
X147447000Y-97893005D01*
X147447001Y-97893000D01*
X147439883Y-97857216D01*
X147445715Y-97848680D01*
X147464078Y-97758000D01*
X147464078Y-96758000D01*
X147448138Y-96673286D01*
X147398072Y-96595482D01*
X147321680Y-96543285D01*
X147231000Y-96524922D01*
X145631000Y-96524922D01*
X145546286Y-96540862D01*
X145468482Y-96590928D01*
X145416285Y-96667320D01*
X145397922Y-96758000D01*
X145397922Y-97758000D01*
X145413862Y-97842714D01*
X145463928Y-97920518D01*
X145540320Y-97972715D01*
X145631000Y-97991078D01*
X146625263Y-97991078D01*
X146685000Y-98050815D01*
X146685000Y-99902818D01*
X146581789Y-100005849D01*
X146515883Y-100164569D01*
X146446408Y-100060592D01*
X145288000Y-98902184D01*
X145288000Y-95241183D01*
X145300078Y-95253261D01*
X145514796Y-95342200D01*
X146107150Y-95342200D01*
X146253200Y-95196150D01*
X146253200Y-94435800D01*
X146608800Y-94435800D01*
X146608800Y-95196150D01*
X146754850Y-95342200D01*
X147347204Y-95342200D01*
X147561922Y-95253261D01*
X147726261Y-95088923D01*
X147815200Y-94874205D01*
X147815200Y-94581850D01*
X147669150Y-94435800D01*
X146608800Y-94435800D01*
X146253200Y-94435800D01*
X146233200Y-94435800D01*
X146233200Y-94080200D01*
X146253200Y-94080200D01*
X146253200Y-93319850D01*
X146608800Y-93319850D01*
X146608800Y-94080200D01*
X147669150Y-94080200D01*
X147815200Y-93934150D01*
X147815200Y-93641795D01*
X147726261Y-93427077D01*
X147561922Y-93262739D01*
X147347204Y-93173800D01*
X146754850Y-93173800D01*
X146608800Y-93319850D01*
X146253200Y-93319850D01*
X146107150Y-93173800D01*
X145514796Y-93173800D01*
X145300078Y-93262739D01*
X145288000Y-93274817D01*
X145288000Y-93248816D01*
X146407965Y-92128850D01*
X154746800Y-92128850D01*
X154746800Y-92421205D01*
X154835739Y-92635923D01*
X155000078Y-92800261D01*
X155214796Y-92889200D01*
X155632150Y-92889200D01*
X155778200Y-92743150D01*
X155778200Y-91982800D01*
X156133800Y-91982800D01*
X156133800Y-92743150D01*
X156279850Y-92889200D01*
X156697204Y-92889200D01*
X156911922Y-92800261D01*
X157076261Y-92635923D01*
X157165200Y-92421205D01*
X157165200Y-92128850D01*
X157019150Y-91982800D01*
X156133800Y-91982800D01*
X155778200Y-91982800D01*
X154892850Y-91982800D01*
X154746800Y-92128850D01*
X146407965Y-92128850D01*
X146461815Y-92075000D01*
X149479000Y-92075000D01*
X149624803Y-92045998D01*
X149748408Y-91963408D01*
X150523020Y-91188795D01*
X154746800Y-91188795D01*
X154746800Y-91481150D01*
X154892850Y-91627200D01*
X155778200Y-91627200D01*
X155778200Y-90866850D01*
X156133800Y-90866850D01*
X156133800Y-91627200D01*
X157019150Y-91627200D01*
X157165200Y-91481150D01*
X157165200Y-91188795D01*
X157076261Y-90974077D01*
X156911922Y-90809739D01*
X156697204Y-90720800D01*
X156279850Y-90720800D01*
X156133800Y-90866850D01*
X155778200Y-90866850D01*
X155632150Y-90720800D01*
X155214796Y-90720800D01*
X155000078Y-90809739D01*
X154835739Y-90974077D01*
X154746800Y-91188795D01*
X150523020Y-91188795D01*
X151221605Y-90490210D01*
X151221608Y-90490208D01*
X151228911Y-90479278D01*
X151447500Y-90479278D01*
X151532214Y-90463338D01*
X151610018Y-90413272D01*
X151662215Y-90336880D01*
X151680578Y-90246200D01*
X151680578Y-88891093D01*
X151768829Y-89023171D01*
X152684922Y-89939264D01*
X152684922Y-90273000D01*
X152700862Y-90357714D01*
X152750928Y-90435518D01*
X152827320Y-90487715D01*
X152918000Y-90506078D01*
X154168000Y-90506078D01*
X154252714Y-90490138D01*
X154330518Y-90440072D01*
X154382715Y-90363680D01*
X154401078Y-90273000D01*
X154401078Y-90154000D01*
X155097922Y-90154000D01*
X155097922Y-90305000D01*
X155113862Y-90389714D01*
X155163928Y-90467518D01*
X155240320Y-90519715D01*
X155331000Y-90538078D01*
X156581000Y-90538078D01*
X156665714Y-90522138D01*
X156743518Y-90472072D01*
X156795715Y-90395680D01*
X156814078Y-90305000D01*
X156814078Y-90186000D01*
X158500200Y-90186000D01*
X158591757Y-90646288D01*
X158861552Y-91050065D01*
X159265329Y-91319860D01*
X159741617Y-91414600D01*
X159790383Y-91414600D01*
X160266671Y-91319860D01*
X160670448Y-91050065D01*
X160940243Y-90646288D01*
X161034983Y-90170000D01*
X160940243Y-89693712D01*
X160670448Y-89289935D01*
X160266671Y-89020140D01*
X159790383Y-88925400D01*
X159741617Y-88925400D01*
X159265329Y-89020140D01*
X158861552Y-89289935D01*
X158771973Y-89424000D01*
X156814078Y-89424000D01*
X156814078Y-89305000D01*
X156798138Y-89220286D01*
X156748072Y-89142482D01*
X156671680Y-89090285D01*
X156581000Y-89071922D01*
X155331000Y-89071922D01*
X155246286Y-89087862D01*
X155168482Y-89137928D01*
X155116285Y-89214320D01*
X155097922Y-89305000D01*
X155097922Y-89392000D01*
X154401078Y-89392000D01*
X154401078Y-89273000D01*
X154385138Y-89188286D01*
X154335072Y-89110482D01*
X154258680Y-89058285D01*
X154168000Y-89039922D01*
X153294264Y-89039922D01*
X152679400Y-88425058D01*
X152679400Y-87139742D01*
X152710873Y-87171215D01*
X152703285Y-87182320D01*
X152684922Y-87273000D01*
X152684922Y-88273000D01*
X152700862Y-88357714D01*
X152750928Y-88435518D01*
X152827320Y-88487715D01*
X152918000Y-88506078D01*
X154168000Y-88506078D01*
X154252714Y-88490138D01*
X154330518Y-88440072D01*
X154382715Y-88363680D01*
X154401078Y-88273000D01*
X154401078Y-88122000D01*
X155097922Y-88122000D01*
X155097922Y-88241000D01*
X155113862Y-88325714D01*
X155163928Y-88403518D01*
X155240320Y-88455715D01*
X155331000Y-88474078D01*
X156581000Y-88474078D01*
X156665714Y-88458138D01*
X156743518Y-88408072D01*
X156795715Y-88331680D01*
X156814078Y-88241000D01*
X156814078Y-88011000D01*
X158516922Y-88011000D01*
X158516922Y-88646000D01*
X158532862Y-88730714D01*
X158582928Y-88808518D01*
X158659320Y-88860715D01*
X158750000Y-88879078D01*
X160782000Y-88879078D01*
X160866714Y-88863138D01*
X160944518Y-88813072D01*
X160996715Y-88736680D01*
X161015078Y-88646000D01*
X161015078Y-86614000D01*
X160999138Y-86529286D01*
X160949072Y-86451482D01*
X160872680Y-86399285D01*
X160782000Y-86380922D01*
X158750000Y-86380922D01*
X158665286Y-86396862D01*
X158587482Y-86446928D01*
X158535285Y-86523320D01*
X158516922Y-86614000D01*
X158516922Y-87249000D01*
X156814078Y-87249000D01*
X156814078Y-87241000D01*
X156798138Y-87156286D01*
X156748072Y-87078482D01*
X156671680Y-87026285D01*
X156581000Y-87007922D01*
X155331000Y-87007922D01*
X155246286Y-87023862D01*
X155168482Y-87073928D01*
X155116285Y-87150320D01*
X155097922Y-87241000D01*
X155097922Y-87360000D01*
X154401078Y-87360000D01*
X154401078Y-87273000D01*
X154385138Y-87188286D01*
X154335072Y-87110482D01*
X154258680Y-87058285D01*
X154168000Y-87039922D01*
X154032487Y-87039922D01*
X153920171Y-86871829D01*
X153113192Y-86064850D01*
X154746800Y-86064850D01*
X154746800Y-86357205D01*
X154835739Y-86571923D01*
X155000078Y-86736261D01*
X155214796Y-86825200D01*
X155632150Y-86825200D01*
X155778200Y-86679150D01*
X155778200Y-85918800D01*
X156133800Y-85918800D01*
X156133800Y-86679150D01*
X156279850Y-86825200D01*
X156697204Y-86825200D01*
X156911922Y-86736261D01*
X157076261Y-86571923D01*
X157165200Y-86357205D01*
X157165200Y-86064850D01*
X157019150Y-85918800D01*
X156133800Y-85918800D01*
X155778200Y-85918800D01*
X154892850Y-85918800D01*
X154746800Y-86064850D01*
X153113192Y-86064850D01*
X152650171Y-85601829D01*
X152477123Y-85486203D01*
X152273000Y-85445600D01*
X147701000Y-85445600D01*
X147496877Y-85486203D01*
X147323829Y-85601829D01*
X146257029Y-86668629D01*
X146141403Y-86841677D01*
X146100800Y-87045800D01*
X146100800Y-87327891D01*
X146054186Y-87336662D01*
X145976382Y-87386728D01*
X145924185Y-87463120D01*
X145905822Y-87553800D01*
X145905822Y-90246200D01*
X145921762Y-90330914D01*
X145971828Y-90408718D01*
X146048220Y-90460915D01*
X146138900Y-90479278D01*
X147129500Y-90479278D01*
X147214214Y-90463338D01*
X147292018Y-90413272D01*
X147344215Y-90336880D01*
X147362578Y-90246200D01*
X147362578Y-87553800D01*
X147346638Y-87469086D01*
X147296572Y-87391282D01*
X147220180Y-87339085D01*
X147167600Y-87328437D01*
X147167600Y-87266742D01*
X147921942Y-86512400D01*
X148572259Y-86512400D01*
X148390629Y-86694029D01*
X148275003Y-86867077D01*
X148234400Y-87071200D01*
X148234400Y-87327891D01*
X148187786Y-87336662D01*
X148109982Y-87386728D01*
X148057785Y-87463120D01*
X148039422Y-87553800D01*
X148039422Y-90246200D01*
X148055362Y-90330914D01*
X148105428Y-90408718D01*
X148181820Y-90460915D01*
X148272500Y-90479278D01*
X149263100Y-90479278D01*
X149347814Y-90463338D01*
X149425618Y-90413272D01*
X149477815Y-90336880D01*
X149496178Y-90246200D01*
X149496178Y-87553800D01*
X149480238Y-87469086D01*
X149430172Y-87391282D01*
X149353780Y-87339085D01*
X149301200Y-87328437D01*
X149301200Y-87292142D01*
X149318939Y-87274402D01*
X151612600Y-87274402D01*
X151612600Y-87389935D01*
X151538180Y-87339085D01*
X151447500Y-87320722D01*
X150456900Y-87320722D01*
X150372186Y-87336662D01*
X150294382Y-87386728D01*
X150242185Y-87463120D01*
X150223822Y-87553800D01*
X150223822Y-90246200D01*
X150239762Y-90330914D01*
X150264628Y-90369557D01*
X149321184Y-91313000D01*
X146304000Y-91313000D01*
X146158197Y-91342002D01*
X146108688Y-91375083D01*
X146034592Y-91424592D01*
X146034590Y-91424595D01*
X144637592Y-92821592D01*
X144555002Y-92945197D01*
X144533459Y-93053502D01*
X144526000Y-93091000D01*
X144526000Y-90479278D01*
X144945100Y-90479278D01*
X145029814Y-90463338D01*
X145107618Y-90413272D01*
X145159815Y-90336880D01*
X145178178Y-90246200D01*
X145178178Y-87553800D01*
X145162238Y-87469086D01*
X145112172Y-87391282D01*
X145035780Y-87339085D01*
X144945100Y-87320722D01*
X143954500Y-87320722D01*
X143869786Y-87336662D01*
X143791982Y-87386728D01*
X143739785Y-87463120D01*
X143721422Y-87553800D01*
X143721422Y-90246200D01*
X143737362Y-90330914D01*
X143764000Y-90372310D01*
X143764000Y-93215137D01*
X143664204Y-93173800D01*
X143071850Y-93173800D01*
X142925800Y-93319850D01*
X142925800Y-94080200D01*
X142945800Y-94080200D01*
X142945800Y-94435800D01*
X142925800Y-94435800D01*
X142925800Y-95196150D01*
X143071850Y-95342200D01*
X143664204Y-95342200D01*
X143764000Y-95300863D01*
X143764000Y-96671518D01*
X143715072Y-96595482D01*
X143638680Y-96543285D01*
X143548000Y-96524922D01*
X141948000Y-96524922D01*
X141863286Y-96540862D01*
X141785482Y-96590928D01*
X141733285Y-96667320D01*
X141714922Y-96758000D01*
X141714922Y-97758000D01*
X141730862Y-97842714D01*
X141780928Y-97920518D01*
X141857320Y-97972715D01*
X141948000Y-97991078D01*
X142367000Y-97991078D01*
X142367000Y-99918185D01*
X142001408Y-99552592D01*
X141877803Y-99470002D01*
X141732000Y-99441000D01*
X138766078Y-99441000D01*
X138766078Y-99197000D01*
X138750138Y-99112286D01*
X138700072Y-99034482D01*
X138623680Y-98982285D01*
X138533000Y-98963922D01*
X137533000Y-98963922D01*
X137448286Y-98979862D01*
X137370482Y-99029928D01*
X137318285Y-99106320D01*
X137299922Y-99197000D01*
X136766078Y-99197000D01*
X136750138Y-99112286D01*
X136700072Y-99034482D01*
X136623680Y-98982285D01*
X136533000Y-98963922D01*
X135533000Y-98963922D01*
X135448286Y-98979862D01*
X135442166Y-98983800D01*
X133477000Y-98983800D01*
X133156235Y-99047604D01*
X132884303Y-99229303D01*
X131351806Y-100761800D01*
X107645778Y-100761800D01*
X107582448Y-100608529D01*
X107089864Y-100115085D01*
X106445943Y-99847705D01*
X105748716Y-99847097D01*
X105104329Y-100113352D01*
X104610885Y-100605936D01*
X104343505Y-101249857D01*
X104342897Y-101947084D01*
X104609152Y-102591471D01*
X105101736Y-103084915D01*
X105745657Y-103352295D01*
X106442884Y-103352903D01*
X107087271Y-103086648D01*
X107580715Y-102594064D01*
X107645436Y-102438200D01*
X109122241Y-102438200D01*
X108982903Y-102531303D01*
X106890603Y-104623603D01*
X106522061Y-104470571D01*
X105673263Y-104469830D01*
X104922526Y-104780028D01*
X103179995Y-103037497D01*
X103407724Y-102810165D01*
X103733229Y-102026261D01*
X103733970Y-101177463D01*
X103460904Y-100516594D01*
X105371730Y-98605768D01*
X105669539Y-98729429D01*
X106518337Y-98730170D01*
X107302809Y-98406033D01*
X107903524Y-97806365D01*
X108229029Y-97022461D01*
X108229770Y-96173663D01*
X108162973Y-96012000D01*
X113000122Y-96012000D01*
X113000122Y-98044000D01*
X113016062Y-98128714D01*
X113066128Y-98206518D01*
X113142520Y-98258715D01*
X113233200Y-98277078D01*
X116890800Y-98277078D01*
X116975514Y-98261138D01*
X117053318Y-98211072D01*
X117105515Y-98134680D01*
X117123878Y-98044000D01*
X117123878Y-96012000D01*
X117107938Y-95927286D01*
X117057872Y-95849482D01*
X116981480Y-95797285D01*
X116890800Y-95778922D01*
X115595400Y-95778922D01*
X115595400Y-93286580D01*
X120325482Y-93286580D01*
X120325482Y-94485460D01*
X120341422Y-94570174D01*
X120391488Y-94647978D01*
X120467880Y-94700175D01*
X120558560Y-94718538D01*
X121757440Y-94718538D01*
X121842154Y-94702598D01*
X121919958Y-94652532D01*
X121972155Y-94576140D01*
X121990518Y-94485460D01*
X121990518Y-94419420D01*
X122560922Y-94419420D01*
X122560922Y-94518000D01*
X122576862Y-94602714D01*
X122626928Y-94680518D01*
X122703320Y-94732715D01*
X122794000Y-94751078D01*
X124094000Y-94751078D01*
X124178714Y-94735138D01*
X124256518Y-94685072D01*
X124308715Y-94608680D01*
X124314148Y-94581850D01*
X141363800Y-94581850D01*
X141363800Y-94874205D01*
X141452739Y-95088923D01*
X141617078Y-95253261D01*
X141831796Y-95342200D01*
X142424150Y-95342200D01*
X142570200Y-95196150D01*
X142570200Y-94435800D01*
X141509850Y-94435800D01*
X141363800Y-94581850D01*
X124314148Y-94581850D01*
X124327078Y-94518000D01*
X124327078Y-93818000D01*
X124311138Y-93733286D01*
X124261072Y-93655482D01*
X124241041Y-93641795D01*
X141363800Y-93641795D01*
X141363800Y-93934150D01*
X141509850Y-94080200D01*
X142570200Y-94080200D01*
X142570200Y-93319850D01*
X142424150Y-93173800D01*
X141831796Y-93173800D01*
X141617078Y-93262739D01*
X141452739Y-93427077D01*
X141363800Y-93641795D01*
X124241041Y-93641795D01*
X124184680Y-93603285D01*
X124094000Y-93584922D01*
X123615264Y-93584922D01*
X123539191Y-93508849D01*
X123366143Y-93393223D01*
X123162020Y-93352620D01*
X121990518Y-93352620D01*
X121990518Y-93286580D01*
X121974578Y-93201866D01*
X121924512Y-93124062D01*
X121848120Y-93071865D01*
X121757440Y-93053502D01*
X120558560Y-93053502D01*
X120473846Y-93069442D01*
X120396042Y-93119508D01*
X120343845Y-93195900D01*
X120325482Y-93286580D01*
X115595400Y-93286580D01*
X115595400Y-92989400D01*
X120489980Y-92989400D01*
X120694103Y-92948797D01*
X120867151Y-92833171D01*
X121079824Y-92620498D01*
X121757440Y-92620498D01*
X121842154Y-92604558D01*
X121866253Y-92589050D01*
X122209800Y-92589050D01*
X122209800Y-92734205D01*
X122298739Y-92948923D01*
X122463078Y-93113261D01*
X122677796Y-93202200D01*
X123120150Y-93202200D01*
X123266200Y-93056150D01*
X123266200Y-92443000D01*
X123621800Y-92443000D01*
X123621800Y-93056150D01*
X123767850Y-93202200D01*
X124210204Y-93202200D01*
X124424922Y-93113261D01*
X124589261Y-92948923D01*
X124678200Y-92734205D01*
X124678200Y-92589050D01*
X124532150Y-92443000D01*
X123621800Y-92443000D01*
X123266200Y-92443000D01*
X122355850Y-92443000D01*
X122209800Y-92589050D01*
X121866253Y-92589050D01*
X121919958Y-92554492D01*
X121972155Y-92478100D01*
X121990518Y-92387420D01*
X121990518Y-91801795D01*
X122209800Y-91801795D01*
X122209800Y-91946950D01*
X122355850Y-92093000D01*
X123266200Y-92093000D01*
X123266200Y-91479850D01*
X123621800Y-91479850D01*
X123621800Y-92093000D01*
X124532150Y-92093000D01*
X124678200Y-91946950D01*
X124678200Y-91801795D01*
X124589261Y-91587077D01*
X124424922Y-91422739D01*
X124210204Y-91333800D01*
X123767850Y-91333800D01*
X123621800Y-91479850D01*
X123266200Y-91479850D01*
X123120150Y-91333800D01*
X122677796Y-91333800D01*
X122463078Y-91422739D01*
X122298739Y-91587077D01*
X122209800Y-91801795D01*
X121990518Y-91801795D01*
X121990518Y-91188540D01*
X121974578Y-91103826D01*
X121924512Y-91026022D01*
X121848120Y-90973825D01*
X121757440Y-90955462D01*
X120558560Y-90955462D01*
X120473846Y-90971402D01*
X120396042Y-91021468D01*
X120343845Y-91097860D01*
X120325482Y-91188540D01*
X120325482Y-91866156D01*
X120269038Y-91922600D01*
X118199584Y-91922600D01*
X118351261Y-91770922D01*
X118440200Y-91556204D01*
X118440200Y-90747850D01*
X118294150Y-90601800D01*
X117525800Y-90601800D01*
X117525800Y-90621800D01*
X117170200Y-90621800D01*
X117170200Y-90601800D01*
X116401850Y-90601800D01*
X116255800Y-90747850D01*
X116255800Y-91556204D01*
X116344739Y-91770922D01*
X116496416Y-91922600D01*
X115790941Y-91922600D01*
X115595400Y-91727058D01*
X115595400Y-91668299D01*
X115654714Y-91657138D01*
X115732518Y-91607072D01*
X115784715Y-91530680D01*
X115803078Y-91440000D01*
X115803078Y-90794629D01*
X115836396Y-90744765D01*
X115900200Y-90424000D01*
X115900200Y-90009194D01*
X116255800Y-89653594D01*
X116255800Y-90100150D01*
X116401850Y-90246200D01*
X117170200Y-90246200D01*
X117170200Y-88969850D01*
X117525800Y-88969850D01*
X117525800Y-90246200D01*
X118294150Y-90246200D01*
X118440200Y-90100150D01*
X118440200Y-89291796D01*
X118351261Y-89077078D01*
X118186923Y-88912739D01*
X117972205Y-88823800D01*
X117671850Y-88823800D01*
X117525800Y-88969850D01*
X117170200Y-88969850D01*
X117054872Y-88854522D01*
X117170684Y-88738710D01*
X122948700Y-88738710D01*
X122948700Y-89831545D01*
X123037639Y-90046263D01*
X123201978Y-90210601D01*
X123416696Y-90299540D01*
X124009150Y-90299540D01*
X124155200Y-90153490D01*
X124155200Y-88592660D01*
X124510800Y-88592660D01*
X124510800Y-90153490D01*
X124656850Y-90299540D01*
X125249304Y-90299540D01*
X125464022Y-90210601D01*
X125628361Y-90046263D01*
X125717300Y-89831545D01*
X125717300Y-89679017D01*
X128379162Y-89679017D01*
X128588599Y-90185894D01*
X128976066Y-90574038D01*
X129482577Y-90784360D01*
X130031017Y-90784838D01*
X130537894Y-90575401D01*
X130926038Y-90187934D01*
X131136360Y-89681423D01*
X131136362Y-89679017D01*
X136579162Y-89679017D01*
X136788599Y-90185894D01*
X137176066Y-90574038D01*
X137682577Y-90784360D01*
X138231017Y-90784838D01*
X138737894Y-90575401D01*
X139126038Y-90187934D01*
X139336360Y-89681423D01*
X139336838Y-89132983D01*
X139127401Y-88626106D01*
X138739934Y-88237962D01*
X138233423Y-88027640D01*
X137684983Y-88027162D01*
X137178106Y-88236599D01*
X136789962Y-88624066D01*
X136579640Y-89130577D01*
X136579162Y-89679017D01*
X131136362Y-89679017D01*
X131136838Y-89132983D01*
X130927401Y-88626106D01*
X130539934Y-88237962D01*
X130033423Y-88027640D01*
X129484983Y-88027162D01*
X128978106Y-88236599D01*
X128589962Y-88624066D01*
X128379640Y-89130577D01*
X128379162Y-89679017D01*
X125717300Y-89679017D01*
X125717300Y-88738710D01*
X125571250Y-88592660D01*
X124510800Y-88592660D01*
X124155200Y-88592660D01*
X123094750Y-88592660D01*
X122948700Y-88738710D01*
X117170684Y-88738710D01*
X118076194Y-87833200D01*
X122151140Y-87833200D01*
X122471906Y-87769396D01*
X122743837Y-87587697D01*
X122948700Y-87382834D01*
X122948700Y-88091010D01*
X123094750Y-88237060D01*
X124155200Y-88237060D01*
X124155200Y-86676230D01*
X124510800Y-86676230D01*
X124510800Y-88237060D01*
X125571250Y-88237060D01*
X125717300Y-88091010D01*
X125717300Y-87262960D01*
X130452488Y-87262960D01*
X130558201Y-87509321D01*
X131156109Y-87708569D01*
X131784753Y-87663841D01*
X132157799Y-87509321D01*
X132263512Y-87262960D01*
X131358000Y-86357447D01*
X130452488Y-87262960D01*
X125717300Y-87262960D01*
X125717300Y-86998175D01*
X125628361Y-86783457D01*
X125464022Y-86619119D01*
X125249304Y-86530180D01*
X124656850Y-86530180D01*
X124510800Y-86676230D01*
X124155200Y-86676230D01*
X124009150Y-86530180D01*
X123801354Y-86530180D01*
X123984836Y-86346698D01*
X125133100Y-86346698D01*
X125217814Y-86330758D01*
X125295618Y-86280692D01*
X125347815Y-86204300D01*
X125366178Y-86113620D01*
X125366178Y-85904109D01*
X129755431Y-85904109D01*
X129800159Y-86532753D01*
X129954679Y-86905799D01*
X130201040Y-87011512D01*
X131106553Y-86106000D01*
X131609447Y-86106000D01*
X132514960Y-87011512D01*
X132761321Y-86905799D01*
X132804984Y-86774774D01*
X132815836Y-86801037D01*
X133161145Y-87146949D01*
X133612544Y-87334387D01*
X134101312Y-87334813D01*
X134553037Y-87148164D01*
X134898949Y-86802855D01*
X135086387Y-86351456D01*
X135086813Y-85862688D01*
X134900164Y-85410963D01*
X134554855Y-85065051D01*
X134103456Y-84877613D01*
X133614688Y-84877187D01*
X133162963Y-85063836D01*
X132817051Y-85409145D01*
X132810498Y-85424926D01*
X132761321Y-85306201D01*
X132514960Y-85200488D01*
X131609447Y-86106000D01*
X131106553Y-86106000D01*
X130201040Y-85200488D01*
X129954679Y-85306201D01*
X129755431Y-85904109D01*
X125366178Y-85904109D01*
X125366178Y-84965356D01*
X125546334Y-84785200D01*
X130522791Y-84785200D01*
X130452488Y-84949040D01*
X131358000Y-85854553D01*
X132263512Y-84949040D01*
X132193209Y-84785200D01*
X135034806Y-84785200D01*
X135488050Y-85238444D01*
X135317051Y-85409145D01*
X135129613Y-85860544D01*
X135129187Y-86349312D01*
X135315836Y-86801037D01*
X135661145Y-87146949D01*
X136112544Y-87334387D01*
X136601312Y-87334813D01*
X137053037Y-87148164D01*
X137398949Y-86802855D01*
X137586387Y-86351456D01*
X137586813Y-85862688D01*
X137400164Y-85410963D01*
X137196200Y-85206643D01*
X137196200Y-85124795D01*
X154746800Y-85124795D01*
X154746800Y-85417150D01*
X154892850Y-85563200D01*
X155778200Y-85563200D01*
X155778200Y-84802850D01*
X156133800Y-84802850D01*
X156133800Y-85563200D01*
X157019150Y-85563200D01*
X157165200Y-85417150D01*
X157165200Y-85124795D01*
X157076261Y-84910077D01*
X156911922Y-84745739D01*
X156697204Y-84656800D01*
X156279850Y-84656800D01*
X156133800Y-84802850D01*
X155778200Y-84802850D01*
X155632150Y-84656800D01*
X155214796Y-84656800D01*
X155000078Y-84745739D01*
X154835739Y-84910077D01*
X154746800Y-85124795D01*
X137196200Y-85124795D01*
X137196200Y-84923000D01*
X137132396Y-84602235D01*
X136950697Y-84330303D01*
X135974697Y-83354303D01*
X135702766Y-83172604D01*
X135382000Y-83108800D01*
X125199140Y-83108800D01*
X124878374Y-83172604D01*
X124718271Y-83279582D01*
X123532900Y-83279582D01*
X123448186Y-83295522D01*
X123370382Y-83345588D01*
X123318185Y-83421980D01*
X123299822Y-83512660D01*
X123299822Y-84660924D01*
X121803946Y-86156800D01*
X117729000Y-86156800D01*
X117408235Y-86220604D01*
X117136303Y-86402303D01*
X115595400Y-87943206D01*
X115595400Y-87696000D01*
X115554797Y-87491877D01*
X115452078Y-87338146D01*
X115452078Y-86853000D01*
X115436138Y-86768286D01*
X115402400Y-86715856D01*
X115402400Y-85577461D01*
X115446518Y-85549072D01*
X115498715Y-85472680D01*
X115517078Y-85382000D01*
X115517078Y-83782000D01*
X115501138Y-83697286D01*
X115451072Y-83619482D01*
X115374680Y-83567285D01*
X115284000Y-83548922D01*
X114284000Y-83548922D01*
X114199286Y-83564862D01*
X114121482Y-83614928D01*
X114069285Y-83691320D01*
X114050922Y-83782000D01*
X114050922Y-85382000D01*
X114066862Y-85466714D01*
X114116928Y-85544518D01*
X114193320Y-85596715D01*
X114284000Y-85615078D01*
X114335600Y-85615078D01*
X114335600Y-86716489D01*
X114304285Y-86762320D01*
X114285922Y-86853000D01*
X114285922Y-88153000D01*
X114301862Y-88237714D01*
X114351928Y-88315518D01*
X114428320Y-88367715D01*
X114519000Y-88386078D01*
X114528600Y-88386078D01*
X114528600Y-89010006D01*
X114469303Y-89069303D01*
X114287604Y-89341234D01*
X114271737Y-89421002D01*
X114223800Y-89662000D01*
X114223800Y-90424000D01*
X114287604Y-90744765D01*
X114320922Y-90794629D01*
X114320922Y-91440000D01*
X114336862Y-91524714D01*
X114386928Y-91602518D01*
X114463320Y-91654715D01*
X114528600Y-91667934D01*
X114528600Y-95778922D01*
X113233200Y-95778922D01*
X113148486Y-95794862D01*
X113070682Y-95844928D01*
X113018485Y-95921320D01*
X113000122Y-96012000D01*
X108162973Y-96012000D01*
X107905633Y-95389191D01*
X107305965Y-94788476D01*
X106522061Y-94462971D01*
X105673263Y-94462230D01*
X104888791Y-94786367D01*
X104288076Y-95386035D01*
X104140099Y-95742403D01*
X100576251Y-99306251D01*
X100262407Y-99775951D01*
X100226525Y-99956343D01*
X99792276Y-100389835D01*
X99466771Y-101173739D01*
X99466030Y-102022537D01*
X98855600Y-102022537D01*
X98855600Y-91001850D01*
X103841800Y-91001850D01*
X103841800Y-91594204D01*
X103930739Y-91808922D01*
X104095077Y-91973261D01*
X104309795Y-92062200D01*
X104602150Y-92062200D01*
X104748200Y-91916150D01*
X104748200Y-90855800D01*
X105103800Y-90855800D01*
X105103800Y-91916150D01*
X105249850Y-92062200D01*
X105542205Y-92062200D01*
X105756923Y-91973261D01*
X105921261Y-91808922D01*
X106010200Y-91594204D01*
X106010200Y-91001850D01*
X105864150Y-90855800D01*
X105103800Y-90855800D01*
X104748200Y-90855800D01*
X103987850Y-90855800D01*
X103841800Y-91001850D01*
X98855600Y-91001850D01*
X98855600Y-89761796D01*
X103841800Y-89761796D01*
X103841800Y-90354150D01*
X103987850Y-90500200D01*
X104748200Y-90500200D01*
X104748200Y-89439850D01*
X105103800Y-89439850D01*
X105103800Y-90500200D01*
X105864150Y-90500200D01*
X106010200Y-90354150D01*
X106010200Y-89761796D01*
X105921261Y-89547078D01*
X105756923Y-89382739D01*
X105542205Y-89293800D01*
X105249850Y-89293800D01*
X105103800Y-89439850D01*
X104748200Y-89439850D01*
X104602150Y-89293800D01*
X104309795Y-89293800D01*
X104095077Y-89382739D01*
X103930739Y-89547078D01*
X103841800Y-89761796D01*
X98855600Y-89761796D01*
X98855600Y-85387389D01*
X104248089Y-85387389D01*
X104527943Y-85945531D01*
X105000086Y-86354091D01*
X105366613Y-86505899D01*
X105613200Y-86406239D01*
X105613200Y-85140800D01*
X104346746Y-85140800D01*
X104248089Y-85387389D01*
X98855600Y-85387389D01*
X98855600Y-84538611D01*
X104248089Y-84538611D01*
X104346746Y-84785200D01*
X105613200Y-84785200D01*
X105613200Y-83519761D01*
X105968800Y-83519761D01*
X105968800Y-84785200D01*
X105988800Y-84785200D01*
X105988800Y-85140800D01*
X105968800Y-85140800D01*
X105968800Y-86406239D01*
X106215387Y-86505899D01*
X106581914Y-86354091D01*
X107054057Y-85945531D01*
X107081922Y-85889957D01*
X107081922Y-85979000D01*
X107097862Y-86063714D01*
X107147928Y-86141518D01*
X107224320Y-86193715D01*
X107315000Y-86212078D01*
X107492800Y-86212078D01*
X107492800Y-89644922D01*
X107426000Y-89644922D01*
X107341286Y-89660862D01*
X107263482Y-89710928D01*
X107211285Y-89787320D01*
X107192922Y-89878000D01*
X107192922Y-90295397D01*
X107151604Y-90357234D01*
X107087800Y-90678000D01*
X107151604Y-90998766D01*
X107192922Y-91060603D01*
X107192922Y-91478000D01*
X107208862Y-91562714D01*
X107258928Y-91640518D01*
X107335320Y-91692715D01*
X107426000Y-91711078D01*
X108426000Y-91711078D01*
X108510714Y-91695138D01*
X108588518Y-91645072D01*
X108640715Y-91568680D01*
X108659078Y-91478000D01*
X108659078Y-91262200D01*
X112034922Y-91262200D01*
X112034922Y-91440000D01*
X112050862Y-91524714D01*
X112100928Y-91602518D01*
X112177320Y-91654715D01*
X112268000Y-91673078D01*
X113284000Y-91673078D01*
X113368714Y-91657138D01*
X113446518Y-91607072D01*
X113498715Y-91530680D01*
X113517078Y-91440000D01*
X113517078Y-90794629D01*
X113550396Y-90744765D01*
X113614200Y-90424000D01*
X113614200Y-88017121D01*
X113743396Y-87823766D01*
X113807200Y-87503000D01*
X113743396Y-87182235D01*
X113561697Y-86910303D01*
X113552078Y-86903876D01*
X113552078Y-86853000D01*
X113536138Y-86768286D01*
X113486072Y-86690482D01*
X113409680Y-86638285D01*
X113319000Y-86619922D01*
X112619000Y-86619922D01*
X112534286Y-86635862D01*
X112456482Y-86685928D01*
X112404285Y-86762320D01*
X112385922Y-86853000D01*
X112385922Y-86903876D01*
X112376303Y-86910303D01*
X112183303Y-87103303D01*
X112001604Y-87375234D01*
X111951690Y-87626171D01*
X111937800Y-87696000D01*
X111937800Y-89585800D01*
X109169200Y-89585800D01*
X109169200Y-86212078D01*
X109347000Y-86212078D01*
X109431714Y-86196138D01*
X109509518Y-86146072D01*
X109561715Y-86069680D01*
X109580078Y-85979000D01*
X109580078Y-84905850D01*
X110699800Y-84905850D01*
X110699800Y-85498204D01*
X110788739Y-85712922D01*
X110953077Y-85877261D01*
X111167795Y-85966200D01*
X111460150Y-85966200D01*
X111606200Y-85820150D01*
X111606200Y-84759800D01*
X111961800Y-84759800D01*
X111961800Y-85820150D01*
X112107850Y-85966200D01*
X112400205Y-85966200D01*
X112614923Y-85877261D01*
X112779261Y-85712922D01*
X112868200Y-85498204D01*
X112868200Y-84905850D01*
X112722150Y-84759800D01*
X111961800Y-84759800D01*
X111606200Y-84759800D01*
X110845850Y-84759800D01*
X110699800Y-84905850D01*
X109580078Y-84905850D01*
X109580078Y-83947000D01*
X109564138Y-83862286D01*
X109514072Y-83784482D01*
X109437680Y-83732285D01*
X109347000Y-83713922D01*
X107315000Y-83713922D01*
X107230286Y-83729862D01*
X107152482Y-83779928D01*
X107100285Y-83856320D01*
X107081922Y-83947000D01*
X107081922Y-84036043D01*
X107054057Y-83980469D01*
X106690413Y-83665796D01*
X110699800Y-83665796D01*
X110699800Y-84258150D01*
X110845850Y-84404200D01*
X111606200Y-84404200D01*
X111606200Y-83343850D01*
X111961800Y-83343850D01*
X111961800Y-84404200D01*
X112722150Y-84404200D01*
X112868200Y-84258150D01*
X112868200Y-83665796D01*
X112779261Y-83451078D01*
X112614923Y-83286739D01*
X112400205Y-83197800D01*
X112107850Y-83197800D01*
X111961800Y-83343850D01*
X111606200Y-83343850D01*
X111460150Y-83197800D01*
X111167795Y-83197800D01*
X110953077Y-83286739D01*
X110788739Y-83451078D01*
X110699800Y-83665796D01*
X106690413Y-83665796D01*
X106581914Y-83571909D01*
X106215387Y-83420101D01*
X105968800Y-83519761D01*
X105613200Y-83519761D01*
X105366613Y-83420101D01*
X105000086Y-83571909D01*
X104527943Y-83980469D01*
X104248089Y-84538611D01*
X98855600Y-84538611D01*
X98855600Y-82853600D01*
X162891400Y-82853600D01*
X162891400Y-127585400D01*
X162891400Y-127585400D01*
G37*
X162891400Y-127585400D02*
X98855600Y-127585400D01*
X98855600Y-117262537D01*
X99466030Y-117262537D01*
X99790167Y-118047009D01*
X100152200Y-118409674D01*
X100152200Y-119380000D01*
X100262407Y-119934049D01*
X100576251Y-120403749D01*
X103040051Y-122867549D01*
X103509750Y-123181393D01*
X103601673Y-123199677D01*
X104063800Y-123291600D01*
X104526338Y-123291600D01*
X104885635Y-123651524D01*
X105669539Y-123977029D01*
X106518337Y-123977770D01*
X107302809Y-123653633D01*
X107903524Y-123053965D01*
X108229029Y-122270061D01*
X108229770Y-121421263D01*
X108037032Y-120954800D01*
X117978522Y-120954800D01*
X117978522Y-123063000D01*
X117994462Y-123147714D01*
X118044528Y-123225518D01*
X118120920Y-123277715D01*
X118211600Y-123296078D01*
X120319800Y-123296078D01*
X120404514Y-123280138D01*
X120482318Y-123230072D01*
X120534515Y-123153680D01*
X120552878Y-123063000D01*
X120552878Y-120954800D01*
X127097122Y-120954800D01*
X127097122Y-123063000D01*
X127113062Y-123147714D01*
X127163128Y-123225518D01*
X127239520Y-123277715D01*
X127330200Y-123296078D01*
X129438400Y-123296078D01*
X129523114Y-123280138D01*
X129600918Y-123230072D01*
X129653115Y-123153680D01*
X129671478Y-123063000D01*
X129671478Y-121476064D01*
X130487542Y-120660000D01*
X148507922Y-120660000D01*
X148507922Y-121910000D01*
X148523862Y-121994714D01*
X148573928Y-122072518D01*
X148650320Y-122124715D01*
X148741000Y-122143078D01*
X148860000Y-122143078D01*
X148860000Y-122825000D01*
X148889002Y-122970803D01*
X148971592Y-123094408D01*
X150844592Y-124967408D01*
X150968197Y-125049998D01*
X151114000Y-125079000D01*
X155097922Y-125079000D01*
X155097922Y-125198000D01*
X155113862Y-125282714D01*
X155163928Y-125360518D01*
X155240320Y-125412715D01*
X155331000Y-125431078D01*
X156581000Y-125431078D01*
X156665714Y-125415138D01*
X156743518Y-125365072D01*
X156795715Y-125288680D01*
X156814078Y-125198000D01*
X156814078Y-124378738D01*
X157875815Y-123317000D01*
X158135922Y-123317000D01*
X158135922Y-123952000D01*
X158151862Y-124036714D01*
X158201928Y-124114518D01*
X158278320Y-124166715D01*
X158369000Y-124185078D01*
X160401000Y-124185078D01*
X160485714Y-124169138D01*
X160563518Y-124119072D01*
X160615715Y-124042680D01*
X160634078Y-123952000D01*
X160634078Y-121920000D01*
X160618138Y-121835286D01*
X160568072Y-121757482D01*
X160491680Y-121705285D01*
X160401000Y-121686922D01*
X158369000Y-121686922D01*
X158284286Y-121702862D01*
X158206482Y-121752928D01*
X158154285Y-121829320D01*
X158135922Y-121920000D01*
X158135922Y-122555000D01*
X157718000Y-122555000D01*
X157572197Y-122584002D01*
X157522688Y-122617083D01*
X157448592Y-122666592D01*
X157448590Y-122666595D01*
X157129267Y-122985917D01*
X157019150Y-122875800D01*
X156133800Y-122875800D01*
X156133800Y-123636150D01*
X156279850Y-123782200D01*
X156332984Y-123782200D01*
X156150262Y-123964922D01*
X155331000Y-123964922D01*
X155246286Y-123980862D01*
X155168482Y-124030928D01*
X155116285Y-124107320D01*
X155097922Y-124198000D01*
X155097922Y-124317000D01*
X151271816Y-124317000D01*
X149976666Y-123021850D01*
X154746800Y-123021850D01*
X154746800Y-123314205D01*
X154835739Y-123528923D01*
X155000078Y-123693261D01*
X155214796Y-123782200D01*
X155632150Y-123782200D01*
X155778200Y-123636150D01*
X155778200Y-122875800D01*
X154892850Y-122875800D01*
X154746800Y-123021850D01*
X149976666Y-123021850D01*
X149622000Y-122667184D01*
X149622000Y-122143078D01*
X149741000Y-122143078D01*
X149825714Y-122127138D01*
X149903518Y-122077072D01*
X149955715Y-122000680D01*
X149974078Y-121910000D01*
X149974078Y-120660000D01*
X150507922Y-120660000D01*
X150507922Y-121910000D01*
X150523862Y-121994714D01*
X150573928Y-122072518D01*
X150650320Y-122124715D01*
X150741000Y-122143078D01*
X151741000Y-122143078D01*
X151825714Y-122127138D01*
X151903518Y-122077072D01*
X151955715Y-122000680D01*
X151974078Y-121910000D01*
X151974078Y-121666000D01*
X153670000Y-121666000D01*
X153815803Y-121636998D01*
X153939408Y-121554408D01*
X154746800Y-120747016D01*
X154746800Y-120811802D01*
X154892848Y-120811802D01*
X154746800Y-120957850D01*
X154746800Y-121250205D01*
X154835739Y-121464923D01*
X155000078Y-121629261D01*
X155088774Y-121666000D01*
X155000078Y-121702739D01*
X154835739Y-121867077D01*
X154746800Y-122081795D01*
X154746800Y-122374150D01*
X154892850Y-122520200D01*
X155778200Y-122520200D01*
X155778200Y-121759850D01*
X155684350Y-121666000D01*
X155778200Y-121572150D01*
X155778200Y-120811800D01*
X156133800Y-120811800D01*
X156133800Y-121572150D01*
X156227650Y-121666000D01*
X156133800Y-121759850D01*
X156133800Y-122520200D01*
X157019150Y-122520200D01*
X157165200Y-122374150D01*
X157165200Y-122081795D01*
X157076261Y-121867077D01*
X156911922Y-121702739D01*
X156823226Y-121666000D01*
X156911922Y-121629261D01*
X157076261Y-121464923D01*
X157165200Y-121250205D01*
X157165200Y-120957850D01*
X157019150Y-120811800D01*
X156133800Y-120811800D01*
X155778200Y-120811800D01*
X155758200Y-120811800D01*
X155758200Y-120456200D01*
X155778200Y-120456200D01*
X155778200Y-119715616D01*
X155797966Y-119695850D01*
X156133800Y-119695850D01*
X156133800Y-120456200D01*
X157019150Y-120456200D01*
X157165200Y-120310150D01*
X157165200Y-120017795D01*
X157076261Y-119803077D01*
X156911922Y-119638739D01*
X156697204Y-119549800D01*
X156279850Y-119549800D01*
X156133800Y-119695850D01*
X155797966Y-119695850D01*
X156126738Y-119367078D01*
X156581000Y-119367078D01*
X156665714Y-119351138D01*
X156743518Y-119301072D01*
X156795715Y-119224680D01*
X156814078Y-119134000D01*
X156814078Y-119015000D01*
X157465184Y-119015000D01*
X158274499Y-119824315D01*
X158210757Y-119919712D01*
X158116017Y-120396000D01*
X158210757Y-120872288D01*
X158480552Y-121276065D01*
X158884329Y-121545860D01*
X159360617Y-121640600D01*
X159409383Y-121640600D01*
X159885671Y-121545860D01*
X160289448Y-121276065D01*
X160559243Y-120872288D01*
X160653983Y-120396000D01*
X160559243Y-119919712D01*
X160289448Y-119515935D01*
X159885671Y-119246140D01*
X159409383Y-119151400D01*
X159360617Y-119151400D01*
X158884329Y-119246140D01*
X158818165Y-119290349D01*
X157892408Y-118364592D01*
X157768803Y-118282002D01*
X157623000Y-118253000D01*
X156814078Y-118253000D01*
X156814078Y-118134000D01*
X156798138Y-118049286D01*
X156748072Y-117971482D01*
X156671680Y-117919285D01*
X156581000Y-117900922D01*
X155331000Y-117900922D01*
X155246286Y-117916862D01*
X155168482Y-117966928D01*
X155116285Y-118043320D01*
X155097922Y-118134000D01*
X155097922Y-119134000D01*
X155113862Y-119218714D01*
X155146598Y-119269586D01*
X153512184Y-120904000D01*
X151974078Y-120904000D01*
X151974078Y-120660000D01*
X151958138Y-120575286D01*
X151908072Y-120497482D01*
X151831680Y-120445285D01*
X151741000Y-120426922D01*
X151622000Y-120426922D01*
X151622000Y-119308278D01*
X151930100Y-119308278D01*
X152014814Y-119292338D01*
X152092618Y-119242272D01*
X152144815Y-119165880D01*
X152163178Y-119075200D01*
X152163178Y-116382800D01*
X152147238Y-116298086D01*
X152097172Y-116220282D01*
X152020780Y-116168085D01*
X151930100Y-116149722D01*
X150939500Y-116149722D01*
X150854786Y-116165662D01*
X150776982Y-116215728D01*
X150724785Y-116292120D01*
X150706422Y-116382800D01*
X150706422Y-119075200D01*
X150722362Y-119159914D01*
X150772428Y-119237718D01*
X150848820Y-119289915D01*
X150860000Y-119292179D01*
X150860000Y-120426922D01*
X150741000Y-120426922D01*
X150656286Y-120442862D01*
X150578482Y-120492928D01*
X150526285Y-120569320D01*
X150507922Y-120660000D01*
X149974078Y-120660000D01*
X149958138Y-120575286D01*
X149908072Y-120497482D01*
X149831680Y-120445285D01*
X149741000Y-120426922D01*
X149622000Y-120426922D01*
X149622000Y-119308278D01*
X149796500Y-119308278D01*
X149881214Y-119292338D01*
X149959018Y-119242272D01*
X150011215Y-119165880D01*
X150029578Y-119075200D01*
X150029578Y-116382800D01*
X150013638Y-116298086D01*
X149963572Y-116220282D01*
X149887180Y-116168085D01*
X149796500Y-116149722D01*
X148805900Y-116149722D01*
X148721186Y-116165662D01*
X148643382Y-116215728D01*
X148591185Y-116292120D01*
X148572822Y-116382800D01*
X148572822Y-119075200D01*
X148588762Y-119159914D01*
X148638828Y-119237718D01*
X148715220Y-119289915D01*
X148805900Y-119308278D01*
X148860000Y-119308278D01*
X148860000Y-120426922D01*
X148741000Y-120426922D01*
X148656286Y-120442862D01*
X148578482Y-120492928D01*
X148526285Y-120569320D01*
X148507922Y-120660000D01*
X130487542Y-120660000D01*
X134388692Y-116758850D01*
X140347800Y-116758850D01*
X140347800Y-117051205D01*
X140436739Y-117265923D01*
X140601078Y-117430261D01*
X140815796Y-117519200D01*
X141408150Y-117519200D01*
X141554200Y-117373150D01*
X141554200Y-116612800D01*
X141909800Y-116612800D01*
X141909800Y-117373150D01*
X142055850Y-117519200D01*
X142648204Y-117519200D01*
X142862922Y-117430261D01*
X143027261Y-117265923D01*
X143116200Y-117051205D01*
X143116200Y-116758850D01*
X142970150Y-116612800D01*
X141909800Y-116612800D01*
X141554200Y-116612800D01*
X140493850Y-116612800D01*
X140347800Y-116758850D01*
X134388692Y-116758850D01*
X138473142Y-112674400D01*
X140081274Y-112674400D01*
X139829989Y-112842303D01*
X138853303Y-113818989D01*
X138671604Y-114090920D01*
X138607800Y-114411686D01*
X138607800Y-115443000D01*
X138671604Y-115763765D01*
X138853303Y-116035697D01*
X139125235Y-116217396D01*
X139446000Y-116281200D01*
X139766765Y-116217396D01*
X140038697Y-116035697D01*
X140183626Y-115818795D01*
X140347800Y-115818795D01*
X140347800Y-116111150D01*
X140493850Y-116257200D01*
X141554200Y-116257200D01*
X141554200Y-115496850D01*
X141909800Y-115496850D01*
X141909800Y-116257200D01*
X142970150Y-116257200D01*
X143116200Y-116111150D01*
X143116200Y-115818795D01*
X143027261Y-115604077D01*
X142862922Y-115439739D01*
X142648204Y-115350800D01*
X142055850Y-115350800D01*
X141909800Y-115496850D01*
X141554200Y-115496850D01*
X141408150Y-115350800D01*
X140815796Y-115350800D01*
X140601078Y-115439739D01*
X140436739Y-115604077D01*
X140347800Y-115818795D01*
X140183626Y-115818795D01*
X140220396Y-115763765D01*
X140284200Y-115443000D01*
X140284200Y-114758880D01*
X140769880Y-114273200D01*
X141732000Y-114273200D01*
X142052765Y-114209396D01*
X142114602Y-114168078D01*
X142532000Y-114168078D01*
X142616714Y-114152138D01*
X142694518Y-114102072D01*
X142746715Y-114025680D01*
X142765078Y-113935000D01*
X142765078Y-112935000D01*
X142749138Y-112850286D01*
X142699072Y-112772482D01*
X142622680Y-112720285D01*
X142532000Y-112701922D01*
X142114602Y-112701922D01*
X142052765Y-112660604D01*
X141732000Y-112596800D01*
X140467493Y-112596800D01*
X140585171Y-112518171D01*
X143106724Y-109996617D01*
X143198306Y-109958776D01*
X143359211Y-109798151D01*
X143430643Y-109626124D01*
X143522823Y-109664400D01*
X143750180Y-109664599D01*
X143960306Y-109577776D01*
X144018000Y-109520182D01*
X144018000Y-115011200D01*
X144047002Y-115157003D01*
X144129592Y-115280608D01*
X146388422Y-117539437D01*
X146388422Y-119075200D01*
X146404362Y-119159914D01*
X146454428Y-119237718D01*
X146530820Y-119289915D01*
X146621500Y-119308278D01*
X147612100Y-119308278D01*
X147696814Y-119292338D01*
X147774618Y-119242272D01*
X147826815Y-119165880D01*
X147845178Y-119075200D01*
X147845178Y-116382800D01*
X147829238Y-116298086D01*
X147779172Y-116220282D01*
X147702780Y-116168085D01*
X147612100Y-116149722D01*
X146621500Y-116149722D01*
X146536786Y-116165662D01*
X146458982Y-116215728D01*
X146406785Y-116292120D01*
X146388422Y-116382800D01*
X146388422Y-116461807D01*
X144780000Y-114853384D01*
X144780000Y-109220000D01*
X144750998Y-109074198D01*
X144668408Y-108950592D01*
X144617800Y-108916777D01*
X144617800Y-108764124D01*
X144721795Y-108807200D01*
X144754450Y-108807200D01*
X144900500Y-108661150D01*
X144900500Y-107771850D01*
X144903800Y-107771850D01*
X144903800Y-108339204D01*
X144992739Y-108553922D01*
X145025500Y-108586683D01*
X145025500Y-108661150D01*
X145171550Y-108807200D01*
X145204205Y-108807200D01*
X145288000Y-108772491D01*
X145371795Y-108807200D01*
X145404450Y-108807200D01*
X145550500Y-108661150D01*
X145550500Y-108586683D01*
X145583261Y-108553922D01*
X145672200Y-108339204D01*
X145672200Y-107771850D01*
X145550500Y-107650150D01*
X145550500Y-107625800D01*
X145025500Y-107625800D01*
X145025500Y-107650150D01*
X144903800Y-107771850D01*
X144900500Y-107771850D01*
X144900500Y-107625800D01*
X144838000Y-107625800D01*
X144838000Y-107270200D01*
X144900500Y-107270200D01*
X144900500Y-106556796D01*
X144903800Y-106556796D01*
X144903800Y-107124150D01*
X145025500Y-107245850D01*
X145025500Y-107270200D01*
X145550500Y-107270200D01*
X145550500Y-107245850D01*
X145672200Y-107124150D01*
X145672200Y-106556796D01*
X145583261Y-106342078D01*
X145550500Y-106309317D01*
X145550500Y-106234850D01*
X145675500Y-106234850D01*
X145675500Y-107270200D01*
X145738000Y-107270200D01*
X145738000Y-107625800D01*
X145675500Y-107625800D01*
X145675500Y-108661150D01*
X145821550Y-108807200D01*
X145854205Y-108807200D01*
X145999200Y-108747141D01*
X145999200Y-109003560D01*
X145952002Y-109074198D01*
X145923000Y-109220000D01*
X145923000Y-109601000D01*
X145952002Y-109746803D01*
X146034592Y-109870408D01*
X148320592Y-112156408D01*
X148444197Y-112238998D01*
X148590000Y-112268000D01*
X149321184Y-112268000D01*
X153202906Y-116149722D01*
X153123900Y-116149722D01*
X153039186Y-116165662D01*
X152961382Y-116215728D01*
X152909185Y-116292120D01*
X152890822Y-116382800D01*
X152890822Y-119075200D01*
X152906762Y-119159914D01*
X152956828Y-119237718D01*
X153033220Y-119289915D01*
X153123900Y-119308278D01*
X154114500Y-119308278D01*
X154199214Y-119292338D01*
X154277018Y-119242272D01*
X154329215Y-119165880D01*
X154347578Y-119075200D01*
X154347578Y-116382800D01*
X154331638Y-116298086D01*
X154281572Y-116220282D01*
X154205180Y-116168085D01*
X154114500Y-116149722D01*
X154000200Y-116149722D01*
X154000200Y-116027200D01*
X153998937Y-116020850D01*
X153971198Y-115881397D01*
X153888608Y-115757792D01*
X149748408Y-111617592D01*
X149624803Y-111535002D01*
X149479000Y-111506000D01*
X148747816Y-111506000D01*
X146746831Y-109505015D01*
X146824823Y-109537400D01*
X147052180Y-109537599D01*
X147217338Y-109469356D01*
X147222002Y-109492803D01*
X147304592Y-109616408D01*
X148701590Y-111013405D01*
X148701592Y-111013408D01*
X148774023Y-111061804D01*
X148825197Y-111095998D01*
X148971000Y-111125000D01*
X149733000Y-111125000D01*
X149878803Y-111095998D01*
X150002408Y-111013408D01*
X150031636Y-110984180D01*
X152336401Y-110984180D01*
X152423224Y-111194306D01*
X152583849Y-111355211D01*
X152793823Y-111442400D01*
X153021180Y-111442599D01*
X153231306Y-111355776D01*
X153335263Y-111252000D01*
X153660922Y-111252000D01*
X153660922Y-111521000D01*
X153676862Y-111605714D01*
X153726928Y-111683518D01*
X153803320Y-111735715D01*
X153894000Y-111754078D01*
X154594000Y-111754078D01*
X154678714Y-111738138D01*
X154756518Y-111688072D01*
X154808715Y-111611680D01*
X154827078Y-111521000D01*
X154827078Y-110221000D01*
X154811138Y-110136286D01*
X154761072Y-110058482D01*
X154684680Y-110006285D01*
X154594000Y-109987922D01*
X153894000Y-109987922D01*
X153809286Y-110003862D01*
X153731482Y-110053928D01*
X153679285Y-110130320D01*
X153660922Y-110221000D01*
X153660922Y-110490000D01*
X153335182Y-110490000D01*
X153232151Y-110386789D01*
X153022177Y-110299600D01*
X152794820Y-110299401D01*
X152584694Y-110386224D01*
X152423789Y-110546849D01*
X152336600Y-110756823D01*
X152336401Y-110984180D01*
X150031636Y-110984180D01*
X152049816Y-108966000D01*
X153587922Y-108966000D01*
X153587922Y-109210000D01*
X153603862Y-109294714D01*
X153653928Y-109372518D01*
X153730320Y-109424715D01*
X153821000Y-109443078D01*
X154821000Y-109443078D01*
X154905714Y-109427138D01*
X154983518Y-109377072D01*
X155035715Y-109300680D01*
X155054078Y-109210000D01*
X155054078Y-108908850D01*
X155236800Y-108908850D01*
X155236800Y-109326204D01*
X155325739Y-109540922D01*
X155490077Y-109705261D01*
X155704795Y-109794200D01*
X155997150Y-109794200D01*
X156143200Y-109648150D01*
X156143200Y-108762800D01*
X156498800Y-108762800D01*
X156498800Y-109648150D01*
X156644850Y-109794200D01*
X156937205Y-109794200D01*
X157151923Y-109705261D01*
X157316261Y-109540922D01*
X157405200Y-109326204D01*
X157405200Y-108908850D01*
X157259150Y-108762800D01*
X156498800Y-108762800D01*
X156143200Y-108762800D01*
X155382850Y-108762800D01*
X155236800Y-108908850D01*
X155054078Y-108908850D01*
X155054078Y-107960000D01*
X155038138Y-107875286D01*
X154988072Y-107797482D01*
X154911680Y-107745285D01*
X154821000Y-107726922D01*
X153821000Y-107726922D01*
X153736286Y-107742862D01*
X153658482Y-107792928D01*
X153606285Y-107869320D01*
X153587922Y-107960000D01*
X153587922Y-108204000D01*
X152049816Y-108204000D01*
X153533922Y-106719894D01*
X153533922Y-106949000D01*
X153549862Y-107033714D01*
X153599928Y-107111518D01*
X153676320Y-107163715D01*
X153767000Y-107182078D01*
X154467000Y-107182078D01*
X154551714Y-107166138D01*
X154629518Y-107116072D01*
X154681715Y-107039680D01*
X154700078Y-106949000D01*
X154700078Y-106622850D01*
X155082800Y-106622850D01*
X155082800Y-107065204D01*
X155171739Y-107279922D01*
X155336077Y-107444261D01*
X155459452Y-107495364D01*
X155325739Y-107629078D01*
X155236800Y-107843796D01*
X155236800Y-108261150D01*
X155382850Y-108407200D01*
X156143200Y-108407200D01*
X156143200Y-108387200D01*
X156498800Y-108387200D01*
X156498800Y-108407200D01*
X157259150Y-108407200D01*
X157405200Y-108261150D01*
X157405200Y-107843796D01*
X157316261Y-107629078D01*
X157151923Y-107464739D01*
X156937205Y-107375800D01*
X156766384Y-107375800D01*
X156862261Y-107279922D01*
X156951200Y-107065204D01*
X156951200Y-106622850D01*
X156805150Y-106476800D01*
X156192000Y-106476800D01*
X156192000Y-106496800D01*
X155842000Y-106496800D01*
X155842000Y-106476800D01*
X155228850Y-106476800D01*
X155082800Y-106622850D01*
X154700078Y-106622850D01*
X154700078Y-105649000D01*
X154684138Y-105564286D01*
X154663875Y-105532796D01*
X155082800Y-105532796D01*
X155082800Y-105975150D01*
X155228850Y-106121200D01*
X155842000Y-106121200D01*
X155842000Y-105210850D01*
X156192000Y-105210850D01*
X156192000Y-106121200D01*
X156805150Y-106121200D01*
X156951200Y-105975150D01*
X156951200Y-105532796D01*
X156862261Y-105318078D01*
X156697923Y-105153739D01*
X156483205Y-105064800D01*
X156338050Y-105064800D01*
X156192000Y-105210850D01*
X155842000Y-105210850D01*
X155695950Y-105064800D01*
X155550795Y-105064800D01*
X155336077Y-105153739D01*
X155171739Y-105318078D01*
X155082800Y-105532796D01*
X154663875Y-105532796D01*
X154634072Y-105486482D01*
X154557680Y-105434285D01*
X154467000Y-105415922D01*
X153767000Y-105415922D01*
X153682286Y-105431862D01*
X153604482Y-105481928D01*
X153552285Y-105558320D01*
X153533922Y-105649000D01*
X153533922Y-105918000D01*
X153416005Y-105918000D01*
X153416000Y-105917999D01*
X153270198Y-105947002D01*
X153146592Y-106029592D01*
X149352000Y-109824184D01*
X148513800Y-108985984D01*
X148513800Y-108762467D01*
X148621795Y-108807200D01*
X148654450Y-108807200D01*
X148800500Y-108661150D01*
X148800500Y-107625800D01*
X148925500Y-107625800D01*
X148925500Y-108661150D01*
X149071550Y-108807200D01*
X149104205Y-108807200D01*
X149318923Y-108718261D01*
X149483261Y-108553922D01*
X149572200Y-108339204D01*
X149572200Y-107771850D01*
X149426150Y-107625800D01*
X148925500Y-107625800D01*
X148800500Y-107625800D01*
X148738000Y-107625800D01*
X148738000Y-107270200D01*
X148800500Y-107270200D01*
X148800500Y-106234850D01*
X148925500Y-106234850D01*
X148925500Y-107270200D01*
X149426150Y-107270200D01*
X149572200Y-107124150D01*
X149572200Y-106556796D01*
X149483261Y-106342078D01*
X149318923Y-106177739D01*
X149104205Y-106088800D01*
X149071550Y-106088800D01*
X148925500Y-106234850D01*
X148800500Y-106234850D01*
X148654450Y-106088800D01*
X148621795Y-106088800D01*
X148407077Y-106177739D01*
X148242739Y-106342078D01*
X148202211Y-106439922D01*
X148088000Y-106439922D01*
X148003286Y-106455862D01*
X147925482Y-106505928D01*
X147887712Y-106561206D01*
X147855072Y-106510482D01*
X147778680Y-106458285D01*
X147688000Y-106439922D01*
X147438000Y-106439922D01*
X147353286Y-106455862D01*
X147275482Y-106505928D01*
X147237712Y-106561206D01*
X147205072Y-106510482D01*
X147128680Y-106458285D01*
X147038000Y-106439922D01*
X146788000Y-106439922D01*
X146703286Y-106455862D01*
X146625482Y-106505928D01*
X146587712Y-106561206D01*
X146555072Y-106510482D01*
X146478680Y-106458285D01*
X146388000Y-106439922D01*
X146273789Y-106439922D01*
X146233261Y-106342078D01*
X146068923Y-106177739D01*
X145854205Y-106088800D01*
X145821550Y-106088800D01*
X145675500Y-106234850D01*
X145550500Y-106234850D01*
X145404450Y-106088800D01*
X145371795Y-106088800D01*
X145288000Y-106123509D01*
X145204205Y-106088800D01*
X145171550Y-106088800D01*
X145025500Y-106234850D01*
X145025500Y-106309317D01*
X144992739Y-106342078D01*
X144903800Y-106556796D01*
X144900500Y-106556796D01*
X144900500Y-106234850D01*
X144754450Y-106088800D01*
X144721795Y-106088800D01*
X144507077Y-106177739D01*
X144342739Y-106342078D01*
X144302211Y-106439922D01*
X144188000Y-106439922D01*
X144103286Y-106455862D01*
X144025482Y-106505928D01*
X143987712Y-106561206D01*
X143955072Y-106510482D01*
X143878680Y-106458285D01*
X143788000Y-106439922D01*
X143538000Y-106439922D01*
X143453286Y-106455862D01*
X143375482Y-106505928D01*
X143337712Y-106561206D01*
X143305072Y-106510482D01*
X143228680Y-106458285D01*
X143138000Y-106439922D01*
X142888000Y-106439922D01*
X142803286Y-106455862D01*
X142725482Y-106505928D01*
X142687712Y-106561206D01*
X142655072Y-106510482D01*
X142578680Y-106458285D01*
X142488000Y-106439922D01*
X142238000Y-106439922D01*
X142153286Y-106455862D01*
X142075482Y-106505928D01*
X142037712Y-106561206D01*
X142005072Y-106510482D01*
X141928680Y-106458285D01*
X141838000Y-106439922D01*
X141588000Y-106439922D01*
X141503286Y-106455862D01*
X141425482Y-106505928D01*
X141373285Y-106582320D01*
X141354922Y-106673000D01*
X141354922Y-107067000D01*
X138638325Y-107067000D01*
X138623138Y-106986286D01*
X138573072Y-106908482D01*
X138496680Y-106856285D01*
X138406000Y-106837922D01*
X137406000Y-106837922D01*
X137321286Y-106853862D01*
X137243482Y-106903928D01*
X137191285Y-106980320D01*
X137172922Y-107071000D01*
X137172922Y-108321000D01*
X137188862Y-108405714D01*
X137238928Y-108483518D01*
X137315320Y-108535715D01*
X137406000Y-108554078D01*
X138406000Y-108554078D01*
X138490714Y-108538138D01*
X138568518Y-108488072D01*
X138620715Y-108411680D01*
X138639078Y-108321000D01*
X138639078Y-107829000D01*
X141354922Y-107829000D01*
X141354922Y-108223000D01*
X141370862Y-108307714D01*
X141420928Y-108385518D01*
X141497320Y-108437715D01*
X141588000Y-108456078D01*
X141838000Y-108456078D01*
X141922714Y-108440138D01*
X142000518Y-108390072D01*
X142038288Y-108334794D01*
X142058200Y-108365738D01*
X142058200Y-108589748D01*
X140970748Y-109677200D01*
X138639078Y-109677200D01*
X138639078Y-109357000D01*
X138623138Y-109272286D01*
X138573072Y-109194482D01*
X138496680Y-109142285D01*
X138406000Y-109123922D01*
X137406000Y-109123922D01*
X137321286Y-109139862D01*
X137243482Y-109189928D01*
X137191285Y-109266320D01*
X137172922Y-109357000D01*
X137172922Y-110607000D01*
X137188862Y-110691714D01*
X137238928Y-110769518D01*
X137315320Y-110821715D01*
X137406000Y-110840078D01*
X138406000Y-110840078D01*
X138490714Y-110824138D01*
X138568518Y-110774072D01*
X138620715Y-110697680D01*
X138639078Y-110607000D01*
X138639078Y-110286800D01*
X141097000Y-110286800D01*
X141213642Y-110263598D01*
X141312526Y-110197526D01*
X142578526Y-108931526D01*
X142644598Y-108832642D01*
X142667800Y-108716000D01*
X142667800Y-108364779D01*
X142688288Y-108334794D01*
X142708200Y-108365738D01*
X142708200Y-108924557D01*
X142551694Y-108989224D01*
X142390789Y-109149849D01*
X142352429Y-109242230D01*
X139987058Y-111607600D01*
X138252200Y-111607600D01*
X138048077Y-111648203D01*
X137875029Y-111763829D01*
X128917136Y-120721722D01*
X127330200Y-120721722D01*
X127245486Y-120737662D01*
X127167682Y-120787728D01*
X127115485Y-120864120D01*
X127097122Y-120954800D01*
X120552878Y-120954800D01*
X120536938Y-120870086D01*
X120486872Y-120792282D01*
X120410480Y-120740085D01*
X120319800Y-120721722D01*
X118211600Y-120721722D01*
X118126886Y-120737662D01*
X118049082Y-120787728D01*
X117996885Y-120864120D01*
X117978522Y-120954800D01*
X108037032Y-120954800D01*
X107905633Y-120636791D01*
X107305965Y-120036076D01*
X106522061Y-119710571D01*
X105673263Y-119709830D01*
X104888791Y-120033967D01*
X104594872Y-120327374D01*
X103047800Y-118780302D01*
X103047800Y-118409462D01*
X103407724Y-118050165D01*
X103733229Y-117266261D01*
X103733970Y-116417463D01*
X103409833Y-115632991D01*
X103047800Y-115270326D01*
X103047800Y-115026698D01*
X104658303Y-113416195D01*
X104885635Y-113643924D01*
X105669539Y-113969429D01*
X106518337Y-113970170D01*
X107302809Y-113646033D01*
X107903524Y-113046365D01*
X108057977Y-112674400D01*
X109655470Y-112674400D01*
X109440105Y-112818303D01*
X106958055Y-115300353D01*
X106445943Y-115087705D01*
X105748716Y-115087097D01*
X105104329Y-115353352D01*
X104610885Y-115845936D01*
X104343505Y-116489857D01*
X104342897Y-117187084D01*
X104609152Y-117831471D01*
X105101736Y-118324915D01*
X105745657Y-118592295D01*
X106442884Y-118592903D01*
X107087271Y-118326648D01*
X107580715Y-117834064D01*
X107848095Y-117190143D01*
X107848452Y-116780744D01*
X108170196Y-116459000D01*
X117978522Y-116459000D01*
X117978522Y-118567200D01*
X117994462Y-118651914D01*
X118044528Y-118729718D01*
X118120920Y-118781915D01*
X118211600Y-118800278D01*
X120319800Y-118800278D01*
X120404514Y-118784338D01*
X120482318Y-118734272D01*
X120534515Y-118657880D01*
X120552878Y-118567200D01*
X120552878Y-117836950D01*
X126746000Y-117836950D01*
X126746000Y-118683405D01*
X126834939Y-118898123D01*
X126999278Y-119062461D01*
X127213996Y-119151400D01*
X128060450Y-119151400D01*
X128206500Y-119005350D01*
X128206500Y-117690900D01*
X128562100Y-117690900D01*
X128562100Y-119005350D01*
X128708150Y-119151400D01*
X129554604Y-119151400D01*
X129769322Y-119062461D01*
X129933661Y-118898123D01*
X130022600Y-118683405D01*
X130022600Y-117836950D01*
X129876550Y-117690900D01*
X128562100Y-117690900D01*
X128206500Y-117690900D01*
X126892050Y-117690900D01*
X126746000Y-117836950D01*
X120552878Y-117836950D01*
X120552878Y-116459000D01*
X120536938Y-116374286D01*
X120516674Y-116342795D01*
X126746000Y-116342795D01*
X126746000Y-117189250D01*
X126892050Y-117335300D01*
X128206500Y-117335300D01*
X128206500Y-116020850D01*
X128562100Y-116020850D01*
X128562100Y-117335300D01*
X129876550Y-117335300D01*
X130022600Y-117189250D01*
X130022600Y-116342795D01*
X129933661Y-116128077D01*
X129769322Y-115963739D01*
X129554604Y-115874800D01*
X128708150Y-115874800D01*
X128562100Y-116020850D01*
X128206500Y-116020850D01*
X128060450Y-115874800D01*
X127213996Y-115874800D01*
X126999278Y-115963739D01*
X126834939Y-116128077D01*
X126746000Y-116342795D01*
X120516674Y-116342795D01*
X120486872Y-116296482D01*
X120410480Y-116244285D01*
X120319800Y-116225922D01*
X118211600Y-116225922D01*
X118126886Y-116241862D01*
X118049082Y-116291928D01*
X117996885Y-116368320D01*
X117978522Y-116459000D01*
X108170196Y-116459000D01*
X110379996Y-114249200D01*
X129540000Y-114249200D01*
X129860766Y-114185396D01*
X130132697Y-114003697D01*
X133316194Y-110820200D01*
X135313103Y-110820200D01*
X135315320Y-110821715D01*
X135406000Y-110840078D01*
X136406000Y-110840078D01*
X136490714Y-110824138D01*
X136568518Y-110774072D01*
X136620715Y-110697680D01*
X136639078Y-110607000D01*
X136639078Y-110364602D01*
X136680396Y-110302765D01*
X136744200Y-109982000D01*
X136680396Y-109661235D01*
X136639078Y-109599398D01*
X136639078Y-109357000D01*
X136623138Y-109272286D01*
X136573072Y-109194482D01*
X136496680Y-109142285D01*
X136406000Y-109123922D01*
X135406000Y-109123922D01*
X135321286Y-109139862D01*
X135315166Y-109143800D01*
X132969000Y-109143800D01*
X132648234Y-109207604D01*
X132631827Y-109218567D01*
X133316194Y-108534200D01*
X135313103Y-108534200D01*
X135315320Y-108535715D01*
X135406000Y-108554078D01*
X136406000Y-108554078D01*
X136490714Y-108538138D01*
X136568518Y-108488072D01*
X136620715Y-108411680D01*
X136639078Y-108321000D01*
X136639078Y-108078602D01*
X136680396Y-108016765D01*
X136744200Y-107696000D01*
X136680396Y-107375235D01*
X136639078Y-107313398D01*
X136639078Y-107071000D01*
X136623138Y-106986286D01*
X136573072Y-106908482D01*
X136496680Y-106856285D01*
X136406000Y-106837922D01*
X135406000Y-106837922D01*
X135321286Y-106853862D01*
X135315166Y-106857800D01*
X132969000Y-106857800D01*
X132648234Y-106921604D01*
X132376303Y-107103303D01*
X128481606Y-110998000D01*
X108058022Y-110998000D01*
X107905633Y-110629191D01*
X107305965Y-110028476D01*
X106522061Y-109702971D01*
X105673263Y-109702230D01*
X104888791Y-110026367D01*
X104526126Y-110388400D01*
X104190800Y-110388400D01*
X103757483Y-110474592D01*
X103636750Y-110498607D01*
X103167050Y-110812451D01*
X100576251Y-113403251D01*
X100262407Y-113872951D01*
X100152200Y-114427000D01*
X100152200Y-115270538D01*
X99792276Y-115629835D01*
X99466771Y-116413739D01*
X99466030Y-117262537D01*
X98855600Y-117262537D01*
X98855600Y-102022537D01*
X99466030Y-102022537D01*
X99790167Y-102807009D01*
X100152200Y-103169674D01*
X100152200Y-103505000D01*
X100262407Y-104059049D01*
X100576251Y-104528749D01*
X103675051Y-107627549D01*
X104144751Y-107941393D01*
X104483609Y-108008796D01*
X104885635Y-108411524D01*
X105669539Y-108737029D01*
X106518337Y-108737770D01*
X107302809Y-108413633D01*
X107903524Y-107813965D01*
X108229029Y-107030061D01*
X108229770Y-106181263D01*
X108075966Y-105809028D01*
X109922794Y-103962200D01*
X133604000Y-103962200D01*
X133924766Y-103898396D01*
X134196697Y-103716697D01*
X134967194Y-102946200D01*
X135440103Y-102946200D01*
X135442320Y-102947715D01*
X135533000Y-102966078D01*
X136533000Y-102966078D01*
X136617714Y-102950138D01*
X136695518Y-102900072D01*
X136747715Y-102823680D01*
X136766078Y-102733000D01*
X136766078Y-102490602D01*
X136807396Y-102428765D01*
X136871200Y-102108000D01*
X136807396Y-101787235D01*
X136766078Y-101725398D01*
X136766078Y-101483000D01*
X136750138Y-101398286D01*
X136700072Y-101320482D01*
X136623680Y-101268285D01*
X136533000Y-101249922D01*
X135533000Y-101249922D01*
X135448286Y-101265862D01*
X135442166Y-101269800D01*
X134620000Y-101269800D01*
X134299234Y-101333604D01*
X134027303Y-101515303D01*
X133256806Y-102285800D01*
X132152359Y-102285800D01*
X132291697Y-102192697D01*
X133824194Y-100660200D01*
X135440103Y-100660200D01*
X135442320Y-100661715D01*
X135533000Y-100680078D01*
X136533000Y-100680078D01*
X136617714Y-100664138D01*
X136695518Y-100614072D01*
X136747715Y-100537680D01*
X136766078Y-100447000D01*
X136766078Y-100204602D01*
X136807396Y-100142765D01*
X136871200Y-99822000D01*
X136807396Y-99501235D01*
X136766078Y-99439398D01*
X136766078Y-99197000D01*
X137299922Y-99197000D01*
X137299922Y-100447000D01*
X137315862Y-100531714D01*
X137365928Y-100609518D01*
X137442320Y-100661715D01*
X137533000Y-100680078D01*
X138533000Y-100680078D01*
X138617714Y-100664138D01*
X138695518Y-100614072D01*
X138747715Y-100537680D01*
X138766078Y-100447000D01*
X138766078Y-100203000D01*
X141574184Y-100203000D01*
X142062200Y-100691015D01*
X142062200Y-100925367D01*
X142037712Y-100961206D01*
X142005072Y-100910482D01*
X141928680Y-100858285D01*
X141838000Y-100839922D01*
X141588000Y-100839922D01*
X141503286Y-100855862D01*
X141425482Y-100905928D01*
X141373285Y-100982320D01*
X141354922Y-101073000D01*
X141354922Y-101667263D01*
X141295184Y-101727000D01*
X138766078Y-101727000D01*
X138766078Y-101483000D01*
X138750138Y-101398286D01*
X138700072Y-101320482D01*
X138623680Y-101268285D01*
X138533000Y-101249922D01*
X137533000Y-101249922D01*
X137448286Y-101265862D01*
X137370482Y-101315928D01*
X137318285Y-101392320D01*
X137299922Y-101483000D01*
X137299922Y-102733000D01*
X137315862Y-102817714D01*
X137365928Y-102895518D01*
X137442320Y-102947715D01*
X137533000Y-102966078D01*
X138533000Y-102966078D01*
X138617714Y-102950138D01*
X138695518Y-102900072D01*
X138747715Y-102823680D01*
X138766078Y-102733000D01*
X138766078Y-102489000D01*
X141354922Y-102489000D01*
X141354922Y-102623000D01*
X141370862Y-102707714D01*
X141420928Y-102785518D01*
X141497320Y-102837715D01*
X141588000Y-102856078D01*
X141838000Y-102856078D01*
X141922714Y-102840138D01*
X142000518Y-102790072D01*
X142038288Y-102734794D01*
X142070928Y-102785518D01*
X142147320Y-102837715D01*
X142238000Y-102856078D01*
X142488000Y-102856078D01*
X142572714Y-102840138D01*
X142650518Y-102790072D01*
X142688288Y-102734794D01*
X142720928Y-102785518D01*
X142797320Y-102837715D01*
X142888000Y-102856078D01*
X143138000Y-102856078D01*
X143222714Y-102840138D01*
X143300518Y-102790072D01*
X143338288Y-102734794D01*
X143370928Y-102785518D01*
X143447320Y-102837715D01*
X143538000Y-102856078D01*
X143788000Y-102856078D01*
X143872714Y-102840138D01*
X143950518Y-102790072D01*
X143988288Y-102734794D01*
X144020928Y-102785518D01*
X144097320Y-102837715D01*
X144188000Y-102856078D01*
X144438000Y-102856078D01*
X144522714Y-102840138D01*
X144600518Y-102790072D01*
X144638288Y-102734794D01*
X144670928Y-102785518D01*
X144747320Y-102837715D01*
X144838000Y-102856078D01*
X144952211Y-102856078D01*
X144992739Y-102953922D01*
X145157077Y-103118261D01*
X145371795Y-103207200D01*
X145404450Y-103207200D01*
X145550500Y-103061150D01*
X145550500Y-102025800D01*
X145488000Y-102025800D01*
X145488000Y-101670200D01*
X145550500Y-101670200D01*
X145550500Y-100634850D01*
X145404450Y-100488800D01*
X145371795Y-100488800D01*
X145267800Y-100531876D01*
X145267800Y-100431554D01*
X145288001Y-100330000D01*
X145258998Y-100184198D01*
X145176408Y-100060593D01*
X144526000Y-99410184D01*
X144526000Y-99060000D01*
X144555002Y-99205803D01*
X144637592Y-99329408D01*
X145809267Y-100501083D01*
X145675500Y-100634850D01*
X145675500Y-101670200D01*
X145738000Y-101670200D01*
X145738000Y-102025800D01*
X145675500Y-102025800D01*
X145675500Y-103061150D01*
X145821550Y-103207200D01*
X145854205Y-103207200D01*
X146068923Y-103118261D01*
X146233261Y-102953922D01*
X146273789Y-102856078D01*
X146388000Y-102856078D01*
X146472714Y-102840138D01*
X146550518Y-102790072D01*
X146588288Y-102734794D01*
X146620928Y-102785518D01*
X146697320Y-102837715D01*
X146788000Y-102856078D01*
X147038000Y-102856078D01*
X147122714Y-102840138D01*
X147200518Y-102790072D01*
X147238288Y-102734794D01*
X147270928Y-102785518D01*
X147347320Y-102837715D01*
X147438000Y-102856078D01*
X147688000Y-102856078D01*
X147772714Y-102840138D01*
X147850518Y-102790072D01*
X147888288Y-102734794D01*
X147920928Y-102785518D01*
X147997320Y-102837715D01*
X148088000Y-102856078D01*
X148338000Y-102856078D01*
X148422714Y-102840138D01*
X148500518Y-102790072D01*
X148538288Y-102734794D01*
X148570928Y-102785518D01*
X148647320Y-102837715D01*
X148738000Y-102856078D01*
X148988000Y-102856078D01*
X149072714Y-102840138D01*
X149150518Y-102790072D01*
X149202715Y-102713680D01*
X149221078Y-102623000D01*
X149221078Y-101073000D01*
X149205138Y-100988286D01*
X149167800Y-100930262D01*
X149167800Y-99884142D01*
X152641827Y-103358168D01*
X152641829Y-103358171D01*
X152771427Y-103444765D01*
X152814877Y-103473797D01*
X153019000Y-103514401D01*
X153019005Y-103514400D01*
X153961207Y-103514400D01*
X153970862Y-103565714D01*
X154020928Y-103643518D01*
X154097320Y-103695715D01*
X154188000Y-103714078D01*
X155438000Y-103714078D01*
X155522714Y-103698138D01*
X155600518Y-103648072D01*
X155652715Y-103571680D01*
X155664314Y-103514400D01*
X156735058Y-103514400D01*
X158089600Y-104868942D01*
X158089600Y-109634058D01*
X157386058Y-110337600D01*
X156727078Y-110337600D01*
X156727078Y-110221000D01*
X156711138Y-110136286D01*
X156661072Y-110058482D01*
X156584680Y-110006285D01*
X156494000Y-109987922D01*
X155794000Y-109987922D01*
X155709286Y-110003862D01*
X155631482Y-110053928D01*
X155579285Y-110130320D01*
X155560922Y-110221000D01*
X155560922Y-111521000D01*
X155576862Y-111605714D01*
X155626928Y-111683518D01*
X155703320Y-111735715D01*
X155794000Y-111754078D01*
X156494000Y-111754078D01*
X156578714Y-111738138D01*
X156656518Y-111688072D01*
X156708715Y-111611680D01*
X156727078Y-111521000D01*
X156727078Y-111404400D01*
X157607000Y-111404400D01*
X157811123Y-111363797D01*
X157984171Y-111248171D01*
X159000171Y-110232171D01*
X159115797Y-110059123D01*
X159156400Y-109855000D01*
X159156400Y-104648000D01*
X159115797Y-104443877D01*
X159000171Y-104270829D01*
X157333171Y-102603829D01*
X157160123Y-102488203D01*
X156956000Y-102447600D01*
X155664793Y-102447600D01*
X155655138Y-102396286D01*
X155605072Y-102318482D01*
X155528680Y-102266285D01*
X155438000Y-102247922D01*
X154188000Y-102247922D01*
X154103286Y-102263862D01*
X154025482Y-102313928D01*
X153973285Y-102390320D01*
X153961686Y-102447600D01*
X153239941Y-102447600D01*
X152097191Y-101304850D01*
X153603800Y-101304850D01*
X153603800Y-101597205D01*
X153692739Y-101811923D01*
X153857078Y-101976261D01*
X154071796Y-102065200D01*
X154489150Y-102065200D01*
X154635200Y-101919150D01*
X154635200Y-101158800D01*
X154990800Y-101158800D01*
X154990800Y-101919150D01*
X155136850Y-102065200D01*
X155554204Y-102065200D01*
X155768922Y-101976261D01*
X155933261Y-101811923D01*
X156022200Y-101597205D01*
X156022200Y-101304850D01*
X155876150Y-101158800D01*
X154990800Y-101158800D01*
X154635200Y-101158800D01*
X153749850Y-101158800D01*
X153603800Y-101304850D01*
X152097191Y-101304850D01*
X151157136Y-100364795D01*
X153603800Y-100364795D01*
X153603800Y-100657150D01*
X153749850Y-100803200D01*
X154635200Y-100803200D01*
X154635200Y-100042850D01*
X154990800Y-100042850D01*
X154990800Y-100803200D01*
X155876150Y-100803200D01*
X156022200Y-100657150D01*
X156022200Y-100364795D01*
X155933261Y-100150077D01*
X155768922Y-99985739D01*
X155554204Y-99896800D01*
X155136850Y-99896800D01*
X154990800Y-100042850D01*
X154635200Y-100042850D01*
X154489150Y-99896800D01*
X154071796Y-99896800D01*
X153857078Y-99985739D01*
X153692739Y-100150077D01*
X153603800Y-100364795D01*
X151157136Y-100364795D01*
X149727663Y-98935322D01*
X149758241Y-98861683D01*
X149758558Y-98497913D01*
X149619642Y-98161711D01*
X149362642Y-97904262D01*
X149026683Y-97764759D01*
X148662913Y-97764442D01*
X148326711Y-97903358D01*
X148132800Y-98096931D01*
X148132800Y-97535252D01*
X148589252Y-97078800D01*
X152063922Y-97078800D01*
X152063922Y-97399000D01*
X152079862Y-97483714D01*
X152129928Y-97561518D01*
X152206320Y-97613715D01*
X152297000Y-97632078D01*
X153297000Y-97632078D01*
X153381714Y-97616138D01*
X153459518Y-97566072D01*
X153511715Y-97489680D01*
X153530078Y-97399000D01*
X153530078Y-97097850D01*
X153712800Y-97097850D01*
X153712800Y-97515204D01*
X153801739Y-97729922D01*
X153966077Y-97894261D01*
X154180795Y-97983200D01*
X154473150Y-97983200D01*
X154619200Y-97837150D01*
X154619200Y-96951800D01*
X154974800Y-96951800D01*
X154974800Y-97837150D01*
X155120850Y-97983200D01*
X155413205Y-97983200D01*
X155627923Y-97894261D01*
X155792261Y-97729922D01*
X155881200Y-97515204D01*
X155881200Y-97097850D01*
X155735150Y-96951800D01*
X154974800Y-96951800D01*
X154619200Y-96951800D01*
X153858850Y-96951800D01*
X153712800Y-97097850D01*
X153530078Y-97097850D01*
X153530078Y-96149000D01*
X153514138Y-96064286D01*
X153493875Y-96032796D01*
X153712800Y-96032796D01*
X153712800Y-96450150D01*
X153858850Y-96596200D01*
X154619200Y-96596200D01*
X154619200Y-95710850D01*
X154974800Y-95710850D01*
X154974800Y-96596200D01*
X155735150Y-96596200D01*
X155881200Y-96450150D01*
X155881200Y-96032796D01*
X155792261Y-95818078D01*
X155627923Y-95653739D01*
X155413205Y-95564800D01*
X155120850Y-95564800D01*
X154974800Y-95710850D01*
X154619200Y-95710850D01*
X154473150Y-95564800D01*
X154180795Y-95564800D01*
X153966077Y-95653739D01*
X153801739Y-95818078D01*
X153712800Y-96032796D01*
X153493875Y-96032796D01*
X153464072Y-95986482D01*
X153387680Y-95934285D01*
X153297000Y-95915922D01*
X152334737Y-95915922D01*
X151701471Y-95282656D01*
X151701599Y-95136820D01*
X151614776Y-94926694D01*
X151454151Y-94765789D01*
X151244177Y-94678600D01*
X151016820Y-94678401D01*
X150806694Y-94765224D01*
X150645789Y-94925849D01*
X150558600Y-95135823D01*
X150558401Y-95363180D01*
X150645224Y-95573306D01*
X150805849Y-95734211D01*
X151015823Y-95821400D01*
X151162713Y-95821529D01*
X151810385Y-96469200D01*
X148463000Y-96469200D01*
X148346358Y-96492402D01*
X148270206Y-96543285D01*
X148247474Y-96558474D01*
X147612474Y-97193474D01*
X147546402Y-97292358D01*
X147523200Y-97409000D01*
X147523200Y-99568000D01*
X147546402Y-99684642D01*
X147612474Y-99783526D01*
X147908200Y-100079252D01*
X147908200Y-100931221D01*
X147887712Y-100961206D01*
X147855072Y-100910482D01*
X147778680Y-100858285D01*
X147688000Y-100839922D01*
X147438000Y-100839922D01*
X147353286Y-100855862D01*
X147275482Y-100905928D01*
X147237712Y-100961206D01*
X147217800Y-100930262D01*
X147217800Y-100885641D01*
X147389306Y-100814776D01*
X147550211Y-100654151D01*
X147637400Y-100444177D01*
X147637599Y-100216820D01*
X147550776Y-100006694D01*
X147447000Y-99902737D01*
X147447000Y-97893005D01*
X147447001Y-97893000D01*
X147439883Y-97857216D01*
X147445715Y-97848680D01*
X147464078Y-97758000D01*
X147464078Y-96758000D01*
X147448138Y-96673286D01*
X147398072Y-96595482D01*
X147321680Y-96543285D01*
X147231000Y-96524922D01*
X145631000Y-96524922D01*
X145546286Y-96540862D01*
X145468482Y-96590928D01*
X145416285Y-96667320D01*
X145397922Y-96758000D01*
X145397922Y-97758000D01*
X145413862Y-97842714D01*
X145463928Y-97920518D01*
X145540320Y-97972715D01*
X145631000Y-97991078D01*
X146625263Y-97991078D01*
X146685000Y-98050815D01*
X146685000Y-99902818D01*
X146581789Y-100005849D01*
X146515883Y-100164569D01*
X146446408Y-100060592D01*
X145288000Y-98902184D01*
X145288000Y-95241183D01*
X145300078Y-95253261D01*
X145514796Y-95342200D01*
X146107150Y-95342200D01*
X146253200Y-95196150D01*
X146253200Y-94435800D01*
X146608800Y-94435800D01*
X146608800Y-95196150D01*
X146754850Y-95342200D01*
X147347204Y-95342200D01*
X147561922Y-95253261D01*
X147726261Y-95088923D01*
X147815200Y-94874205D01*
X147815200Y-94581850D01*
X147669150Y-94435800D01*
X146608800Y-94435800D01*
X146253200Y-94435800D01*
X146233200Y-94435800D01*
X146233200Y-94080200D01*
X146253200Y-94080200D01*
X146253200Y-93319850D01*
X146608800Y-93319850D01*
X146608800Y-94080200D01*
X147669150Y-94080200D01*
X147815200Y-93934150D01*
X147815200Y-93641795D01*
X147726261Y-93427077D01*
X147561922Y-93262739D01*
X147347204Y-93173800D01*
X146754850Y-93173800D01*
X146608800Y-93319850D01*
X146253200Y-93319850D01*
X146107150Y-93173800D01*
X145514796Y-93173800D01*
X145300078Y-93262739D01*
X145288000Y-93274817D01*
X145288000Y-93248816D01*
X146407965Y-92128850D01*
X154746800Y-92128850D01*
X154746800Y-92421205D01*
X154835739Y-92635923D01*
X155000078Y-92800261D01*
X155214796Y-92889200D01*
X155632150Y-92889200D01*
X155778200Y-92743150D01*
X155778200Y-91982800D01*
X156133800Y-91982800D01*
X156133800Y-92743150D01*
X156279850Y-92889200D01*
X156697204Y-92889200D01*
X156911922Y-92800261D01*
X157076261Y-92635923D01*
X157165200Y-92421205D01*
X157165200Y-92128850D01*
X157019150Y-91982800D01*
X156133800Y-91982800D01*
X155778200Y-91982800D01*
X154892850Y-91982800D01*
X154746800Y-92128850D01*
X146407965Y-92128850D01*
X146461815Y-92075000D01*
X149479000Y-92075000D01*
X149624803Y-92045998D01*
X149748408Y-91963408D01*
X150523020Y-91188795D01*
X154746800Y-91188795D01*
X154746800Y-91481150D01*
X154892850Y-91627200D01*
X155778200Y-91627200D01*
X155778200Y-90866850D01*
X156133800Y-90866850D01*
X156133800Y-91627200D01*
X157019150Y-91627200D01*
X157165200Y-91481150D01*
X157165200Y-91188795D01*
X157076261Y-90974077D01*
X156911922Y-90809739D01*
X156697204Y-90720800D01*
X156279850Y-90720800D01*
X156133800Y-90866850D01*
X155778200Y-90866850D01*
X155632150Y-90720800D01*
X155214796Y-90720800D01*
X155000078Y-90809739D01*
X154835739Y-90974077D01*
X154746800Y-91188795D01*
X150523020Y-91188795D01*
X151221605Y-90490210D01*
X151221608Y-90490208D01*
X151228911Y-90479278D01*
X151447500Y-90479278D01*
X151532214Y-90463338D01*
X151610018Y-90413272D01*
X151662215Y-90336880D01*
X151680578Y-90246200D01*
X151680578Y-88891093D01*
X151768829Y-89023171D01*
X152684922Y-89939264D01*
X152684922Y-90273000D01*
X152700862Y-90357714D01*
X152750928Y-90435518D01*
X152827320Y-90487715D01*
X152918000Y-90506078D01*
X154168000Y-90506078D01*
X154252714Y-90490138D01*
X154330518Y-90440072D01*
X154382715Y-90363680D01*
X154401078Y-90273000D01*
X154401078Y-90154000D01*
X155097922Y-90154000D01*
X155097922Y-90305000D01*
X155113862Y-90389714D01*
X155163928Y-90467518D01*
X155240320Y-90519715D01*
X155331000Y-90538078D01*
X156581000Y-90538078D01*
X156665714Y-90522138D01*
X156743518Y-90472072D01*
X156795715Y-90395680D01*
X156814078Y-90305000D01*
X156814078Y-90186000D01*
X158500200Y-90186000D01*
X158591757Y-90646288D01*
X158861552Y-91050065D01*
X159265329Y-91319860D01*
X159741617Y-91414600D01*
X159790383Y-91414600D01*
X160266671Y-91319860D01*
X160670448Y-91050065D01*
X160940243Y-90646288D01*
X161034983Y-90170000D01*
X160940243Y-89693712D01*
X160670448Y-89289935D01*
X160266671Y-89020140D01*
X159790383Y-88925400D01*
X159741617Y-88925400D01*
X159265329Y-89020140D01*
X158861552Y-89289935D01*
X158771973Y-89424000D01*
X156814078Y-89424000D01*
X156814078Y-89305000D01*
X156798138Y-89220286D01*
X156748072Y-89142482D01*
X156671680Y-89090285D01*
X156581000Y-89071922D01*
X155331000Y-89071922D01*
X155246286Y-89087862D01*
X155168482Y-89137928D01*
X155116285Y-89214320D01*
X155097922Y-89305000D01*
X155097922Y-89392000D01*
X154401078Y-89392000D01*
X154401078Y-89273000D01*
X154385138Y-89188286D01*
X154335072Y-89110482D01*
X154258680Y-89058285D01*
X154168000Y-89039922D01*
X153294264Y-89039922D01*
X152679400Y-88425058D01*
X152679400Y-87139742D01*
X152710873Y-87171215D01*
X152703285Y-87182320D01*
X152684922Y-87273000D01*
X152684922Y-88273000D01*
X152700862Y-88357714D01*
X152750928Y-88435518D01*
X152827320Y-88487715D01*
X152918000Y-88506078D01*
X154168000Y-88506078D01*
X154252714Y-88490138D01*
X154330518Y-88440072D01*
X154382715Y-88363680D01*
X154401078Y-88273000D01*
X154401078Y-88122000D01*
X155097922Y-88122000D01*
X155097922Y-88241000D01*
X155113862Y-88325714D01*
X155163928Y-88403518D01*
X155240320Y-88455715D01*
X155331000Y-88474078D01*
X156581000Y-88474078D01*
X156665714Y-88458138D01*
X156743518Y-88408072D01*
X156795715Y-88331680D01*
X156814078Y-88241000D01*
X156814078Y-88011000D01*
X158516922Y-88011000D01*
X158516922Y-88646000D01*
X158532862Y-88730714D01*
X158582928Y-88808518D01*
X158659320Y-88860715D01*
X158750000Y-88879078D01*
X160782000Y-88879078D01*
X160866714Y-88863138D01*
X160944518Y-88813072D01*
X160996715Y-88736680D01*
X161015078Y-88646000D01*
X161015078Y-86614000D01*
X160999138Y-86529286D01*
X160949072Y-86451482D01*
X160872680Y-86399285D01*
X160782000Y-86380922D01*
X158750000Y-86380922D01*
X158665286Y-86396862D01*
X158587482Y-86446928D01*
X158535285Y-86523320D01*
X158516922Y-86614000D01*
X158516922Y-87249000D01*
X156814078Y-87249000D01*
X156814078Y-87241000D01*
X156798138Y-87156286D01*
X156748072Y-87078482D01*
X156671680Y-87026285D01*
X156581000Y-87007922D01*
X155331000Y-87007922D01*
X155246286Y-87023862D01*
X155168482Y-87073928D01*
X155116285Y-87150320D01*
X155097922Y-87241000D01*
X155097922Y-87360000D01*
X154401078Y-87360000D01*
X154401078Y-87273000D01*
X154385138Y-87188286D01*
X154335072Y-87110482D01*
X154258680Y-87058285D01*
X154168000Y-87039922D01*
X154032487Y-87039922D01*
X153920171Y-86871829D01*
X153113192Y-86064850D01*
X154746800Y-86064850D01*
X154746800Y-86357205D01*
X154835739Y-86571923D01*
X155000078Y-86736261D01*
X155214796Y-86825200D01*
X155632150Y-86825200D01*
X155778200Y-86679150D01*
X155778200Y-85918800D01*
X156133800Y-85918800D01*
X156133800Y-86679150D01*
X156279850Y-86825200D01*
X156697204Y-86825200D01*
X156911922Y-86736261D01*
X157076261Y-86571923D01*
X157165200Y-86357205D01*
X157165200Y-86064850D01*
X157019150Y-85918800D01*
X156133800Y-85918800D01*
X155778200Y-85918800D01*
X154892850Y-85918800D01*
X154746800Y-86064850D01*
X153113192Y-86064850D01*
X152650171Y-85601829D01*
X152477123Y-85486203D01*
X152273000Y-85445600D01*
X147701000Y-85445600D01*
X147496877Y-85486203D01*
X147323829Y-85601829D01*
X146257029Y-86668629D01*
X146141403Y-86841677D01*
X146100800Y-87045800D01*
X146100800Y-87327891D01*
X146054186Y-87336662D01*
X145976382Y-87386728D01*
X145924185Y-87463120D01*
X145905822Y-87553800D01*
X145905822Y-90246200D01*
X145921762Y-90330914D01*
X145971828Y-90408718D01*
X146048220Y-90460915D01*
X146138900Y-90479278D01*
X147129500Y-90479278D01*
X147214214Y-90463338D01*
X147292018Y-90413272D01*
X147344215Y-90336880D01*
X147362578Y-90246200D01*
X147362578Y-87553800D01*
X147346638Y-87469086D01*
X147296572Y-87391282D01*
X147220180Y-87339085D01*
X147167600Y-87328437D01*
X147167600Y-87266742D01*
X147921942Y-86512400D01*
X148572259Y-86512400D01*
X148390629Y-86694029D01*
X148275003Y-86867077D01*
X148234400Y-87071200D01*
X148234400Y-87327891D01*
X148187786Y-87336662D01*
X148109982Y-87386728D01*
X148057785Y-87463120D01*
X148039422Y-87553800D01*
X148039422Y-90246200D01*
X148055362Y-90330914D01*
X148105428Y-90408718D01*
X148181820Y-90460915D01*
X148272500Y-90479278D01*
X149263100Y-90479278D01*
X149347814Y-90463338D01*
X149425618Y-90413272D01*
X149477815Y-90336880D01*
X149496178Y-90246200D01*
X149496178Y-87553800D01*
X149480238Y-87469086D01*
X149430172Y-87391282D01*
X149353780Y-87339085D01*
X149301200Y-87328437D01*
X149301200Y-87292142D01*
X149318939Y-87274402D01*
X151612600Y-87274402D01*
X151612600Y-87389935D01*
X151538180Y-87339085D01*
X151447500Y-87320722D01*
X150456900Y-87320722D01*
X150372186Y-87336662D01*
X150294382Y-87386728D01*
X150242185Y-87463120D01*
X150223822Y-87553800D01*
X150223822Y-90246200D01*
X150239762Y-90330914D01*
X150264628Y-90369557D01*
X149321184Y-91313000D01*
X146304000Y-91313000D01*
X146158197Y-91342002D01*
X146108688Y-91375083D01*
X146034592Y-91424592D01*
X146034590Y-91424595D01*
X144637592Y-92821592D01*
X144555002Y-92945197D01*
X144533459Y-93053502D01*
X144526000Y-93091000D01*
X144526000Y-90479278D01*
X144945100Y-90479278D01*
X145029814Y-90463338D01*
X145107618Y-90413272D01*
X145159815Y-90336880D01*
X145178178Y-90246200D01*
X145178178Y-87553800D01*
X145162238Y-87469086D01*
X145112172Y-87391282D01*
X145035780Y-87339085D01*
X144945100Y-87320722D01*
X143954500Y-87320722D01*
X143869786Y-87336662D01*
X143791982Y-87386728D01*
X143739785Y-87463120D01*
X143721422Y-87553800D01*
X143721422Y-90246200D01*
X143737362Y-90330914D01*
X143764000Y-90372310D01*
X143764000Y-93215137D01*
X143664204Y-93173800D01*
X143071850Y-93173800D01*
X142925800Y-93319850D01*
X142925800Y-94080200D01*
X142945800Y-94080200D01*
X142945800Y-94435800D01*
X142925800Y-94435800D01*
X142925800Y-95196150D01*
X143071850Y-95342200D01*
X143664204Y-95342200D01*
X143764000Y-95300863D01*
X143764000Y-96671518D01*
X143715072Y-96595482D01*
X143638680Y-96543285D01*
X143548000Y-96524922D01*
X141948000Y-96524922D01*
X141863286Y-96540862D01*
X141785482Y-96590928D01*
X141733285Y-96667320D01*
X141714922Y-96758000D01*
X141714922Y-97758000D01*
X141730862Y-97842714D01*
X141780928Y-97920518D01*
X141857320Y-97972715D01*
X141948000Y-97991078D01*
X142367000Y-97991078D01*
X142367000Y-99918185D01*
X142001408Y-99552592D01*
X141877803Y-99470002D01*
X141732000Y-99441000D01*
X138766078Y-99441000D01*
X138766078Y-99197000D01*
X138750138Y-99112286D01*
X138700072Y-99034482D01*
X138623680Y-98982285D01*
X138533000Y-98963922D01*
X137533000Y-98963922D01*
X137448286Y-98979862D01*
X137370482Y-99029928D01*
X137318285Y-99106320D01*
X137299922Y-99197000D01*
X136766078Y-99197000D01*
X136750138Y-99112286D01*
X136700072Y-99034482D01*
X136623680Y-98982285D01*
X136533000Y-98963922D01*
X135533000Y-98963922D01*
X135448286Y-98979862D01*
X135442166Y-98983800D01*
X133477000Y-98983800D01*
X133156235Y-99047604D01*
X132884303Y-99229303D01*
X131351806Y-100761800D01*
X107645778Y-100761800D01*
X107582448Y-100608529D01*
X107089864Y-100115085D01*
X106445943Y-99847705D01*
X105748716Y-99847097D01*
X105104329Y-100113352D01*
X104610885Y-100605936D01*
X104343505Y-101249857D01*
X104342897Y-101947084D01*
X104609152Y-102591471D01*
X105101736Y-103084915D01*
X105745657Y-103352295D01*
X106442884Y-103352903D01*
X107087271Y-103086648D01*
X107580715Y-102594064D01*
X107645436Y-102438200D01*
X109122241Y-102438200D01*
X108982903Y-102531303D01*
X106890603Y-104623603D01*
X106522061Y-104470571D01*
X105673263Y-104469830D01*
X104922526Y-104780028D01*
X103179995Y-103037497D01*
X103407724Y-102810165D01*
X103733229Y-102026261D01*
X103733970Y-101177463D01*
X103460904Y-100516594D01*
X105371730Y-98605768D01*
X105669539Y-98729429D01*
X106518337Y-98730170D01*
X107302809Y-98406033D01*
X107903524Y-97806365D01*
X108229029Y-97022461D01*
X108229770Y-96173663D01*
X108162973Y-96012000D01*
X113000122Y-96012000D01*
X113000122Y-98044000D01*
X113016062Y-98128714D01*
X113066128Y-98206518D01*
X113142520Y-98258715D01*
X113233200Y-98277078D01*
X116890800Y-98277078D01*
X116975514Y-98261138D01*
X117053318Y-98211072D01*
X117105515Y-98134680D01*
X117123878Y-98044000D01*
X117123878Y-96012000D01*
X117107938Y-95927286D01*
X117057872Y-95849482D01*
X116981480Y-95797285D01*
X116890800Y-95778922D01*
X115595400Y-95778922D01*
X115595400Y-93286580D01*
X120325482Y-93286580D01*
X120325482Y-94485460D01*
X120341422Y-94570174D01*
X120391488Y-94647978D01*
X120467880Y-94700175D01*
X120558560Y-94718538D01*
X121757440Y-94718538D01*
X121842154Y-94702598D01*
X121919958Y-94652532D01*
X121972155Y-94576140D01*
X121990518Y-94485460D01*
X121990518Y-94419420D01*
X122560922Y-94419420D01*
X122560922Y-94518000D01*
X122576862Y-94602714D01*
X122626928Y-94680518D01*
X122703320Y-94732715D01*
X122794000Y-94751078D01*
X124094000Y-94751078D01*
X124178714Y-94735138D01*
X124256518Y-94685072D01*
X124308715Y-94608680D01*
X124314148Y-94581850D01*
X141363800Y-94581850D01*
X141363800Y-94874205D01*
X141452739Y-95088923D01*
X141617078Y-95253261D01*
X141831796Y-95342200D01*
X142424150Y-95342200D01*
X142570200Y-95196150D01*
X142570200Y-94435800D01*
X141509850Y-94435800D01*
X141363800Y-94581850D01*
X124314148Y-94581850D01*
X124327078Y-94518000D01*
X124327078Y-93818000D01*
X124311138Y-93733286D01*
X124261072Y-93655482D01*
X124241041Y-93641795D01*
X141363800Y-93641795D01*
X141363800Y-93934150D01*
X141509850Y-94080200D01*
X142570200Y-94080200D01*
X142570200Y-93319850D01*
X142424150Y-93173800D01*
X141831796Y-93173800D01*
X141617078Y-93262739D01*
X141452739Y-93427077D01*
X141363800Y-93641795D01*
X124241041Y-93641795D01*
X124184680Y-93603285D01*
X124094000Y-93584922D01*
X123615264Y-93584922D01*
X123539191Y-93508849D01*
X123366143Y-93393223D01*
X123162020Y-93352620D01*
X121990518Y-93352620D01*
X121990518Y-93286580D01*
X121974578Y-93201866D01*
X121924512Y-93124062D01*
X121848120Y-93071865D01*
X121757440Y-93053502D01*
X120558560Y-93053502D01*
X120473846Y-93069442D01*
X120396042Y-93119508D01*
X120343845Y-93195900D01*
X120325482Y-93286580D01*
X115595400Y-93286580D01*
X115595400Y-92989400D01*
X120489980Y-92989400D01*
X120694103Y-92948797D01*
X120867151Y-92833171D01*
X121079824Y-92620498D01*
X121757440Y-92620498D01*
X121842154Y-92604558D01*
X121866253Y-92589050D01*
X122209800Y-92589050D01*
X122209800Y-92734205D01*
X122298739Y-92948923D01*
X122463078Y-93113261D01*
X122677796Y-93202200D01*
X123120150Y-93202200D01*
X123266200Y-93056150D01*
X123266200Y-92443000D01*
X123621800Y-92443000D01*
X123621800Y-93056150D01*
X123767850Y-93202200D01*
X124210204Y-93202200D01*
X124424922Y-93113261D01*
X124589261Y-92948923D01*
X124678200Y-92734205D01*
X124678200Y-92589050D01*
X124532150Y-92443000D01*
X123621800Y-92443000D01*
X123266200Y-92443000D01*
X122355850Y-92443000D01*
X122209800Y-92589050D01*
X121866253Y-92589050D01*
X121919958Y-92554492D01*
X121972155Y-92478100D01*
X121990518Y-92387420D01*
X121990518Y-91801795D01*
X122209800Y-91801795D01*
X122209800Y-91946950D01*
X122355850Y-92093000D01*
X123266200Y-92093000D01*
X123266200Y-91479850D01*
X123621800Y-91479850D01*
X123621800Y-92093000D01*
X124532150Y-92093000D01*
X124678200Y-91946950D01*
X124678200Y-91801795D01*
X124589261Y-91587077D01*
X124424922Y-91422739D01*
X124210204Y-91333800D01*
X123767850Y-91333800D01*
X123621800Y-91479850D01*
X123266200Y-91479850D01*
X123120150Y-91333800D01*
X122677796Y-91333800D01*
X122463078Y-91422739D01*
X122298739Y-91587077D01*
X122209800Y-91801795D01*
X121990518Y-91801795D01*
X121990518Y-91188540D01*
X121974578Y-91103826D01*
X121924512Y-91026022D01*
X121848120Y-90973825D01*
X121757440Y-90955462D01*
X120558560Y-90955462D01*
X120473846Y-90971402D01*
X120396042Y-91021468D01*
X120343845Y-91097860D01*
X120325482Y-91188540D01*
X120325482Y-91866156D01*
X120269038Y-91922600D01*
X118199584Y-91922600D01*
X118351261Y-91770922D01*
X118440200Y-91556204D01*
X118440200Y-90747850D01*
X118294150Y-90601800D01*
X117525800Y-90601800D01*
X117525800Y-90621800D01*
X117170200Y-90621800D01*
X117170200Y-90601800D01*
X116401850Y-90601800D01*
X116255800Y-90747850D01*
X116255800Y-91556204D01*
X116344739Y-91770922D01*
X116496416Y-91922600D01*
X115790941Y-91922600D01*
X115595400Y-91727058D01*
X115595400Y-91668299D01*
X115654714Y-91657138D01*
X115732518Y-91607072D01*
X115784715Y-91530680D01*
X115803078Y-91440000D01*
X115803078Y-90794629D01*
X115836396Y-90744765D01*
X115900200Y-90424000D01*
X115900200Y-90009194D01*
X116255800Y-89653594D01*
X116255800Y-90100150D01*
X116401850Y-90246200D01*
X117170200Y-90246200D01*
X117170200Y-88969850D01*
X117525800Y-88969850D01*
X117525800Y-90246200D01*
X118294150Y-90246200D01*
X118440200Y-90100150D01*
X118440200Y-89291796D01*
X118351261Y-89077078D01*
X118186923Y-88912739D01*
X117972205Y-88823800D01*
X117671850Y-88823800D01*
X117525800Y-88969850D01*
X117170200Y-88969850D01*
X117054872Y-88854522D01*
X117170684Y-88738710D01*
X122948700Y-88738710D01*
X122948700Y-89831545D01*
X123037639Y-90046263D01*
X123201978Y-90210601D01*
X123416696Y-90299540D01*
X124009150Y-90299540D01*
X124155200Y-90153490D01*
X124155200Y-88592660D01*
X124510800Y-88592660D01*
X124510800Y-90153490D01*
X124656850Y-90299540D01*
X125249304Y-90299540D01*
X125464022Y-90210601D01*
X125628361Y-90046263D01*
X125717300Y-89831545D01*
X125717300Y-89679017D01*
X128379162Y-89679017D01*
X128588599Y-90185894D01*
X128976066Y-90574038D01*
X129482577Y-90784360D01*
X130031017Y-90784838D01*
X130537894Y-90575401D01*
X130926038Y-90187934D01*
X131136360Y-89681423D01*
X131136362Y-89679017D01*
X136579162Y-89679017D01*
X136788599Y-90185894D01*
X137176066Y-90574038D01*
X137682577Y-90784360D01*
X138231017Y-90784838D01*
X138737894Y-90575401D01*
X139126038Y-90187934D01*
X139336360Y-89681423D01*
X139336838Y-89132983D01*
X139127401Y-88626106D01*
X138739934Y-88237962D01*
X138233423Y-88027640D01*
X137684983Y-88027162D01*
X137178106Y-88236599D01*
X136789962Y-88624066D01*
X136579640Y-89130577D01*
X136579162Y-89679017D01*
X131136362Y-89679017D01*
X131136838Y-89132983D01*
X130927401Y-88626106D01*
X130539934Y-88237962D01*
X130033423Y-88027640D01*
X129484983Y-88027162D01*
X128978106Y-88236599D01*
X128589962Y-88624066D01*
X128379640Y-89130577D01*
X128379162Y-89679017D01*
X125717300Y-89679017D01*
X125717300Y-88738710D01*
X125571250Y-88592660D01*
X124510800Y-88592660D01*
X124155200Y-88592660D01*
X123094750Y-88592660D01*
X122948700Y-88738710D01*
X117170684Y-88738710D01*
X118076194Y-87833200D01*
X122151140Y-87833200D01*
X122471906Y-87769396D01*
X122743837Y-87587697D01*
X122948700Y-87382834D01*
X122948700Y-88091010D01*
X123094750Y-88237060D01*
X124155200Y-88237060D01*
X124155200Y-86676230D01*
X124510800Y-86676230D01*
X124510800Y-88237060D01*
X125571250Y-88237060D01*
X125717300Y-88091010D01*
X125717300Y-87262960D01*
X130452488Y-87262960D01*
X130558201Y-87509321D01*
X131156109Y-87708569D01*
X131784753Y-87663841D01*
X132157799Y-87509321D01*
X132263512Y-87262960D01*
X131358000Y-86357447D01*
X130452488Y-87262960D01*
X125717300Y-87262960D01*
X125717300Y-86998175D01*
X125628361Y-86783457D01*
X125464022Y-86619119D01*
X125249304Y-86530180D01*
X124656850Y-86530180D01*
X124510800Y-86676230D01*
X124155200Y-86676230D01*
X124009150Y-86530180D01*
X123801354Y-86530180D01*
X123984836Y-86346698D01*
X125133100Y-86346698D01*
X125217814Y-86330758D01*
X125295618Y-86280692D01*
X125347815Y-86204300D01*
X125366178Y-86113620D01*
X125366178Y-85904109D01*
X129755431Y-85904109D01*
X129800159Y-86532753D01*
X129954679Y-86905799D01*
X130201040Y-87011512D01*
X131106553Y-86106000D01*
X131609447Y-86106000D01*
X132514960Y-87011512D01*
X132761321Y-86905799D01*
X132804984Y-86774774D01*
X132815836Y-86801037D01*
X133161145Y-87146949D01*
X133612544Y-87334387D01*
X134101312Y-87334813D01*
X134553037Y-87148164D01*
X134898949Y-86802855D01*
X135086387Y-86351456D01*
X135086813Y-85862688D01*
X134900164Y-85410963D01*
X134554855Y-85065051D01*
X134103456Y-84877613D01*
X133614688Y-84877187D01*
X133162963Y-85063836D01*
X132817051Y-85409145D01*
X132810498Y-85424926D01*
X132761321Y-85306201D01*
X132514960Y-85200488D01*
X131609447Y-86106000D01*
X131106553Y-86106000D01*
X130201040Y-85200488D01*
X129954679Y-85306201D01*
X129755431Y-85904109D01*
X125366178Y-85904109D01*
X125366178Y-84965356D01*
X125546334Y-84785200D01*
X130522791Y-84785200D01*
X130452488Y-84949040D01*
X131358000Y-85854553D01*
X132263512Y-84949040D01*
X132193209Y-84785200D01*
X135034806Y-84785200D01*
X135488050Y-85238444D01*
X135317051Y-85409145D01*
X135129613Y-85860544D01*
X135129187Y-86349312D01*
X135315836Y-86801037D01*
X135661145Y-87146949D01*
X136112544Y-87334387D01*
X136601312Y-87334813D01*
X137053037Y-87148164D01*
X137398949Y-86802855D01*
X137586387Y-86351456D01*
X137586813Y-85862688D01*
X137400164Y-85410963D01*
X137196200Y-85206643D01*
X137196200Y-85124795D01*
X154746800Y-85124795D01*
X154746800Y-85417150D01*
X154892850Y-85563200D01*
X155778200Y-85563200D01*
X155778200Y-84802850D01*
X156133800Y-84802850D01*
X156133800Y-85563200D01*
X157019150Y-85563200D01*
X157165200Y-85417150D01*
X157165200Y-85124795D01*
X157076261Y-84910077D01*
X156911922Y-84745739D01*
X156697204Y-84656800D01*
X156279850Y-84656800D01*
X156133800Y-84802850D01*
X155778200Y-84802850D01*
X155632150Y-84656800D01*
X155214796Y-84656800D01*
X155000078Y-84745739D01*
X154835739Y-84910077D01*
X154746800Y-85124795D01*
X137196200Y-85124795D01*
X137196200Y-84923000D01*
X137132396Y-84602235D01*
X136950697Y-84330303D01*
X135974697Y-83354303D01*
X135702766Y-83172604D01*
X135382000Y-83108800D01*
X125199140Y-83108800D01*
X124878374Y-83172604D01*
X124718271Y-83279582D01*
X123532900Y-83279582D01*
X123448186Y-83295522D01*
X123370382Y-83345588D01*
X123318185Y-83421980D01*
X123299822Y-83512660D01*
X123299822Y-84660924D01*
X121803946Y-86156800D01*
X117729000Y-86156800D01*
X117408235Y-86220604D01*
X117136303Y-86402303D01*
X115595400Y-87943206D01*
X115595400Y-87696000D01*
X115554797Y-87491877D01*
X115452078Y-87338146D01*
X115452078Y-86853000D01*
X115436138Y-86768286D01*
X115402400Y-86715856D01*
X115402400Y-85577461D01*
X115446518Y-85549072D01*
X115498715Y-85472680D01*
X115517078Y-85382000D01*
X115517078Y-83782000D01*
X115501138Y-83697286D01*
X115451072Y-83619482D01*
X115374680Y-83567285D01*
X115284000Y-83548922D01*
X114284000Y-83548922D01*
X114199286Y-83564862D01*
X114121482Y-83614928D01*
X114069285Y-83691320D01*
X114050922Y-83782000D01*
X114050922Y-85382000D01*
X114066862Y-85466714D01*
X114116928Y-85544518D01*
X114193320Y-85596715D01*
X114284000Y-85615078D01*
X114335600Y-85615078D01*
X114335600Y-86716489D01*
X114304285Y-86762320D01*
X114285922Y-86853000D01*
X114285922Y-88153000D01*
X114301862Y-88237714D01*
X114351928Y-88315518D01*
X114428320Y-88367715D01*
X114519000Y-88386078D01*
X114528600Y-88386078D01*
X114528600Y-89010006D01*
X114469303Y-89069303D01*
X114287604Y-89341234D01*
X114271737Y-89421002D01*
X114223800Y-89662000D01*
X114223800Y-90424000D01*
X114287604Y-90744765D01*
X114320922Y-90794629D01*
X114320922Y-91440000D01*
X114336862Y-91524714D01*
X114386928Y-91602518D01*
X114463320Y-91654715D01*
X114528600Y-91667934D01*
X114528600Y-95778922D01*
X113233200Y-95778922D01*
X113148486Y-95794862D01*
X113070682Y-95844928D01*
X113018485Y-95921320D01*
X113000122Y-96012000D01*
X108162973Y-96012000D01*
X107905633Y-95389191D01*
X107305965Y-94788476D01*
X106522061Y-94462971D01*
X105673263Y-94462230D01*
X104888791Y-94786367D01*
X104288076Y-95386035D01*
X104140099Y-95742403D01*
X100576251Y-99306251D01*
X100262407Y-99775951D01*
X100226525Y-99956343D01*
X99792276Y-100389835D01*
X99466771Y-101173739D01*
X99466030Y-102022537D01*
X98855600Y-102022537D01*
X98855600Y-91001850D01*
X103841800Y-91001850D01*
X103841800Y-91594204D01*
X103930739Y-91808922D01*
X104095077Y-91973261D01*
X104309795Y-92062200D01*
X104602150Y-92062200D01*
X104748200Y-91916150D01*
X104748200Y-90855800D01*
X105103800Y-90855800D01*
X105103800Y-91916150D01*
X105249850Y-92062200D01*
X105542205Y-92062200D01*
X105756923Y-91973261D01*
X105921261Y-91808922D01*
X106010200Y-91594204D01*
X106010200Y-91001850D01*
X105864150Y-90855800D01*
X105103800Y-90855800D01*
X104748200Y-90855800D01*
X103987850Y-90855800D01*
X103841800Y-91001850D01*
X98855600Y-91001850D01*
X98855600Y-89761796D01*
X103841800Y-89761796D01*
X103841800Y-90354150D01*
X103987850Y-90500200D01*
X104748200Y-90500200D01*
X104748200Y-89439850D01*
X105103800Y-89439850D01*
X105103800Y-90500200D01*
X105864150Y-90500200D01*
X106010200Y-90354150D01*
X106010200Y-89761796D01*
X105921261Y-89547078D01*
X105756923Y-89382739D01*
X105542205Y-89293800D01*
X105249850Y-89293800D01*
X105103800Y-89439850D01*
X104748200Y-89439850D01*
X104602150Y-89293800D01*
X104309795Y-89293800D01*
X104095077Y-89382739D01*
X103930739Y-89547078D01*
X103841800Y-89761796D01*
X98855600Y-89761796D01*
X98855600Y-85387389D01*
X104248089Y-85387389D01*
X104527943Y-85945531D01*
X105000086Y-86354091D01*
X105366613Y-86505899D01*
X105613200Y-86406239D01*
X105613200Y-85140800D01*
X104346746Y-85140800D01*
X104248089Y-85387389D01*
X98855600Y-85387389D01*
X98855600Y-84538611D01*
X104248089Y-84538611D01*
X104346746Y-84785200D01*
X105613200Y-84785200D01*
X105613200Y-83519761D01*
X105968800Y-83519761D01*
X105968800Y-84785200D01*
X105988800Y-84785200D01*
X105988800Y-85140800D01*
X105968800Y-85140800D01*
X105968800Y-86406239D01*
X106215387Y-86505899D01*
X106581914Y-86354091D01*
X107054057Y-85945531D01*
X107081922Y-85889957D01*
X107081922Y-85979000D01*
X107097862Y-86063714D01*
X107147928Y-86141518D01*
X107224320Y-86193715D01*
X107315000Y-86212078D01*
X107492800Y-86212078D01*
X107492800Y-89644922D01*
X107426000Y-89644922D01*
X107341286Y-89660862D01*
X107263482Y-89710928D01*
X107211285Y-89787320D01*
X107192922Y-89878000D01*
X107192922Y-90295397D01*
X107151604Y-90357234D01*
X107087800Y-90678000D01*
X107151604Y-90998766D01*
X107192922Y-91060603D01*
X107192922Y-91478000D01*
X107208862Y-91562714D01*
X107258928Y-91640518D01*
X107335320Y-91692715D01*
X107426000Y-91711078D01*
X108426000Y-91711078D01*
X108510714Y-91695138D01*
X108588518Y-91645072D01*
X108640715Y-91568680D01*
X108659078Y-91478000D01*
X108659078Y-91262200D01*
X112034922Y-91262200D01*
X112034922Y-91440000D01*
X112050862Y-91524714D01*
X112100928Y-91602518D01*
X112177320Y-91654715D01*
X112268000Y-91673078D01*
X113284000Y-91673078D01*
X113368714Y-91657138D01*
X113446518Y-91607072D01*
X113498715Y-91530680D01*
X113517078Y-91440000D01*
X113517078Y-90794629D01*
X113550396Y-90744765D01*
X113614200Y-90424000D01*
X113614200Y-88017121D01*
X113743396Y-87823766D01*
X113807200Y-87503000D01*
X113743396Y-87182235D01*
X113561697Y-86910303D01*
X113552078Y-86903876D01*
X113552078Y-86853000D01*
X113536138Y-86768286D01*
X113486072Y-86690482D01*
X113409680Y-86638285D01*
X113319000Y-86619922D01*
X112619000Y-86619922D01*
X112534286Y-86635862D01*
X112456482Y-86685928D01*
X112404285Y-86762320D01*
X112385922Y-86853000D01*
X112385922Y-86903876D01*
X112376303Y-86910303D01*
X112183303Y-87103303D01*
X112001604Y-87375234D01*
X111951690Y-87626171D01*
X111937800Y-87696000D01*
X111937800Y-89585800D01*
X109169200Y-89585800D01*
X109169200Y-86212078D01*
X109347000Y-86212078D01*
X109431714Y-86196138D01*
X109509518Y-86146072D01*
X109561715Y-86069680D01*
X109580078Y-85979000D01*
X109580078Y-84905850D01*
X110699800Y-84905850D01*
X110699800Y-85498204D01*
X110788739Y-85712922D01*
X110953077Y-85877261D01*
X111167795Y-85966200D01*
X111460150Y-85966200D01*
X111606200Y-85820150D01*
X111606200Y-84759800D01*
X111961800Y-84759800D01*
X111961800Y-85820150D01*
X112107850Y-85966200D01*
X112400205Y-85966200D01*
X112614923Y-85877261D01*
X112779261Y-85712922D01*
X112868200Y-85498204D01*
X112868200Y-84905850D01*
X112722150Y-84759800D01*
X111961800Y-84759800D01*
X111606200Y-84759800D01*
X110845850Y-84759800D01*
X110699800Y-84905850D01*
X109580078Y-84905850D01*
X109580078Y-83947000D01*
X109564138Y-83862286D01*
X109514072Y-83784482D01*
X109437680Y-83732285D01*
X109347000Y-83713922D01*
X107315000Y-83713922D01*
X107230286Y-83729862D01*
X107152482Y-83779928D01*
X107100285Y-83856320D01*
X107081922Y-83947000D01*
X107081922Y-84036043D01*
X107054057Y-83980469D01*
X106690413Y-83665796D01*
X110699800Y-83665796D01*
X110699800Y-84258150D01*
X110845850Y-84404200D01*
X111606200Y-84404200D01*
X111606200Y-83343850D01*
X111961800Y-83343850D01*
X111961800Y-84404200D01*
X112722150Y-84404200D01*
X112868200Y-84258150D01*
X112868200Y-83665796D01*
X112779261Y-83451078D01*
X112614923Y-83286739D01*
X112400205Y-83197800D01*
X112107850Y-83197800D01*
X111961800Y-83343850D01*
X111606200Y-83343850D01*
X111460150Y-83197800D01*
X111167795Y-83197800D01*
X110953077Y-83286739D01*
X110788739Y-83451078D01*
X110699800Y-83665796D01*
X106690413Y-83665796D01*
X106581914Y-83571909D01*
X106215387Y-83420101D01*
X105968800Y-83519761D01*
X105613200Y-83519761D01*
X105366613Y-83420101D01*
X105000086Y-83571909D01*
X104527943Y-83980469D01*
X104248089Y-84538611D01*
X98855600Y-84538611D01*
X98855600Y-82853600D01*
X162891400Y-82853600D01*
X162891400Y-127585400D01*
M02*
