M48
;DRILL file {KiCad 4.0.2-4+6225~38~ubuntu14.04.1-stable} date Thu 07 Jul 2016 06:29:23 PM CEST
;FORMAT={-:-/ absolute / inch / decimal}
FMAT,2
INCH,TZ
T1C0.010
T2C0.013
T3C0.026
T4C0.040
T5C0.051
T6C0.070
T7C0.105
%
G90
G05
M72
T1
X5.592Y-4.0787
X5.592Y-4.12
X5.592Y-4.1613
X5.6432Y-4.0787
X5.6432Y-4.12
X5.6432Y-4.1613
X5.6944Y-4.0787
X5.6944Y-4.12
X5.6944Y-4.1613
X5.7456Y-4.0787
X5.7456Y-4.12
X5.7456Y-4.1613
X5.7968Y-4.0787
X5.7968Y-4.12
X5.7968Y-4.1613
X5.848Y-4.0787
X5.848Y-4.12
X5.848Y-4.1613
T2
X3.95Y-3.3
X3.95Y-3.4
X3.95Y-3.5
X3.95Y-3.6
X3.95Y-3.7
X3.95Y-3.8
X3.95Y-3.9
X3.95Y-4.2
X3.95Y-4.3
X3.95Y-4.4
X3.95Y-4.8
X3.95Y-4.9
X3.95Y-5.
X4.05Y-3.3
X4.05Y-3.4
X4.05Y-3.5
X4.05Y-3.6
X4.05Y-3.7
X4.05Y-3.8
X4.05Y-4.3
X4.05Y-4.9
X4.05Y-5.
X4.15Y-3.5
X4.15Y-3.7
X4.15Y-4.3
X4.15Y-4.9
X4.15Y-5.
X4.25Y-3.7
X4.25Y-3.9
X4.25Y-4.3
X4.25Y-4.7
X4.25Y-4.9
X4.25Y-5.
X4.35Y-3.3
X4.35Y-3.4
X4.35Y-3.5
X4.35Y-3.7
X4.35Y-3.8
X4.35Y-3.9
X4.35Y-4.2
X4.35Y-4.3
X4.35Y-4.6
X4.35Y-4.7
X4.35Y-4.8
X4.35Y-4.9
X4.35Y-5.
X4.45Y-3.3
X4.45Y-3.7
X4.45Y-3.9
X4.45Y-4.2
X4.45Y-4.3
X4.45Y-4.6
X4.45Y-4.7
X4.45Y-4.8
X4.45Y-4.9
X4.45Y-5.
X4.55Y-3.7
X4.55Y-3.9
X4.55Y-4.2
X4.55Y-4.3
X4.55Y-4.6
X4.55Y-4.7
X4.55Y-4.8
X4.55Y-4.9
X4.55Y-5.
X4.65Y-3.3
X4.65Y-3.7
X4.65Y-3.8
X4.65Y-3.9
X4.65Y-4.2
X4.65Y-4.3
X4.65Y-4.7
X4.65Y-4.9
X4.65Y-5.
X4.75Y-3.3
X4.75Y-3.5
X4.75Y-3.8
X4.75Y-3.9
X4.75Y-4.2
X4.75Y-4.3
X4.75Y-4.7
X4.75Y-4.9
X4.75Y-5.
X4.85Y-3.8
X4.85Y-3.9
X4.85Y-4.2
X4.85Y-4.3
X4.85Y-4.6
X4.85Y-4.7
X4.85Y-4.8
X4.85Y-4.9
X4.85Y-5.
X4.95Y-3.6
X4.95Y-3.7
X4.95Y-3.8
X4.95Y-3.9
X4.95Y-4.2
X4.95Y-4.3
X4.95Y-4.6
X4.95Y-4.7
X4.95Y-4.8
X4.95Y-4.9
X4.95Y-5.
X5.05Y-3.4
X5.05Y-3.6
X5.05Y-3.7
X5.05Y-3.8
X5.05Y-3.9
X5.05Y-4.2
X5.05Y-4.3
X5.05Y-4.7
X5.05Y-4.9
X5.05Y-5.
X5.15Y-3.6
X5.15Y-3.7
X5.15Y-3.8
X5.15Y-3.9
X5.15Y-4.2
X5.15Y-4.5
X5.15Y-4.6
X5.15Y-4.8
X5.15Y-4.9
X5.15Y-5.
X5.25Y-3.5
X5.25Y-3.6
X5.25Y-3.7
X5.25Y-3.8
X5.25Y-4.4
X5.25Y-4.5
X5.25Y-4.7
X5.25Y-4.8
X5.25Y-4.9
X5.25Y-5.
X5.35Y-3.5
X5.35Y-3.6
X5.35Y-3.7
X5.35Y-3.8
X5.35Y-4.4
X5.35Y-4.6
X5.35Y-4.7
X5.35Y-4.8
X5.35Y-4.9
X5.35Y-5.
X5.45Y-3.6
X5.45Y-3.7
X5.45Y-3.8
X5.45Y-4.6
X5.45Y-4.7
X5.45Y-4.8
X5.45Y-4.9
X5.45Y-5.
X5.49Y-4.545
X5.55Y-3.3
X5.55Y-3.4
X5.55Y-3.6
X5.55Y-3.7
X5.55Y-3.8
X5.55Y-4.3
X5.55Y-4.7
X5.55Y-4.8
X5.55Y-4.9
X5.55Y-5.
X5.625Y-4.31
X5.65Y-3.3
X5.65Y-3.4
X5.65Y-4.4
X5.65Y-4.5
X5.65Y-4.6
X5.65Y-4.7
X5.65Y-4.8
X5.65Y-4.9
X5.65Y-5.
X5.655Y-4.295
X5.66Y-3.95
X5.75Y-3.3
X5.75Y-3.4
X5.75Y-4.4
X5.75Y-4.5
X5.75Y-4.8
X5.75Y-4.9
X5.75Y-5.
X5.785Y-4.29
X5.79Y-3.95
X5.85Y-3.3
X5.85Y-3.7
X5.85Y-4.5
X5.85Y-4.9
X5.85Y-5.
X5.95Y-3.3
X5.95Y-3.6
X5.95Y-3.75
X5.95Y-3.9
X5.95Y-4.4
X5.95Y-5.
X6.02Y-4.365
X6.05Y-3.3
X6.05Y-3.6
X6.05Y-3.7
X6.05Y-3.9
X6.05Y-4.1
X6.05Y-4.5
X6.05Y-5.
X6.15Y-3.3
X6.15Y-3.7
X6.15Y-3.8
X6.15Y-3.9
X6.15Y-4.
X6.15Y-4.1
X6.15Y-4.5
X6.15Y-4.6
X6.15Y-5.
X6.25Y-3.3
X6.25Y-3.7
X6.25Y-3.8
X6.25Y-3.9
X6.25Y-4.
X6.25Y-4.4
X6.25Y-4.5
X6.25Y-4.6
X6.25Y-5.
X6.35Y-3.3
X6.35Y-3.7
X6.35Y-3.8
X6.35Y-3.9
X6.35Y-4.
X6.35Y-4.1
X6.35Y-4.2
X6.35Y-4.3
X6.35Y-4.4
X6.35Y-4.5
X6.35Y-4.6
X6.35Y-5.
T3
X5.86Y-3.885
T4
X4.165Y-3.345
X4.265Y-3.345
X6.275Y-4.74
X6.275Y-4.84
X6.29Y-3.45
X6.29Y-3.55
T5
X5.1716Y-3.39
X5.27Y-3.39
X5.3684Y-3.39
T6
X4.177Y-4.
X4.177Y-4.6
T7
X4.Y-4.
X4.Y-4.6
X4.177Y-3.803
X4.177Y-4.197
X4.177Y-4.403
X4.177Y-4.797
T0
M30
