M48
;DRILL file {KiCad 4.0.1-2.201512121406+6195~38~ubuntu14.04.1-stable} date Sun 03 Jul 2016 07:35:05 PM CEST
;FORMAT={2:4/ absolute / inch / suppress leading zeros}
FMAT,2
INCH,TZ
T1C0.010
T2C0.013
T3C0.026
T4C0.040
T5C0.051
T6C0.070
T7C0.105
T8C0.091
%
G90
G05
M72
T1
X55920Y-40787
X55920Y-41200
X55920Y-41613
X56432Y-40787
X56432Y-41200
X56432Y-41613
X56944Y-40787
X56944Y-41200
X56944Y-41613
X57456Y-40787
X57456Y-41200
X57456Y-41613
X57968Y-40787
X57968Y-41200
X57968Y-41613
X58480Y-40787
X58480Y-41200
X58480Y-41613
T2
X54900Y-45450
X56250Y-43100
X56550Y-42950
X56600Y-39500
X57850Y-42900
X57900Y-39500
X59550Y-37400
X60200Y-43650
T3
X58600Y-38850
T4
X39650Y-33450
X40650Y-33450
X62750Y-47400
X62750Y-48400
X62900Y-34500
X62900Y-35500
T5
X51716Y-33900
X52700Y-33900
X53684Y-33900
T6
X39620Y-44700
X39720Y-38550
T7
X37850Y-44700
X37950Y-38550
X39620Y-42730
X39620Y-46670
X39720Y-36580
X39720Y-40520
T8
X51086Y-35199
X54314Y-35199
T0
M30
