G04 #@! TF.FileFunction,Legend,Top*
%FSLAX46Y46*%
G04 Gerber Fmt 4.6, Leading zero omitted, Abs format (unit mm)*
G04 Created by KiCad (PCBNEW 4.0.1-2.201512121406+6195~38~ubuntu14.04.1-stable) date Sun 03 Jul 2016 07:38:07 PM CEST*
%MOMM*%
G01*
G04 APERTURE LIST*
%ADD10C,0.100000*%
%ADD11C,0.150000*%
%ADD12C,0.127000*%
G04 APERTURE END LIST*
D10*
D11*
X102727000Y-87240000D02*
X100727000Y-87240000D01*
X100727000Y-89290000D02*
X102727000Y-89290000D01*
X115459000Y-85480000D02*
X117459000Y-85480000D01*
X117459000Y-83430000D02*
X115459000Y-83430000D01*
X152693000Y-88273000D02*
X152693000Y-89273000D01*
X154393000Y-89273000D02*
X154393000Y-88273000D01*
X156806000Y-87241000D02*
X156806000Y-86241000D01*
X155106000Y-86241000D02*
X155106000Y-87241000D01*
X143773000Y-96758000D02*
X143773000Y-94758000D01*
X141723000Y-94758000D02*
X141723000Y-96758000D01*
X124333000Y-88265000D02*
X124333000Y-87503000D01*
X124714000Y-87884000D02*
X123952000Y-87884000D01*
X122047000Y-88138000D02*
X122047000Y-84328000D01*
X125857000Y-88900000D02*
X122809000Y-88900000D01*
X122047000Y-88138000D02*
X122809000Y-88900000D01*
X126619000Y-88138000D02*
X126619000Y-84328000D01*
X126619000Y-88138000D02*
X125857000Y-88900000D01*
X124206000Y-84582000D02*
X124460000Y-84582000D01*
X124968000Y-84709000D02*
X123698000Y-84709000D01*
X123444000Y-84836000D02*
X125222000Y-84836000D01*
X123190000Y-84963000D02*
X125476000Y-84963000D01*
X125603000Y-85090000D02*
X123063000Y-85090000D01*
X122936000Y-85217000D02*
X125730000Y-85217000D01*
X125857000Y-85344000D02*
X122809000Y-85344000D01*
X125984000Y-85471000D02*
X122682000Y-85471000D01*
X126619000Y-84328000D02*
X122047000Y-84328000D01*
X126365000Y-86614000D02*
G75*
G03X126365000Y-86614000I-2032000J0D01*
G01*
X140707000Y-113935000D02*
X140707000Y-115935000D01*
X142757000Y-115935000D02*
X142757000Y-113935000D01*
X147456000Y-96758000D02*
X147456000Y-94758000D01*
X145406000Y-94758000D02*
X145406000Y-96758000D01*
X155106000Y-90305000D02*
X155106000Y-91305000D01*
X156806000Y-91305000D02*
X156806000Y-90305000D01*
X149741000Y-122135000D02*
X150741000Y-122135000D01*
X150741000Y-120435000D02*
X149741000Y-120435000D01*
X156806000Y-124198000D02*
X156806000Y-123198000D01*
X155106000Y-123198000D02*
X155106000Y-124198000D01*
X136533000Y-100672000D02*
X137533000Y-100672000D01*
X137533000Y-98972000D02*
X136533000Y-98972000D01*
X136533000Y-102958000D02*
X137533000Y-102958000D01*
X137533000Y-101258000D02*
X136533000Y-101258000D01*
X136406000Y-110832000D02*
X137406000Y-110832000D01*
X137406000Y-109132000D02*
X136406000Y-109132000D01*
X136406000Y-108546000D02*
X137406000Y-108546000D01*
X137406000Y-106846000D02*
X136406000Y-106846000D01*
X155106000Y-119134000D02*
X155106000Y-120134000D01*
X156806000Y-120134000D02*
X156806000Y-119134000D01*
X155821000Y-107735000D02*
X154821000Y-107735000D01*
X154821000Y-109435000D02*
X155821000Y-109435000D01*
X155663000Y-102481000D02*
X155663000Y-101481000D01*
X153963000Y-101481000D02*
X153963000Y-102481000D01*
X153297000Y-97624000D02*
X154297000Y-97624000D01*
X154297000Y-95924000D02*
X153297000Y-95924000D01*
D12*
X147955000Y-83820000D02*
X151765000Y-83820000D01*
X151765000Y-83820000D02*
X151765000Y-87630000D01*
X151765000Y-87630000D02*
X147955000Y-87630000D01*
X147955000Y-87630000D02*
X147955000Y-83820000D01*
X151765000Y-91821000D02*
X147955000Y-91821000D01*
X147955000Y-91821000D02*
X147955000Y-88011000D01*
X147955000Y-88011000D02*
X151765000Y-88011000D01*
X151765000Y-88011000D02*
X151765000Y-91821000D01*
X146304000Y-119634000D02*
X146304000Y-115824000D01*
X146304000Y-115824000D02*
X150114000Y-115824000D01*
X150114000Y-115824000D02*
X150114000Y-119634000D01*
X150114000Y-119634000D02*
X146304000Y-119634000D01*
X154432000Y-115824000D02*
X154432000Y-119634000D01*
X154432000Y-119634000D02*
X150622000Y-119634000D01*
X150622000Y-119634000D02*
X150622000Y-115824000D01*
X150622000Y-115824000D02*
X154432000Y-115824000D01*
D11*
X101981000Y-86233000D02*
X99441000Y-86233000D01*
X104801000Y-86513000D02*
X103251000Y-86513000D01*
X101981000Y-86233000D02*
X101981000Y-83693000D01*
X103251000Y-83413000D02*
X104801000Y-83413000D01*
X104801000Y-83413000D02*
X104801000Y-86513000D01*
X101981000Y-83693000D02*
X99441000Y-83693000D01*
X99441000Y-83693000D02*
X99441000Y-86233000D01*
X113319000Y-86628000D02*
X114519000Y-86628000D01*
X114519000Y-88378000D02*
X113319000Y-88378000D01*
X154594000Y-109996000D02*
X155794000Y-109996000D01*
X155794000Y-111746000D02*
X154594000Y-111746000D01*
X155667000Y-107174000D02*
X154467000Y-107174000D01*
X154467000Y-105424000D02*
X155667000Y-105424000D01*
D12*
X128258000Y-91806000D02*
X139458000Y-91806000D01*
X139458000Y-91806000D02*
X139458000Y-82506000D01*
X139458000Y-82506000D02*
X128258000Y-82506000D01*
X128258000Y-82506000D02*
X128258000Y-91806000D01*
D11*
X161036000Y-88900000D02*
X161036000Y-91440000D01*
X161316000Y-86080000D02*
X161316000Y-87630000D01*
X161036000Y-88900000D02*
X158496000Y-88900000D01*
X158216000Y-87630000D02*
X158216000Y-86080000D01*
X158216000Y-86080000D02*
X161316000Y-86080000D01*
X158496000Y-88900000D02*
X158496000Y-91440000D01*
X158496000Y-91440000D02*
X161036000Y-91440000D01*
X158115000Y-121666000D02*
X158115000Y-119126000D01*
X157835000Y-124486000D02*
X157835000Y-122936000D01*
X158115000Y-121666000D02*
X160655000Y-121666000D01*
X160935000Y-122936000D02*
X160935000Y-124486000D01*
X160935000Y-124486000D02*
X157835000Y-124486000D01*
X160655000Y-121666000D02*
X160655000Y-119126000D01*
X160655000Y-119126000D02*
X158115000Y-119126000D01*
D12*
X114300000Y-119761000D02*
X107950000Y-119761000D01*
X114300000Y-124841000D02*
X107950000Y-124841000D01*
D11*
X117729000Y-123571000D02*
X117729000Y-126873000D01*
X117729000Y-126873000D02*
X114681000Y-126873000D01*
X117221000Y-118491000D02*
X117221000Y-126365000D01*
X117221000Y-126365000D02*
X105029000Y-126365000D01*
X105029000Y-126365000D02*
X105029000Y-118491000D01*
X105029000Y-118491000D02*
X117221000Y-118491000D01*
X118618000Y-92202000D02*
X118618000Y-89154000D01*
X118618000Y-89154000D02*
X111506000Y-89154000D01*
X111506000Y-89154000D02*
X111506000Y-92202000D01*
X118618000Y-95250000D02*
X118618000Y-96012000D01*
X118618000Y-96012000D02*
X117094000Y-98298000D01*
X117094000Y-98298000D02*
X113030000Y-98298000D01*
X113030000Y-98298000D02*
X111506000Y-96012000D01*
X111506000Y-96012000D02*
X111506000Y-95250000D01*
X121908000Y-94437000D02*
X121908000Y-91737000D01*
X120408000Y-94437000D02*
X120408000Y-91737000D01*
X121308000Y-92937000D02*
X121058000Y-92937000D01*
X121058000Y-92937000D02*
X121208000Y-93087000D01*
X120808000Y-93187000D02*
X121508000Y-93187000D01*
X121158000Y-92837000D02*
X121158000Y-92487000D01*
X121158000Y-93187000D02*
X120808000Y-92837000D01*
X120808000Y-92837000D02*
X121508000Y-92837000D01*
X121508000Y-92837000D02*
X121158000Y-93187000D01*
X124319000Y-92618000D02*
X124319000Y-93818000D01*
X122569000Y-93818000D02*
X122569000Y-92618000D01*
D12*
X94893000Y-95917000D02*
X94893000Y-92117000D01*
X94893000Y-103717000D02*
X94893000Y-99917000D01*
X98893000Y-103717000D02*
X94893000Y-103717000D01*
X103393000Y-103717000D02*
X103393000Y-92117000D01*
X98893000Y-92117000D02*
X94893000Y-92117000D01*
X94639000Y-111538000D02*
X94639000Y-107738000D01*
X94639000Y-119338000D02*
X94639000Y-115538000D01*
X98639000Y-119338000D02*
X94639000Y-119338000D01*
X103139000Y-119338000D02*
X103139000Y-107738000D01*
X98639000Y-107738000D02*
X94639000Y-107738000D01*
D11*
X101560334Y-86322143D02*
X101512715Y-86369762D01*
X101369858Y-86417381D01*
X101274620Y-86417381D01*
X101131762Y-86369762D01*
X101036524Y-86274524D01*
X100988905Y-86179286D01*
X100941286Y-85988810D01*
X100941286Y-85845952D01*
X100988905Y-85655476D01*
X101036524Y-85560238D01*
X101131762Y-85465000D01*
X101274620Y-85417381D01*
X101369858Y-85417381D01*
X101512715Y-85465000D01*
X101560334Y-85512619D01*
X102512715Y-86417381D02*
X101941286Y-86417381D01*
X102227000Y-86417381D02*
X102227000Y-85417381D01*
X102131762Y-85560238D01*
X102036524Y-85655476D01*
X101941286Y-85703095D01*
X119721334Y-84812143D02*
X119673715Y-84859762D01*
X119530858Y-84907381D01*
X119435620Y-84907381D01*
X119292762Y-84859762D01*
X119197524Y-84764524D01*
X119149905Y-84669286D01*
X119102286Y-84478810D01*
X119102286Y-84335952D01*
X119149905Y-84145476D01*
X119197524Y-84050238D01*
X119292762Y-83955000D01*
X119435620Y-83907381D01*
X119530858Y-83907381D01*
X119673715Y-83955000D01*
X119721334Y-84002619D01*
X120102286Y-84002619D02*
X120149905Y-83955000D01*
X120245143Y-83907381D01*
X120483239Y-83907381D01*
X120578477Y-83955000D01*
X120626096Y-84002619D01*
X120673715Y-84097857D01*
X120673715Y-84193095D01*
X120626096Y-84335952D01*
X120054667Y-84907381D01*
X120673715Y-84907381D01*
X153249334Y-91797143D02*
X153201715Y-91844762D01*
X153058858Y-91892381D01*
X152963620Y-91892381D01*
X152820762Y-91844762D01*
X152725524Y-91749524D01*
X152677905Y-91654286D01*
X152630286Y-91463810D01*
X152630286Y-91320952D01*
X152677905Y-91130476D01*
X152725524Y-91035238D01*
X152820762Y-90940000D01*
X152963620Y-90892381D01*
X153058858Y-90892381D01*
X153201715Y-90940000D01*
X153249334Y-90987619D01*
X153582667Y-90892381D02*
X154201715Y-90892381D01*
X153868381Y-91273333D01*
X154011239Y-91273333D01*
X154106477Y-91320952D01*
X154154096Y-91368571D01*
X154201715Y-91463810D01*
X154201715Y-91701905D01*
X154154096Y-91797143D01*
X154106477Y-91844762D01*
X154011239Y-91892381D01*
X153725524Y-91892381D01*
X153630286Y-91844762D01*
X153582667Y-91797143D01*
X155535334Y-84558143D02*
X155487715Y-84605762D01*
X155344858Y-84653381D01*
X155249620Y-84653381D01*
X155106762Y-84605762D01*
X155011524Y-84510524D01*
X154963905Y-84415286D01*
X154916286Y-84224810D01*
X154916286Y-84081952D01*
X154963905Y-83891476D01*
X155011524Y-83796238D01*
X155106762Y-83701000D01*
X155249620Y-83653381D01*
X155344858Y-83653381D01*
X155487715Y-83701000D01*
X155535334Y-83748619D01*
X156392477Y-83986714D02*
X156392477Y-84653381D01*
X156154381Y-83605762D02*
X155916286Y-84320048D01*
X156535334Y-84320048D01*
X143232143Y-92622666D02*
X143279762Y-92670285D01*
X143327381Y-92813142D01*
X143327381Y-92908380D01*
X143279762Y-93051238D01*
X143184524Y-93146476D01*
X143089286Y-93194095D01*
X142898810Y-93241714D01*
X142755952Y-93241714D01*
X142565476Y-93194095D01*
X142470238Y-93146476D01*
X142375000Y-93051238D01*
X142327381Y-92908380D01*
X142327381Y-92813142D01*
X142375000Y-92670285D01*
X142422619Y-92622666D01*
X142327381Y-91717904D02*
X142327381Y-92194095D01*
X142803571Y-92241714D01*
X142755952Y-92194095D01*
X142708333Y-92098857D01*
X142708333Y-91860761D01*
X142755952Y-91765523D01*
X142803571Y-91717904D01*
X142898810Y-91670285D01*
X143136905Y-91670285D01*
X143232143Y-91717904D01*
X143279762Y-91765523D01*
X143327381Y-91860761D01*
X143327381Y-92098857D01*
X143279762Y-92194095D01*
X143232143Y-92241714D01*
X127865143Y-86780666D02*
X127912762Y-86828285D01*
X127960381Y-86971142D01*
X127960381Y-87066380D01*
X127912762Y-87209238D01*
X127817524Y-87304476D01*
X127722286Y-87352095D01*
X127531810Y-87399714D01*
X127388952Y-87399714D01*
X127198476Y-87352095D01*
X127103238Y-87304476D01*
X127008000Y-87209238D01*
X126960381Y-87066380D01*
X126960381Y-86971142D01*
X127008000Y-86828285D01*
X127055619Y-86780666D01*
X126960381Y-85923523D02*
X126960381Y-86114000D01*
X127008000Y-86209238D01*
X127055619Y-86256857D01*
X127198476Y-86352095D01*
X127388952Y-86399714D01*
X127769905Y-86399714D01*
X127865143Y-86352095D01*
X127912762Y-86304476D01*
X127960381Y-86209238D01*
X127960381Y-86018761D01*
X127912762Y-85923523D01*
X127865143Y-85875904D01*
X127769905Y-85828285D01*
X127531810Y-85828285D01*
X127436571Y-85875904D01*
X127388952Y-85923523D01*
X127341333Y-86018761D01*
X127341333Y-86209238D01*
X127388952Y-86304476D01*
X127436571Y-86352095D01*
X127531810Y-86399714D01*
X139789143Y-115101666D02*
X139836762Y-115149285D01*
X139884381Y-115292142D01*
X139884381Y-115387380D01*
X139836762Y-115530238D01*
X139741524Y-115625476D01*
X139646286Y-115673095D01*
X139455810Y-115720714D01*
X139312952Y-115720714D01*
X139122476Y-115673095D01*
X139027238Y-115625476D01*
X138932000Y-115530238D01*
X138884381Y-115387380D01*
X138884381Y-115292142D01*
X138932000Y-115149285D01*
X138979619Y-115101666D01*
X138884381Y-114768333D02*
X138884381Y-114101666D01*
X139884381Y-114530238D01*
X146788143Y-99353666D02*
X146835762Y-99401285D01*
X146883381Y-99544142D01*
X146883381Y-99639380D01*
X146835762Y-99782238D01*
X146740524Y-99877476D01*
X146645286Y-99925095D01*
X146454810Y-99972714D01*
X146311952Y-99972714D01*
X146121476Y-99925095D01*
X146026238Y-99877476D01*
X145931000Y-99782238D01*
X145883381Y-99639380D01*
X145883381Y-99544142D01*
X145931000Y-99401285D01*
X145978619Y-99353666D01*
X146311952Y-98782238D02*
X146264333Y-98877476D01*
X146216714Y-98925095D01*
X146121476Y-98972714D01*
X146073857Y-98972714D01*
X145978619Y-98925095D01*
X145931000Y-98877476D01*
X145883381Y-98782238D01*
X145883381Y-98591761D01*
X145931000Y-98496523D01*
X145978619Y-98448904D01*
X146073857Y-98401285D01*
X146121476Y-98401285D01*
X146216714Y-98448904D01*
X146264333Y-98496523D01*
X146311952Y-98591761D01*
X146311952Y-98782238D01*
X146359571Y-98877476D01*
X146407190Y-98925095D01*
X146502429Y-98972714D01*
X146692905Y-98972714D01*
X146788143Y-98925095D01*
X146835762Y-98877476D01*
X146883381Y-98782238D01*
X146883381Y-98591761D01*
X146835762Y-98496523D01*
X146788143Y-98448904D01*
X146692905Y-98401285D01*
X146502429Y-98401285D01*
X146407190Y-98448904D01*
X146359571Y-98496523D01*
X146311952Y-98591761D01*
X155662334Y-93829143D02*
X155614715Y-93876762D01*
X155471858Y-93924381D01*
X155376620Y-93924381D01*
X155233762Y-93876762D01*
X155138524Y-93781524D01*
X155090905Y-93686286D01*
X155043286Y-93495810D01*
X155043286Y-93352952D01*
X155090905Y-93162476D01*
X155138524Y-93067238D01*
X155233762Y-92972000D01*
X155376620Y-92924381D01*
X155471858Y-92924381D01*
X155614715Y-92972000D01*
X155662334Y-93019619D01*
X156138524Y-93924381D02*
X156329000Y-93924381D01*
X156424239Y-93876762D01*
X156471858Y-93829143D01*
X156567096Y-93686286D01*
X156614715Y-93495810D01*
X156614715Y-93114857D01*
X156567096Y-93019619D01*
X156519477Y-92972000D01*
X156424239Y-92924381D01*
X156233762Y-92924381D01*
X156138524Y-92972000D01*
X156090905Y-93019619D01*
X156043286Y-93114857D01*
X156043286Y-93352952D01*
X156090905Y-93448190D01*
X156138524Y-93495810D01*
X156233762Y-93543429D01*
X156424239Y-93543429D01*
X156519477Y-93495810D01*
X156567096Y-93448190D01*
X156614715Y-93352952D01*
X153265143Y-122054857D02*
X153312762Y-122102476D01*
X153360381Y-122245333D01*
X153360381Y-122340571D01*
X153312762Y-122483429D01*
X153217524Y-122578667D01*
X153122286Y-122626286D01*
X152931810Y-122673905D01*
X152788952Y-122673905D01*
X152598476Y-122626286D01*
X152503238Y-122578667D01*
X152408000Y-122483429D01*
X152360381Y-122340571D01*
X152360381Y-122245333D01*
X152408000Y-122102476D01*
X152455619Y-122054857D01*
X153360381Y-121102476D02*
X153360381Y-121673905D01*
X153360381Y-121388191D02*
X152360381Y-121388191D01*
X152503238Y-121483429D01*
X152598476Y-121578667D01*
X152646095Y-121673905D01*
X152360381Y-120483429D02*
X152360381Y-120388190D01*
X152408000Y-120292952D01*
X152455619Y-120245333D01*
X152550857Y-120197714D01*
X152741333Y-120150095D01*
X152979429Y-120150095D01*
X153169905Y-120197714D01*
X153265143Y-120245333D01*
X153312762Y-120292952D01*
X153360381Y-120388190D01*
X153360381Y-120483429D01*
X153312762Y-120578667D01*
X153265143Y-120626286D01*
X153169905Y-120673905D01*
X152979429Y-120721524D01*
X152741333Y-120721524D01*
X152550857Y-120673905D01*
X152455619Y-120626286D01*
X152408000Y-120578667D01*
X152360381Y-120483429D01*
X155313143Y-126595143D02*
X155265524Y-126642762D01*
X155122667Y-126690381D01*
X155027429Y-126690381D01*
X154884571Y-126642762D01*
X154789333Y-126547524D01*
X154741714Y-126452286D01*
X154694095Y-126261810D01*
X154694095Y-126118952D01*
X154741714Y-125928476D01*
X154789333Y-125833238D01*
X154884571Y-125738000D01*
X155027429Y-125690381D01*
X155122667Y-125690381D01*
X155265524Y-125738000D01*
X155313143Y-125785619D01*
X156265524Y-126690381D02*
X155694095Y-126690381D01*
X155979809Y-126690381D02*
X155979809Y-125690381D01*
X155884571Y-125833238D01*
X155789333Y-125928476D01*
X155694095Y-125976095D01*
X157217905Y-126690381D02*
X156646476Y-126690381D01*
X156932190Y-126690381D02*
X156932190Y-125690381D01*
X156836952Y-125833238D01*
X156741714Y-125928476D01*
X156646476Y-125976095D01*
X132834143Y-100306143D02*
X132786524Y-100353762D01*
X132643667Y-100401381D01*
X132548429Y-100401381D01*
X132405571Y-100353762D01*
X132310333Y-100258524D01*
X132262714Y-100163286D01*
X132215095Y-99972810D01*
X132215095Y-99829952D01*
X132262714Y-99639476D01*
X132310333Y-99544238D01*
X132405571Y-99449000D01*
X132548429Y-99401381D01*
X132643667Y-99401381D01*
X132786524Y-99449000D01*
X132834143Y-99496619D01*
X133786524Y-100401381D02*
X133215095Y-100401381D01*
X133500809Y-100401381D02*
X133500809Y-99401381D01*
X133405571Y-99544238D01*
X133310333Y-99639476D01*
X133215095Y-99687095D01*
X134167476Y-99496619D02*
X134215095Y-99449000D01*
X134310333Y-99401381D01*
X134548429Y-99401381D01*
X134643667Y-99449000D01*
X134691286Y-99496619D01*
X134738905Y-99591857D01*
X134738905Y-99687095D01*
X134691286Y-99829952D01*
X134119857Y-100401381D01*
X134738905Y-100401381D01*
X132834143Y-102592143D02*
X132786524Y-102639762D01*
X132643667Y-102687381D01*
X132548429Y-102687381D01*
X132405571Y-102639762D01*
X132310333Y-102544524D01*
X132262714Y-102449286D01*
X132215095Y-102258810D01*
X132215095Y-102115952D01*
X132262714Y-101925476D01*
X132310333Y-101830238D01*
X132405571Y-101735000D01*
X132548429Y-101687381D01*
X132643667Y-101687381D01*
X132786524Y-101735000D01*
X132834143Y-101782619D01*
X133786524Y-102687381D02*
X133215095Y-102687381D01*
X133500809Y-102687381D02*
X133500809Y-101687381D01*
X133405571Y-101830238D01*
X133310333Y-101925476D01*
X133215095Y-101973095D01*
X134119857Y-101687381D02*
X134738905Y-101687381D01*
X134405571Y-102068333D01*
X134548429Y-102068333D01*
X134643667Y-102115952D01*
X134691286Y-102163571D01*
X134738905Y-102258810D01*
X134738905Y-102496905D01*
X134691286Y-102592143D01*
X134643667Y-102639762D01*
X134548429Y-102687381D01*
X134262714Y-102687381D01*
X134167476Y-102639762D01*
X134119857Y-102592143D01*
X132834143Y-110339143D02*
X132786524Y-110386762D01*
X132643667Y-110434381D01*
X132548429Y-110434381D01*
X132405571Y-110386762D01*
X132310333Y-110291524D01*
X132262714Y-110196286D01*
X132215095Y-110005810D01*
X132215095Y-109862952D01*
X132262714Y-109672476D01*
X132310333Y-109577238D01*
X132405571Y-109482000D01*
X132548429Y-109434381D01*
X132643667Y-109434381D01*
X132786524Y-109482000D01*
X132834143Y-109529619D01*
X133786524Y-110434381D02*
X133215095Y-110434381D01*
X133500809Y-110434381D02*
X133500809Y-109434381D01*
X133405571Y-109577238D01*
X133310333Y-109672476D01*
X133215095Y-109720095D01*
X134643667Y-109767714D02*
X134643667Y-110434381D01*
X134405571Y-109386762D02*
X134167476Y-110101048D01*
X134786524Y-110101048D01*
X132834143Y-108053143D02*
X132786524Y-108100762D01*
X132643667Y-108148381D01*
X132548429Y-108148381D01*
X132405571Y-108100762D01*
X132310333Y-108005524D01*
X132262714Y-107910286D01*
X132215095Y-107719810D01*
X132215095Y-107576952D01*
X132262714Y-107386476D01*
X132310333Y-107291238D01*
X132405571Y-107196000D01*
X132548429Y-107148381D01*
X132643667Y-107148381D01*
X132786524Y-107196000D01*
X132834143Y-107243619D01*
X133786524Y-108148381D02*
X133215095Y-108148381D01*
X133500809Y-108148381D02*
X133500809Y-107148381D01*
X133405571Y-107291238D01*
X133310333Y-107386476D01*
X133215095Y-107434095D01*
X134691286Y-107148381D02*
X134215095Y-107148381D01*
X134167476Y-107624571D01*
X134215095Y-107576952D01*
X134310333Y-107529333D01*
X134548429Y-107529333D01*
X134643667Y-107576952D01*
X134691286Y-107624571D01*
X134738905Y-107719810D01*
X134738905Y-107957905D01*
X134691286Y-108053143D01*
X134643667Y-108100762D01*
X134548429Y-108148381D01*
X134310333Y-108148381D01*
X134215095Y-108100762D01*
X134167476Y-108053143D01*
X155186143Y-117451143D02*
X155138524Y-117498762D01*
X154995667Y-117546381D01*
X154900429Y-117546381D01*
X154757571Y-117498762D01*
X154662333Y-117403524D01*
X154614714Y-117308286D01*
X154567095Y-117117810D01*
X154567095Y-116974952D01*
X154614714Y-116784476D01*
X154662333Y-116689238D01*
X154757571Y-116594000D01*
X154900429Y-116546381D01*
X154995667Y-116546381D01*
X155138524Y-116594000D01*
X155186143Y-116641619D01*
X156138524Y-117546381D02*
X155567095Y-117546381D01*
X155852809Y-117546381D02*
X155852809Y-116546381D01*
X155757571Y-116689238D01*
X155662333Y-116784476D01*
X155567095Y-116832095D01*
X156995667Y-116546381D02*
X156805190Y-116546381D01*
X156709952Y-116594000D01*
X156662333Y-116641619D01*
X156567095Y-116784476D01*
X156519476Y-116974952D01*
X156519476Y-117355905D01*
X156567095Y-117451143D01*
X156614714Y-117498762D01*
X156709952Y-117546381D01*
X156900429Y-117546381D01*
X156995667Y-117498762D01*
X157043286Y-117451143D01*
X157090905Y-117355905D01*
X157090905Y-117117810D01*
X157043286Y-117022571D01*
X156995667Y-116974952D01*
X156900429Y-116927333D01*
X156709952Y-116927333D01*
X156614714Y-116974952D01*
X156567095Y-117022571D01*
X156519476Y-117117810D01*
X157980143Y-108942143D02*
X157932524Y-108989762D01*
X157789667Y-109037381D01*
X157694429Y-109037381D01*
X157551571Y-108989762D01*
X157456333Y-108894524D01*
X157408714Y-108799286D01*
X157361095Y-108608810D01*
X157361095Y-108465952D01*
X157408714Y-108275476D01*
X157456333Y-108180238D01*
X157551571Y-108085000D01*
X157694429Y-108037381D01*
X157789667Y-108037381D01*
X157932524Y-108085000D01*
X157980143Y-108132619D01*
X158932524Y-109037381D02*
X158361095Y-109037381D01*
X158646809Y-109037381D02*
X158646809Y-108037381D01*
X158551571Y-108180238D01*
X158456333Y-108275476D01*
X158361095Y-108323095D01*
X159265857Y-108037381D02*
X159932524Y-108037381D01*
X159503952Y-109037381D01*
X155043143Y-99321857D02*
X155090762Y-99369476D01*
X155138381Y-99512333D01*
X155138381Y-99607571D01*
X155090762Y-99750429D01*
X154995524Y-99845667D01*
X154900286Y-99893286D01*
X154709810Y-99940905D01*
X154566952Y-99940905D01*
X154376476Y-99893286D01*
X154281238Y-99845667D01*
X154186000Y-99750429D01*
X154138381Y-99607571D01*
X154138381Y-99512333D01*
X154186000Y-99369476D01*
X154233619Y-99321857D01*
X155138381Y-98369476D02*
X155138381Y-98940905D01*
X155138381Y-98655191D02*
X154138381Y-98655191D01*
X154281238Y-98750429D01*
X154376476Y-98845667D01*
X154424095Y-98940905D01*
X154566952Y-97798048D02*
X154519333Y-97893286D01*
X154471714Y-97940905D01*
X154376476Y-97988524D01*
X154328857Y-97988524D01*
X154233619Y-97940905D01*
X154186000Y-97893286D01*
X154138381Y-97798048D01*
X154138381Y-97607571D01*
X154186000Y-97512333D01*
X154233619Y-97464714D01*
X154328857Y-97417095D01*
X154376476Y-97417095D01*
X154471714Y-97464714D01*
X154519333Y-97512333D01*
X154566952Y-97607571D01*
X154566952Y-97798048D01*
X154614571Y-97893286D01*
X154662190Y-97940905D01*
X154757429Y-97988524D01*
X154947905Y-97988524D01*
X155043143Y-97940905D01*
X155090762Y-97893286D01*
X155138381Y-97798048D01*
X155138381Y-97607571D01*
X155090762Y-97512333D01*
X155043143Y-97464714D01*
X154947905Y-97417095D01*
X154757429Y-97417095D01*
X154662190Y-97464714D01*
X154614571Y-97512333D01*
X154566952Y-97607571D01*
X149725143Y-97258143D02*
X149677524Y-97305762D01*
X149534667Y-97353381D01*
X149439429Y-97353381D01*
X149296571Y-97305762D01*
X149201333Y-97210524D01*
X149153714Y-97115286D01*
X149106095Y-96924810D01*
X149106095Y-96781952D01*
X149153714Y-96591476D01*
X149201333Y-96496238D01*
X149296571Y-96401000D01*
X149439429Y-96353381D01*
X149534667Y-96353381D01*
X149677524Y-96401000D01*
X149725143Y-96448619D01*
X150677524Y-97353381D02*
X150106095Y-97353381D01*
X150391809Y-97353381D02*
X150391809Y-96353381D01*
X150296571Y-96496238D01*
X150201333Y-96591476D01*
X150106095Y-96639095D01*
X151153714Y-97353381D02*
X151344190Y-97353381D01*
X151439429Y-97305762D01*
X151487048Y-97258143D01*
X151582286Y-97115286D01*
X151629905Y-96924810D01*
X151629905Y-96543857D01*
X151582286Y-96448619D01*
X151534667Y-96401000D01*
X151439429Y-96353381D01*
X151248952Y-96353381D01*
X151153714Y-96401000D01*
X151106095Y-96448619D01*
X151058476Y-96543857D01*
X151058476Y-96781952D01*
X151106095Y-96877190D01*
X151153714Y-96924810D01*
X151248952Y-96972429D01*
X151439429Y-96972429D01*
X151534667Y-96924810D01*
X151582286Y-96877190D01*
X151629905Y-96781952D01*
X146518334Y-84907381D02*
X146042143Y-84907381D01*
X146042143Y-83907381D01*
X147375477Y-84907381D02*
X146804048Y-84907381D01*
X147089762Y-84907381D02*
X147089762Y-83907381D01*
X146994524Y-84050238D01*
X146899286Y-84145476D01*
X146804048Y-84193095D01*
X150836334Y-93035381D02*
X150360143Y-93035381D01*
X150360143Y-92035381D01*
X151122048Y-92130619D02*
X151169667Y-92083000D01*
X151264905Y-92035381D01*
X151503001Y-92035381D01*
X151598239Y-92083000D01*
X151645858Y-92130619D01*
X151693477Y-92225857D01*
X151693477Y-92321095D01*
X151645858Y-92463952D01*
X151074429Y-93035381D01*
X151693477Y-93035381D01*
X149312334Y-115514381D02*
X148836143Y-115514381D01*
X148836143Y-114514381D01*
X149550429Y-114514381D02*
X150169477Y-114514381D01*
X149836143Y-114895333D01*
X149979001Y-114895333D01*
X150074239Y-114942952D01*
X150121858Y-114990571D01*
X150169477Y-115085810D01*
X150169477Y-115323905D01*
X150121858Y-115419143D01*
X150074239Y-115466762D01*
X149979001Y-115514381D01*
X149693286Y-115514381D01*
X149598048Y-115466762D01*
X149550429Y-115419143D01*
X153503334Y-115387381D02*
X153027143Y-115387381D01*
X153027143Y-114387381D01*
X154265239Y-114720714D02*
X154265239Y-115387381D01*
X154027143Y-114339762D02*
X153789048Y-115054048D01*
X154408096Y-115054048D01*
X98496381Y-85574095D02*
X97496381Y-85574095D01*
X97496381Y-85193142D01*
X97544000Y-85097904D01*
X97591619Y-85050285D01*
X97686857Y-85002666D01*
X97829714Y-85002666D01*
X97924952Y-85050285D01*
X97972571Y-85097904D01*
X98020190Y-85193142D01*
X98020190Y-85574095D01*
X98496381Y-84050285D02*
X98496381Y-84621714D01*
X98496381Y-84336000D02*
X97496381Y-84336000D01*
X97639238Y-84431238D01*
X97734476Y-84526476D01*
X97782095Y-84621714D01*
X110958334Y-88082381D02*
X110625000Y-87606190D01*
X110386905Y-88082381D02*
X110386905Y-87082381D01*
X110767858Y-87082381D01*
X110863096Y-87130000D01*
X110910715Y-87177619D01*
X110958334Y-87272857D01*
X110958334Y-87415714D01*
X110910715Y-87510952D01*
X110863096Y-87558571D01*
X110767858Y-87606190D01*
X110386905Y-87606190D01*
X111910715Y-88082381D02*
X111339286Y-88082381D01*
X111625000Y-88082381D02*
X111625000Y-87082381D01*
X111529762Y-87225238D01*
X111434524Y-87320476D01*
X111339286Y-87368095D01*
X157567334Y-111323381D02*
X157234000Y-110847190D01*
X156995905Y-111323381D02*
X156995905Y-110323381D01*
X157376858Y-110323381D01*
X157472096Y-110371000D01*
X157519715Y-110418619D01*
X157567334Y-110513857D01*
X157567334Y-110656714D01*
X157519715Y-110751952D01*
X157472096Y-110799571D01*
X157376858Y-110847190D01*
X156995905Y-110847190D01*
X157948286Y-110418619D02*
X157995905Y-110371000D01*
X158091143Y-110323381D01*
X158329239Y-110323381D01*
X158424477Y-110371000D01*
X158472096Y-110418619D01*
X158519715Y-110513857D01*
X158519715Y-110609095D01*
X158472096Y-110751952D01*
X157900667Y-111323381D01*
X158519715Y-111323381D01*
X157440334Y-106878381D02*
X157107000Y-106402190D01*
X156868905Y-106878381D02*
X156868905Y-105878381D01*
X157249858Y-105878381D01*
X157345096Y-105926000D01*
X157392715Y-105973619D01*
X157440334Y-106068857D01*
X157440334Y-106211714D01*
X157392715Y-106306952D01*
X157345096Y-106354571D01*
X157249858Y-106402190D01*
X156868905Y-106402190D01*
X157773667Y-105878381D02*
X158392715Y-105878381D01*
X158059381Y-106259333D01*
X158202239Y-106259333D01*
X158297477Y-106306952D01*
X158345096Y-106354571D01*
X158392715Y-106449810D01*
X158392715Y-106687905D01*
X158345096Y-106783143D01*
X158297477Y-106830762D01*
X158202239Y-106878381D01*
X157916524Y-106878381D01*
X157821286Y-106830762D01*
X157773667Y-106783143D01*
X136762762Y-93058381D02*
X136429428Y-92582190D01*
X136191333Y-93058381D02*
X136191333Y-92058381D01*
X136572286Y-92058381D01*
X136667524Y-92106000D01*
X136715143Y-92153619D01*
X136762762Y-92248857D01*
X136762762Y-92391714D01*
X136715143Y-92486952D01*
X136667524Y-92534571D01*
X136572286Y-92582190D01*
X136191333Y-92582190D01*
X137048476Y-92058381D02*
X137381809Y-93058381D01*
X137715143Y-92058381D01*
X138572286Y-93058381D02*
X138000857Y-93058381D01*
X138286571Y-93058381D02*
X138286571Y-92058381D01*
X138191333Y-92201238D01*
X138096095Y-92296476D01*
X138000857Y-92344095D01*
X158504095Y-85494762D02*
X158646952Y-85542381D01*
X158885048Y-85542381D01*
X158980286Y-85494762D01*
X159027905Y-85447143D01*
X159075524Y-85351905D01*
X159075524Y-85256667D01*
X159027905Y-85161429D01*
X158980286Y-85113810D01*
X158885048Y-85066190D01*
X158694571Y-85018571D01*
X158599333Y-84970952D01*
X158551714Y-84923333D01*
X158504095Y-84828095D01*
X158504095Y-84732857D01*
X158551714Y-84637619D01*
X158599333Y-84590000D01*
X158694571Y-84542381D01*
X158932667Y-84542381D01*
X159075524Y-84590000D01*
X159504095Y-85542381D02*
X159504095Y-84542381D01*
X159885048Y-84542381D01*
X159980286Y-84590000D01*
X160027905Y-84637619D01*
X160075524Y-84732857D01*
X160075524Y-84875714D01*
X160027905Y-84970952D01*
X159980286Y-85018571D01*
X159885048Y-85066190D01*
X159504095Y-85066190D01*
X161027905Y-85542381D02*
X160456476Y-85542381D01*
X160742190Y-85542381D02*
X160742190Y-84542381D01*
X160646952Y-84685238D01*
X160551714Y-84780476D01*
X160456476Y-84828095D01*
X158123095Y-126261762D02*
X158265952Y-126309381D01*
X158504048Y-126309381D01*
X158599286Y-126261762D01*
X158646905Y-126214143D01*
X158694524Y-126118905D01*
X158694524Y-126023667D01*
X158646905Y-125928429D01*
X158599286Y-125880810D01*
X158504048Y-125833190D01*
X158313571Y-125785571D01*
X158218333Y-125737952D01*
X158170714Y-125690333D01*
X158123095Y-125595095D01*
X158123095Y-125499857D01*
X158170714Y-125404619D01*
X158218333Y-125357000D01*
X158313571Y-125309381D01*
X158551667Y-125309381D01*
X158694524Y-125357000D01*
X159123095Y-126309381D02*
X159123095Y-125309381D01*
X159504048Y-125309381D01*
X159599286Y-125357000D01*
X159646905Y-125404619D01*
X159694524Y-125499857D01*
X159694524Y-125642714D01*
X159646905Y-125737952D01*
X159599286Y-125785571D01*
X159504048Y-125833190D01*
X159123095Y-125833190D01*
X160075476Y-125404619D02*
X160123095Y-125357000D01*
X160218333Y-125309381D01*
X160456429Y-125309381D01*
X160551667Y-125357000D01*
X160599286Y-125404619D01*
X160646905Y-125499857D01*
X160646905Y-125595095D01*
X160599286Y-125737952D01*
X160027857Y-126309381D01*
X160646905Y-126309381D01*
X104163762Y-123634333D02*
X104211381Y-123491476D01*
X104211381Y-123253380D01*
X104163762Y-123158142D01*
X104116143Y-123110523D01*
X104020905Y-123062904D01*
X103925667Y-123062904D01*
X103830429Y-123110523D01*
X103782810Y-123158142D01*
X103735190Y-123253380D01*
X103687571Y-123443857D01*
X103639952Y-123539095D01*
X103592333Y-123586714D01*
X103497095Y-123634333D01*
X103401857Y-123634333D01*
X103306619Y-123586714D01*
X103259000Y-123539095D01*
X103211381Y-123443857D01*
X103211381Y-123205761D01*
X103259000Y-123062904D01*
X103211381Y-122729571D02*
X104211381Y-122491476D01*
X103497095Y-122300999D01*
X104211381Y-122110523D01*
X103211381Y-121872428D01*
X104211381Y-120967666D02*
X104211381Y-121539095D01*
X104211381Y-121253381D02*
X103211381Y-121253381D01*
X103354238Y-121348619D01*
X103449476Y-121443857D01*
X103497095Y-121539095D01*
X114300095Y-93940381D02*
X114300095Y-94749905D01*
X114347714Y-94845143D01*
X114395333Y-94892762D01*
X114490571Y-94940381D01*
X114681048Y-94940381D01*
X114776286Y-94892762D01*
X114823905Y-94845143D01*
X114871524Y-94749905D01*
X114871524Y-93940381D01*
X115871524Y-94940381D02*
X115300095Y-94940381D01*
X115585809Y-94940381D02*
X115585809Y-93940381D01*
X115490571Y-94083238D01*
X115395333Y-94178476D01*
X115300095Y-94226095D01*
X119860381Y-93575095D02*
X118860381Y-93575095D01*
X118860381Y-93337000D01*
X118908000Y-93194142D01*
X119003238Y-93098904D01*
X119098476Y-93051285D01*
X119288952Y-93003666D01*
X119431810Y-93003666D01*
X119622286Y-93051285D01*
X119717524Y-93098904D01*
X119812762Y-93194142D01*
X119860381Y-93337000D01*
X119860381Y-93575095D01*
X119860381Y-92051285D02*
X119860381Y-92622714D01*
X119860381Y-92337000D02*
X118860381Y-92337000D01*
X119003238Y-92432238D01*
X119098476Y-92527476D01*
X119146095Y-92622714D01*
X121796381Y-93384666D02*
X121320190Y-93718000D01*
X121796381Y-93956095D02*
X120796381Y-93956095D01*
X120796381Y-93575142D01*
X120844000Y-93479904D01*
X120891619Y-93432285D01*
X120986857Y-93384666D01*
X121129714Y-93384666D01*
X121224952Y-93432285D01*
X121272571Y-93479904D01*
X121320190Y-93575142D01*
X121320190Y-93956095D01*
X121129714Y-92527523D02*
X121796381Y-92527523D01*
X120748762Y-92765619D02*
X121463048Y-93003714D01*
X121463048Y-92384666D01*
X103846381Y-93043333D02*
X104560667Y-93043333D01*
X104703524Y-93090953D01*
X104798762Y-93186191D01*
X104846381Y-93329048D01*
X104846381Y-93424286D01*
X104846381Y-92043333D02*
X104846381Y-92614762D01*
X104846381Y-92329048D02*
X103846381Y-92329048D01*
X103989238Y-92424286D01*
X104084476Y-92519524D01*
X104132095Y-92614762D01*
X103592381Y-108664333D02*
X104306667Y-108664333D01*
X104449524Y-108711953D01*
X104544762Y-108807191D01*
X104592381Y-108950048D01*
X104592381Y-109045286D01*
X103687619Y-108235762D02*
X103640000Y-108188143D01*
X103592381Y-108092905D01*
X103592381Y-107854809D01*
X103640000Y-107759571D01*
X103687619Y-107711952D01*
X103782857Y-107664333D01*
X103878095Y-107664333D01*
X104020952Y-107711952D01*
X104592381Y-108283381D01*
X104592381Y-107664333D01*
X144076095Y-108900381D02*
X144076095Y-109709905D01*
X144123714Y-109805143D01*
X144171333Y-109852762D01*
X144266571Y-109900381D01*
X144457048Y-109900381D01*
X144552286Y-109852762D01*
X144599905Y-109805143D01*
X144647524Y-109709905D01*
X144647524Y-108900381D01*
X145076095Y-108995619D02*
X145123714Y-108948000D01*
X145218952Y-108900381D01*
X145457048Y-108900381D01*
X145552286Y-108948000D01*
X145599905Y-108995619D01*
X145647524Y-109090857D01*
X145647524Y-109186095D01*
X145599905Y-109328952D01*
X145028476Y-109900381D01*
X145647524Y-109900381D01*
M02*
