G04 #@! TF.FileFunction,Copper,L2,Bot,Signal*
%FSLAX46Y46*%
G04 Gerber Fmt 4.6, Leading zero omitted, Abs format (unit mm)*
G04 Created by KiCad (PCBNEW 4.0.1-2.201512121406+6195~38~ubuntu14.04.1-stable) date Sun 03 Jul 2016 07:38:07 PM CEST*
%MOMM*%
G01*
G04 APERTURE LIST*
%ADD10C,0.100000*%
%ADD11R,2.032000X2.032000*%
%ADD12O,2.032000X2.032000*%
%ADD13C,2.000000*%
%ADD14C,3.810000*%
%ADD15C,3.048000*%
%ADD16R,7.800000X3.400000*%
%ADD17C,0.508000*%
%ADD18C,0.685800*%
%ADD19C,1.371600*%
%ADD20C,0.609600*%
%ADD21C,0.152400*%
%ADD22C,1.219200*%
%ADD23C,0.304800*%
G04 APERTURE END LIST*
D10*
D11*
X103251000Y-84963000D03*
D12*
X100711000Y-84963000D03*
D13*
X136358000Y-86106000D03*
X133858000Y-86106000D03*
X131358000Y-86106000D03*
D11*
X159766000Y-87630000D03*
D12*
X159766000Y-90170000D03*
D11*
X159385000Y-122936000D03*
D12*
X159385000Y-120396000D03*
D14*
X96393000Y-97917000D03*
X100888800Y-92913200D03*
X100888800Y-102920800D03*
D15*
X100888800Y-97917000D03*
D14*
X96139000Y-113538000D03*
X100634800Y-108534200D03*
X100634800Y-118541800D03*
D15*
X100634800Y-113538000D03*
D16*
X145288000Y-104648000D03*
D17*
X142038000Y-103598000D03*
X143338000Y-103598000D03*
X144638000Y-103598000D03*
X145938000Y-103598000D03*
X147238000Y-103598000D03*
X148538000Y-103598000D03*
X142038000Y-104648000D03*
X143338000Y-104648000D03*
X144638000Y-104648000D03*
X145938000Y-104648000D03*
X147238000Y-104648000D03*
X148538000Y-104648000D03*
X142038000Y-105698000D03*
X143338000Y-105698000D03*
X144638000Y-105698000D03*
X145938000Y-105698000D03*
X147238000Y-105698000D03*
X148538000Y-105698000D03*
D18*
X143637000Y-109093000D03*
X146939000Y-108966000D03*
X139446000Y-115443000D03*
D19*
X148844000Y-98679000D03*
D18*
X142875000Y-109474000D03*
X152908000Y-110871000D03*
X151257000Y-94996000D03*
X147066000Y-100330000D03*
X143764000Y-100330000D03*
D20*
X146939000Y-108966000D02*
X146304000Y-109601000D01*
X144145000Y-109601000D02*
X143637000Y-109093000D01*
X146304000Y-109601000D02*
X144145000Y-109601000D01*
X151003000Y-100838000D02*
X148844000Y-98679000D01*
X151003000Y-107442000D02*
X151003000Y-100838000D01*
X149225000Y-109220000D02*
X151003000Y-107442000D01*
X147193000Y-109220000D02*
X149225000Y-109220000D01*
X146939000Y-108966000D02*
X147193000Y-109220000D01*
D21*
X148844000Y-98552000D02*
X148844000Y-98679000D01*
D22*
X148844000Y-98679000D02*
X142367000Y-98679000D01*
X139446000Y-101600000D02*
X139446000Y-115443000D01*
X142367000Y-98679000D02*
X139446000Y-101600000D01*
X148844000Y-98552000D02*
X148844000Y-98806000D01*
X136358000Y-86106000D02*
X138430000Y-86106000D01*
X148844000Y-96520000D02*
X148844000Y-98679000D01*
X138430000Y-86106000D02*
X148844000Y-96520000D01*
D23*
X144272000Y-110871000D02*
X152908000Y-110871000D01*
X144272000Y-110871000D02*
X142875000Y-109474000D01*
X135382000Y-84582000D02*
X133858000Y-86106000D01*
X140843000Y-84582000D02*
X135382000Y-84582000D01*
X151257000Y-94996000D02*
X140843000Y-84582000D01*
D21*
X143764000Y-100330000D02*
X147066000Y-100330000D01*
G36*
X162891400Y-127585400D02*
X93267600Y-127585400D01*
X93267600Y-121920000D01*
X158135922Y-121920000D01*
X158135922Y-123952000D01*
X158151862Y-124036714D01*
X158201928Y-124114518D01*
X158278320Y-124166715D01*
X158369000Y-124185078D01*
X160401000Y-124185078D01*
X160485714Y-124169138D01*
X160563518Y-124119072D01*
X160615715Y-124042680D01*
X160634078Y-123952000D01*
X160634078Y-121920000D01*
X160618138Y-121835286D01*
X160568072Y-121757482D01*
X160491680Y-121705285D01*
X160401000Y-121686922D01*
X158369000Y-121686922D01*
X158284286Y-121702862D01*
X158206482Y-121752928D01*
X158154285Y-121829320D01*
X158135922Y-121920000D01*
X93267600Y-121920000D01*
X93267600Y-118964337D01*
X98500830Y-118964337D01*
X98824967Y-119748809D01*
X99424635Y-120349524D01*
X100208539Y-120675029D01*
X101057337Y-120675770D01*
X101734432Y-120396000D01*
X158116017Y-120396000D01*
X158210757Y-120872288D01*
X158480552Y-121276065D01*
X158884329Y-121545860D01*
X159360617Y-121640600D01*
X159409383Y-121640600D01*
X159885671Y-121545860D01*
X160289448Y-121276065D01*
X160559243Y-120872288D01*
X160653983Y-120396000D01*
X160559243Y-119919712D01*
X160289448Y-119515935D01*
X159885671Y-119246140D01*
X159409383Y-119151400D01*
X159360617Y-119151400D01*
X158884329Y-119246140D01*
X158480552Y-119515935D01*
X158210757Y-119919712D01*
X158116017Y-120396000D01*
X101734432Y-120396000D01*
X101841809Y-120351633D01*
X102442524Y-119751965D01*
X102768029Y-118968061D01*
X102768770Y-118119263D01*
X102444633Y-117334791D01*
X101844965Y-116734076D01*
X101061061Y-116408571D01*
X100212263Y-116407830D01*
X99427791Y-116731967D01*
X98827076Y-117331635D01*
X98501571Y-118115539D01*
X98500830Y-118964337D01*
X93267600Y-118964337D01*
X93267600Y-113960537D01*
X94005030Y-113960537D01*
X94329167Y-114745009D01*
X94928835Y-115345724D01*
X95712739Y-115671229D01*
X96561537Y-115671970D01*
X97346009Y-115347833D01*
X97946724Y-114748165D01*
X98272229Y-113964261D01*
X98272298Y-113885084D01*
X98881897Y-113885084D01*
X99148152Y-114529471D01*
X99640736Y-115022915D01*
X100284657Y-115290295D01*
X100981884Y-115290903D01*
X101626271Y-115024648D01*
X102119715Y-114532064D01*
X102387095Y-113888143D01*
X102387703Y-113190916D01*
X102121448Y-112546529D01*
X101628864Y-112053085D01*
X100984943Y-111785705D01*
X100287716Y-111785097D01*
X99643329Y-112051352D01*
X99149885Y-112543936D01*
X98882505Y-113187857D01*
X98881897Y-113885084D01*
X98272298Y-113885084D01*
X98272970Y-113115463D01*
X97948833Y-112330991D01*
X97349165Y-111730276D01*
X96565261Y-111404771D01*
X95716463Y-111404030D01*
X94931991Y-111728167D01*
X94331276Y-112327835D01*
X94005771Y-113111739D01*
X94005030Y-113960537D01*
X93267600Y-113960537D01*
X93267600Y-108956737D01*
X98500830Y-108956737D01*
X98824967Y-109741209D01*
X99424635Y-110341924D01*
X100208539Y-110667429D01*
X101057337Y-110668170D01*
X101841809Y-110344033D01*
X102442524Y-109744365D01*
X102768029Y-108960461D01*
X102768770Y-108111663D01*
X102444633Y-107327191D01*
X101844965Y-106726476D01*
X101061061Y-106400971D01*
X100212263Y-106400230D01*
X99427791Y-106724367D01*
X98827076Y-107324035D01*
X98501571Y-108107939D01*
X98500830Y-108956737D01*
X93267600Y-108956737D01*
X93267600Y-103343337D01*
X98754830Y-103343337D01*
X99078967Y-104127809D01*
X99678635Y-104728524D01*
X100462539Y-105054029D01*
X101311337Y-105054770D01*
X102095809Y-104730633D01*
X102696524Y-104130965D01*
X103022029Y-103347061D01*
X103022770Y-102498263D01*
X102698633Y-101713791D01*
X102098965Y-101113076D01*
X101315061Y-100787571D01*
X100466263Y-100786830D01*
X99681791Y-101110967D01*
X99081076Y-101710635D01*
X98755571Y-102494539D01*
X98754830Y-103343337D01*
X93267600Y-103343337D01*
X93267600Y-98339537D01*
X94259030Y-98339537D01*
X94583167Y-99124009D01*
X95182835Y-99724724D01*
X95966739Y-100050229D01*
X96815537Y-100050970D01*
X97600009Y-99726833D01*
X98200724Y-99127165D01*
X98526229Y-98343261D01*
X98526298Y-98264084D01*
X99135897Y-98264084D01*
X99402152Y-98908471D01*
X99894736Y-99401915D01*
X100538657Y-99669295D01*
X101235884Y-99669903D01*
X101880271Y-99403648D01*
X102373715Y-98911064D01*
X102641095Y-98267143D01*
X102641703Y-97569916D01*
X102375448Y-96925529D01*
X101882864Y-96432085D01*
X101238943Y-96164705D01*
X100541716Y-96164097D01*
X99897329Y-96430352D01*
X99403885Y-96922936D01*
X99136505Y-97566857D01*
X99135897Y-98264084D01*
X98526298Y-98264084D01*
X98526970Y-97494463D01*
X98202833Y-96709991D01*
X97603165Y-96109276D01*
X96819261Y-95783771D01*
X95970463Y-95783030D01*
X95185991Y-96107167D01*
X94585276Y-96706835D01*
X94259771Y-97490739D01*
X94259030Y-98339537D01*
X93267600Y-98339537D01*
X93267600Y-93335737D01*
X98754830Y-93335737D01*
X99078967Y-94120209D01*
X99678635Y-94720924D01*
X100462539Y-95046429D01*
X101311337Y-95047170D01*
X102095809Y-94723033D01*
X102696524Y-94123365D01*
X103022029Y-93339461D01*
X103022770Y-92490663D01*
X102698633Y-91706191D01*
X102098965Y-91105476D01*
X101315061Y-90779971D01*
X100466263Y-90779230D01*
X99681791Y-91103367D01*
X99081076Y-91703035D01*
X98755571Y-92486939D01*
X98754830Y-93335737D01*
X93267600Y-93335737D01*
X93267600Y-89679017D01*
X128379162Y-89679017D01*
X128588599Y-90185894D01*
X128976066Y-90574038D01*
X129482577Y-90784360D01*
X130031017Y-90784838D01*
X130537894Y-90575401D01*
X130926038Y-90187934D01*
X131136360Y-89681423D01*
X131136362Y-89679017D01*
X136579162Y-89679017D01*
X136788599Y-90185894D01*
X137176066Y-90574038D01*
X137682577Y-90784360D01*
X138231017Y-90784838D01*
X138737894Y-90575401D01*
X139126038Y-90187934D01*
X139336360Y-89681423D01*
X139336838Y-89132983D01*
X139127401Y-88626106D01*
X138739934Y-88237962D01*
X138233423Y-88027640D01*
X137684983Y-88027162D01*
X137178106Y-88236599D01*
X136789962Y-88624066D01*
X136579640Y-89130577D01*
X136579162Y-89679017D01*
X131136362Y-89679017D01*
X131136838Y-89132983D01*
X130927401Y-88626106D01*
X130539934Y-88237962D01*
X130033423Y-88027640D01*
X129484983Y-88027162D01*
X128978106Y-88236599D01*
X128589962Y-88624066D01*
X128379640Y-89130577D01*
X128379162Y-89679017D01*
X93267600Y-89679017D01*
X93267600Y-87262960D01*
X130452488Y-87262960D01*
X130558201Y-87509321D01*
X131156109Y-87708569D01*
X131784753Y-87663841D01*
X132157799Y-87509321D01*
X132263512Y-87262960D01*
X131358000Y-86357447D01*
X130452488Y-87262960D01*
X93267600Y-87262960D01*
X93267600Y-85387389D01*
X99168089Y-85387389D01*
X99447943Y-85945531D01*
X99920086Y-86354091D01*
X100286613Y-86505899D01*
X100533200Y-86406239D01*
X100533200Y-85140800D01*
X99266746Y-85140800D01*
X99168089Y-85387389D01*
X93267600Y-85387389D01*
X93267600Y-84538611D01*
X99168089Y-84538611D01*
X99266746Y-84785200D01*
X100533200Y-84785200D01*
X100533200Y-83519761D01*
X100888800Y-83519761D01*
X100888800Y-84785200D01*
X100908800Y-84785200D01*
X100908800Y-85140800D01*
X100888800Y-85140800D01*
X100888800Y-86406239D01*
X101135387Y-86505899D01*
X101501914Y-86354091D01*
X101974057Y-85945531D01*
X102001922Y-85889957D01*
X102001922Y-85979000D01*
X102017862Y-86063714D01*
X102067928Y-86141518D01*
X102144320Y-86193715D01*
X102235000Y-86212078D01*
X104267000Y-86212078D01*
X104351714Y-86196138D01*
X104429518Y-86146072D01*
X104481715Y-86069680D01*
X104500078Y-85979000D01*
X104500078Y-85904109D01*
X129755431Y-85904109D01*
X129800159Y-86532753D01*
X129954679Y-86905799D01*
X130201040Y-87011512D01*
X131106553Y-86106000D01*
X131609447Y-86106000D01*
X132514960Y-87011512D01*
X132761321Y-86905799D01*
X132804984Y-86774774D01*
X132815836Y-86801037D01*
X133161145Y-87146949D01*
X133612544Y-87334387D01*
X134101312Y-87334813D01*
X134553037Y-87148164D01*
X134898949Y-86802855D01*
X135086387Y-86351456D01*
X135086813Y-85862688D01*
X134956210Y-85546605D01*
X135539815Y-84963000D01*
X135907005Y-84963000D01*
X135662963Y-85063836D01*
X135317051Y-85409145D01*
X135129613Y-85860544D01*
X135129187Y-86349312D01*
X135315836Y-86801037D01*
X135661145Y-87146949D01*
X136112544Y-87334387D01*
X136601312Y-87334813D01*
X137053037Y-87148164D01*
X137257357Y-86944200D01*
X138082806Y-86944200D01*
X148005800Y-96867194D01*
X148005800Y-97840800D01*
X142367000Y-97840800D01*
X142046235Y-97904604D01*
X141774303Y-98086303D01*
X138853303Y-101007303D01*
X138671604Y-101279234D01*
X138671604Y-101279235D01*
X138607800Y-101600000D01*
X138607800Y-115443000D01*
X138671604Y-115763765D01*
X138853303Y-116035697D01*
X139125235Y-116217396D01*
X139446000Y-116281200D01*
X139766765Y-116217396D01*
X140038697Y-116035697D01*
X140220396Y-115763765D01*
X140284200Y-115443000D01*
X140284200Y-101947194D01*
X141788214Y-100443180D01*
X143192401Y-100443180D01*
X143279224Y-100653306D01*
X143439849Y-100814211D01*
X143649823Y-100901400D01*
X143877180Y-100901599D01*
X144087306Y-100814776D01*
X144248211Y-100654151D01*
X144256246Y-100634800D01*
X146573577Y-100634800D01*
X146581224Y-100653306D01*
X146741849Y-100814211D01*
X146951823Y-100901400D01*
X147179180Y-100901599D01*
X147389306Y-100814776D01*
X147550211Y-100654151D01*
X147637400Y-100444177D01*
X147637599Y-100216820D01*
X147550776Y-100006694D01*
X147390151Y-99845789D01*
X147180177Y-99758600D01*
X146952820Y-99758401D01*
X146742694Y-99845224D01*
X146581789Y-100005849D01*
X146573754Y-100025200D01*
X144256423Y-100025200D01*
X144248776Y-100006694D01*
X144088151Y-99845789D01*
X143878177Y-99758600D01*
X143650820Y-99758401D01*
X143440694Y-99845224D01*
X143279789Y-100005849D01*
X143192600Y-100215823D01*
X143192401Y-100443180D01*
X141788214Y-100443180D01*
X142714194Y-99517200D01*
X148428655Y-99517200D01*
X148523235Y-99580396D01*
X148844000Y-99644200D01*
X149019874Y-99609216D01*
X150469600Y-101058942D01*
X150469600Y-107221058D01*
X149004058Y-108686600D01*
X147441918Y-108686600D01*
X147423776Y-108642694D01*
X147263151Y-108481789D01*
X147053177Y-108394600D01*
X146825820Y-108394401D01*
X146615694Y-108481224D01*
X146454789Y-108641849D01*
X146416429Y-108734230D01*
X146083058Y-109067600D01*
X144365941Y-109067600D01*
X144159617Y-108861275D01*
X144121776Y-108769694D01*
X143961151Y-108608789D01*
X143751177Y-108521600D01*
X143523820Y-108521401D01*
X143313694Y-108608224D01*
X143152789Y-108768849D01*
X143081357Y-108940876D01*
X142989177Y-108902600D01*
X142761820Y-108902401D01*
X142551694Y-108989224D01*
X142390789Y-109149849D01*
X142303600Y-109359823D01*
X142303401Y-109587180D01*
X142390224Y-109797306D01*
X142550849Y-109958211D01*
X142760823Y-110045400D01*
X142907713Y-110045529D01*
X144002590Y-111140405D01*
X144002592Y-111140408D01*
X144076688Y-111189917D01*
X144126197Y-111222998D01*
X144272000Y-111252000D01*
X152480818Y-111252000D01*
X152583849Y-111355211D01*
X152793823Y-111442400D01*
X153021180Y-111442599D01*
X153231306Y-111355776D01*
X153392211Y-111195151D01*
X153479400Y-110985177D01*
X153479599Y-110757820D01*
X153392776Y-110547694D01*
X153232151Y-110386789D01*
X153022177Y-110299600D01*
X152794820Y-110299401D01*
X152584694Y-110386224D01*
X152480737Y-110490000D01*
X144429815Y-110490000D01*
X144056639Y-110116824D01*
X144145000Y-110134400D01*
X146304000Y-110134400D01*
X146508123Y-110093797D01*
X146681171Y-109978171D01*
X146681172Y-109978170D01*
X146963500Y-109695841D01*
X146988876Y-109712797D01*
X147193000Y-109753400D01*
X149225000Y-109753400D01*
X149429123Y-109712797D01*
X149602171Y-109597171D01*
X151380171Y-107819171D01*
X151495797Y-107646123D01*
X151536401Y-107442000D01*
X151536400Y-107441995D01*
X151536400Y-100838000D01*
X151495797Y-100633877D01*
X151380171Y-100460829D01*
X149758261Y-98838919D01*
X149758558Y-98497913D01*
X149682200Y-98313113D01*
X149682200Y-96520000D01*
X149618396Y-96199235D01*
X149618396Y-96199234D01*
X149436697Y-95927303D01*
X139022697Y-85513303D01*
X138750766Y-85331604D01*
X138430000Y-85267800D01*
X137257251Y-85267800D01*
X137054855Y-85065051D01*
X136809090Y-84963000D01*
X140685184Y-84963000D01*
X150685529Y-94963345D01*
X150685401Y-95109180D01*
X150772224Y-95319306D01*
X150932849Y-95480211D01*
X151142823Y-95567400D01*
X151370180Y-95567599D01*
X151580306Y-95480776D01*
X151741211Y-95320151D01*
X151828400Y-95110177D01*
X151828599Y-94882820D01*
X151741776Y-94672694D01*
X151581151Y-94511789D01*
X151371177Y-94424600D01*
X151224287Y-94424471D01*
X146969816Y-90170000D01*
X158497017Y-90170000D01*
X158591757Y-90646288D01*
X158861552Y-91050065D01*
X159265329Y-91319860D01*
X159741617Y-91414600D01*
X159790383Y-91414600D01*
X160266671Y-91319860D01*
X160670448Y-91050065D01*
X160940243Y-90646288D01*
X161034983Y-90170000D01*
X160940243Y-89693712D01*
X160670448Y-89289935D01*
X160266671Y-89020140D01*
X159790383Y-88925400D01*
X159741617Y-88925400D01*
X159265329Y-89020140D01*
X158861552Y-89289935D01*
X158591757Y-89693712D01*
X158497017Y-90170000D01*
X146969816Y-90170000D01*
X143413816Y-86614000D01*
X158516922Y-86614000D01*
X158516922Y-88646000D01*
X158532862Y-88730714D01*
X158582928Y-88808518D01*
X158659320Y-88860715D01*
X158750000Y-88879078D01*
X160782000Y-88879078D01*
X160866714Y-88863138D01*
X160944518Y-88813072D01*
X160996715Y-88736680D01*
X161015078Y-88646000D01*
X161015078Y-86614000D01*
X160999138Y-86529286D01*
X160949072Y-86451482D01*
X160872680Y-86399285D01*
X160782000Y-86380922D01*
X158750000Y-86380922D01*
X158665286Y-86396862D01*
X158587482Y-86446928D01*
X158535285Y-86523320D01*
X158516922Y-86614000D01*
X143413816Y-86614000D01*
X141112408Y-84312592D01*
X140988803Y-84230002D01*
X140843000Y-84201000D01*
X135382000Y-84201000D01*
X135236198Y-84230002D01*
X135112592Y-84312592D01*
X135112590Y-84312595D01*
X134417266Y-85007919D01*
X134103456Y-84877613D01*
X133614688Y-84877187D01*
X133162963Y-85063836D01*
X132817051Y-85409145D01*
X132810498Y-85424926D01*
X132761321Y-85306201D01*
X132514960Y-85200488D01*
X131609447Y-86106000D01*
X131106553Y-86106000D01*
X130201040Y-85200488D01*
X129954679Y-85306201D01*
X129755431Y-85904109D01*
X104500078Y-85904109D01*
X104500078Y-84949040D01*
X130452488Y-84949040D01*
X131358000Y-85854553D01*
X132263512Y-84949040D01*
X132157799Y-84702679D01*
X131559891Y-84503431D01*
X130931247Y-84548159D01*
X130558201Y-84702679D01*
X130452488Y-84949040D01*
X104500078Y-84949040D01*
X104500078Y-83947000D01*
X104484138Y-83862286D01*
X104434072Y-83784482D01*
X104357680Y-83732285D01*
X104267000Y-83713922D01*
X102235000Y-83713922D01*
X102150286Y-83729862D01*
X102072482Y-83779928D01*
X102020285Y-83856320D01*
X102001922Y-83947000D01*
X102001922Y-84036043D01*
X101974057Y-83980469D01*
X101501914Y-83571909D01*
X101135387Y-83420101D01*
X100888800Y-83519761D01*
X100533200Y-83519761D01*
X100286613Y-83420101D01*
X99920086Y-83571909D01*
X99447943Y-83980469D01*
X99168089Y-84538611D01*
X93267600Y-84538611D01*
X93267600Y-82853600D01*
X162891400Y-82853600D01*
X162891400Y-127585400D01*
X162891400Y-127585400D01*
G37*
X162891400Y-127585400D02*
X93267600Y-127585400D01*
X93267600Y-121920000D01*
X158135922Y-121920000D01*
X158135922Y-123952000D01*
X158151862Y-124036714D01*
X158201928Y-124114518D01*
X158278320Y-124166715D01*
X158369000Y-124185078D01*
X160401000Y-124185078D01*
X160485714Y-124169138D01*
X160563518Y-124119072D01*
X160615715Y-124042680D01*
X160634078Y-123952000D01*
X160634078Y-121920000D01*
X160618138Y-121835286D01*
X160568072Y-121757482D01*
X160491680Y-121705285D01*
X160401000Y-121686922D01*
X158369000Y-121686922D01*
X158284286Y-121702862D01*
X158206482Y-121752928D01*
X158154285Y-121829320D01*
X158135922Y-121920000D01*
X93267600Y-121920000D01*
X93267600Y-118964337D01*
X98500830Y-118964337D01*
X98824967Y-119748809D01*
X99424635Y-120349524D01*
X100208539Y-120675029D01*
X101057337Y-120675770D01*
X101734432Y-120396000D01*
X158116017Y-120396000D01*
X158210757Y-120872288D01*
X158480552Y-121276065D01*
X158884329Y-121545860D01*
X159360617Y-121640600D01*
X159409383Y-121640600D01*
X159885671Y-121545860D01*
X160289448Y-121276065D01*
X160559243Y-120872288D01*
X160653983Y-120396000D01*
X160559243Y-119919712D01*
X160289448Y-119515935D01*
X159885671Y-119246140D01*
X159409383Y-119151400D01*
X159360617Y-119151400D01*
X158884329Y-119246140D01*
X158480552Y-119515935D01*
X158210757Y-119919712D01*
X158116017Y-120396000D01*
X101734432Y-120396000D01*
X101841809Y-120351633D01*
X102442524Y-119751965D01*
X102768029Y-118968061D01*
X102768770Y-118119263D01*
X102444633Y-117334791D01*
X101844965Y-116734076D01*
X101061061Y-116408571D01*
X100212263Y-116407830D01*
X99427791Y-116731967D01*
X98827076Y-117331635D01*
X98501571Y-118115539D01*
X98500830Y-118964337D01*
X93267600Y-118964337D01*
X93267600Y-113960537D01*
X94005030Y-113960537D01*
X94329167Y-114745009D01*
X94928835Y-115345724D01*
X95712739Y-115671229D01*
X96561537Y-115671970D01*
X97346009Y-115347833D01*
X97946724Y-114748165D01*
X98272229Y-113964261D01*
X98272298Y-113885084D01*
X98881897Y-113885084D01*
X99148152Y-114529471D01*
X99640736Y-115022915D01*
X100284657Y-115290295D01*
X100981884Y-115290903D01*
X101626271Y-115024648D01*
X102119715Y-114532064D01*
X102387095Y-113888143D01*
X102387703Y-113190916D01*
X102121448Y-112546529D01*
X101628864Y-112053085D01*
X100984943Y-111785705D01*
X100287716Y-111785097D01*
X99643329Y-112051352D01*
X99149885Y-112543936D01*
X98882505Y-113187857D01*
X98881897Y-113885084D01*
X98272298Y-113885084D01*
X98272970Y-113115463D01*
X97948833Y-112330991D01*
X97349165Y-111730276D01*
X96565261Y-111404771D01*
X95716463Y-111404030D01*
X94931991Y-111728167D01*
X94331276Y-112327835D01*
X94005771Y-113111739D01*
X94005030Y-113960537D01*
X93267600Y-113960537D01*
X93267600Y-108956737D01*
X98500830Y-108956737D01*
X98824967Y-109741209D01*
X99424635Y-110341924D01*
X100208539Y-110667429D01*
X101057337Y-110668170D01*
X101841809Y-110344033D01*
X102442524Y-109744365D01*
X102768029Y-108960461D01*
X102768770Y-108111663D01*
X102444633Y-107327191D01*
X101844965Y-106726476D01*
X101061061Y-106400971D01*
X100212263Y-106400230D01*
X99427791Y-106724367D01*
X98827076Y-107324035D01*
X98501571Y-108107939D01*
X98500830Y-108956737D01*
X93267600Y-108956737D01*
X93267600Y-103343337D01*
X98754830Y-103343337D01*
X99078967Y-104127809D01*
X99678635Y-104728524D01*
X100462539Y-105054029D01*
X101311337Y-105054770D01*
X102095809Y-104730633D01*
X102696524Y-104130965D01*
X103022029Y-103347061D01*
X103022770Y-102498263D01*
X102698633Y-101713791D01*
X102098965Y-101113076D01*
X101315061Y-100787571D01*
X100466263Y-100786830D01*
X99681791Y-101110967D01*
X99081076Y-101710635D01*
X98755571Y-102494539D01*
X98754830Y-103343337D01*
X93267600Y-103343337D01*
X93267600Y-98339537D01*
X94259030Y-98339537D01*
X94583167Y-99124009D01*
X95182835Y-99724724D01*
X95966739Y-100050229D01*
X96815537Y-100050970D01*
X97600009Y-99726833D01*
X98200724Y-99127165D01*
X98526229Y-98343261D01*
X98526298Y-98264084D01*
X99135897Y-98264084D01*
X99402152Y-98908471D01*
X99894736Y-99401915D01*
X100538657Y-99669295D01*
X101235884Y-99669903D01*
X101880271Y-99403648D01*
X102373715Y-98911064D01*
X102641095Y-98267143D01*
X102641703Y-97569916D01*
X102375448Y-96925529D01*
X101882864Y-96432085D01*
X101238943Y-96164705D01*
X100541716Y-96164097D01*
X99897329Y-96430352D01*
X99403885Y-96922936D01*
X99136505Y-97566857D01*
X99135897Y-98264084D01*
X98526298Y-98264084D01*
X98526970Y-97494463D01*
X98202833Y-96709991D01*
X97603165Y-96109276D01*
X96819261Y-95783771D01*
X95970463Y-95783030D01*
X95185991Y-96107167D01*
X94585276Y-96706835D01*
X94259771Y-97490739D01*
X94259030Y-98339537D01*
X93267600Y-98339537D01*
X93267600Y-93335737D01*
X98754830Y-93335737D01*
X99078967Y-94120209D01*
X99678635Y-94720924D01*
X100462539Y-95046429D01*
X101311337Y-95047170D01*
X102095809Y-94723033D01*
X102696524Y-94123365D01*
X103022029Y-93339461D01*
X103022770Y-92490663D01*
X102698633Y-91706191D01*
X102098965Y-91105476D01*
X101315061Y-90779971D01*
X100466263Y-90779230D01*
X99681791Y-91103367D01*
X99081076Y-91703035D01*
X98755571Y-92486939D01*
X98754830Y-93335737D01*
X93267600Y-93335737D01*
X93267600Y-89679017D01*
X128379162Y-89679017D01*
X128588599Y-90185894D01*
X128976066Y-90574038D01*
X129482577Y-90784360D01*
X130031017Y-90784838D01*
X130537894Y-90575401D01*
X130926038Y-90187934D01*
X131136360Y-89681423D01*
X131136362Y-89679017D01*
X136579162Y-89679017D01*
X136788599Y-90185894D01*
X137176066Y-90574038D01*
X137682577Y-90784360D01*
X138231017Y-90784838D01*
X138737894Y-90575401D01*
X139126038Y-90187934D01*
X139336360Y-89681423D01*
X139336838Y-89132983D01*
X139127401Y-88626106D01*
X138739934Y-88237962D01*
X138233423Y-88027640D01*
X137684983Y-88027162D01*
X137178106Y-88236599D01*
X136789962Y-88624066D01*
X136579640Y-89130577D01*
X136579162Y-89679017D01*
X131136362Y-89679017D01*
X131136838Y-89132983D01*
X130927401Y-88626106D01*
X130539934Y-88237962D01*
X130033423Y-88027640D01*
X129484983Y-88027162D01*
X128978106Y-88236599D01*
X128589962Y-88624066D01*
X128379640Y-89130577D01*
X128379162Y-89679017D01*
X93267600Y-89679017D01*
X93267600Y-87262960D01*
X130452488Y-87262960D01*
X130558201Y-87509321D01*
X131156109Y-87708569D01*
X131784753Y-87663841D01*
X132157799Y-87509321D01*
X132263512Y-87262960D01*
X131358000Y-86357447D01*
X130452488Y-87262960D01*
X93267600Y-87262960D01*
X93267600Y-85387389D01*
X99168089Y-85387389D01*
X99447943Y-85945531D01*
X99920086Y-86354091D01*
X100286613Y-86505899D01*
X100533200Y-86406239D01*
X100533200Y-85140800D01*
X99266746Y-85140800D01*
X99168089Y-85387389D01*
X93267600Y-85387389D01*
X93267600Y-84538611D01*
X99168089Y-84538611D01*
X99266746Y-84785200D01*
X100533200Y-84785200D01*
X100533200Y-83519761D01*
X100888800Y-83519761D01*
X100888800Y-84785200D01*
X100908800Y-84785200D01*
X100908800Y-85140800D01*
X100888800Y-85140800D01*
X100888800Y-86406239D01*
X101135387Y-86505899D01*
X101501914Y-86354091D01*
X101974057Y-85945531D01*
X102001922Y-85889957D01*
X102001922Y-85979000D01*
X102017862Y-86063714D01*
X102067928Y-86141518D01*
X102144320Y-86193715D01*
X102235000Y-86212078D01*
X104267000Y-86212078D01*
X104351714Y-86196138D01*
X104429518Y-86146072D01*
X104481715Y-86069680D01*
X104500078Y-85979000D01*
X104500078Y-85904109D01*
X129755431Y-85904109D01*
X129800159Y-86532753D01*
X129954679Y-86905799D01*
X130201040Y-87011512D01*
X131106553Y-86106000D01*
X131609447Y-86106000D01*
X132514960Y-87011512D01*
X132761321Y-86905799D01*
X132804984Y-86774774D01*
X132815836Y-86801037D01*
X133161145Y-87146949D01*
X133612544Y-87334387D01*
X134101312Y-87334813D01*
X134553037Y-87148164D01*
X134898949Y-86802855D01*
X135086387Y-86351456D01*
X135086813Y-85862688D01*
X134956210Y-85546605D01*
X135539815Y-84963000D01*
X135907005Y-84963000D01*
X135662963Y-85063836D01*
X135317051Y-85409145D01*
X135129613Y-85860544D01*
X135129187Y-86349312D01*
X135315836Y-86801037D01*
X135661145Y-87146949D01*
X136112544Y-87334387D01*
X136601312Y-87334813D01*
X137053037Y-87148164D01*
X137257357Y-86944200D01*
X138082806Y-86944200D01*
X148005800Y-96867194D01*
X148005800Y-97840800D01*
X142367000Y-97840800D01*
X142046235Y-97904604D01*
X141774303Y-98086303D01*
X138853303Y-101007303D01*
X138671604Y-101279234D01*
X138671604Y-101279235D01*
X138607800Y-101600000D01*
X138607800Y-115443000D01*
X138671604Y-115763765D01*
X138853303Y-116035697D01*
X139125235Y-116217396D01*
X139446000Y-116281200D01*
X139766765Y-116217396D01*
X140038697Y-116035697D01*
X140220396Y-115763765D01*
X140284200Y-115443000D01*
X140284200Y-101947194D01*
X141788214Y-100443180D01*
X143192401Y-100443180D01*
X143279224Y-100653306D01*
X143439849Y-100814211D01*
X143649823Y-100901400D01*
X143877180Y-100901599D01*
X144087306Y-100814776D01*
X144248211Y-100654151D01*
X144256246Y-100634800D01*
X146573577Y-100634800D01*
X146581224Y-100653306D01*
X146741849Y-100814211D01*
X146951823Y-100901400D01*
X147179180Y-100901599D01*
X147389306Y-100814776D01*
X147550211Y-100654151D01*
X147637400Y-100444177D01*
X147637599Y-100216820D01*
X147550776Y-100006694D01*
X147390151Y-99845789D01*
X147180177Y-99758600D01*
X146952820Y-99758401D01*
X146742694Y-99845224D01*
X146581789Y-100005849D01*
X146573754Y-100025200D01*
X144256423Y-100025200D01*
X144248776Y-100006694D01*
X144088151Y-99845789D01*
X143878177Y-99758600D01*
X143650820Y-99758401D01*
X143440694Y-99845224D01*
X143279789Y-100005849D01*
X143192600Y-100215823D01*
X143192401Y-100443180D01*
X141788214Y-100443180D01*
X142714194Y-99517200D01*
X148428655Y-99517200D01*
X148523235Y-99580396D01*
X148844000Y-99644200D01*
X149019874Y-99609216D01*
X150469600Y-101058942D01*
X150469600Y-107221058D01*
X149004058Y-108686600D01*
X147441918Y-108686600D01*
X147423776Y-108642694D01*
X147263151Y-108481789D01*
X147053177Y-108394600D01*
X146825820Y-108394401D01*
X146615694Y-108481224D01*
X146454789Y-108641849D01*
X146416429Y-108734230D01*
X146083058Y-109067600D01*
X144365941Y-109067600D01*
X144159617Y-108861275D01*
X144121776Y-108769694D01*
X143961151Y-108608789D01*
X143751177Y-108521600D01*
X143523820Y-108521401D01*
X143313694Y-108608224D01*
X143152789Y-108768849D01*
X143081357Y-108940876D01*
X142989177Y-108902600D01*
X142761820Y-108902401D01*
X142551694Y-108989224D01*
X142390789Y-109149849D01*
X142303600Y-109359823D01*
X142303401Y-109587180D01*
X142390224Y-109797306D01*
X142550849Y-109958211D01*
X142760823Y-110045400D01*
X142907713Y-110045529D01*
X144002590Y-111140405D01*
X144002592Y-111140408D01*
X144076688Y-111189917D01*
X144126197Y-111222998D01*
X144272000Y-111252000D01*
X152480818Y-111252000D01*
X152583849Y-111355211D01*
X152793823Y-111442400D01*
X153021180Y-111442599D01*
X153231306Y-111355776D01*
X153392211Y-111195151D01*
X153479400Y-110985177D01*
X153479599Y-110757820D01*
X153392776Y-110547694D01*
X153232151Y-110386789D01*
X153022177Y-110299600D01*
X152794820Y-110299401D01*
X152584694Y-110386224D01*
X152480737Y-110490000D01*
X144429815Y-110490000D01*
X144056639Y-110116824D01*
X144145000Y-110134400D01*
X146304000Y-110134400D01*
X146508123Y-110093797D01*
X146681171Y-109978171D01*
X146681172Y-109978170D01*
X146963500Y-109695841D01*
X146988876Y-109712797D01*
X147193000Y-109753400D01*
X149225000Y-109753400D01*
X149429123Y-109712797D01*
X149602171Y-109597171D01*
X151380171Y-107819171D01*
X151495797Y-107646123D01*
X151536401Y-107442000D01*
X151536400Y-107441995D01*
X151536400Y-100838000D01*
X151495797Y-100633877D01*
X151380171Y-100460829D01*
X149758261Y-98838919D01*
X149758558Y-98497913D01*
X149682200Y-98313113D01*
X149682200Y-96520000D01*
X149618396Y-96199235D01*
X149618396Y-96199234D01*
X149436697Y-95927303D01*
X139022697Y-85513303D01*
X138750766Y-85331604D01*
X138430000Y-85267800D01*
X137257251Y-85267800D01*
X137054855Y-85065051D01*
X136809090Y-84963000D01*
X140685184Y-84963000D01*
X150685529Y-94963345D01*
X150685401Y-95109180D01*
X150772224Y-95319306D01*
X150932849Y-95480211D01*
X151142823Y-95567400D01*
X151370180Y-95567599D01*
X151580306Y-95480776D01*
X151741211Y-95320151D01*
X151828400Y-95110177D01*
X151828599Y-94882820D01*
X151741776Y-94672694D01*
X151581151Y-94511789D01*
X151371177Y-94424600D01*
X151224287Y-94424471D01*
X146969816Y-90170000D01*
X158497017Y-90170000D01*
X158591757Y-90646288D01*
X158861552Y-91050065D01*
X159265329Y-91319860D01*
X159741617Y-91414600D01*
X159790383Y-91414600D01*
X160266671Y-91319860D01*
X160670448Y-91050065D01*
X160940243Y-90646288D01*
X161034983Y-90170000D01*
X160940243Y-89693712D01*
X160670448Y-89289935D01*
X160266671Y-89020140D01*
X159790383Y-88925400D01*
X159741617Y-88925400D01*
X159265329Y-89020140D01*
X158861552Y-89289935D01*
X158591757Y-89693712D01*
X158497017Y-90170000D01*
X146969816Y-90170000D01*
X143413816Y-86614000D01*
X158516922Y-86614000D01*
X158516922Y-88646000D01*
X158532862Y-88730714D01*
X158582928Y-88808518D01*
X158659320Y-88860715D01*
X158750000Y-88879078D01*
X160782000Y-88879078D01*
X160866714Y-88863138D01*
X160944518Y-88813072D01*
X160996715Y-88736680D01*
X161015078Y-88646000D01*
X161015078Y-86614000D01*
X160999138Y-86529286D01*
X160949072Y-86451482D01*
X160872680Y-86399285D01*
X160782000Y-86380922D01*
X158750000Y-86380922D01*
X158665286Y-86396862D01*
X158587482Y-86446928D01*
X158535285Y-86523320D01*
X158516922Y-86614000D01*
X143413816Y-86614000D01*
X141112408Y-84312592D01*
X140988803Y-84230002D01*
X140843000Y-84201000D01*
X135382000Y-84201000D01*
X135236198Y-84230002D01*
X135112592Y-84312592D01*
X135112590Y-84312595D01*
X134417266Y-85007919D01*
X134103456Y-84877613D01*
X133614688Y-84877187D01*
X133162963Y-85063836D01*
X132817051Y-85409145D01*
X132810498Y-85424926D01*
X132761321Y-85306201D01*
X132514960Y-85200488D01*
X131609447Y-86106000D01*
X131106553Y-86106000D01*
X130201040Y-85200488D01*
X129954679Y-85306201D01*
X129755431Y-85904109D01*
X104500078Y-85904109D01*
X104500078Y-84949040D01*
X130452488Y-84949040D01*
X131358000Y-85854553D01*
X132263512Y-84949040D01*
X132157799Y-84702679D01*
X131559891Y-84503431D01*
X130931247Y-84548159D01*
X130558201Y-84702679D01*
X130452488Y-84949040D01*
X104500078Y-84949040D01*
X104500078Y-83947000D01*
X104484138Y-83862286D01*
X104434072Y-83784482D01*
X104357680Y-83732285D01*
X104267000Y-83713922D01*
X102235000Y-83713922D01*
X102150286Y-83729862D01*
X102072482Y-83779928D01*
X102020285Y-83856320D01*
X102001922Y-83947000D01*
X102001922Y-84036043D01*
X101974057Y-83980469D01*
X101501914Y-83571909D01*
X101135387Y-83420101D01*
X100888800Y-83519761D01*
X100533200Y-83519761D01*
X100286613Y-83420101D01*
X99920086Y-83571909D01*
X99447943Y-83980469D01*
X99168089Y-84538611D01*
X93267600Y-84538611D01*
X93267600Y-82853600D01*
X162891400Y-82853600D01*
X162891400Y-127585400D01*
M02*
