G04 #@! TF.FileFunction,Copper,L1,Top,Signal*
%FSLAX46Y46*%
G04 Gerber Fmt 4.6, Leading zero omitted, Abs format (unit mm)*
G04 Created by KiCad (PCBNEW 0.201508140901+6091~28~ubuntu14.04.1-product) date Fri 18 Sep 2015 07:53:11 PM CEST*
%MOMM*%
G01*
G04 APERTURE LIST*
%ADD10C,0.076200*%
%ADD11R,2.500000X2.000000*%
%ADD12R,2.000000X2.500000*%
%ADD13R,2.032000X2.032000*%
%ADD14O,2.032000X2.032000*%
%ADD15C,1.000760*%
%ADD16R,1.500000X1.300000*%
%ADD17R,1.300000X1.500000*%
%ADD18R,2.235200X2.235200*%
%ADD19C,0.685800*%
%ADD20C,0.609600*%
%ADD21C,0.254000*%
G04 APERTURE END LIST*
D10*
D11*
X151765000Y-106458000D03*
X151765000Y-110458000D03*
X165354000Y-118142000D03*
X165354000Y-122142000D03*
D12*
X170720000Y-111506000D03*
X174720000Y-111506000D03*
X170148000Y-99822000D03*
X166148000Y-99822000D03*
D13*
X150114000Y-116078000D03*
D14*
X150114000Y-118618000D03*
D13*
X172085000Y-117348000D03*
D14*
X174625000Y-117348000D03*
D13*
X171958000Y-104394000D03*
D14*
X171958000Y-106934000D03*
D15*
X164084000Y-107188000D03*
X165354000Y-105918000D03*
X165354000Y-108458000D03*
D16*
X153336000Y-102616000D03*
X156036000Y-102616000D03*
D17*
X156210000Y-111680000D03*
X156210000Y-114380000D03*
D16*
X158830000Y-107188000D03*
X156130000Y-107188000D03*
X159686000Y-98679000D03*
X162386000Y-98679000D03*
X159940000Y-102362000D03*
X162640000Y-102362000D03*
X161972000Y-113538000D03*
X164672000Y-113538000D03*
D17*
X160528000Y-118538000D03*
X160528000Y-121238000D03*
D18*
X147828000Y-106680000D03*
X174244000Y-100076000D03*
D19*
X154432000Y-100584000D03*
X157988000Y-97282000D03*
D20*
X156036000Y-102616000D02*
X156036000Y-107094000D01*
X156036000Y-107094000D02*
X156130000Y-107188000D01*
X156130000Y-107188000D02*
X156130000Y-111600000D01*
X156130000Y-111600000D02*
X156210000Y-111680000D01*
X156083000Y-107141000D02*
X156130000Y-107188000D01*
X151765000Y-106458000D02*
X155400000Y-106458000D01*
X155400000Y-106458000D02*
X156130000Y-107188000D01*
X150114000Y-116078000D02*
X150114000Y-115316000D01*
X150114000Y-115316000D02*
X151765000Y-113665000D01*
X151765000Y-113665000D02*
X151765000Y-110458000D01*
X151765000Y-110458000D02*
X149320000Y-110458000D01*
X147828000Y-108966000D02*
X147828000Y-106680000D01*
X149320000Y-110458000D02*
X147828000Y-108966000D01*
X151638000Y-110585000D02*
X151765000Y-110458000D01*
X151479000Y-110744000D02*
X151765000Y-110458000D01*
X160528000Y-118538000D02*
X164958000Y-118538000D01*
X164958000Y-118538000D02*
X165354000Y-118142000D01*
X165354000Y-118142000D02*
X165354000Y-114220000D01*
X165354000Y-114220000D02*
X164672000Y-113538000D01*
X170720000Y-111506000D02*
X170720000Y-115983000D01*
X170720000Y-115983000D02*
X172085000Y-117348000D01*
X153336000Y-102616000D02*
X153336000Y-101680000D01*
X153336000Y-101680000D02*
X154432000Y-100584000D01*
X159686000Y-98679000D02*
X159385000Y-98679000D01*
X159385000Y-98679000D02*
X157988000Y-97282000D01*
X159639000Y-98726000D02*
X159686000Y-98679000D01*
X171958000Y-104394000D02*
X170434000Y-102870000D01*
X170434000Y-102870000D02*
X170434000Y-100108000D01*
X170434000Y-100108000D02*
X170148000Y-99822000D01*
X173990000Y-99822000D02*
X170148000Y-99822000D01*
X174244000Y-100076000D02*
X173990000Y-99822000D01*
X162386000Y-98679000D02*
X165005000Y-98679000D01*
X165005000Y-98679000D02*
X166148000Y-99822000D01*
X159940000Y-102362000D02*
X159940000Y-101172000D01*
X162386000Y-100250000D02*
X162386000Y-98679000D01*
X162052000Y-100584000D02*
X162386000Y-100250000D01*
X160528000Y-100584000D02*
X162052000Y-100584000D01*
X159940000Y-101172000D02*
X160528000Y-100584000D01*
X158830000Y-107188000D02*
X164084000Y-107188000D01*
X165354000Y-105918000D02*
X165354000Y-103632000D01*
X165354000Y-103632000D02*
X164084000Y-102362000D01*
X164084000Y-102362000D02*
X162640000Y-102362000D01*
X161972000Y-113538000D02*
X161972000Y-111332000D01*
X164846000Y-108458000D02*
X165354000Y-108458000D01*
X161972000Y-111332000D02*
X164846000Y-108458000D01*
D21*
G36*
X157434788Y-96452493D02*
X157159460Y-96727341D01*
X157010270Y-97086630D01*
X157009931Y-97475663D01*
X157158493Y-97835212D01*
X157433341Y-98110540D01*
X157525893Y-98148971D01*
X158288560Y-98911638D01*
X158288560Y-99329000D01*
X158332838Y-99564317D01*
X158471910Y-99780441D01*
X158684110Y-99925431D01*
X158936000Y-99976440D01*
X159806482Y-99976440D01*
X159275461Y-100507461D01*
X159071738Y-100812354D01*
X159015022Y-101097484D01*
X158954683Y-101108838D01*
X158738559Y-101247910D01*
X158593569Y-101460110D01*
X158542560Y-101712000D01*
X158542560Y-103012000D01*
X158586838Y-103247317D01*
X158725910Y-103463441D01*
X158938110Y-103608431D01*
X159190000Y-103659440D01*
X160690000Y-103659440D01*
X160925317Y-103615162D01*
X161141441Y-103476090D01*
X161286431Y-103263890D01*
X161289081Y-103250803D01*
X161425910Y-103463441D01*
X161638110Y-103608431D01*
X161890000Y-103659440D01*
X163390000Y-103659440D01*
X163625317Y-103615162D01*
X163841441Y-103476090D01*
X163852633Y-103459711D01*
X164414200Y-104021278D01*
X164414200Y-105251891D01*
X164392033Y-105274019D01*
X164218818Y-105691168D01*
X164218503Y-106052737D01*
X163859150Y-106052424D01*
X163441699Y-106224911D01*
X163418369Y-106248200D01*
X160148103Y-106248200D01*
X160044090Y-106086559D01*
X159831890Y-105941569D01*
X159580000Y-105890560D01*
X158080000Y-105890560D01*
X157844683Y-105934838D01*
X157628559Y-106073910D01*
X157483569Y-106286110D01*
X157480919Y-106299197D01*
X157344090Y-106086559D01*
X157131890Y-105941569D01*
X156975800Y-105909960D01*
X156975800Y-103877727D01*
X157021317Y-103869162D01*
X157237441Y-103730090D01*
X157382431Y-103517890D01*
X157433440Y-103266000D01*
X157433440Y-101966000D01*
X157389162Y-101730683D01*
X157250090Y-101514559D01*
X157037890Y-101369569D01*
X156786000Y-101318560D01*
X155286000Y-101318560D01*
X155050683Y-101362838D01*
X155009282Y-101389479D01*
X155260540Y-101138659D01*
X155409730Y-100779370D01*
X155410069Y-100390337D01*
X155261507Y-100030788D01*
X154986659Y-99755460D01*
X154627370Y-99606270D01*
X154238337Y-99605931D01*
X153878788Y-99754493D01*
X153603460Y-100029341D01*
X153565029Y-100121893D01*
X152671461Y-101015461D01*
X152467738Y-101320354D01*
X152463510Y-101341608D01*
X152350683Y-101362838D01*
X152134559Y-101501910D01*
X151989569Y-101714110D01*
X151938560Y-101966000D01*
X151938560Y-103266000D01*
X151982838Y-103501317D01*
X152121910Y-103717441D01*
X152334110Y-103862431D01*
X152586000Y-103913440D01*
X154086000Y-103913440D01*
X154321317Y-103869162D01*
X154537441Y-103730090D01*
X154682431Y-103517890D01*
X154685081Y-103504803D01*
X154821910Y-103717441D01*
X155034110Y-103862431D01*
X155096200Y-103875005D01*
X155096200Y-105518200D01*
X153662440Y-105518200D01*
X153662440Y-105458000D01*
X153618162Y-105222683D01*
X153479090Y-105006559D01*
X153266890Y-104861569D01*
X153015000Y-104810560D01*
X150515000Y-104810560D01*
X150279683Y-104854838D01*
X150063559Y-104993910D01*
X149918569Y-105206110D01*
X149867560Y-105458000D01*
X149867560Y-107458000D01*
X149911838Y-107693317D01*
X150050910Y-107909441D01*
X150263110Y-108054431D01*
X150515000Y-108105440D01*
X153015000Y-108105440D01*
X153250317Y-108061162D01*
X153466441Y-107922090D01*
X153611431Y-107709890D01*
X153662440Y-107458000D01*
X153662440Y-107397800D01*
X154732560Y-107397800D01*
X154732560Y-107838000D01*
X154776838Y-108073317D01*
X154915910Y-108289441D01*
X155128110Y-108434431D01*
X155190200Y-108447005D01*
X155190200Y-110413375D01*
X155108559Y-110465910D01*
X154963569Y-110678110D01*
X154912560Y-110930000D01*
X154912560Y-112430000D01*
X154956838Y-112665317D01*
X155095910Y-112881441D01*
X155308110Y-113026431D01*
X155341490Y-113033191D01*
X155200301Y-113091673D01*
X155021673Y-113270302D01*
X154925000Y-113503691D01*
X154925000Y-114094250D01*
X155083750Y-114253000D01*
X156083000Y-114253000D01*
X156083000Y-114233000D01*
X156337000Y-114233000D01*
X156337000Y-114253000D01*
X157336250Y-114253000D01*
X157495000Y-114094250D01*
X157495000Y-113503691D01*
X157398327Y-113270302D01*
X157219699Y-113091673D01*
X157083713Y-113035346D01*
X157095317Y-113033162D01*
X157311441Y-112894090D01*
X157456431Y-112681890D01*
X157507440Y-112430000D01*
X157507440Y-110930000D01*
X157463162Y-110694683D01*
X157324090Y-110478559D01*
X157111890Y-110333569D01*
X157069800Y-110325046D01*
X157069800Y-108449727D01*
X157115317Y-108441162D01*
X157331441Y-108302090D01*
X157476431Y-108089890D01*
X157479081Y-108076803D01*
X157615910Y-108289441D01*
X157828110Y-108434431D01*
X158080000Y-108485440D01*
X159580000Y-108485440D01*
X159815317Y-108441162D01*
X160031441Y-108302090D01*
X160150528Y-108127800D01*
X163417891Y-108127800D01*
X163440019Y-108149967D01*
X163712013Y-108262909D01*
X161307461Y-110667461D01*
X161103738Y-110972354D01*
X161032200Y-111332000D01*
X161032200Y-112276273D01*
X160986683Y-112284838D01*
X160770559Y-112423910D01*
X160625569Y-112636110D01*
X160574560Y-112888000D01*
X160574560Y-114188000D01*
X160618838Y-114423317D01*
X160757910Y-114639441D01*
X160970110Y-114784431D01*
X161222000Y-114835440D01*
X162722000Y-114835440D01*
X162957317Y-114791162D01*
X163173441Y-114652090D01*
X163318431Y-114439890D01*
X163321081Y-114426803D01*
X163457910Y-114639441D01*
X163670110Y-114784431D01*
X163922000Y-114835440D01*
X164414200Y-114835440D01*
X164414200Y-116494560D01*
X164104000Y-116494560D01*
X163868683Y-116538838D01*
X163652559Y-116677910D01*
X163507569Y-116890110D01*
X163456560Y-117142000D01*
X163456560Y-117598200D01*
X161789727Y-117598200D01*
X161781162Y-117552683D01*
X161642090Y-117336559D01*
X161429890Y-117191569D01*
X161178000Y-117140560D01*
X159878000Y-117140560D01*
X159642683Y-117184838D01*
X159426559Y-117323910D01*
X159281569Y-117536110D01*
X159230560Y-117788000D01*
X159230560Y-119288000D01*
X159274838Y-119523317D01*
X159413910Y-119739441D01*
X159626110Y-119884431D01*
X159659490Y-119891191D01*
X159518301Y-119949673D01*
X159339673Y-120128302D01*
X159243000Y-120361691D01*
X159243000Y-120952250D01*
X159401750Y-121111000D01*
X160401000Y-121111000D01*
X160401000Y-121091000D01*
X160655000Y-121091000D01*
X160655000Y-121111000D01*
X161654250Y-121111000D01*
X161749559Y-121015691D01*
X163469000Y-121015691D01*
X163469000Y-121856250D01*
X163627750Y-122015000D01*
X165227000Y-122015000D01*
X165227000Y-120665750D01*
X165481000Y-120665750D01*
X165481000Y-122015000D01*
X167080250Y-122015000D01*
X167239000Y-121856250D01*
X167239000Y-121015691D01*
X167142327Y-120782302D01*
X166963699Y-120603673D01*
X166730310Y-120507000D01*
X165639750Y-120507000D01*
X165481000Y-120665750D01*
X165227000Y-120665750D01*
X165068250Y-120507000D01*
X163977690Y-120507000D01*
X163744301Y-120603673D01*
X163565673Y-120782302D01*
X163469000Y-121015691D01*
X161749559Y-121015691D01*
X161813000Y-120952250D01*
X161813000Y-120361691D01*
X161716327Y-120128302D01*
X161537699Y-119949673D01*
X161401713Y-119893346D01*
X161413317Y-119891162D01*
X161629441Y-119752090D01*
X161774431Y-119539890D01*
X161787005Y-119477800D01*
X163565497Y-119477800D01*
X163639910Y-119593441D01*
X163852110Y-119738431D01*
X164104000Y-119789440D01*
X166604000Y-119789440D01*
X166839317Y-119745162D01*
X167055441Y-119606090D01*
X167200431Y-119393890D01*
X167251440Y-119142000D01*
X167251440Y-117142000D01*
X167207162Y-116906683D01*
X167068090Y-116690559D01*
X166855890Y-116545569D01*
X166604000Y-116494560D01*
X166293800Y-116494560D01*
X166293800Y-114220000D01*
X166222262Y-113860354D01*
X166069440Y-113631640D01*
X166069440Y-112888000D01*
X166025162Y-112652683D01*
X165886090Y-112436559D01*
X165673890Y-112291569D01*
X165422000Y-112240560D01*
X163922000Y-112240560D01*
X163686683Y-112284838D01*
X163470559Y-112423910D01*
X163325569Y-112636110D01*
X163322919Y-112649197D01*
X163186090Y-112436559D01*
X162973890Y-112291569D01*
X162911800Y-112278995D01*
X162911800Y-111721278D01*
X164377078Y-110256000D01*
X169072560Y-110256000D01*
X169072560Y-112756000D01*
X169116838Y-112991317D01*
X169255910Y-113207441D01*
X169468110Y-113352431D01*
X169720000Y-113403440D01*
X169780200Y-113403440D01*
X169780200Y-115983000D01*
X169851738Y-116342646D01*
X170055461Y-116647539D01*
X170421560Y-117013638D01*
X170421560Y-118364000D01*
X170465838Y-118599317D01*
X170604910Y-118815441D01*
X170817110Y-118960431D01*
X171069000Y-119011440D01*
X173101000Y-119011440D01*
X173336317Y-118967162D01*
X173552441Y-118828090D01*
X173663840Y-118665052D01*
X173760182Y-118754385D01*
X174242056Y-118953975D01*
X174498000Y-118834836D01*
X174498000Y-117475000D01*
X174478000Y-117475000D01*
X174478000Y-117221000D01*
X174498000Y-117221000D01*
X174498000Y-115861164D01*
X174242056Y-115742025D01*
X173760182Y-115941615D01*
X173662602Y-116032097D01*
X173565090Y-115880559D01*
X173352890Y-115735569D01*
X173101000Y-115684560D01*
X171750638Y-115684560D01*
X171659800Y-115593722D01*
X171659800Y-113403440D01*
X171720000Y-113403440D01*
X171955317Y-113359162D01*
X172171441Y-113220090D01*
X172316431Y-113007890D01*
X172367440Y-112756000D01*
X172367440Y-111791750D01*
X173085000Y-111791750D01*
X173085000Y-112882310D01*
X173181673Y-113115699D01*
X173360302Y-113294327D01*
X173593691Y-113391000D01*
X174434250Y-113391000D01*
X174593000Y-113232250D01*
X174593000Y-111633000D01*
X173243750Y-111633000D01*
X173085000Y-111791750D01*
X172367440Y-111791750D01*
X172367440Y-110256000D01*
X172343674Y-110129690D01*
X173085000Y-110129690D01*
X173085000Y-111220250D01*
X173243750Y-111379000D01*
X174593000Y-111379000D01*
X174593000Y-109779750D01*
X174434250Y-109621000D01*
X173593691Y-109621000D01*
X173360302Y-109717673D01*
X173181673Y-109896301D01*
X173085000Y-110129690D01*
X172343674Y-110129690D01*
X172323162Y-110020683D01*
X172184090Y-109804559D01*
X171971890Y-109659569D01*
X171720000Y-109608560D01*
X169720000Y-109608560D01*
X169484683Y-109652838D01*
X169268559Y-109791910D01*
X169123569Y-110004110D01*
X169072560Y-110256000D01*
X164377078Y-110256000D01*
X165065502Y-109567576D01*
X165127168Y-109593182D01*
X165578850Y-109593576D01*
X165996301Y-109421089D01*
X166315967Y-109101981D01*
X166489182Y-108684832D01*
X166489576Y-108233150D01*
X166317089Y-107815699D01*
X165997981Y-107496033D01*
X165580832Y-107322818D01*
X165219263Y-107322503D01*
X165219267Y-107316944D01*
X170352025Y-107316944D01*
X170551615Y-107798818D01*
X170989621Y-108271188D01*
X171575054Y-108539983D01*
X171831000Y-108421367D01*
X171831000Y-107061000D01*
X172085000Y-107061000D01*
X172085000Y-108421367D01*
X172340946Y-108539983D01*
X172926379Y-108271188D01*
X173364385Y-107798818D01*
X173563975Y-107316944D01*
X173444836Y-107061000D01*
X172085000Y-107061000D01*
X171831000Y-107061000D01*
X170471164Y-107061000D01*
X170352025Y-107316944D01*
X165219267Y-107316944D01*
X165219497Y-107053263D01*
X165578850Y-107053576D01*
X165996301Y-106881089D01*
X166315967Y-106561981D01*
X166489182Y-106144832D01*
X166489576Y-105693150D01*
X166317089Y-105275699D01*
X166293800Y-105252369D01*
X166293800Y-103632000D01*
X166222262Y-103272354D01*
X166018539Y-102967461D01*
X164748539Y-101697461D01*
X164443646Y-101493738D01*
X164084000Y-101422200D01*
X163958103Y-101422200D01*
X163854090Y-101260559D01*
X163641890Y-101115569D01*
X163390000Y-101064560D01*
X162900518Y-101064560D01*
X163050539Y-100914539D01*
X163254262Y-100609646D01*
X163325800Y-100250000D01*
X163325800Y-99940727D01*
X163371317Y-99932162D01*
X163587441Y-99793090D01*
X163706528Y-99618800D01*
X164500560Y-99618800D01*
X164500560Y-101072000D01*
X164544838Y-101307317D01*
X164683910Y-101523441D01*
X164896110Y-101668431D01*
X165148000Y-101719440D01*
X167148000Y-101719440D01*
X167383317Y-101675162D01*
X167599441Y-101536090D01*
X167744431Y-101323890D01*
X167795440Y-101072000D01*
X167795440Y-98572000D01*
X168500560Y-98572000D01*
X168500560Y-101072000D01*
X168544838Y-101307317D01*
X168683910Y-101523441D01*
X168896110Y-101668431D01*
X169148000Y-101719440D01*
X169494200Y-101719440D01*
X169494200Y-102870000D01*
X169565738Y-103229646D01*
X169769461Y-103534539D01*
X170294560Y-104059638D01*
X170294560Y-105410000D01*
X170338838Y-105645317D01*
X170477910Y-105861441D01*
X170640948Y-105972840D01*
X170551615Y-106069182D01*
X170352025Y-106551056D01*
X170471164Y-106807000D01*
X171831000Y-106807000D01*
X171831000Y-106787000D01*
X172085000Y-106787000D01*
X172085000Y-106807000D01*
X173444836Y-106807000D01*
X173563975Y-106551056D01*
X173364385Y-106069182D01*
X173273903Y-105971602D01*
X173425441Y-105874090D01*
X173570431Y-105661890D01*
X173621440Y-105410000D01*
X173621440Y-103378000D01*
X173577162Y-103142683D01*
X173438090Y-102926559D01*
X173225890Y-102781569D01*
X172974000Y-102730560D01*
X171623638Y-102730560D01*
X171373800Y-102480722D01*
X171373800Y-101676953D01*
X171383317Y-101675162D01*
X171599441Y-101536090D01*
X171744431Y-101323890D01*
X171795440Y-101072000D01*
X171795440Y-100761800D01*
X172478960Y-100761800D01*
X172478960Y-101193600D01*
X172523238Y-101428917D01*
X172662310Y-101645041D01*
X172874510Y-101790031D01*
X173126400Y-101841040D01*
X175361600Y-101841040D01*
X175596917Y-101796762D01*
X175813041Y-101657690D01*
X175958031Y-101445490D01*
X176009040Y-101193600D01*
X176009040Y-98958400D01*
X175964762Y-98723083D01*
X175825690Y-98506959D01*
X175613490Y-98361969D01*
X175361600Y-98310960D01*
X173126400Y-98310960D01*
X172891083Y-98355238D01*
X172674959Y-98494310D01*
X172529969Y-98706510D01*
X172494391Y-98882200D01*
X171795440Y-98882200D01*
X171795440Y-98572000D01*
X171751162Y-98336683D01*
X171612090Y-98120559D01*
X171399890Y-97975569D01*
X171148000Y-97924560D01*
X169148000Y-97924560D01*
X168912683Y-97968838D01*
X168696559Y-98107910D01*
X168551569Y-98320110D01*
X168500560Y-98572000D01*
X167795440Y-98572000D01*
X167751162Y-98336683D01*
X167612090Y-98120559D01*
X167399890Y-97975569D01*
X167148000Y-97924560D01*
X165534993Y-97924560D01*
X165364646Y-97810738D01*
X165005000Y-97739200D01*
X163704103Y-97739200D01*
X163600090Y-97577559D01*
X163387890Y-97432569D01*
X163136000Y-97381560D01*
X161636000Y-97381560D01*
X161400683Y-97425838D01*
X161184559Y-97564910D01*
X161039569Y-97777110D01*
X161036919Y-97790197D01*
X160900090Y-97577559D01*
X160687890Y-97432569D01*
X160436000Y-97381560D01*
X159416638Y-97381560D01*
X158855277Y-96820199D01*
X158817507Y-96728788D01*
X158542659Y-96453460D01*
X158517469Y-96443000D01*
X176099000Y-96443000D01*
X176099000Y-109736975D01*
X176079698Y-109717673D01*
X175846309Y-109621000D01*
X175005750Y-109621000D01*
X174847000Y-109779750D01*
X174847000Y-111379000D01*
X174867000Y-111379000D01*
X174867000Y-111633000D01*
X174847000Y-111633000D01*
X174847000Y-113232250D01*
X175005750Y-113391000D01*
X175846309Y-113391000D01*
X176079698Y-113294327D01*
X176099000Y-113275025D01*
X176099000Y-116677596D01*
X175962188Y-116379621D01*
X175489818Y-115941615D01*
X175007944Y-115742025D01*
X174752000Y-115861164D01*
X174752000Y-117221000D01*
X174772000Y-117221000D01*
X174772000Y-117475000D01*
X174752000Y-117475000D01*
X174752000Y-118834836D01*
X175007944Y-118953975D01*
X175489818Y-118754385D01*
X175962188Y-118316379D01*
X176099000Y-118018404D01*
X176099000Y-124283000D01*
X145973000Y-124283000D01*
X145973000Y-121523750D01*
X159243000Y-121523750D01*
X159243000Y-122114309D01*
X159339673Y-122347698D01*
X159518301Y-122526327D01*
X159751690Y-122623000D01*
X160242250Y-122623000D01*
X160401000Y-122464250D01*
X160401000Y-121365000D01*
X160655000Y-121365000D01*
X160655000Y-122464250D01*
X160813750Y-122623000D01*
X161304310Y-122623000D01*
X161537699Y-122526327D01*
X161636275Y-122427750D01*
X163469000Y-122427750D01*
X163469000Y-123268309D01*
X163565673Y-123501698D01*
X163744301Y-123680327D01*
X163977690Y-123777000D01*
X165068250Y-123777000D01*
X165227000Y-123618250D01*
X165227000Y-122269000D01*
X165481000Y-122269000D01*
X165481000Y-123618250D01*
X165639750Y-123777000D01*
X166730310Y-123777000D01*
X166963699Y-123680327D01*
X167142327Y-123501698D01*
X167239000Y-123268309D01*
X167239000Y-122547305D01*
X172104674Y-122547305D01*
X172391043Y-123240372D01*
X172920839Y-123771093D01*
X173613405Y-124058672D01*
X174363305Y-124059326D01*
X175056372Y-123772957D01*
X175587093Y-123243161D01*
X175874672Y-122550595D01*
X175875326Y-121800695D01*
X175588957Y-121107628D01*
X175059161Y-120576907D01*
X174366595Y-120289328D01*
X173616695Y-120288674D01*
X172923628Y-120575043D01*
X172392907Y-121104839D01*
X172105328Y-121797405D01*
X172104674Y-122547305D01*
X167239000Y-122547305D01*
X167239000Y-122427750D01*
X167080250Y-122269000D01*
X165481000Y-122269000D01*
X165227000Y-122269000D01*
X163627750Y-122269000D01*
X163469000Y-122427750D01*
X161636275Y-122427750D01*
X161716327Y-122347698D01*
X161813000Y-122114309D01*
X161813000Y-121523750D01*
X161654250Y-121365000D01*
X160655000Y-121365000D01*
X160401000Y-121365000D01*
X159401750Y-121365000D01*
X159243000Y-121523750D01*
X145973000Y-121523750D01*
X145973000Y-119000944D01*
X148508025Y-119000944D01*
X148707615Y-119482818D01*
X149145621Y-119955188D01*
X149731054Y-120223983D01*
X149987000Y-120105367D01*
X149987000Y-118745000D01*
X150241000Y-118745000D01*
X150241000Y-120105367D01*
X150496946Y-120223983D01*
X151082379Y-119955188D01*
X151520385Y-119482818D01*
X151719975Y-119000944D01*
X151600836Y-118745000D01*
X150241000Y-118745000D01*
X149987000Y-118745000D01*
X148627164Y-118745000D01*
X148508025Y-119000944D01*
X145973000Y-119000944D01*
X145973000Y-105562400D01*
X146062960Y-105562400D01*
X146062960Y-107797600D01*
X146107238Y-108032917D01*
X146246310Y-108249041D01*
X146458510Y-108394031D01*
X146710400Y-108445040D01*
X146888200Y-108445040D01*
X146888200Y-108966000D01*
X146959738Y-109325646D01*
X147163461Y-109630539D01*
X148655461Y-111122539D01*
X148960354Y-111326262D01*
X149320000Y-111397800D01*
X149867560Y-111397800D01*
X149867560Y-111458000D01*
X149911838Y-111693317D01*
X150050910Y-111909441D01*
X150263110Y-112054431D01*
X150515000Y-112105440D01*
X150825200Y-112105440D01*
X150825200Y-113275722D01*
X149686362Y-114414560D01*
X149098000Y-114414560D01*
X148862683Y-114458838D01*
X148646559Y-114597910D01*
X148501569Y-114810110D01*
X148450560Y-115062000D01*
X148450560Y-117094000D01*
X148494838Y-117329317D01*
X148633910Y-117545441D01*
X148796948Y-117656840D01*
X148707615Y-117753182D01*
X148508025Y-118235056D01*
X148627164Y-118491000D01*
X149987000Y-118491000D01*
X149987000Y-118471000D01*
X150241000Y-118471000D01*
X150241000Y-118491000D01*
X151600836Y-118491000D01*
X151719975Y-118235056D01*
X151520385Y-117753182D01*
X151429903Y-117655602D01*
X151581441Y-117558090D01*
X151726431Y-117345890D01*
X151777440Y-117094000D01*
X151777440Y-115062000D01*
X151764713Y-114994365D01*
X152093328Y-114665750D01*
X154925000Y-114665750D01*
X154925000Y-115256309D01*
X155021673Y-115489698D01*
X155200301Y-115668327D01*
X155433690Y-115765000D01*
X155924250Y-115765000D01*
X156083000Y-115606250D01*
X156083000Y-114507000D01*
X156337000Y-114507000D01*
X156337000Y-115606250D01*
X156495750Y-115765000D01*
X156986310Y-115765000D01*
X157219699Y-115668327D01*
X157398327Y-115489698D01*
X157495000Y-115256309D01*
X157495000Y-114665750D01*
X157336250Y-114507000D01*
X156337000Y-114507000D01*
X156083000Y-114507000D01*
X155083750Y-114507000D01*
X154925000Y-114665750D01*
X152093328Y-114665750D01*
X152429539Y-114329539D01*
X152633262Y-114024646D01*
X152704800Y-113665000D01*
X152704800Y-112105440D01*
X153015000Y-112105440D01*
X153250317Y-112061162D01*
X153466441Y-111922090D01*
X153611431Y-111709890D01*
X153662440Y-111458000D01*
X153662440Y-109458000D01*
X153618162Y-109222683D01*
X153479090Y-109006559D01*
X153266890Y-108861569D01*
X153015000Y-108810560D01*
X150515000Y-108810560D01*
X150279683Y-108854838D01*
X150063559Y-108993910D01*
X149918569Y-109206110D01*
X149867560Y-109458000D01*
X149867560Y-109518200D01*
X149709278Y-109518200D01*
X148767800Y-108576722D01*
X148767800Y-108445040D01*
X148945600Y-108445040D01*
X149180917Y-108400762D01*
X149397041Y-108261690D01*
X149542031Y-108049490D01*
X149593040Y-107797600D01*
X149593040Y-105562400D01*
X149548762Y-105327083D01*
X149409690Y-105110959D01*
X149197490Y-104965969D01*
X148945600Y-104914960D01*
X146710400Y-104914960D01*
X146475083Y-104959238D01*
X146258959Y-105098310D01*
X146113969Y-105310510D01*
X146062960Y-105562400D01*
X145973000Y-105562400D01*
X145973000Y-98925305D01*
X146196674Y-98925305D01*
X146483043Y-99618372D01*
X147012839Y-100149093D01*
X147705405Y-100436672D01*
X148455305Y-100437326D01*
X149148372Y-100150957D01*
X149679093Y-99621161D01*
X149966672Y-98928595D01*
X149967326Y-98178695D01*
X149680957Y-97485628D01*
X149151161Y-96954907D01*
X148458595Y-96667328D01*
X147708695Y-96666674D01*
X147015628Y-96953043D01*
X146484907Y-97482839D01*
X146197328Y-98175405D01*
X146196674Y-98925305D01*
X145973000Y-98925305D01*
X145973000Y-96443000D01*
X157457763Y-96443000D01*
X157434788Y-96452493D01*
X157434788Y-96452493D01*
G37*
X157434788Y-96452493D02*
X157159460Y-96727341D01*
X157010270Y-97086630D01*
X157009931Y-97475663D01*
X157158493Y-97835212D01*
X157433341Y-98110540D01*
X157525893Y-98148971D01*
X158288560Y-98911638D01*
X158288560Y-99329000D01*
X158332838Y-99564317D01*
X158471910Y-99780441D01*
X158684110Y-99925431D01*
X158936000Y-99976440D01*
X159806482Y-99976440D01*
X159275461Y-100507461D01*
X159071738Y-100812354D01*
X159015022Y-101097484D01*
X158954683Y-101108838D01*
X158738559Y-101247910D01*
X158593569Y-101460110D01*
X158542560Y-101712000D01*
X158542560Y-103012000D01*
X158586838Y-103247317D01*
X158725910Y-103463441D01*
X158938110Y-103608431D01*
X159190000Y-103659440D01*
X160690000Y-103659440D01*
X160925317Y-103615162D01*
X161141441Y-103476090D01*
X161286431Y-103263890D01*
X161289081Y-103250803D01*
X161425910Y-103463441D01*
X161638110Y-103608431D01*
X161890000Y-103659440D01*
X163390000Y-103659440D01*
X163625317Y-103615162D01*
X163841441Y-103476090D01*
X163852633Y-103459711D01*
X164414200Y-104021278D01*
X164414200Y-105251891D01*
X164392033Y-105274019D01*
X164218818Y-105691168D01*
X164218503Y-106052737D01*
X163859150Y-106052424D01*
X163441699Y-106224911D01*
X163418369Y-106248200D01*
X160148103Y-106248200D01*
X160044090Y-106086559D01*
X159831890Y-105941569D01*
X159580000Y-105890560D01*
X158080000Y-105890560D01*
X157844683Y-105934838D01*
X157628559Y-106073910D01*
X157483569Y-106286110D01*
X157480919Y-106299197D01*
X157344090Y-106086559D01*
X157131890Y-105941569D01*
X156975800Y-105909960D01*
X156975800Y-103877727D01*
X157021317Y-103869162D01*
X157237441Y-103730090D01*
X157382431Y-103517890D01*
X157433440Y-103266000D01*
X157433440Y-101966000D01*
X157389162Y-101730683D01*
X157250090Y-101514559D01*
X157037890Y-101369569D01*
X156786000Y-101318560D01*
X155286000Y-101318560D01*
X155050683Y-101362838D01*
X155009282Y-101389479D01*
X155260540Y-101138659D01*
X155409730Y-100779370D01*
X155410069Y-100390337D01*
X155261507Y-100030788D01*
X154986659Y-99755460D01*
X154627370Y-99606270D01*
X154238337Y-99605931D01*
X153878788Y-99754493D01*
X153603460Y-100029341D01*
X153565029Y-100121893D01*
X152671461Y-101015461D01*
X152467738Y-101320354D01*
X152463510Y-101341608D01*
X152350683Y-101362838D01*
X152134559Y-101501910D01*
X151989569Y-101714110D01*
X151938560Y-101966000D01*
X151938560Y-103266000D01*
X151982838Y-103501317D01*
X152121910Y-103717441D01*
X152334110Y-103862431D01*
X152586000Y-103913440D01*
X154086000Y-103913440D01*
X154321317Y-103869162D01*
X154537441Y-103730090D01*
X154682431Y-103517890D01*
X154685081Y-103504803D01*
X154821910Y-103717441D01*
X155034110Y-103862431D01*
X155096200Y-103875005D01*
X155096200Y-105518200D01*
X153662440Y-105518200D01*
X153662440Y-105458000D01*
X153618162Y-105222683D01*
X153479090Y-105006559D01*
X153266890Y-104861569D01*
X153015000Y-104810560D01*
X150515000Y-104810560D01*
X150279683Y-104854838D01*
X150063559Y-104993910D01*
X149918569Y-105206110D01*
X149867560Y-105458000D01*
X149867560Y-107458000D01*
X149911838Y-107693317D01*
X150050910Y-107909441D01*
X150263110Y-108054431D01*
X150515000Y-108105440D01*
X153015000Y-108105440D01*
X153250317Y-108061162D01*
X153466441Y-107922090D01*
X153611431Y-107709890D01*
X153662440Y-107458000D01*
X153662440Y-107397800D01*
X154732560Y-107397800D01*
X154732560Y-107838000D01*
X154776838Y-108073317D01*
X154915910Y-108289441D01*
X155128110Y-108434431D01*
X155190200Y-108447005D01*
X155190200Y-110413375D01*
X155108559Y-110465910D01*
X154963569Y-110678110D01*
X154912560Y-110930000D01*
X154912560Y-112430000D01*
X154956838Y-112665317D01*
X155095910Y-112881441D01*
X155308110Y-113026431D01*
X155341490Y-113033191D01*
X155200301Y-113091673D01*
X155021673Y-113270302D01*
X154925000Y-113503691D01*
X154925000Y-114094250D01*
X155083750Y-114253000D01*
X156083000Y-114253000D01*
X156083000Y-114233000D01*
X156337000Y-114233000D01*
X156337000Y-114253000D01*
X157336250Y-114253000D01*
X157495000Y-114094250D01*
X157495000Y-113503691D01*
X157398327Y-113270302D01*
X157219699Y-113091673D01*
X157083713Y-113035346D01*
X157095317Y-113033162D01*
X157311441Y-112894090D01*
X157456431Y-112681890D01*
X157507440Y-112430000D01*
X157507440Y-110930000D01*
X157463162Y-110694683D01*
X157324090Y-110478559D01*
X157111890Y-110333569D01*
X157069800Y-110325046D01*
X157069800Y-108449727D01*
X157115317Y-108441162D01*
X157331441Y-108302090D01*
X157476431Y-108089890D01*
X157479081Y-108076803D01*
X157615910Y-108289441D01*
X157828110Y-108434431D01*
X158080000Y-108485440D01*
X159580000Y-108485440D01*
X159815317Y-108441162D01*
X160031441Y-108302090D01*
X160150528Y-108127800D01*
X163417891Y-108127800D01*
X163440019Y-108149967D01*
X163712013Y-108262909D01*
X161307461Y-110667461D01*
X161103738Y-110972354D01*
X161032200Y-111332000D01*
X161032200Y-112276273D01*
X160986683Y-112284838D01*
X160770559Y-112423910D01*
X160625569Y-112636110D01*
X160574560Y-112888000D01*
X160574560Y-114188000D01*
X160618838Y-114423317D01*
X160757910Y-114639441D01*
X160970110Y-114784431D01*
X161222000Y-114835440D01*
X162722000Y-114835440D01*
X162957317Y-114791162D01*
X163173441Y-114652090D01*
X163318431Y-114439890D01*
X163321081Y-114426803D01*
X163457910Y-114639441D01*
X163670110Y-114784431D01*
X163922000Y-114835440D01*
X164414200Y-114835440D01*
X164414200Y-116494560D01*
X164104000Y-116494560D01*
X163868683Y-116538838D01*
X163652559Y-116677910D01*
X163507569Y-116890110D01*
X163456560Y-117142000D01*
X163456560Y-117598200D01*
X161789727Y-117598200D01*
X161781162Y-117552683D01*
X161642090Y-117336559D01*
X161429890Y-117191569D01*
X161178000Y-117140560D01*
X159878000Y-117140560D01*
X159642683Y-117184838D01*
X159426559Y-117323910D01*
X159281569Y-117536110D01*
X159230560Y-117788000D01*
X159230560Y-119288000D01*
X159274838Y-119523317D01*
X159413910Y-119739441D01*
X159626110Y-119884431D01*
X159659490Y-119891191D01*
X159518301Y-119949673D01*
X159339673Y-120128302D01*
X159243000Y-120361691D01*
X159243000Y-120952250D01*
X159401750Y-121111000D01*
X160401000Y-121111000D01*
X160401000Y-121091000D01*
X160655000Y-121091000D01*
X160655000Y-121111000D01*
X161654250Y-121111000D01*
X161749559Y-121015691D01*
X163469000Y-121015691D01*
X163469000Y-121856250D01*
X163627750Y-122015000D01*
X165227000Y-122015000D01*
X165227000Y-120665750D01*
X165481000Y-120665750D01*
X165481000Y-122015000D01*
X167080250Y-122015000D01*
X167239000Y-121856250D01*
X167239000Y-121015691D01*
X167142327Y-120782302D01*
X166963699Y-120603673D01*
X166730310Y-120507000D01*
X165639750Y-120507000D01*
X165481000Y-120665750D01*
X165227000Y-120665750D01*
X165068250Y-120507000D01*
X163977690Y-120507000D01*
X163744301Y-120603673D01*
X163565673Y-120782302D01*
X163469000Y-121015691D01*
X161749559Y-121015691D01*
X161813000Y-120952250D01*
X161813000Y-120361691D01*
X161716327Y-120128302D01*
X161537699Y-119949673D01*
X161401713Y-119893346D01*
X161413317Y-119891162D01*
X161629441Y-119752090D01*
X161774431Y-119539890D01*
X161787005Y-119477800D01*
X163565497Y-119477800D01*
X163639910Y-119593441D01*
X163852110Y-119738431D01*
X164104000Y-119789440D01*
X166604000Y-119789440D01*
X166839317Y-119745162D01*
X167055441Y-119606090D01*
X167200431Y-119393890D01*
X167251440Y-119142000D01*
X167251440Y-117142000D01*
X167207162Y-116906683D01*
X167068090Y-116690559D01*
X166855890Y-116545569D01*
X166604000Y-116494560D01*
X166293800Y-116494560D01*
X166293800Y-114220000D01*
X166222262Y-113860354D01*
X166069440Y-113631640D01*
X166069440Y-112888000D01*
X166025162Y-112652683D01*
X165886090Y-112436559D01*
X165673890Y-112291569D01*
X165422000Y-112240560D01*
X163922000Y-112240560D01*
X163686683Y-112284838D01*
X163470559Y-112423910D01*
X163325569Y-112636110D01*
X163322919Y-112649197D01*
X163186090Y-112436559D01*
X162973890Y-112291569D01*
X162911800Y-112278995D01*
X162911800Y-111721278D01*
X164377078Y-110256000D01*
X169072560Y-110256000D01*
X169072560Y-112756000D01*
X169116838Y-112991317D01*
X169255910Y-113207441D01*
X169468110Y-113352431D01*
X169720000Y-113403440D01*
X169780200Y-113403440D01*
X169780200Y-115983000D01*
X169851738Y-116342646D01*
X170055461Y-116647539D01*
X170421560Y-117013638D01*
X170421560Y-118364000D01*
X170465838Y-118599317D01*
X170604910Y-118815441D01*
X170817110Y-118960431D01*
X171069000Y-119011440D01*
X173101000Y-119011440D01*
X173336317Y-118967162D01*
X173552441Y-118828090D01*
X173663840Y-118665052D01*
X173760182Y-118754385D01*
X174242056Y-118953975D01*
X174498000Y-118834836D01*
X174498000Y-117475000D01*
X174478000Y-117475000D01*
X174478000Y-117221000D01*
X174498000Y-117221000D01*
X174498000Y-115861164D01*
X174242056Y-115742025D01*
X173760182Y-115941615D01*
X173662602Y-116032097D01*
X173565090Y-115880559D01*
X173352890Y-115735569D01*
X173101000Y-115684560D01*
X171750638Y-115684560D01*
X171659800Y-115593722D01*
X171659800Y-113403440D01*
X171720000Y-113403440D01*
X171955317Y-113359162D01*
X172171441Y-113220090D01*
X172316431Y-113007890D01*
X172367440Y-112756000D01*
X172367440Y-111791750D01*
X173085000Y-111791750D01*
X173085000Y-112882310D01*
X173181673Y-113115699D01*
X173360302Y-113294327D01*
X173593691Y-113391000D01*
X174434250Y-113391000D01*
X174593000Y-113232250D01*
X174593000Y-111633000D01*
X173243750Y-111633000D01*
X173085000Y-111791750D01*
X172367440Y-111791750D01*
X172367440Y-110256000D01*
X172343674Y-110129690D01*
X173085000Y-110129690D01*
X173085000Y-111220250D01*
X173243750Y-111379000D01*
X174593000Y-111379000D01*
X174593000Y-109779750D01*
X174434250Y-109621000D01*
X173593691Y-109621000D01*
X173360302Y-109717673D01*
X173181673Y-109896301D01*
X173085000Y-110129690D01*
X172343674Y-110129690D01*
X172323162Y-110020683D01*
X172184090Y-109804559D01*
X171971890Y-109659569D01*
X171720000Y-109608560D01*
X169720000Y-109608560D01*
X169484683Y-109652838D01*
X169268559Y-109791910D01*
X169123569Y-110004110D01*
X169072560Y-110256000D01*
X164377078Y-110256000D01*
X165065502Y-109567576D01*
X165127168Y-109593182D01*
X165578850Y-109593576D01*
X165996301Y-109421089D01*
X166315967Y-109101981D01*
X166489182Y-108684832D01*
X166489576Y-108233150D01*
X166317089Y-107815699D01*
X165997981Y-107496033D01*
X165580832Y-107322818D01*
X165219263Y-107322503D01*
X165219267Y-107316944D01*
X170352025Y-107316944D01*
X170551615Y-107798818D01*
X170989621Y-108271188D01*
X171575054Y-108539983D01*
X171831000Y-108421367D01*
X171831000Y-107061000D01*
X172085000Y-107061000D01*
X172085000Y-108421367D01*
X172340946Y-108539983D01*
X172926379Y-108271188D01*
X173364385Y-107798818D01*
X173563975Y-107316944D01*
X173444836Y-107061000D01*
X172085000Y-107061000D01*
X171831000Y-107061000D01*
X170471164Y-107061000D01*
X170352025Y-107316944D01*
X165219267Y-107316944D01*
X165219497Y-107053263D01*
X165578850Y-107053576D01*
X165996301Y-106881089D01*
X166315967Y-106561981D01*
X166489182Y-106144832D01*
X166489576Y-105693150D01*
X166317089Y-105275699D01*
X166293800Y-105252369D01*
X166293800Y-103632000D01*
X166222262Y-103272354D01*
X166018539Y-102967461D01*
X164748539Y-101697461D01*
X164443646Y-101493738D01*
X164084000Y-101422200D01*
X163958103Y-101422200D01*
X163854090Y-101260559D01*
X163641890Y-101115569D01*
X163390000Y-101064560D01*
X162900518Y-101064560D01*
X163050539Y-100914539D01*
X163254262Y-100609646D01*
X163325800Y-100250000D01*
X163325800Y-99940727D01*
X163371317Y-99932162D01*
X163587441Y-99793090D01*
X163706528Y-99618800D01*
X164500560Y-99618800D01*
X164500560Y-101072000D01*
X164544838Y-101307317D01*
X164683910Y-101523441D01*
X164896110Y-101668431D01*
X165148000Y-101719440D01*
X167148000Y-101719440D01*
X167383317Y-101675162D01*
X167599441Y-101536090D01*
X167744431Y-101323890D01*
X167795440Y-101072000D01*
X167795440Y-98572000D01*
X168500560Y-98572000D01*
X168500560Y-101072000D01*
X168544838Y-101307317D01*
X168683910Y-101523441D01*
X168896110Y-101668431D01*
X169148000Y-101719440D01*
X169494200Y-101719440D01*
X169494200Y-102870000D01*
X169565738Y-103229646D01*
X169769461Y-103534539D01*
X170294560Y-104059638D01*
X170294560Y-105410000D01*
X170338838Y-105645317D01*
X170477910Y-105861441D01*
X170640948Y-105972840D01*
X170551615Y-106069182D01*
X170352025Y-106551056D01*
X170471164Y-106807000D01*
X171831000Y-106807000D01*
X171831000Y-106787000D01*
X172085000Y-106787000D01*
X172085000Y-106807000D01*
X173444836Y-106807000D01*
X173563975Y-106551056D01*
X173364385Y-106069182D01*
X173273903Y-105971602D01*
X173425441Y-105874090D01*
X173570431Y-105661890D01*
X173621440Y-105410000D01*
X173621440Y-103378000D01*
X173577162Y-103142683D01*
X173438090Y-102926559D01*
X173225890Y-102781569D01*
X172974000Y-102730560D01*
X171623638Y-102730560D01*
X171373800Y-102480722D01*
X171373800Y-101676953D01*
X171383317Y-101675162D01*
X171599441Y-101536090D01*
X171744431Y-101323890D01*
X171795440Y-101072000D01*
X171795440Y-100761800D01*
X172478960Y-100761800D01*
X172478960Y-101193600D01*
X172523238Y-101428917D01*
X172662310Y-101645041D01*
X172874510Y-101790031D01*
X173126400Y-101841040D01*
X175361600Y-101841040D01*
X175596917Y-101796762D01*
X175813041Y-101657690D01*
X175958031Y-101445490D01*
X176009040Y-101193600D01*
X176009040Y-98958400D01*
X175964762Y-98723083D01*
X175825690Y-98506959D01*
X175613490Y-98361969D01*
X175361600Y-98310960D01*
X173126400Y-98310960D01*
X172891083Y-98355238D01*
X172674959Y-98494310D01*
X172529969Y-98706510D01*
X172494391Y-98882200D01*
X171795440Y-98882200D01*
X171795440Y-98572000D01*
X171751162Y-98336683D01*
X171612090Y-98120559D01*
X171399890Y-97975569D01*
X171148000Y-97924560D01*
X169148000Y-97924560D01*
X168912683Y-97968838D01*
X168696559Y-98107910D01*
X168551569Y-98320110D01*
X168500560Y-98572000D01*
X167795440Y-98572000D01*
X167751162Y-98336683D01*
X167612090Y-98120559D01*
X167399890Y-97975569D01*
X167148000Y-97924560D01*
X165534993Y-97924560D01*
X165364646Y-97810738D01*
X165005000Y-97739200D01*
X163704103Y-97739200D01*
X163600090Y-97577559D01*
X163387890Y-97432569D01*
X163136000Y-97381560D01*
X161636000Y-97381560D01*
X161400683Y-97425838D01*
X161184559Y-97564910D01*
X161039569Y-97777110D01*
X161036919Y-97790197D01*
X160900090Y-97577559D01*
X160687890Y-97432569D01*
X160436000Y-97381560D01*
X159416638Y-97381560D01*
X158855277Y-96820199D01*
X158817507Y-96728788D01*
X158542659Y-96453460D01*
X158517469Y-96443000D01*
X176099000Y-96443000D01*
X176099000Y-109736975D01*
X176079698Y-109717673D01*
X175846309Y-109621000D01*
X175005750Y-109621000D01*
X174847000Y-109779750D01*
X174847000Y-111379000D01*
X174867000Y-111379000D01*
X174867000Y-111633000D01*
X174847000Y-111633000D01*
X174847000Y-113232250D01*
X175005750Y-113391000D01*
X175846309Y-113391000D01*
X176079698Y-113294327D01*
X176099000Y-113275025D01*
X176099000Y-116677596D01*
X175962188Y-116379621D01*
X175489818Y-115941615D01*
X175007944Y-115742025D01*
X174752000Y-115861164D01*
X174752000Y-117221000D01*
X174772000Y-117221000D01*
X174772000Y-117475000D01*
X174752000Y-117475000D01*
X174752000Y-118834836D01*
X175007944Y-118953975D01*
X175489818Y-118754385D01*
X175962188Y-118316379D01*
X176099000Y-118018404D01*
X176099000Y-124283000D01*
X145973000Y-124283000D01*
X145973000Y-121523750D01*
X159243000Y-121523750D01*
X159243000Y-122114309D01*
X159339673Y-122347698D01*
X159518301Y-122526327D01*
X159751690Y-122623000D01*
X160242250Y-122623000D01*
X160401000Y-122464250D01*
X160401000Y-121365000D01*
X160655000Y-121365000D01*
X160655000Y-122464250D01*
X160813750Y-122623000D01*
X161304310Y-122623000D01*
X161537699Y-122526327D01*
X161636275Y-122427750D01*
X163469000Y-122427750D01*
X163469000Y-123268309D01*
X163565673Y-123501698D01*
X163744301Y-123680327D01*
X163977690Y-123777000D01*
X165068250Y-123777000D01*
X165227000Y-123618250D01*
X165227000Y-122269000D01*
X165481000Y-122269000D01*
X165481000Y-123618250D01*
X165639750Y-123777000D01*
X166730310Y-123777000D01*
X166963699Y-123680327D01*
X167142327Y-123501698D01*
X167239000Y-123268309D01*
X167239000Y-122547305D01*
X172104674Y-122547305D01*
X172391043Y-123240372D01*
X172920839Y-123771093D01*
X173613405Y-124058672D01*
X174363305Y-124059326D01*
X175056372Y-123772957D01*
X175587093Y-123243161D01*
X175874672Y-122550595D01*
X175875326Y-121800695D01*
X175588957Y-121107628D01*
X175059161Y-120576907D01*
X174366595Y-120289328D01*
X173616695Y-120288674D01*
X172923628Y-120575043D01*
X172392907Y-121104839D01*
X172105328Y-121797405D01*
X172104674Y-122547305D01*
X167239000Y-122547305D01*
X167239000Y-122427750D01*
X167080250Y-122269000D01*
X165481000Y-122269000D01*
X165227000Y-122269000D01*
X163627750Y-122269000D01*
X163469000Y-122427750D01*
X161636275Y-122427750D01*
X161716327Y-122347698D01*
X161813000Y-122114309D01*
X161813000Y-121523750D01*
X161654250Y-121365000D01*
X160655000Y-121365000D01*
X160401000Y-121365000D01*
X159401750Y-121365000D01*
X159243000Y-121523750D01*
X145973000Y-121523750D01*
X145973000Y-119000944D01*
X148508025Y-119000944D01*
X148707615Y-119482818D01*
X149145621Y-119955188D01*
X149731054Y-120223983D01*
X149987000Y-120105367D01*
X149987000Y-118745000D01*
X150241000Y-118745000D01*
X150241000Y-120105367D01*
X150496946Y-120223983D01*
X151082379Y-119955188D01*
X151520385Y-119482818D01*
X151719975Y-119000944D01*
X151600836Y-118745000D01*
X150241000Y-118745000D01*
X149987000Y-118745000D01*
X148627164Y-118745000D01*
X148508025Y-119000944D01*
X145973000Y-119000944D01*
X145973000Y-105562400D01*
X146062960Y-105562400D01*
X146062960Y-107797600D01*
X146107238Y-108032917D01*
X146246310Y-108249041D01*
X146458510Y-108394031D01*
X146710400Y-108445040D01*
X146888200Y-108445040D01*
X146888200Y-108966000D01*
X146959738Y-109325646D01*
X147163461Y-109630539D01*
X148655461Y-111122539D01*
X148960354Y-111326262D01*
X149320000Y-111397800D01*
X149867560Y-111397800D01*
X149867560Y-111458000D01*
X149911838Y-111693317D01*
X150050910Y-111909441D01*
X150263110Y-112054431D01*
X150515000Y-112105440D01*
X150825200Y-112105440D01*
X150825200Y-113275722D01*
X149686362Y-114414560D01*
X149098000Y-114414560D01*
X148862683Y-114458838D01*
X148646559Y-114597910D01*
X148501569Y-114810110D01*
X148450560Y-115062000D01*
X148450560Y-117094000D01*
X148494838Y-117329317D01*
X148633910Y-117545441D01*
X148796948Y-117656840D01*
X148707615Y-117753182D01*
X148508025Y-118235056D01*
X148627164Y-118491000D01*
X149987000Y-118491000D01*
X149987000Y-118471000D01*
X150241000Y-118471000D01*
X150241000Y-118491000D01*
X151600836Y-118491000D01*
X151719975Y-118235056D01*
X151520385Y-117753182D01*
X151429903Y-117655602D01*
X151581441Y-117558090D01*
X151726431Y-117345890D01*
X151777440Y-117094000D01*
X151777440Y-115062000D01*
X151764713Y-114994365D01*
X152093328Y-114665750D01*
X154925000Y-114665750D01*
X154925000Y-115256309D01*
X155021673Y-115489698D01*
X155200301Y-115668327D01*
X155433690Y-115765000D01*
X155924250Y-115765000D01*
X156083000Y-115606250D01*
X156083000Y-114507000D01*
X156337000Y-114507000D01*
X156337000Y-115606250D01*
X156495750Y-115765000D01*
X156986310Y-115765000D01*
X157219699Y-115668327D01*
X157398327Y-115489698D01*
X157495000Y-115256309D01*
X157495000Y-114665750D01*
X157336250Y-114507000D01*
X156337000Y-114507000D01*
X156083000Y-114507000D01*
X155083750Y-114507000D01*
X154925000Y-114665750D01*
X152093328Y-114665750D01*
X152429539Y-114329539D01*
X152633262Y-114024646D01*
X152704800Y-113665000D01*
X152704800Y-112105440D01*
X153015000Y-112105440D01*
X153250317Y-112061162D01*
X153466441Y-111922090D01*
X153611431Y-111709890D01*
X153662440Y-111458000D01*
X153662440Y-109458000D01*
X153618162Y-109222683D01*
X153479090Y-109006559D01*
X153266890Y-108861569D01*
X153015000Y-108810560D01*
X150515000Y-108810560D01*
X150279683Y-108854838D01*
X150063559Y-108993910D01*
X149918569Y-109206110D01*
X149867560Y-109458000D01*
X149867560Y-109518200D01*
X149709278Y-109518200D01*
X148767800Y-108576722D01*
X148767800Y-108445040D01*
X148945600Y-108445040D01*
X149180917Y-108400762D01*
X149397041Y-108261690D01*
X149542031Y-108049490D01*
X149593040Y-107797600D01*
X149593040Y-105562400D01*
X149548762Y-105327083D01*
X149409690Y-105110959D01*
X149197490Y-104965969D01*
X148945600Y-104914960D01*
X146710400Y-104914960D01*
X146475083Y-104959238D01*
X146258959Y-105098310D01*
X146113969Y-105310510D01*
X146062960Y-105562400D01*
X145973000Y-105562400D01*
X145973000Y-98925305D01*
X146196674Y-98925305D01*
X146483043Y-99618372D01*
X147012839Y-100149093D01*
X147705405Y-100436672D01*
X148455305Y-100437326D01*
X149148372Y-100150957D01*
X149679093Y-99621161D01*
X149966672Y-98928595D01*
X149967326Y-98178695D01*
X149680957Y-97485628D01*
X149151161Y-96954907D01*
X148458595Y-96667328D01*
X147708695Y-96666674D01*
X147015628Y-96953043D01*
X146484907Y-97482839D01*
X146197328Y-98175405D01*
X146196674Y-98925305D01*
X145973000Y-98925305D01*
X145973000Y-96443000D01*
X157457763Y-96443000D01*
X157434788Y-96452493D01*
M02*
