G04 #@! TF.FileFunction,Copper,L2,Bot,Signal*
%FSLAX46Y46*%
G04 Gerber Fmt 4.6, Leading zero omitted, Abs format (unit mm)*
G04 Created by KiCad (PCBNEW 0.201508140901+6091~28~ubuntu14.04.1-product) date Fri 18 Sep 2015 07:53:11 PM CEST*
%MOMM*%
G01*
G04 APERTURE LIST*
%ADD10C,0.076200*%
%ADD11R,2.032000X2.032000*%
%ADD12O,2.032000X2.032000*%
%ADD13C,1.000760*%
%ADD14R,2.235200X2.235200*%
%ADD15C,0.685800*%
%ADD16C,0.254000*%
G04 APERTURE END LIST*
D10*
D11*
X150114000Y-116078000D03*
D12*
X150114000Y-118618000D03*
D11*
X172085000Y-117348000D03*
D12*
X174625000Y-117348000D03*
D11*
X171958000Y-104394000D03*
D12*
X171958000Y-106934000D03*
D13*
X164084000Y-107188000D03*
X165354000Y-105918000D03*
X165354000Y-108458000D03*
D14*
X147828000Y-106680000D03*
X174244000Y-100076000D03*
D15*
X154432000Y-100584000D03*
X157988000Y-97282000D03*
D16*
G36*
X176099000Y-116607032D02*
X175792433Y-116148222D01*
X175256810Y-115790330D01*
X174625000Y-115664655D01*
X173993190Y-115790330D01*
X173656999Y-116014966D01*
X173639327Y-115972302D01*
X173460699Y-115793673D01*
X173227310Y-115697000D01*
X172370750Y-115697000D01*
X172212000Y-115855750D01*
X172212000Y-117221000D01*
X172232000Y-117221000D01*
X172232000Y-117475000D01*
X172212000Y-117475000D01*
X172212000Y-118840250D01*
X172370750Y-118999000D01*
X173227310Y-118999000D01*
X173460699Y-118902327D01*
X173639327Y-118723698D01*
X173656999Y-118681034D01*
X173993190Y-118905670D01*
X174625000Y-119031345D01*
X175256810Y-118905670D01*
X175792433Y-118547778D01*
X176099000Y-118088968D01*
X176099000Y-124283000D01*
X145973000Y-124283000D01*
X145973000Y-122547305D01*
X172104674Y-122547305D01*
X172391043Y-123240372D01*
X172920839Y-123771093D01*
X173613405Y-124058672D01*
X174363305Y-124059326D01*
X175056372Y-123772957D01*
X175587093Y-123243161D01*
X175874672Y-122550595D01*
X175875326Y-121800695D01*
X175588957Y-121107628D01*
X175059161Y-120576907D01*
X174366595Y-120289328D01*
X173616695Y-120288674D01*
X172923628Y-120575043D01*
X172392907Y-121104839D01*
X172105328Y-121797405D01*
X172104674Y-122547305D01*
X145973000Y-122547305D01*
X145973000Y-118618000D01*
X148430655Y-118618000D01*
X148556330Y-119249810D01*
X148914222Y-119785433D01*
X149449845Y-120143325D01*
X150081655Y-120269000D01*
X150146345Y-120269000D01*
X150778155Y-120143325D01*
X151313778Y-119785433D01*
X151671670Y-119249810D01*
X151797345Y-118618000D01*
X151671670Y-117986190D01*
X151444501Y-117646208D01*
X151463861Y-117633750D01*
X170434000Y-117633750D01*
X170434000Y-118490309D01*
X170530673Y-118723698D01*
X170709301Y-118902327D01*
X170942690Y-118999000D01*
X171799250Y-118999000D01*
X171958000Y-118840250D01*
X171958000Y-117475000D01*
X170592750Y-117475000D01*
X170434000Y-117633750D01*
X151463861Y-117633750D01*
X151581441Y-117558090D01*
X151726431Y-117345890D01*
X151777440Y-117094000D01*
X151777440Y-116205691D01*
X170434000Y-116205691D01*
X170434000Y-117062250D01*
X170592750Y-117221000D01*
X171958000Y-117221000D01*
X171958000Y-115855750D01*
X171799250Y-115697000D01*
X170942690Y-115697000D01*
X170709301Y-115793673D01*
X170530673Y-115972302D01*
X170434000Y-116205691D01*
X151777440Y-116205691D01*
X151777440Y-115062000D01*
X151733162Y-114826683D01*
X151594090Y-114610559D01*
X151381890Y-114465569D01*
X151130000Y-114414560D01*
X149098000Y-114414560D01*
X148862683Y-114458838D01*
X148646559Y-114597910D01*
X148501569Y-114810110D01*
X148450560Y-115062000D01*
X148450560Y-117094000D01*
X148494838Y-117329317D01*
X148633910Y-117545441D01*
X148782837Y-117647198D01*
X148556330Y-117986190D01*
X148430655Y-118618000D01*
X145973000Y-118618000D01*
X145973000Y-105562400D01*
X146062960Y-105562400D01*
X146062960Y-107797600D01*
X146107238Y-108032917D01*
X146246310Y-108249041D01*
X146458510Y-108394031D01*
X146710400Y-108445040D01*
X148945600Y-108445040D01*
X149180917Y-108400762D01*
X149397041Y-108261690D01*
X149542031Y-108049490D01*
X149593040Y-107797600D01*
X149593040Y-107412850D01*
X162948424Y-107412850D01*
X163120911Y-107830301D01*
X163440019Y-108149967D01*
X163857168Y-108323182D01*
X164218737Y-108323497D01*
X164218424Y-108682850D01*
X164390911Y-109100301D01*
X164710019Y-109419967D01*
X165127168Y-109593182D01*
X165578850Y-109593576D01*
X165996301Y-109421089D01*
X166315967Y-109101981D01*
X166489182Y-108684832D01*
X166489576Y-108233150D01*
X166317089Y-107815699D01*
X165997981Y-107496033D01*
X165580832Y-107322818D01*
X165219263Y-107322503D01*
X165219497Y-107053263D01*
X165578850Y-107053576D01*
X165868246Y-106934000D01*
X170274655Y-106934000D01*
X170400330Y-107565810D01*
X170758222Y-108101433D01*
X171293845Y-108459325D01*
X171925655Y-108585000D01*
X171990345Y-108585000D01*
X172622155Y-108459325D01*
X173157778Y-108101433D01*
X173515670Y-107565810D01*
X173641345Y-106934000D01*
X173515670Y-106302190D01*
X173288501Y-105962208D01*
X173425441Y-105874090D01*
X173570431Y-105661890D01*
X173621440Y-105410000D01*
X173621440Y-103378000D01*
X173577162Y-103142683D01*
X173438090Y-102926559D01*
X173225890Y-102781569D01*
X172974000Y-102730560D01*
X170942000Y-102730560D01*
X170706683Y-102774838D01*
X170490559Y-102913910D01*
X170345569Y-103126110D01*
X170294560Y-103378000D01*
X170294560Y-105410000D01*
X170338838Y-105645317D01*
X170477910Y-105861441D01*
X170626837Y-105963198D01*
X170400330Y-106302190D01*
X170274655Y-106934000D01*
X165868246Y-106934000D01*
X165996301Y-106881089D01*
X166315967Y-106561981D01*
X166489182Y-106144832D01*
X166489576Y-105693150D01*
X166317089Y-105275699D01*
X165997981Y-104956033D01*
X165580832Y-104782818D01*
X165129150Y-104782424D01*
X164711699Y-104954911D01*
X164392033Y-105274019D01*
X164218818Y-105691168D01*
X164218503Y-106052737D01*
X163859150Y-106052424D01*
X163441699Y-106224911D01*
X163122033Y-106544019D01*
X162948818Y-106961168D01*
X162948424Y-107412850D01*
X149593040Y-107412850D01*
X149593040Y-105562400D01*
X149548762Y-105327083D01*
X149409690Y-105110959D01*
X149197490Y-104965969D01*
X148945600Y-104914960D01*
X146710400Y-104914960D01*
X146475083Y-104959238D01*
X146258959Y-105098310D01*
X146113969Y-105310510D01*
X146062960Y-105562400D01*
X145973000Y-105562400D01*
X145973000Y-98925305D01*
X146196674Y-98925305D01*
X146483043Y-99618372D01*
X147012839Y-100149093D01*
X147705405Y-100436672D01*
X148455305Y-100437326D01*
X149148372Y-100150957D01*
X149679093Y-99621161D01*
X149954295Y-98958400D01*
X172478960Y-98958400D01*
X172478960Y-101193600D01*
X172523238Y-101428917D01*
X172662310Y-101645041D01*
X172874510Y-101790031D01*
X173126400Y-101841040D01*
X175361600Y-101841040D01*
X175596917Y-101796762D01*
X175813041Y-101657690D01*
X175958031Y-101445490D01*
X176009040Y-101193600D01*
X176009040Y-98958400D01*
X175964762Y-98723083D01*
X175825690Y-98506959D01*
X175613490Y-98361969D01*
X175361600Y-98310960D01*
X173126400Y-98310960D01*
X172891083Y-98355238D01*
X172674959Y-98494310D01*
X172529969Y-98706510D01*
X172478960Y-98958400D01*
X149954295Y-98958400D01*
X149966672Y-98928595D01*
X149967326Y-98178695D01*
X149680957Y-97485628D01*
X149151161Y-96954907D01*
X148458595Y-96667328D01*
X147708695Y-96666674D01*
X147015628Y-96953043D01*
X146484907Y-97482839D01*
X146197328Y-98175405D01*
X146196674Y-98925305D01*
X145973000Y-98925305D01*
X145973000Y-96443000D01*
X176099000Y-96443000D01*
X176099000Y-116607032D01*
X176099000Y-116607032D01*
G37*
X176099000Y-116607032D02*
X175792433Y-116148222D01*
X175256810Y-115790330D01*
X174625000Y-115664655D01*
X173993190Y-115790330D01*
X173656999Y-116014966D01*
X173639327Y-115972302D01*
X173460699Y-115793673D01*
X173227310Y-115697000D01*
X172370750Y-115697000D01*
X172212000Y-115855750D01*
X172212000Y-117221000D01*
X172232000Y-117221000D01*
X172232000Y-117475000D01*
X172212000Y-117475000D01*
X172212000Y-118840250D01*
X172370750Y-118999000D01*
X173227310Y-118999000D01*
X173460699Y-118902327D01*
X173639327Y-118723698D01*
X173656999Y-118681034D01*
X173993190Y-118905670D01*
X174625000Y-119031345D01*
X175256810Y-118905670D01*
X175792433Y-118547778D01*
X176099000Y-118088968D01*
X176099000Y-124283000D01*
X145973000Y-124283000D01*
X145973000Y-122547305D01*
X172104674Y-122547305D01*
X172391043Y-123240372D01*
X172920839Y-123771093D01*
X173613405Y-124058672D01*
X174363305Y-124059326D01*
X175056372Y-123772957D01*
X175587093Y-123243161D01*
X175874672Y-122550595D01*
X175875326Y-121800695D01*
X175588957Y-121107628D01*
X175059161Y-120576907D01*
X174366595Y-120289328D01*
X173616695Y-120288674D01*
X172923628Y-120575043D01*
X172392907Y-121104839D01*
X172105328Y-121797405D01*
X172104674Y-122547305D01*
X145973000Y-122547305D01*
X145973000Y-118618000D01*
X148430655Y-118618000D01*
X148556330Y-119249810D01*
X148914222Y-119785433D01*
X149449845Y-120143325D01*
X150081655Y-120269000D01*
X150146345Y-120269000D01*
X150778155Y-120143325D01*
X151313778Y-119785433D01*
X151671670Y-119249810D01*
X151797345Y-118618000D01*
X151671670Y-117986190D01*
X151444501Y-117646208D01*
X151463861Y-117633750D01*
X170434000Y-117633750D01*
X170434000Y-118490309D01*
X170530673Y-118723698D01*
X170709301Y-118902327D01*
X170942690Y-118999000D01*
X171799250Y-118999000D01*
X171958000Y-118840250D01*
X171958000Y-117475000D01*
X170592750Y-117475000D01*
X170434000Y-117633750D01*
X151463861Y-117633750D01*
X151581441Y-117558090D01*
X151726431Y-117345890D01*
X151777440Y-117094000D01*
X151777440Y-116205691D01*
X170434000Y-116205691D01*
X170434000Y-117062250D01*
X170592750Y-117221000D01*
X171958000Y-117221000D01*
X171958000Y-115855750D01*
X171799250Y-115697000D01*
X170942690Y-115697000D01*
X170709301Y-115793673D01*
X170530673Y-115972302D01*
X170434000Y-116205691D01*
X151777440Y-116205691D01*
X151777440Y-115062000D01*
X151733162Y-114826683D01*
X151594090Y-114610559D01*
X151381890Y-114465569D01*
X151130000Y-114414560D01*
X149098000Y-114414560D01*
X148862683Y-114458838D01*
X148646559Y-114597910D01*
X148501569Y-114810110D01*
X148450560Y-115062000D01*
X148450560Y-117094000D01*
X148494838Y-117329317D01*
X148633910Y-117545441D01*
X148782837Y-117647198D01*
X148556330Y-117986190D01*
X148430655Y-118618000D01*
X145973000Y-118618000D01*
X145973000Y-105562400D01*
X146062960Y-105562400D01*
X146062960Y-107797600D01*
X146107238Y-108032917D01*
X146246310Y-108249041D01*
X146458510Y-108394031D01*
X146710400Y-108445040D01*
X148945600Y-108445040D01*
X149180917Y-108400762D01*
X149397041Y-108261690D01*
X149542031Y-108049490D01*
X149593040Y-107797600D01*
X149593040Y-107412850D01*
X162948424Y-107412850D01*
X163120911Y-107830301D01*
X163440019Y-108149967D01*
X163857168Y-108323182D01*
X164218737Y-108323497D01*
X164218424Y-108682850D01*
X164390911Y-109100301D01*
X164710019Y-109419967D01*
X165127168Y-109593182D01*
X165578850Y-109593576D01*
X165996301Y-109421089D01*
X166315967Y-109101981D01*
X166489182Y-108684832D01*
X166489576Y-108233150D01*
X166317089Y-107815699D01*
X165997981Y-107496033D01*
X165580832Y-107322818D01*
X165219263Y-107322503D01*
X165219497Y-107053263D01*
X165578850Y-107053576D01*
X165868246Y-106934000D01*
X170274655Y-106934000D01*
X170400330Y-107565810D01*
X170758222Y-108101433D01*
X171293845Y-108459325D01*
X171925655Y-108585000D01*
X171990345Y-108585000D01*
X172622155Y-108459325D01*
X173157778Y-108101433D01*
X173515670Y-107565810D01*
X173641345Y-106934000D01*
X173515670Y-106302190D01*
X173288501Y-105962208D01*
X173425441Y-105874090D01*
X173570431Y-105661890D01*
X173621440Y-105410000D01*
X173621440Y-103378000D01*
X173577162Y-103142683D01*
X173438090Y-102926559D01*
X173225890Y-102781569D01*
X172974000Y-102730560D01*
X170942000Y-102730560D01*
X170706683Y-102774838D01*
X170490559Y-102913910D01*
X170345569Y-103126110D01*
X170294560Y-103378000D01*
X170294560Y-105410000D01*
X170338838Y-105645317D01*
X170477910Y-105861441D01*
X170626837Y-105963198D01*
X170400330Y-106302190D01*
X170274655Y-106934000D01*
X165868246Y-106934000D01*
X165996301Y-106881089D01*
X166315967Y-106561981D01*
X166489182Y-106144832D01*
X166489576Y-105693150D01*
X166317089Y-105275699D01*
X165997981Y-104956033D01*
X165580832Y-104782818D01*
X165129150Y-104782424D01*
X164711699Y-104954911D01*
X164392033Y-105274019D01*
X164218818Y-105691168D01*
X164218503Y-106052737D01*
X163859150Y-106052424D01*
X163441699Y-106224911D01*
X163122033Y-106544019D01*
X162948818Y-106961168D01*
X162948424Y-107412850D01*
X149593040Y-107412850D01*
X149593040Y-105562400D01*
X149548762Y-105327083D01*
X149409690Y-105110959D01*
X149197490Y-104965969D01*
X148945600Y-104914960D01*
X146710400Y-104914960D01*
X146475083Y-104959238D01*
X146258959Y-105098310D01*
X146113969Y-105310510D01*
X146062960Y-105562400D01*
X145973000Y-105562400D01*
X145973000Y-98925305D01*
X146196674Y-98925305D01*
X146483043Y-99618372D01*
X147012839Y-100149093D01*
X147705405Y-100436672D01*
X148455305Y-100437326D01*
X149148372Y-100150957D01*
X149679093Y-99621161D01*
X149954295Y-98958400D01*
X172478960Y-98958400D01*
X172478960Y-101193600D01*
X172523238Y-101428917D01*
X172662310Y-101645041D01*
X172874510Y-101790031D01*
X173126400Y-101841040D01*
X175361600Y-101841040D01*
X175596917Y-101796762D01*
X175813041Y-101657690D01*
X175958031Y-101445490D01*
X176009040Y-101193600D01*
X176009040Y-98958400D01*
X175964762Y-98723083D01*
X175825690Y-98506959D01*
X175613490Y-98361969D01*
X175361600Y-98310960D01*
X173126400Y-98310960D01*
X172891083Y-98355238D01*
X172674959Y-98494310D01*
X172529969Y-98706510D01*
X172478960Y-98958400D01*
X149954295Y-98958400D01*
X149966672Y-98928595D01*
X149967326Y-98178695D01*
X149680957Y-97485628D01*
X149151161Y-96954907D01*
X148458595Y-96667328D01*
X147708695Y-96666674D01*
X147015628Y-96953043D01*
X146484907Y-97482839D01*
X146197328Y-98175405D01*
X146196674Y-98925305D01*
X145973000Y-98925305D01*
X145973000Y-96443000D01*
X176099000Y-96443000D01*
X176099000Y-116607032D01*
M02*
