G04 #@! TF.FileFunction,Legend,Top*
%FSLAX46Y46*%
G04 Gerber Fmt 4.6, Leading zero omitted, Abs format (unit mm)*
G04 Created by KiCad (PCBNEW 0.201508140901+6091~28~ubuntu14.04.1-product) date Fri 18 Sep 2015 07:53:11 PM CEST*
%MOMM*%
G01*
G04 APERTURE LIST*
%ADD10C,0.076200*%
%ADD11C,0.127000*%
%ADD12C,0.150000*%
%ADD13C,0.101600*%
G04 APERTURE END LIST*
D10*
D11*
X147628428Y-122175814D02*
X147265571Y-122175814D01*
X147265571Y-121413814D01*
X147991285Y-122175814D02*
X147918713Y-122139529D01*
X147882428Y-122103243D01*
X147846142Y-122030671D01*
X147846142Y-121812957D01*
X147882428Y-121740386D01*
X147918713Y-121704100D01*
X147991285Y-121667814D01*
X148100142Y-121667814D01*
X148172713Y-121704100D01*
X148208999Y-121740386D01*
X148245285Y-121812957D01*
X148245285Y-122030671D01*
X148208999Y-122103243D01*
X148172713Y-122139529D01*
X148100142Y-122175814D01*
X147991285Y-122175814D01*
X148898428Y-121667814D02*
X148898428Y-122175814D01*
X148571857Y-121667814D02*
X148571857Y-122066957D01*
X148608142Y-122139529D01*
X148680714Y-122175814D01*
X148789571Y-122175814D01*
X148862142Y-122139529D01*
X148898428Y-122103243D01*
X149587857Y-122175814D02*
X149587857Y-121413814D01*
X149587857Y-122139529D02*
X149515286Y-122175814D01*
X149370143Y-122175814D01*
X149297571Y-122139529D01*
X149261286Y-122103243D01*
X149225000Y-122030671D01*
X149225000Y-121812957D01*
X149261286Y-121740386D01*
X149297571Y-121704100D01*
X149370143Y-121667814D01*
X149515286Y-121667814D01*
X149587857Y-121704100D01*
X149950715Y-122175814D02*
X149950715Y-121413814D01*
X150204715Y-121958100D01*
X150458715Y-121413814D01*
X150458715Y-122175814D01*
X150930429Y-122175814D02*
X150857857Y-122139529D01*
X150821572Y-122103243D01*
X150785286Y-122030671D01*
X150785286Y-121812957D01*
X150821572Y-121740386D01*
X150857857Y-121704100D01*
X150930429Y-121667814D01*
X151039286Y-121667814D01*
X151111857Y-121704100D01*
X151148143Y-121740386D01*
X151184429Y-121812957D01*
X151184429Y-122030671D01*
X151148143Y-122103243D01*
X151111857Y-122139529D01*
X151039286Y-122175814D01*
X150930429Y-122175814D01*
X151837572Y-121667814D02*
X151837572Y-122175814D01*
X151511001Y-121667814D02*
X151511001Y-122066957D01*
X151547286Y-122139529D01*
X151619858Y-122175814D01*
X151728715Y-122175814D01*
X151801286Y-122139529D01*
X151837572Y-122103243D01*
X152091572Y-121667814D02*
X152381858Y-121667814D01*
X152200430Y-121413814D02*
X152200430Y-122066957D01*
X152236715Y-122139529D01*
X152309287Y-122175814D01*
X152381858Y-122175814D01*
X152635859Y-122175814D02*
X152635859Y-121413814D01*
X152962430Y-122175814D02*
X152962430Y-121776671D01*
X152926144Y-121704100D01*
X152853573Y-121667814D01*
X152744716Y-121667814D01*
X152672144Y-121704100D01*
X152635859Y-121740386D01*
X148227144Y-123369614D02*
X147973144Y-123006757D01*
X147791716Y-123369614D02*
X147791716Y-122607614D01*
X148082001Y-122607614D01*
X148154573Y-122643900D01*
X148190858Y-122680186D01*
X148227144Y-122752757D01*
X148227144Y-122861614D01*
X148190858Y-122934186D01*
X148154573Y-122970471D01*
X148082001Y-123006757D01*
X147791716Y-123006757D01*
X148844001Y-123333329D02*
X148771430Y-123369614D01*
X148626287Y-123369614D01*
X148553716Y-123333329D01*
X148517430Y-123260757D01*
X148517430Y-122970471D01*
X148553716Y-122897900D01*
X148626287Y-122861614D01*
X148771430Y-122861614D01*
X148844001Y-122897900D01*
X148880287Y-122970471D01*
X148880287Y-123043043D01*
X148517430Y-123115614D01*
X149134287Y-122861614D02*
X149315716Y-123369614D01*
X149497144Y-122861614D01*
X150331715Y-122680186D02*
X150368001Y-122643900D01*
X150440572Y-122607614D01*
X150622001Y-122607614D01*
X150694572Y-122643900D01*
X150730858Y-122680186D01*
X150767143Y-122752757D01*
X150767143Y-122825329D01*
X150730858Y-122934186D01*
X150295429Y-123369614D01*
X150767143Y-123369614D01*
X151456572Y-123369614D02*
X151093715Y-123369614D01*
X151093715Y-122607614D01*
X151710572Y-123297043D02*
X151746857Y-123333329D01*
X151710572Y-123369614D01*
X151674286Y-123333329D01*
X151710572Y-123297043D01*
X151710572Y-123369614D01*
X152472571Y-123369614D02*
X152037143Y-123369614D01*
X152254857Y-123369614D02*
X152254857Y-122607614D01*
X152182286Y-122716471D01*
X152109714Y-122789043D01*
X152037143Y-122825329D01*
X171970096Y-114112524D02*
X172393430Y-115382524D01*
X172816763Y-114112524D01*
X173784382Y-115322048D02*
X173663429Y-115382524D01*
X173421525Y-115382524D01*
X173300572Y-115322048D01*
X173240096Y-115261571D01*
X173179620Y-115140619D01*
X173179620Y-114777762D01*
X173240096Y-114656810D01*
X173300572Y-114596333D01*
X173421525Y-114535857D01*
X173663429Y-114535857D01*
X173784382Y-114596333D01*
X174872953Y-115322048D02*
X174752000Y-115382524D01*
X174510096Y-115382524D01*
X174389143Y-115322048D01*
X174328667Y-115261571D01*
X174268191Y-115140619D01*
X174268191Y-114777762D01*
X174328667Y-114656810D01*
X174389143Y-114596333D01*
X174510096Y-114535857D01*
X174752000Y-114535857D01*
X174872953Y-114596333D01*
X172931667Y-96586524D02*
X173173571Y-96586524D01*
X173294524Y-96647000D01*
X173415476Y-96767952D01*
X173475952Y-97009857D01*
X173475952Y-97433190D01*
X173415476Y-97675095D01*
X173294524Y-97796048D01*
X173173571Y-97856524D01*
X172931667Y-97856524D01*
X172810714Y-97796048D01*
X172689762Y-97675095D01*
X172629286Y-97433190D01*
X172629286Y-97009857D01*
X172689762Y-96767952D01*
X172810714Y-96647000D01*
X172931667Y-96586524D01*
X174564524Y-97009857D02*
X174564524Y-97856524D01*
X174020238Y-97009857D02*
X174020238Y-97675095D01*
X174080714Y-97796048D01*
X174201667Y-97856524D01*
X174383095Y-97856524D01*
X174504047Y-97796048D01*
X174564524Y-97735571D01*
X174987857Y-97009857D02*
X175471667Y-97009857D01*
X175169286Y-96586524D02*
X175169286Y-97675095D01*
X175229762Y-97796048D01*
X175350715Y-97856524D01*
X175471667Y-97856524D01*
X174310524Y-108234238D02*
X174310524Y-107992334D01*
X174371000Y-107871381D01*
X174491952Y-107750429D01*
X174733857Y-107689953D01*
X175157190Y-107689953D01*
X175399095Y-107750429D01*
X175520048Y-107871381D01*
X175580524Y-107992334D01*
X175580524Y-108234238D01*
X175520048Y-108355191D01*
X175399095Y-108476143D01*
X175157190Y-108536619D01*
X174733857Y-108536619D01*
X174491952Y-108476143D01*
X174371000Y-108355191D01*
X174310524Y-108234238D01*
X174733857Y-106601381D02*
X175580524Y-106601381D01*
X174733857Y-107145667D02*
X175399095Y-107145667D01*
X175520048Y-107085191D01*
X175580524Y-106964238D01*
X175580524Y-106782810D01*
X175520048Y-106661858D01*
X175459571Y-106601381D01*
X174733857Y-106178048D02*
X174733857Y-105694238D01*
X174310524Y-105996619D02*
X175399095Y-105996619D01*
X175520048Y-105936143D01*
X175580524Y-105815190D01*
X175580524Y-105694238D01*
X174733857Y-105270905D02*
X176003857Y-105270905D01*
X174794333Y-105270905D02*
X174733857Y-105149953D01*
X174733857Y-104908048D01*
X174794333Y-104787096D01*
X174854810Y-104726619D01*
X174975762Y-104666143D01*
X175338619Y-104666143D01*
X175459571Y-104726619D01*
X175520048Y-104787096D01*
X175580524Y-104908048D01*
X175580524Y-105149953D01*
X175520048Y-105270905D01*
X174733857Y-103577571D02*
X175580524Y-103577571D01*
X174733857Y-104121857D02*
X175399095Y-104121857D01*
X175520048Y-104061381D01*
X175580524Y-103940428D01*
X175580524Y-103759000D01*
X175520048Y-103638048D01*
X175459571Y-103577571D01*
X174733857Y-103154238D02*
X174733857Y-102670428D01*
X174310524Y-102972809D02*
X175399095Y-102972809D01*
X175520048Y-102912333D01*
X175580524Y-102791380D01*
X175580524Y-102670428D01*
X146491476Y-115261571D02*
X147761476Y-115261571D01*
X147338143Y-115866333D02*
X146491476Y-115866333D01*
X147217190Y-115866333D02*
X147277667Y-115926809D01*
X147338143Y-116047762D01*
X147338143Y-116229190D01*
X147277667Y-116350142D01*
X147156714Y-116410619D01*
X146491476Y-116410619D01*
X147338143Y-117015381D02*
X146068143Y-117015381D01*
X147277667Y-117015381D02*
X147338143Y-117136333D01*
X147338143Y-117378238D01*
X147277667Y-117499190D01*
X147217190Y-117559667D01*
X147096238Y-117620143D01*
X146733381Y-117620143D01*
X146612429Y-117559667D01*
X146551952Y-117499190D01*
X146491476Y-117378238D01*
X146491476Y-117136333D01*
X146551952Y-117015381D01*
X147338143Y-118708715D02*
X146491476Y-118708715D01*
X147338143Y-118164429D02*
X146672905Y-118164429D01*
X146551952Y-118224905D01*
X146491476Y-118345858D01*
X146491476Y-118527286D01*
X146551952Y-118648238D01*
X146612429Y-118708715D01*
X147338143Y-119132048D02*
X147338143Y-119615858D01*
X147761476Y-119313477D02*
X146672905Y-119313477D01*
X146551952Y-119373953D01*
X146491476Y-119494906D01*
X146491476Y-119615858D01*
D12*
X153240000Y-109458000D02*
X153240000Y-107458000D01*
X150290000Y-107458000D02*
X150290000Y-109458000D01*
X166829000Y-121142000D02*
X166829000Y-119142000D01*
X163879000Y-119142000D02*
X163879000Y-121142000D01*
X173720000Y-110031000D02*
X171720000Y-110031000D01*
X171720000Y-112981000D02*
X173720000Y-112981000D01*
X167148000Y-101297000D02*
X169148000Y-101297000D01*
X169148000Y-98347000D02*
X167148000Y-98347000D01*
X151384000Y-117348000D02*
X151384000Y-119888000D01*
X151664000Y-114528000D02*
X151664000Y-116078000D01*
X151384000Y-117348000D02*
X148844000Y-117348000D01*
X148564000Y-116078000D02*
X148564000Y-114528000D01*
X148564000Y-114528000D02*
X151664000Y-114528000D01*
X148844000Y-117348000D02*
X148844000Y-119888000D01*
X148844000Y-119888000D02*
X151384000Y-119888000D01*
X173355000Y-116078000D02*
X175895000Y-116078000D01*
X170535000Y-115798000D02*
X172085000Y-115798000D01*
X173355000Y-116078000D02*
X173355000Y-118618000D01*
X172085000Y-118898000D02*
X170535000Y-118898000D01*
X170535000Y-118898000D02*
X170535000Y-115798000D01*
X173355000Y-118618000D02*
X175895000Y-118618000D01*
X175895000Y-118618000D02*
X175895000Y-116078000D01*
X173228000Y-105664000D02*
X173228000Y-108204000D01*
X173508000Y-102844000D02*
X173508000Y-104394000D01*
X173228000Y-105664000D02*
X170688000Y-105664000D01*
X170408000Y-104394000D02*
X170408000Y-102844000D01*
X170408000Y-102844000D02*
X173508000Y-102844000D01*
X170688000Y-105664000D02*
X170688000Y-108204000D01*
X170688000Y-108204000D02*
X173228000Y-108204000D01*
X167054000Y-108888000D02*
X167054000Y-105488000D01*
X167051056Y-108885056D02*
G75*
G02X162954000Y-107188000I-1697056J1697056D01*
G01*
X167051056Y-105490944D02*
G75*
G03X162954000Y-107188000I-1697056J-1697056D01*
G01*
X155286000Y-103491000D02*
X154086000Y-103491000D01*
X154086000Y-101741000D02*
X155286000Y-101741000D01*
X155335000Y-113630000D02*
X155335000Y-112430000D01*
X157085000Y-112430000D02*
X157085000Y-113630000D01*
X156880000Y-106313000D02*
X158080000Y-106313000D01*
X158080000Y-108063000D02*
X156880000Y-108063000D01*
X161636000Y-99554000D02*
X160436000Y-99554000D01*
X160436000Y-97804000D02*
X161636000Y-97804000D01*
X161890000Y-103237000D02*
X160690000Y-103237000D01*
X160690000Y-101487000D02*
X161890000Y-101487000D01*
X163922000Y-114413000D02*
X162722000Y-114413000D01*
X162722000Y-112663000D02*
X163922000Y-112663000D01*
X159653000Y-120488000D02*
X159653000Y-119288000D01*
X161403000Y-119288000D02*
X161403000Y-120488000D01*
X149378000Y-105130000D02*
X149378000Y-106680000D01*
X146278000Y-106680000D02*
X146278000Y-105130000D01*
X146278000Y-105130000D02*
X149378000Y-105130000D01*
X146558000Y-107950000D02*
X149098000Y-107950000D01*
X175794000Y-98526000D02*
X175794000Y-100076000D01*
X172694000Y-100076000D02*
X172694000Y-98526000D01*
X172694000Y-98526000D02*
X175794000Y-98526000D01*
X172974000Y-101346000D02*
X175514000Y-101346000D01*
D13*
X151021143Y-112903000D02*
X151057429Y-112939286D01*
X151093714Y-113048143D01*
X151093714Y-113120714D01*
X151057429Y-113229571D01*
X150984857Y-113302143D01*
X150912286Y-113338428D01*
X150767143Y-113374714D01*
X150658286Y-113374714D01*
X150513143Y-113338428D01*
X150440571Y-113302143D01*
X150368000Y-113229571D01*
X150331714Y-113120714D01*
X150331714Y-113048143D01*
X150368000Y-112939286D01*
X150404286Y-112903000D01*
X151093714Y-112177286D02*
X151093714Y-112612714D01*
X151093714Y-112395000D02*
X150331714Y-112395000D01*
X150440571Y-112467571D01*
X150513143Y-112540143D01*
X150549429Y-112612714D01*
X168326143Y-120269000D02*
X168362429Y-120305286D01*
X168398714Y-120414143D01*
X168398714Y-120486714D01*
X168362429Y-120595571D01*
X168289857Y-120668143D01*
X168217286Y-120704428D01*
X168072143Y-120740714D01*
X167963286Y-120740714D01*
X167818143Y-120704428D01*
X167745571Y-120668143D01*
X167673000Y-120595571D01*
X167636714Y-120486714D01*
X167636714Y-120414143D01*
X167673000Y-120305286D01*
X167709286Y-120269000D01*
X167709286Y-119978714D02*
X167673000Y-119942428D01*
X167636714Y-119869857D01*
X167636714Y-119688428D01*
X167673000Y-119615857D01*
X167709286Y-119579571D01*
X167781857Y-119543286D01*
X167854429Y-119543286D01*
X167963286Y-119579571D01*
X168398714Y-120015000D01*
X168398714Y-119543286D01*
X168402000Y-111016143D02*
X168365714Y-111052429D01*
X168256857Y-111088714D01*
X168184286Y-111088714D01*
X168075429Y-111052429D01*
X168002857Y-110979857D01*
X167966572Y-110907286D01*
X167930286Y-110762143D01*
X167930286Y-110653286D01*
X167966572Y-110508143D01*
X168002857Y-110435571D01*
X168075429Y-110363000D01*
X168184286Y-110326714D01*
X168256857Y-110326714D01*
X168365714Y-110363000D01*
X168402000Y-110399286D01*
X168656000Y-110326714D02*
X169127714Y-110326714D01*
X168873714Y-110617000D01*
X168982572Y-110617000D01*
X169055143Y-110653286D01*
X169091429Y-110689571D01*
X169127714Y-110762143D01*
X169127714Y-110943571D01*
X169091429Y-111016143D01*
X169055143Y-111052429D01*
X168982572Y-111088714D01*
X168764857Y-111088714D01*
X168692286Y-111052429D01*
X168656000Y-111016143D01*
X168021000Y-97554143D02*
X167984714Y-97590429D01*
X167875857Y-97626714D01*
X167803286Y-97626714D01*
X167694429Y-97590429D01*
X167621857Y-97517857D01*
X167585572Y-97445286D01*
X167549286Y-97300143D01*
X167549286Y-97191286D01*
X167585572Y-97046143D01*
X167621857Y-96973571D01*
X167694429Y-96901000D01*
X167803286Y-96864714D01*
X167875857Y-96864714D01*
X167984714Y-96901000D01*
X168021000Y-96937286D01*
X168674143Y-97118714D02*
X168674143Y-97626714D01*
X168492714Y-96828429D02*
X168311286Y-97372714D01*
X168783000Y-97372714D01*
X168202429Y-109637286D02*
X168129857Y-109601000D01*
X168057286Y-109528429D01*
X167948429Y-109419571D01*
X167875857Y-109383286D01*
X167803286Y-109383286D01*
X167839571Y-109564714D02*
X167767000Y-109528429D01*
X167694429Y-109455857D01*
X167658143Y-109310714D01*
X167658143Y-109056714D01*
X167694429Y-108911571D01*
X167767000Y-108839000D01*
X167839571Y-108802714D01*
X167984714Y-108802714D01*
X168057286Y-108839000D01*
X168129857Y-108911571D01*
X168166143Y-109056714D01*
X168166143Y-109310714D01*
X168129857Y-109455857D01*
X168057286Y-109528429D01*
X167984714Y-109564714D01*
X167839571Y-109564714D01*
X168891857Y-109564714D02*
X168456429Y-109564714D01*
X168674143Y-109564714D02*
X168674143Y-108802714D01*
X168601572Y-108911571D01*
X168529000Y-108984143D01*
X168456429Y-109020429D01*
X152781000Y-101182714D02*
X152527000Y-100819857D01*
X152345572Y-101182714D02*
X152345572Y-100420714D01*
X152635857Y-100420714D01*
X152708429Y-100457000D01*
X152744714Y-100493286D01*
X152781000Y-100565857D01*
X152781000Y-100674714D01*
X152744714Y-100747286D01*
X152708429Y-100783571D01*
X152635857Y-100819857D01*
X152345572Y-100819857D01*
X153506714Y-101182714D02*
X153071286Y-101182714D01*
X153289000Y-101182714D02*
X153289000Y-100420714D01*
X153216429Y-100529571D01*
X153143857Y-100602143D01*
X153071286Y-100638429D01*
X157189714Y-116840000D02*
X156826857Y-117094000D01*
X157189714Y-117275428D02*
X156427714Y-117275428D01*
X156427714Y-116985143D01*
X156464000Y-116912571D01*
X156500286Y-116876286D01*
X156572857Y-116840000D01*
X156681714Y-116840000D01*
X156754286Y-116876286D01*
X156790571Y-116912571D01*
X156826857Y-116985143D01*
X156826857Y-117275428D01*
X156500286Y-116549714D02*
X156464000Y-116513428D01*
X156427714Y-116440857D01*
X156427714Y-116259428D01*
X156464000Y-116186857D01*
X156500286Y-116150571D01*
X156572857Y-116114286D01*
X156645429Y-116114286D01*
X156754286Y-116150571D01*
X157189714Y-116586000D01*
X157189714Y-116114286D01*
X155829000Y-105627714D02*
X155575000Y-105264857D01*
X155393572Y-105627714D02*
X155393572Y-104865714D01*
X155683857Y-104865714D01*
X155756429Y-104902000D01*
X155792714Y-104938286D01*
X155829000Y-105010857D01*
X155829000Y-105119714D01*
X155792714Y-105192286D01*
X155756429Y-105228571D01*
X155683857Y-105264857D01*
X155393572Y-105264857D01*
X156083000Y-104865714D02*
X156554714Y-104865714D01*
X156300714Y-105156000D01*
X156409572Y-105156000D01*
X156482143Y-105192286D01*
X156518429Y-105228571D01*
X156554714Y-105301143D01*
X156554714Y-105482571D01*
X156518429Y-105555143D01*
X156482143Y-105591429D01*
X156409572Y-105627714D01*
X156191857Y-105627714D01*
X156119286Y-105591429D01*
X156083000Y-105555143D01*
X160909000Y-96923714D02*
X160655000Y-96560857D01*
X160473572Y-96923714D02*
X160473572Y-96161714D01*
X160763857Y-96161714D01*
X160836429Y-96198000D01*
X160872714Y-96234286D01*
X160909000Y-96306857D01*
X160909000Y-96415714D01*
X160872714Y-96488286D01*
X160836429Y-96524571D01*
X160763857Y-96560857D01*
X160473572Y-96560857D01*
X161562143Y-96415714D02*
X161562143Y-96923714D01*
X161380714Y-96125429D02*
X161199286Y-96669714D01*
X161671000Y-96669714D01*
X164719000Y-103468714D02*
X164465000Y-103105857D01*
X164283572Y-103468714D02*
X164283572Y-102706714D01*
X164573857Y-102706714D01*
X164646429Y-102743000D01*
X164682714Y-102779286D01*
X164719000Y-102851857D01*
X164719000Y-102960714D01*
X164682714Y-103033286D01*
X164646429Y-103069571D01*
X164573857Y-103105857D01*
X164283572Y-103105857D01*
X165408429Y-102706714D02*
X165045572Y-102706714D01*
X165009286Y-103069571D01*
X165045572Y-103033286D01*
X165118143Y-102997000D01*
X165299572Y-102997000D01*
X165372143Y-103033286D01*
X165408429Y-103069571D01*
X165444714Y-103142143D01*
X165444714Y-103323571D01*
X165408429Y-103396143D01*
X165372143Y-103432429D01*
X165299572Y-103468714D01*
X165118143Y-103468714D01*
X165045572Y-103432429D01*
X165009286Y-103396143D01*
X166878000Y-113882714D02*
X166624000Y-113519857D01*
X166442572Y-113882714D02*
X166442572Y-113120714D01*
X166732857Y-113120714D01*
X166805429Y-113157000D01*
X166841714Y-113193286D01*
X166878000Y-113265857D01*
X166878000Y-113374714D01*
X166841714Y-113447286D01*
X166805429Y-113483571D01*
X166732857Y-113519857D01*
X166442572Y-113519857D01*
X167531143Y-113120714D02*
X167386000Y-113120714D01*
X167313429Y-113157000D01*
X167277143Y-113193286D01*
X167204572Y-113302143D01*
X167168286Y-113447286D01*
X167168286Y-113737571D01*
X167204572Y-113810143D01*
X167240857Y-113846429D01*
X167313429Y-113882714D01*
X167458572Y-113882714D01*
X167531143Y-113846429D01*
X167567429Y-113810143D01*
X167603714Y-113737571D01*
X167603714Y-113556143D01*
X167567429Y-113483571D01*
X167531143Y-113447286D01*
X167458572Y-113411000D01*
X167313429Y-113411000D01*
X167240857Y-113447286D01*
X167204572Y-113483571D01*
X167168286Y-113556143D01*
X159094714Y-120015000D02*
X158731857Y-120269000D01*
X159094714Y-120450428D02*
X158332714Y-120450428D01*
X158332714Y-120160143D01*
X158369000Y-120087571D01*
X158405286Y-120051286D01*
X158477857Y-120015000D01*
X158586714Y-120015000D01*
X158659286Y-120051286D01*
X158695571Y-120087571D01*
X158731857Y-120160143D01*
X158731857Y-120450428D01*
X158332714Y-119761000D02*
X158332714Y-119253000D01*
X159094714Y-119579571D01*
X146739429Y-103595714D02*
X147174858Y-103595714D01*
X146957144Y-104357714D02*
X146957144Y-103595714D01*
X147428858Y-104357714D02*
X147428858Y-103595714D01*
X147719143Y-103595714D01*
X147791715Y-103632000D01*
X147828000Y-103668286D01*
X147864286Y-103740857D01*
X147864286Y-103849714D01*
X147828000Y-103922286D01*
X147791715Y-103958571D01*
X147719143Y-103994857D01*
X147428858Y-103994857D01*
X148590000Y-104357714D02*
X148154572Y-104357714D01*
X148372286Y-104357714D02*
X148372286Y-103595714D01*
X148299715Y-103704571D01*
X148227143Y-103777143D01*
X148154572Y-103813429D01*
M02*
