G04 #@! TF.FileFunction,Legend,Bot*
%FSLAX46Y46*%
G04 Gerber Fmt 4.6, Leading zero omitted, Abs format (unit mm)*
G04 Created by KiCad (PCBNEW 0.201508140901+6091~28~ubuntu14.04.1-product) date Fri 18 Sep 2015 07:53:11 PM CEST*
%MOMM*%
G01*
G04 APERTURE LIST*
%ADD10C,0.076200*%
%ADD11C,0.254000*%
G04 APERTURE END LIST*
D10*
D11*
X166448620Y-113604524D02*
X167053382Y-113604524D01*
X167053382Y-112334524D01*
X165843858Y-113604524D02*
X165964811Y-113544048D01*
X166025287Y-113483571D01*
X166085763Y-113362619D01*
X166085763Y-112999762D01*
X166025287Y-112878810D01*
X165964811Y-112818333D01*
X165843858Y-112757857D01*
X165662430Y-112757857D01*
X165541478Y-112818333D01*
X165481001Y-112878810D01*
X165420525Y-112999762D01*
X165420525Y-113362619D01*
X165481001Y-113483571D01*
X165541478Y-113544048D01*
X165662430Y-113604524D01*
X165843858Y-113604524D01*
X164331953Y-112757857D02*
X164331953Y-113604524D01*
X164876239Y-112757857D02*
X164876239Y-113423095D01*
X164815763Y-113544048D01*
X164694810Y-113604524D01*
X164513382Y-113604524D01*
X164392430Y-113544048D01*
X164331953Y-113483571D01*
X163182905Y-113604524D02*
X163182905Y-112334524D01*
X163182905Y-113544048D02*
X163303858Y-113604524D01*
X163545762Y-113604524D01*
X163666715Y-113544048D01*
X163727191Y-113483571D01*
X163787667Y-113362619D01*
X163787667Y-112999762D01*
X163727191Y-112878810D01*
X163666715Y-112818333D01*
X163545762Y-112757857D01*
X163303858Y-112757857D01*
X163182905Y-112818333D01*
X162578143Y-113604524D02*
X162578143Y-112334524D01*
X162154810Y-113241667D01*
X161731476Y-112334524D01*
X161731476Y-113604524D01*
X160945285Y-113604524D02*
X161066238Y-113544048D01*
X161126714Y-113483571D01*
X161187190Y-113362619D01*
X161187190Y-112999762D01*
X161126714Y-112878810D01*
X161066238Y-112818333D01*
X160945285Y-112757857D01*
X160763857Y-112757857D01*
X160642905Y-112818333D01*
X160582428Y-112878810D01*
X160521952Y-112999762D01*
X160521952Y-113362619D01*
X160582428Y-113483571D01*
X160642905Y-113544048D01*
X160763857Y-113604524D01*
X160945285Y-113604524D01*
X159433380Y-112757857D02*
X159433380Y-113604524D01*
X159977666Y-112757857D02*
X159977666Y-113423095D01*
X159917190Y-113544048D01*
X159796237Y-113604524D01*
X159614809Y-113604524D01*
X159493857Y-113544048D01*
X159433380Y-113483571D01*
X159010047Y-112757857D02*
X158526237Y-112757857D01*
X158828618Y-112334524D02*
X158828618Y-113423095D01*
X158768142Y-113544048D01*
X158647189Y-113604524D01*
X158526237Y-113604524D01*
X158102904Y-113604524D02*
X158102904Y-112334524D01*
X157558618Y-113604524D02*
X157558618Y-112939286D01*
X157619095Y-112818333D01*
X157740047Y-112757857D01*
X157921475Y-112757857D01*
X158042428Y-112818333D01*
X158102904Y-112878810D01*
X165450762Y-115636524D02*
X165874095Y-115031762D01*
X166176476Y-115636524D02*
X166176476Y-114366524D01*
X165692667Y-114366524D01*
X165571714Y-114427000D01*
X165511238Y-114487476D01*
X165450762Y-114608429D01*
X165450762Y-114789857D01*
X165511238Y-114910810D01*
X165571714Y-114971286D01*
X165692667Y-115031762D01*
X166176476Y-115031762D01*
X164422667Y-115576048D02*
X164543619Y-115636524D01*
X164785524Y-115636524D01*
X164906476Y-115576048D01*
X164966952Y-115455095D01*
X164966952Y-114971286D01*
X164906476Y-114850333D01*
X164785524Y-114789857D01*
X164543619Y-114789857D01*
X164422667Y-114850333D01*
X164362190Y-114971286D01*
X164362190Y-115092238D01*
X164966952Y-115213190D01*
X163938857Y-114789857D02*
X163636476Y-115636524D01*
X163334096Y-114789857D01*
X161943143Y-114487476D02*
X161882667Y-114427000D01*
X161761715Y-114366524D01*
X161459334Y-114366524D01*
X161338381Y-114427000D01*
X161277905Y-114487476D01*
X161217429Y-114608429D01*
X161217429Y-114729381D01*
X161277905Y-114910810D01*
X162003619Y-115636524D01*
X161217429Y-115636524D01*
X160068381Y-115636524D02*
X160673143Y-115636524D01*
X160673143Y-114366524D01*
X159645048Y-115515571D02*
X159584572Y-115576048D01*
X159645048Y-115636524D01*
X159705524Y-115576048D01*
X159645048Y-115515571D01*
X159645048Y-115636524D01*
X158375048Y-115636524D02*
X159100762Y-115636524D01*
X158737905Y-115636524D02*
X158737905Y-114366524D01*
X158858857Y-114547952D01*
X158979810Y-114668905D01*
X159100762Y-114729381D01*
M02*
